999
dxfrw 0.6.3
  0
SECTION
  2
HEADER
  9
$ACADVER
  1
AC1021
  9
$DWGCODEPAGE
  3
ANSI_1252
  9
$INSBASE
 10
0
 20
0
 30
0
  9
$EXTMIN
 10
-150.57782
 20
-178.96075
 30
0
  9
$EXTMAX
 10
407.66763
 20
426.76079
 30
0
  9
$LIMMIN
 10
0
 20
0
  9
$LIMMAX
 10
420
 20
297
  9
$ORTHOMODE
 70
    0
  9
$REGENMODE
 70
    1
  9
$FILLMODE
 70
    1
  9
$QTEXTMODE
 70
    0
  9
$MIRRTEXT
 70
    0
  9
$LTSCALE
 40
1
  9
$ATTMODE
 70
    0
  9
$TEXTSIZE
 40
2.5
  9
$TRACEWID
 40
15.68
  9
$TEXTSTYLE
  7
STANDARD
  9
$CLAYER
  8
0
  9
$CELTYPE
  6
BYLAYER
  9
$CECOLOR
 62
  256
  9
$CELTSCALE
 40
1
  9
$DISPSILH
 70
    0
  9
$DIMSCALE
 40
2.5
  9
$DIMASZ
 40
2.5
  9
$DIMEXO
 40
0.625
  9
$DIMDLI
 40
3.75
  9
$DIMRND
 40
0
  9
$DIMDLE
 40
0
  9
$DIMEXE
 40
1.25
  9
$DIMTP
 40
0
  9
$DIMTM
 40
0
  9
$DIMTXT
 40
2.5
  9
$DIMCEN
 40
2.5
  9
$DIMTSZ
 40
0
  9
$DIMTOL
 70
    0
  9
$DIMLIM
 70
    0
  9
$DIMTIH
 70
    0
  9
$DIMTOH
 70
    0
  9
$DIMSE1
 70
    0
  9
$DIMSE2
 70
    0
  9
$DIMTAD
 70
    1
  9
$DIMZIN
 70
    8
  9
$DIMBLK
  1

  9
$DIMASO
 70
    1
  9
$DIMSHO
 70
    1
  9
$DIMPOST
  1

  9
$DIMAPOST
  1

  9
$DIMALT
 70
    0
  9
$DIMALTD
 70
    3
  9
$DIMALTF
 40
0.03937
  9
$DIMLFAC
 40
1
  9
$DIMTOFL
 70
    1
  9
$DIMTVP
 40
0
  9
$DIMTIX
 70
    0
  9
$DIMSOXD
 70
    0
  9
$DIMSAH
 70
    0
  9
$DIMBLK1
  1

  9
$DIMBLK2
  1

  9
$DIMSTYLE
  2
Standard
  9
$DIMCLRD
 70
    0
  9
$DIMCLRE
 70
    0
  9
$DIMCLRT
 70
    0
  9
$DIMTFAC
 40
1
  9
$DIMGAP
 40
0.625
  9
$DIMJUST
 70
    0
  9
$DIMSD1
 70
    0
  9
$DIMSD2
 70
    0
  9
$DIMTOLJ
 70
    0
  9
$DIMTZIN
 70
    8
  9
$DIMALTZ
 70
    0
  9
$DIMALTTZ
 70
    0
  9
$DIMUPT
 70
    0
  9
$DIMDEC
 70
    2
  9
$DIMTDEC
 70
    2
  9
$DIMALTU
 70
    2
  9
$DIMALTTD
 70
    3
  9
$DIMTXSTY
  7
STANDARD
  9
$DIMAUNIT
 70
    0
  9
$DIMADEC
 70
    0
  9
$DIMALTRND
 40
0
  9
$DIMAZIN
 70
    0
  9
$DIMDSEP
 70
   44
  9
$DIMATFIT
 70
    3
  9
$DIMFRAC
 70
    0
  9
$DIMLDRBLK
  1
STANDARD
  9
$DIMLUNIT
 70
    2
  9
$DIMLWD
 70
   -2
  9
$DIMLWE
 70
   -2
  9
$DIMTMOVE
 70
    0
  9
$DIMFXL
 40
1
  9
$DIMFXLON
 70
    0
  9
$DIMJOGANG
 40
0.7854
  9
$DIMTFILL
 70
    0
  9
$DIMTFILLCLR
 70
    0
  9
$DIMARCSYM
 70
    0
  9
$DIMLTYPE
  6

  9
$DIMLTEX1
  6

  9
$DIMLTEX2
  6

  9
$LUNITS
 70
    2
  9
$LUPREC
 70
    4
  9
$SKETCHINC
 40
1
  9
$FILLETRAD
 40
0
  9
$AUNITS
 70
    0
  9
$AUPREC
 70
    2
  9
$MENU
  1
.
  9
$ELEVATION
 40
0
  9
$PELEVATION
 40
0
  9
$THICKNESS
 40
0
  9
$LIMCHECK
 70
    0
  9
$CHAMFERA
 40
0
  9
$CHAMFERB
 40
0
  9
$CHAMFERC
 40
0
  9
$CHAMFERD
 40
0
  9
$SKPOLY
 70
    0
  9
$USRTIMER
 70
    1
  9
$ANGBASE
 50
0
  9
$ANGDIR
 70
    0
  9
$PDMODE
 70
   34
  9
$PDSIZE
 40
0
  9
$PLINEWID
 40
0
  9
$SPLFRAME
 70
    0
  9
$SPLINETYPE
 70
    2
  9
$SPLINESEGS
 70
    8
  9
$HANDSEED
  5
20000
  9
$SURFTAB1
 70
    6
  9
$SURFTAB2
 70
    6
  9
$SURFTYPE
 70
    6
  9
$SURFU
 70
    6
  9
$SURFV
 70
    6
  9
$UCSBASE
  2

  9
$UCSNAME
  2

  9
$UCSORG
 10
0
 20
0
 30
0
  9
$UCSXDIR
 10
1
 20
0
 30
0
  9
$UCSYDIR
 10
0
 20
1
 30
0
  9
$UCSORTHOREF
  2

  9
$UCSORTHOVIEW
 70
    0
  9
$UCSORGTOP
 10
0
 20
0
 30
0
  9
$UCSORGBOTTOM
 10
0
 20
0
 30
0
  9
$UCSORGLEFT
 10
0
 20
0
 30
0
  9
$UCSORGRIGHT
 10
0
 20
0
 30
0
  9
$UCSORGFRONT
 10
0
 20
0
 30
0
  9
$UCSORGBACK
 10
0
 20
0
 30
0
  9
$PUCSBASE
  2

  9
$PUCSNAME
  2

  9
$PUCSORG
 10
0
 20
0
 30
0
  9
$PUCSXDIR
 10
1
 20
0
 30
0
  9
$PUCSYDIR
 10
0
 20
1
 30
0
  9
$PUCSORTHOREF
  2

  9
$PUCSORTHOVIEW
 70
    0
  9
$PUCSORGTOP
 10
0
 20
0
 30
0
  9
$PUCSORGBOTTOM
 10
0
 20
0
 30
0
  9
$PUCSORGLEFT
 10
0
 20
0
 30
0
  9
$PUCSORGRIGHT
 10
0
 20
0
 30
0
  9
$PUCSORGFRONT
 10
0
 20
0
 30
0
  9
$PUCSORGBACK
 10
0
 20
0
 30
0
  9
$USERI1
 70
    0
  9
$USERI2
 70
    0
  9
$USERI3
 70
    0
  9
$USERI4
 70
    0
  9
$USERI5
 70
    0
  9
$USERR1
 40
0
  9
$USERR2
 40
0
  9
$USERR3
 40
0
  9
$USERR4
 40
0
  9
$USERR5
 40
0
  9
$WORLDVIEW
 70
    1
  9
$SHADEDGE
 70
    3
  9
$SHADEDIF
 70
   70
  9
$TILEMODE
 70
    1
  9
$MAXACTVP
 70
   64
  9
$PINSBASE
 10
0
 20
0
 30
0
  9
$PLIMCHECK
 70
    0
  9
$PEXTMIN
 10
0
 20
0
 30
0
  9
$PEXTMAX
 10
0
 20
0
 30
0
  9
$GRIDMODE
 70
    0
  9
$SNAPSTYLE
 70
    0
  9
$PLIMMIN
 10
0
 20
0
  9
$PLIMMAX
 10
210
 20
297
  9
$UNITMODE
 70
    0
  9
$VISRETAIN
 70
    1
  9
$PLINEGEN
 70
    0
  9
$PSLTSCALE
 70
    1
  9
$TREEDEPTH
 70
 3020
  9
$CMLSTYLE
  2
Standard
  9
$CMLJUST
 70
    0
  9
$CMLSCALE
 40
20
  9
$PROXYGRAPHICS
 70
    1
  9
$MEASUREMENT
 70
    1
  9
$CELWEIGHT
370
   -1
  9
$ENDCAPS
280
    0
  9
$JOINSTYLE
280
    0
  9
$LWDISPLAY
290
    0
  9
$INSUNITS
 70
    4
  9
$HYPERLINKBASE
  1

  9
$STYLESHEET
  1

  9
$XEDIT
290
    1
  9
$CEPSNTYPE
380
    0
  9
$PSTYLEMODE
290
    1
  9
$EXTNAMES
290
    1
  9
$PSVPSCALE
 40
1
  9
$OLESTARTUP
290
    0
  9
$SORTENTS
280
  127
  9
$INDEXCTL
280
    0
  9
$HIDETEXT
280
    1
  9
$XCLIPFRAME
290
    0
  9
$HALOGAP
280
    0
  9
$OBSCOLOR
 70
  257
  9
$OBSLTYPE
280
    0
  9
$INTERSECTIONDISPLAY
280
    0
  9
$INTERSECTIONCOLOR
 70
  257
  9
$DIMASSOC
280
    1
  9
$PROJECTNAME
  1

  9
$CAMERADISPLAY
290
    0
  9
$LENSLENGTH
 40
50
  9
$CAMERAHEIGHT
 40
0
  9
$STEPSPERSEC
 40
2
  9
$STEPSIZE
 40
50
  9
$3DDWFPREC
 40
2
  9
$PSOLWIDTH
 40
5
  9
$PSOLHEIGHT
 40
80
  9
$LOFTANG1
 40
1.570796326794897
  9
$LOFTANG2
 40
1.570796326794897
  9
$LOFTMAG1
 40
0
  9
$LOFTMAG2
 40
0
  9
$LOFTPARAM
 70
    7
  9
$LOFTNORMALS
280
    1
  9
$LATITUDE
 40
1
  9
$LONGITUDE
 40
1
  9
$NORTHDIRECTION
 40
0
  9
$TIMEZONE
 70
-8000
  9
$LIGHTGLYPHDISPLAY
280
    1
  9
$TILEMODELIGHTSYNCH
280
    1
  9
$SOLIDHIST
280
    1
  9
$SHOWHIST
280
    1
  9
$DWFFRAME
280
    2
  9
$DGNFRAME
280
    0
  9
$REALWORLDSCALE
290
    1
  9
$INTERFERECOLOR
 62
    1
  9
$CSHADOW
280
    0
  9
$SHADOWPLANELOCATION
 40
0
  0
ENDSEC
  0
SECTION
  2
CLASSES
  0
ENDSEC
  0
SECTION
  2
TABLES
  0
TABLE
  2
VPORT
  5
8
330
0
100
AcDbSymbolTable
 70
    1
  0
VPORT
  5
31
330
2
100
AcDbSymbolTableRecord
100
AcDbViewportTableRecord
  2
*ACTIVE
 70
    0
 10
0
 20
0
 11
1
 21
1
 12
264.5601851851852
 22
175.1851851851852
 13
0
 23
0
 14
10
 24
10
 15
10
 25
10
 16
0
 26
0
 36
1
 17
0
 27
0
 37
0
 40
418.1018518518518
 41
1.802679658952497
 42
50
 43
0
 44
0
 50
0
 51
0
 71
    0
 72
  100
 73
    1
 74
    3
 75
    0
 76
    0
 77
    0
 78
    0
281
    0
 65
    1
110
0
120
0
130
0
111
1
121
0
131
0
112
0
122
1
132
0
 79
    0
146
0
348
10020
 60
    7
 61
    5
292
1
282
    1
141
0
142
0
 63
  250
421
3358443
  0
ENDTAB
  0
TABLE
  2
LTYPE
  5
5
330
0
100
AcDbSymbolTable
 70
    4
  0
LTYPE
  5
14
330
5
100
AcDbSymbolTableRecord
100
AcDbLinetypeTableRecord
  2
ByBlock
 70
    0
  3

 72
   65
 73
    0
 40
0
  0
LTYPE
  5
15
330
5
100
AcDbSymbolTableRecord
100
AcDbLinetypeTableRecord
  2
ByLayer
 70
    0
  3

 72
   65
 73
    0
 40
0
  0
LTYPE
  5
16
330
5
100
AcDbSymbolTableRecord
100
AcDbLinetypeTableRecord
  2
Continuous
 70
    0
  3
Solid line
 72
   65
 73
    0
 40
0
  0
LTYPE
  5
32
330
5
100
AcDbSymbolTableRecord
100
AcDbLinetypeTableRecord
  2
DOT
 70
    0
  3
Dot . . . . . . . . . . . . . . . . . . . . . .
 72
   65
 73
    2
 40
6.35
 49
0
 74
    0
 49
-6.35
 74
    0
  0
LTYPE
  5
33
330
5
100
AcDbSymbolTableRecord
100
AcDbLinetypeTableRecord
  2
DOTTINY
 70
    0
  3
Dot (.15x) .....................................
 72
   65
 73
    2
 40
0.9525
 49
0
 74
    0
 49
-0.9525
 74
    0
  0
LTYPE
  5
34
330
5
100
AcDbSymbolTableRecord
100
AcDbLinetypeTableRecord
  2
DOT2
 70
    0
  3
Dot (.5x) .....................................
 72
   65
 73
    2
 40
3.175
 49
0
 74
    0
 49
-3.175
 74
    0
  0
LTYPE
  5
35
330
5
100
AcDbSymbolTableRecord
100
AcDbLinetypeTableRecord
  2
DOTX2
 70
    0
  3
Dot (2x) .  .  .  .  .  .  .  .  .  .  .  .  .
 72
   65
 73
    2
 40
12.7
 49
0
 74
    0
 49
-12.7
 74
    0
  0
LTYPE
  5
36
330
5
100
AcDbSymbolTableRecord
100
AcDbLinetypeTableRecord
  2
DASHED
 70
    0
  3
Dashed _ _ _ _ _ _ _ _ _ _ _ _ _ _ _ _ _
 72
   65
 73
    2
 40
19.05
 49
12.7
 74
    0
 49
-6.35
 74
    0
  0
LTYPE
  5
37
330
5
100
AcDbSymbolTableRecord
100
AcDbLinetypeTableRecord
  2
DASHEDTINY
 70
    0
  3
Dashed (.15x) _ _ _ _ _ _ _ _ _ _ _ _ _ _ _ _ _
 72
   65
 73
    2
 40
2.8575
 49
1.905
 74
    0
 49
-0.9525
 74
    0
  0
LTYPE
  5
38
330
5
100
AcDbSymbolTableRecord
100
AcDbLinetypeTableRecord
  2
DASHED2
 70
    0
  3
Dashed (.5x) _ _ _ _ _ _ _ _ _ _ _ _ _ _ _ _ _
 72
   65
 73
    2
 40
9.524999999999999
 49
6.35
 74
    0
 49
-3.175
 74
    0
  0
LTYPE
  5
39
330
5
100
AcDbSymbolTableRecord
100
AcDbLinetypeTableRecord
  2
DASHEDX2
 70
    0
  3
Dashed (2x) ____  ____  ____  ____  ____  ___
 72
   65
 73
    2
 40
38.09999999999999
 49
25.4
 74
    0
 49
-12.7
 74
    0
  0
LTYPE
  5
3A
330
5
100
AcDbSymbolTableRecord
100
AcDbLinetypeTableRecord
  2
DASHDOT
 70
    0
  3
Dash dot __ . __ . __ . __ . __ . __ . __ . __
 72
   65
 73
    4
 40
25.4
 49
12.7
 74
    0
 49
-6.35
 74
    0
 49
0
 74
    0
 49
-6.35
 74
    0
  0
LTYPE
  5
3B
330
5
100
AcDbSymbolTableRecord
100
AcDbLinetypeTableRecord
  2
DASHDOTTINY
 70
    0
  3
Dash dot (.15x) _._._._._._._._._._._._._._._.
 72
   65
 73
    4
 40
3.81
 49
1.905
 74
    0
 49
-0.9525
 74
    0
 49
0
 74
    0
 49
-0.9525
 74
    0
  0
LTYPE
  5
3C
330
5
100
AcDbSymbolTableRecord
100
AcDbLinetypeTableRecord
  2
DASHDOT2
 70
    0
  3
Dash dot (.5x) _._._._._._._._._._._._._._._.
 72
   65
 73
    4
 40
12.7
 49
6.35
 74
    0
 49
-3.175
 74
    0
 49
0
 74
    0
 49
-3.175
 74
    0
  0
LTYPE
  5
3D
330
5
100
AcDbSymbolTableRecord
100
AcDbLinetypeTableRecord
  2
DASHDOTX2
 70
    0
  3
Dash dot (2x) ____  .  ____  .  ____  .  ___
 72
   65
 73
    4
 40
50.8
 49
25.4
 74
    0
 49
-12.7
 74
    0
 49
0
 74
    0
 49
-12.7
 74
    0
  0
LTYPE
  5
3E
330
5
100
AcDbSymbolTableRecord
100
AcDbLinetypeTableRecord
  2
DIVIDE
 70
    0
  3
Divide ____ . . ____ . . ____ . . ____ . . ____
 72
   65
 73
    6
 40
31.75
 49
12.7
 74
    0
 49
-6.35
 74
    0
 49
0
 74
    0
 49
-6.35
 74
    0
 49
0
 74
    0
 49
-6.35
 74
    0
  0
LTYPE
  5
3F
330
5
100
AcDbSymbolTableRecord
100
AcDbLinetypeTableRecord
  2
DIVIDETINY
 70
    0
  3
Divide (.15x) __..__..__..__..__..__..__..__.._
 72
   65
 73
    6
 40
4.7625
 49
1.905
 74
    0
 49
-0.9525
 74
    0
 49
0
 74
    0
 49
-0.9525
 74
    0
 49
0
 74
    0
 49
-0.9525
 74
    0
  0
LTYPE
  5
40
330
5
100
AcDbSymbolTableRecord
100
AcDbLinetypeTableRecord
  2
DIVIDE2
 70
    0
  3
Divide (.5x) __..__..__..__..__..__..__..__.._
 72
   65
 73
    6
 40
15.875
 49
6.35
 74
    0
 49
-3.175
 74
    0
 49
0
 74
    0
 49
-3.175
 74
    0
 49
0
 74
    0
 49
-3.175
 74
    0
  0
LTYPE
  5
41
330
5
100
AcDbSymbolTableRecord
100
AcDbLinetypeTableRecord
  2
DIVIDEX2
 70
    0
  3
Divide (2x) ________  .  .  ________  .  .  _
 72
   65
 73
    6
 40
63.5
 49
25.4
 74
    0
 49
-12.7
 74
    0
 49
0
 74
    0
 49
-12.7
 74
    0
 49
0
 74
    0
 49
-12.7
 74
    0
  0
LTYPE
  5
42
330
5
100
AcDbSymbolTableRecord
100
AcDbLinetypeTableRecord
  2
BORDER
 70
    0
  3
Border __ __ . __ __ . __ __ . __ __ . __ __ .
 72
   65
 73
    6
 40
44.45
 49
12.7
 74
    0
 49
-6.35
 74
    0
 49
12.7
 74
    0
 49
-6.35
 74
    0
 49
0
 74
    0
 49
-6.35
 74
    0
  0
LTYPE
  5
43
330
5
100
AcDbSymbolTableRecord
100
AcDbLinetypeTableRecord
  2
BORDERTINY
 70
    0
  3
Border (.15x) __.__.__.__.__.__.__.__.__.__.__.
 72
   65
 73
    6
 40
6.6675
 49
1.905
 74
    0
 49
-0.9525
 74
    0
 49
1.905
 74
    0
 49
-0.9525
 74
    0
 49
0
 74
    0
 49
-0.9525
 74
    0
  0
LTYPE
  5
44
330
5
100
AcDbSymbolTableRecord
100
AcDbLinetypeTableRecord
  2
BORDER2
 70
    0
  3
Border (.5x) __.__.__.__.__.__.__.__.__.__.__.
 72
   65
 73
    6
 40
22.225
 49
6.35
 74
    0
 49
-3.175
 74
    0
 49
6.35
 74
    0
 49
-3.175
 74
    0
 49
0
 74
    0
 49
-3.175
 74
    0
  0
LTYPE
  5
45
330
5
100
AcDbSymbolTableRecord
100
AcDbLinetypeTableRecord
  2
BORDERX2
 70
    0
  3
Border (2x) ____  ____  .  ____  ____  .  ___
 72
   65
 73
    6
 40
88.89999999999999
 49
25.4
 74
    0
 49
-12.7
 74
    0
 49
25.4
 74
    0
 49
-12.7
 74
    0
 49
0
 74
    0
 49
-12.7
 74
    0
  0
LTYPE
  5
46
330
5
100
AcDbSymbolTableRecord
100
AcDbLinetypeTableRecord
  2
CENTER
 70
    0
  3
Center ____ _ ____ _ ____ _ ____ _ ____ _ ____
 72
   65
 73
    4
 40
50.8
 49
31.75
 74
    0
 49
-6.35
 74
    0
 49
6.35
 74
    0
 49
-6.35
 74
    0
  0
LTYPE
  5
47
330
5
100
AcDbSymbolTableRecord
100
AcDbLinetypeTableRecord
  2
CENTERTINY
 70
    0
  3
Center (.15x) ___ _ ___ _ ___ _ ___ _ ___ _ ___
 72
   65
 73
    4
 40
7.619999999999999
 49
4.7625
 74
    0
 49
-0.9525
 74
    0
 49
0.9525
 74
    0
 49
-0.9525
 74
    0
  0
LTYPE
  5
48
330
5
100
AcDbSymbolTableRecord
100
AcDbLinetypeTableRecord
  2
CENTER2
 70
    0
  3
Center (.5x) ___ _ ___ _ ___ _ ___ _ ___ _ ___
 72
   65
 73
    4
 40
28.575
 49
19.05
 74
    0
 49
-3.175
 74
    0
 49
3.175
 74
    0
 49
-3.175
 74
    0
  0
LTYPE
  5
49
330
5
100
AcDbSymbolTableRecord
100
AcDbLinetypeTableRecord
  2
CENTERX2
 70
    0
  3
Center (2x) ________  __  ________  __  _____
 72
   65
 73
    4
 40
101.6
 49
63.5
 74
    0
 49
-12.7
 74
    0
 49
12.7
 74
    0
 49
-12.7
 74
    0
  0
ENDTAB
  0
TABLE
  2
LAYER
  5
2
330
0
100
AcDbSymbolTable
 70
    1
  0
LAYER
  5
10
330
2
100
AcDbSymbolTableRecord
100
AcDbLayerTableRecord
  2
0
 70
    0
 62
    7
  6
CONTINUOUS
370
   -3
390
F
  0
LAYER
  5
4A
330
2
100
AcDbSymbolTableRecord
100
AcDbLayerTableRecord
  2
Layer_1
 70
    0
 62
    7
  6
CONTINUOUS
370
   -3
390
F
  0
LAYER
  5
4B
330
2
100
AcDbSymbolTableRecord
100
AcDbLayerTableRecord
  2
construction
 70
    0
 62
    7
  6
CONTINUOUS
370
   -3
390
F
  0
LAYER
  5
4C
330
2
100
AcDbSymbolTableRecord
100
AcDbLayerTableRecord
  2
labels
 70
    0
 62
    7
  6
CONTINUOUS
370
   -3
390
F
  0
ENDTAB
  0
TABLE
  2
STYLE
  5
3
330
0
100
AcDbSymbolTable
 70
    3
  0
STYLE
  5
4D
330
2
100
AcDbSymbolTableRecord
100
AcDbTextStyleTableRecord
  2
Standard
 70
    0
 40
0
 41
1
 50
0
 71
    0
 42
1
  3
txt
  4

  0
ENDTAB
  0
TABLE
  2
VIEW
  5
6
330
0
100
AcDbSymbolTable
 70
    0
  0
ENDTAB
  0
TABLE
  2
UCS
  5
7
330
0
100
AcDbSymbolTable
 70
    0
  0
ENDTAB
  0
TABLE
  2
APPID
  5
9
330
0
100
AcDbSymbolTable
 70
    1
  0
APPID
  5
12
330
9
100
AcDbSymbolTableRecord
100
AcDbRegAppTableRecord
  2
ACAD
 70
    0
  0
APPID
  5
4E
330
9
100
AcDbSymbolTableRecord
100
AcDbRegAppTableRecord
  2
LibreCad
 70
    0
  0
ENDTAB
  0
TABLE
  2
DIMSTYLE
  5
A
330
0
100
AcDbSymbolTable
 70
    1
100
AcDbDimStyleTable
 71
    1
  0
DIMSTYLE
105
4F
330
A
100
AcDbSymbolTableRecord
100
AcDbDimStyleTableRecord
  2
Standard
 70
    0
 40
1
 41
2.5
 42
0.625
 43
0.38
 44
1.25
 45
0
 46
0
 47
0
 48
0
 49
1
140
2.5
141
0.09
142
2.5
143
25.4
144
1
145
0
146
1
147
0.625
148
0
 71
    0
 72
    0
 73
    0
 74
    1
 75
    0
 76
    0
 77
    0
 78
    1
 79
    0
170
    0
171
    2
172
    0
173
    0
174
    0
175
    0
176
    0
177
    0
178
    0
179
    0
271
    2
272
    4
273
    2
274
    2
275
    0
276
    0
277
    2
278
    0
279
    0
280
    0
281
    0
282
    0
283
    1
284
    0
285
    0
286
    0
288
    0
289
    3
340
standard
341

371
   -2
372
   -2
  0
ENDTAB
  0
TABLE
  2
BLOCK_RECORD
  5
1
330
0
100
AcDbSymbolTable
 70
    2
  0
BLOCK_RECORD
  5
1F
330
1
100
AcDbSymbolTableRecord
100
AcDbBlockTableRecord
  2
*Model_Space
 70
    0
280
    1
281
    0
  0
BLOCK_RECORD
  5
1E
330
1
100
AcDbSymbolTableRecord
100
AcDbBlockTableRecord
  2
*Paper_Space
 70
    0
280
    1
281
    0
  0
ENDTAB
  0
ENDSEC
  0
SECTION
  2
BLOCKS
  0
BLOCK
  5
20
330
1F
100
AcDbEntity
  8
0
100
AcDbBlockBegin
  2
*Model_Space
 70
    0
 10
0
 20
0
 30
0
  3
*Model_Space
  1

  0
ENDBLK
  5
21
330
1F
100
AcDbEntity
  8
0
100
AcDbBlockEnd
  0
BLOCK
  5
1C
330
1B
100
AcDbEntity
  8
0
100
AcDbBlockBegin
  2
*Paper_Space
 70
    0
 10
0
 20
0
 30
0
  3
*Paper_Space
  1

  0
ENDBLK
  5
1D
330
1F
100
AcDbEntity
  8
0
100
AcDbBlockEnd
  0
ENDSEC
  0
SECTION
  2
ENTITIES
  0
LWPOLYLINE
  5
50
100
AcDbEntity
  8
Layer_1
  6
ByLayer
 62
    7
370
   -1
100
AcDbPolyline
 90
   14
 70
    0
 43
0
 10
400.66763
 20
163.89264
 10
394.23906
 20
163.89264
 10
394.23906
 20
163.89264
 10
380.81049
 20
163.89264
 10
380.81049
 20
163.89264
 10
367.38191
 20
163.89264
 10
367.38191
 20
163.89264
 10
353.95334
 20
163.89264
 10
353.95334
 20
163.89264
 10
340.52477
 20
163.89264
 10
340.52477
 20
163.89264
 10
327.0962
 20
163.89264
 10
327.0962
 20
163.89264
 10
320.66763
 20
163.89264
  0
LWPOLYLINE
  5
51
100
AcDbEntity
  8
Layer_1
  6
ByLayer
 62
    7
370
   -1
100
AcDbPolyline
 90
   18
 70
    0
 43
0
 10
400.66763
 20
278.892633
 10
400.66763
 20
271.5593
 10
407.66763
 20
271.5593
 10
407.66763
 20
257.225966
 10
400.66763
 20
257.225966
 10
400.66763
 20
242.892633
 10
407.66763
 20
242.892633
 10
407.66763
 20
228.5593
 10
400.66763
 20
228.5593
 10
400.66763
 20
214.225966
 10
407.66763
 20
214.225966
 10
407.66763
 20
199.892633
 10
400.66763
 20
199.892633
 10
400.66763
 20
185.5593
 10
407.66763
 20
185.5593
 10
407.66763
 20
171.22597
 10
400.66763
 20
171.22597
 10
400.66763
 20
163.89264
  0
LWPOLYLINE
  5
52
100
AcDbEntity
  8
Layer_1
  6
ByLayer
 62
    7
370
   -1
100
AcDbPolyline
 90
   14
 70
    0
 43
0
 10
320.66763
 20
278.892633
 10
327.0962
 20
278.892633
 10
327.0962
 20
278.892633
 10
340.52477
 20
278.892633
 10
340.52477
 20
278.892633
 10
353.95334
 20
278.892633
 10
353.95334
 20
278.892633
 10
367.38191
 20
278.892633
 10
367.38191
 20
278.892633
 10
380.81049
 20
278.892633
 10
380.81049
 20
278.892633
 10
394.23906
 20
278.892633
 10
394.23906
 20
278.892633
 10
400.66763
 20
278.892633
  0
LWPOLYLINE
  5
53
100
AcDbEntity
  8
Layer_1
  6
ByLayer
 62
    7
370
   -1
100
AcDbPolyline
 90
   18
 70
    0
 43
0
 10
320.66763
 20
163.89264
 10
320.66763
 20
171.22597
 10
313.66763
 20
171.22597
 10
313.66763
 20
185.5593
 10
320.66763
 20
185.5593
 10
320.66763
 20
199.892633
 10
313.66763
 20
199.892633
 10
313.66763
 20
214.225966
 10
320.66763
 20
214.225966
 10
320.66763
 20
228.5593
 10
313.66763
 20
228.5593
 10
313.66763
 20
242.892633
 10
320.66763
 20
242.892633
 10
320.66763
 20
257.225966
 10
313.66763
 20
257.225966
 10
313.66763
 20
271.5593
 10
320.66763
 20
271.5593
 10
320.66763
 20
278.892633
  0
LWPOLYLINE
  5
54
100
AcDbEntity
  8
Layer_1
  6
ByLayer
 62
    7
370
   -1
100
AcDbPolyline
 90
   42
 70
    1
 43
0
 10
210.7824
 20
426.76079
 10
210.7824
 20
419.76067
 10
210.7824
 20
339.760761
 10
210.7824
 20
332.760668
 10
224.30096
 20
332.760668
 10
224.30096
 20
339.760761
 10
237.81899
 20
339.760761
 10
237.81899
 20
332.760668
 10
251.33703
 20
332.760668
 10
251.33703
 20
339.760761
 10
264.85507
 20
339.760761
 10
264.85507
 20
332.760668
 10
278.37363
 20
332.760668
 10
278.37363
 20
339.760761
 10
291.89166
 20
339.760761
 10
291.89166
 20
332.760668
 10
305.4097
 20
332.760668
 10
305.4097
 20
346.189313
 10
298.40962
 20
346.189313
 10
298.40962
 20
359.617438
 10
305.4097
 20
359.617438
 10
305.4097
 20
373.046074
 10
298.40962
 20
373.046074
 10
298.40962
 20
386.474713
 10
305.4097
 20
386.474713
 10
305.4097
 20
399.90337
 10
298.40962
 20
399.90337
 10
298.40962
 20
413.33208
 10
305.4097
 20
413.33208
 10
305.4097
 20
426.76079
 10
291.89166
 20
426.76079
 10
291.89166
 20
419.76067
 10
278.37363
 20
419.76067
 10
278.37363
 20
426.76079
 10
264.85507
 20
426.76079
 10
264.85507
 20
419.76067
 10
251.33703
 20
419.76067
 10
251.33703
 20
426.76079
 10
237.81899
 20
426.76079
 10
237.81899
 20
419.76067
 10
224.30096
 20
419.76067
 10
224.30096
 20
426.76079
  0
LWPOLYLINE
  5
55
100
AcDbEntity
  8
Layer_1
  6
ByLayer
 62
    7
370
   -1
100
AcDbPolyline
 90
    4
 70
    1
 43
0
 10
393.0813
 20
217.105515
 10
387.37245
 20
217.105515
 10
387.37245
 20
225.679761
 10
393.0813
 20
225.679761
  0
LWPOLYLINE
  5
56
100
AcDbEntity
  8
Layer_1
  6
ByLayer
 62
    7
370
   -1
100
AcDbPolyline
 90
   32
 70
    1
 43
0
 10
20.03857
 20
109.069871
 10
20.03857
 20
94.736379
 10
27.038659
 20
94.736379
 10
27.038659
 20
80.40340500000001
 10
20.03857
 20
80.40340500000001
 10
20.03857
 20
66.069913
 10
27.038659
 20
66.069913
 10
27.038659
 20
51.73642
 10
20.03857
 20
51.73642
 10
20.03857
 20
37.402928
 10
27.038659
 20
37.402928
 10
27.038659
 20
23.069946
 10
20.03857
 20
23.069946
 10
20.03857
 20
8.736462
 10
27.038659
 20
8.736462
 10
107.038427
 20
8.736462
 10
114.038516
 20
8.736462
 10
114.038516
 20
23.069946
 10
107.038427
 20
23.069946
 10
107.038427
 20
37.402928
 10
114.038516
 20
37.402928
 10
114.038516
 20
51.73642
 10
107.038427
 20
51.73642
 10
107.038427
 20
66.069913
 10
114.038516
 20
66.069913
 10
114.038516
 20
80.40340500000001
 10
107.038427
 20
80.40340500000001
 10
107.038427
 20
94.736379
 10
114.038516
 20
94.736379
 10
114.038516
 20
109.069871
 10
107.038427
 20
109.069871
 10
27.038659
 20
109.069871
  0
LWPOLYLINE
  5
57
100
AcDbEntity
  8
Layer_1
  6
ByLayer
 62
    7
370
   -1
100
AcDbPolyline
 90
    4
 70
    1
 43
0
 10
60.307947
 20
104.326493
 10
73.768624
 20
104.326493
 10
73.768624
 20
92.855874
 10
60.307947
 20
92.855874
  0
LWPOLYLINE
  5
58
100
AcDbEntity
  8
Layer_1
  6
ByLayer
 62
    7
370
   -1
100
AcDbPolyline
 90
    4
 70
    1
 43
0
 10
36.930562
 20
99.21310800000001
 10
48.873502
 20
99.21310800000001
 10
48.873502
 20
18.593223
 10
36.930562
 20
18.593223
  0
LWPOLYLINE
  5
59
100
AcDbEntity
  8
Layer_1
  6
ByLayer
 62
    7
370
   -1
100
AcDbPolyline
 90
    4
 70
    1
 43
0
 10
85.20306600000001
 20
99.21310800000001
 10
97.146524
 20
99.21310800000001
 10
97.146524
 20
18.593223
 10
85.20306600000001
 20
18.593223
  0
LWPOLYLINE
  5
5A
100
AcDbEntity
  8
Layer_1
  6
ByLayer
 62
    7
370
   -1
100
AcDbPolyline
 90
    4
 70
    1
 43
0
 10
59.462003
 20
77.627347
 10
74.6156
 20
77.627347
 10
74.6156
 20
40.178987
 10
59.462003
 20
40.178987
  0
LWPOLYLINE
  5
5B
100
AcDbEntity
  8
Layer_1
  6
ByLayer
 62
    7
370
   -1
100
AcDbPolyline
 90
    4
 70
    1
 43
0
 10
60.307947
 20
24.950446
 10
73.768624
 20
24.950446
 10
73.768624
 20
13.479833
 10
60.307947
 20
13.479833
  0
LWPOLYLINE
  5
5C
100
AcDbEntity
  8
Layer_1
  6
ByLayer
 62
    7
370
   -1
100
AcDbPolyline
 90
   62
 70
    1
 43
0
 10
62.825621
 20
287.923551
 10
62.825621
 20
287.829501
 10
56.397074
 20
287.829501
 10
56.397074
 20
280.923462
 10
56.397074
 20
273.59006
 10
49.396985
 20
273.59006
 10
49.396985
 20
259.256569
 10
56.397074
 20
259.256569
 10
56.397074
 20
244.923077
 10
49.396985
 20
244.923077
 10
49.396985
 20
230.5901
 10
56.397074
 20
230.5901
 10
56.397074
 20
216.256608
 10
49.396985
 20
216.256608
 10
49.396985
 20
201.923118
 10
56.397074
 20
201.923118
 10
56.397074
 20
187.590142
 10
49.396985
 20
187.590142
 10
49.396985
 20
173.256649
 10
56.397074
 20
173.256649
 10
56.397074
 20
165.923249
 10
62.825621
 20
165.923249
 10
62.825621
 20
158.92316
 10
76.25374100000001
 20
158.92316
 10
76.25374100000001
 20
165.923249
 10
89.68237999999999
 20
165.923249
 10
89.68237999999999
 20
158.92316
 10
103.111018
 20
158.92316
 10
103.111018
 20
165.923249
 10
116.539654
 20
165.923249
 10
116.539654
 20
158.92316
 10
129.968293
 20
158.92316
 10
129.968293
 20
165.923249
 10
136.396839
 20
165.923249
 10
136.396839
 20
173.256649
 10
143.396931
 20
173.256649
 10
143.396931
 20
187.590142
 10
136.396839
 20
187.590142
 10
136.396839
 20
201.923118
 10
143.396931
 20
201.923118
 10
143.396931
 20
216.256608
 10
136.396839
 20
216.256608
 10
136.396839
 20
230.5901
 10
143.396931
 20
230.5901
 10
143.396931
 20
244.923077
 10
136.396839
 20
244.923077
 10
136.396839
 20
259.256569
 10
143.396931
 20
259.256569
 10
143.396931
 20
273.59006
 10
136.396839
 20
273.59006
 10
136.396839
 20
280.923462
 10
136.396839
 20
287.829501
 10
129.968293
 20
287.829501
 10
129.968293
 20
287.923551
 10
116.539654
 20
287.923551
 10
116.539654
 20
287.829501
 10
103.111018
 20
287.829501
 10
103.111018
 20
287.923551
 10
89.68237999999999
 20
287.923551
 10
89.68237999999999
 20
287.829501
 10
76.25374100000001
 20
287.829501
 10
76.25374100000001
 20
287.923551
  0
LWPOLYLINE
  5
5D
100
AcDbEntity
  8
Layer_1
  6
ByLayer
 62
    7
370
   -1
100
AcDbPolyline
 90
    4
 70
    1
 43
0
 10
74.76064
 20
269.878926
 10
74.76064
 20
176.96769
 10
64.19298999999999
 20
176.96769
 10
64.19298999999999
 20
269.878926
  0
LWPOLYLINE
  5
5E
100
AcDbEntity
  8
Layer_1
  6
ByLayer
 62
    7
370
   -1
100
AcDbPolyline
 90
    4
 70
    1
 43
0
 10
92.70732
 20
269.878926
 10
92.70732
 20
176.96769
 10
82.13967
 20
176.96769
 10
82.13967
 20
269.878926
  0
LWPOLYLINE
  5
5F
100
AcDbEntity
  8
Layer_1
  6
ByLayer
 62
    7
370
   -1
100
AcDbPolyline
 90
    4
 70
    1
 43
0
 10
110.65402
 20
269.878926
 10
110.65402
 20
176.96769
 10
100.08638
 20
176.96769
 10
100.08638
 20
269.878926
  0
LWPOLYLINE
  5
60
100
AcDbEntity
  8
Layer_1
  6
ByLayer
 62
    7
370
   -1
100
AcDbPolyline
 90
    4
 70
    1
 43
0
 10
128.60071
 20
269.878934
 10
128.60071
 20
176.9677
 10
118.03306
 20
176.9677
 10
118.03306
 20
269.878934
  0
LWPOLYLINE
  5
61
100
AcDbEntity
  8
Layer_1
  6
ByLayer
 62
    7
370
   -1
100
AcDbPolyline
 90
    4
 70
    1
 43
0
 10
249.10645
 20
-100.50751
 10
249.10645
 20
-130.45836
 10
234.65559
 20
-130.45836
 10
234.65559
 20
-100.50751
  0
LWPOLYLINE
  5
62
100
AcDbEntity
  8
Layer_1
  6
ByLayer
 62
    7
370
   -1
100
AcDbPolyline
 90
   14
 70
    0
 43
0
 10
312.79143
 20
-56.48727
 10
319.22
 20
-56.48727
 10
319.22
 20
-49.48727
 10
332.64857
 20
-49.48727
 10
332.64857
 20
-56.48727
 10
346.07714
 20
-56.48727
 10
346.07714
 20
-49.48727
 10
359.50572
 20
-49.48727
 10
359.50572
 20
-56.48727
 10
372.93429
 20
-56.48727
 10
372.93429
 20
-49.48727
 10
386.36286
 20
-49.48727
 10
386.36286
 20
-56.48727
 10
392.79143
 20
-56.48727
  0
LWPOLYLINE
  5
63
100
AcDbEntity
  8
Layer_1
  6
ByLayer
 62
    7
370
   -1
100
AcDbPolyline
 90
   18
 70
    0
 43
0
 10
312.79143
 20
-171.48727
 10
312.79143
 20
-164.15393
 10
305.79143
 20
-164.15393
 10
305.79143
 20
-149.8206
 10
312.79143
 20
-149.8206
 10
312.79143
 20
-135.48727
 10
305.79143
 20
-135.48727
 10
305.79143
 20
-121.15393
 10
312.79143
 20
-121.15393
 10
312.79143
 20
-106.8206
 10
305.79143
 20
-106.8206
 10
305.79143
 20
-92.48727
 10
312.79143
 20
-92.48727
 10
312.79143
 20
-78.15393
 10
305.79143
 20
-78.15393
 10
305.79143
 20
-63.8206
 10
312.79143
 20
-63.8206
 10
312.79143
 20
-56.48727
  0
LWPOLYLINE
  5
64
100
AcDbEntity
  8
Layer_1
  6
ByLayer
 62
    7
370
   -1
100
AcDbPolyline
 90
   14
 70
    0
 43
0
 10
392.79143
 20
-171.48727
 10
386.36286
 20
-171.48727
 10
386.36286
 20
-178.48727
 10
372.93429
 20
-178.48727
 10
372.93429
 20
-171.48727
 10
359.50572
 20
-171.48727
 10
359.50572
 20
-178.48727
 10
346.07714
 20
-178.48727
 10
346.07714
 20
-171.48727
 10
332.64857
 20
-171.48727
 10
332.64857
 20
-178.48727
 10
319.22
 20
-178.48727
 10
319.22
 20
-171.48727
 10
312.79143
 20
-171.48727
  0
LWPOLYLINE
  5
65
100
AcDbEntity
  8
Layer_1
  6
ByLayer
 62
    7
370
   -1
100
AcDbPolyline
 90
   18
 70
    0
 43
0
 10
392.79143
 20
-56.48727
 10
392.79143
 20
-63.8206
 10
399.79143
 20
-63.8206
 10
399.79143
 20
-78.15393
 10
392.79143
 20
-78.15393
 10
392.79143
 20
-92.48727
 10
399.79143
 20
-92.48727
 10
399.79143
 20
-106.8206
 10
392.79143
 20
-106.8206
 10
392.79143
 20
-121.15393
 10
399.79143
 20
-121.15393
 10
399.79143
 20
-135.48727
 10
392.79143
 20
-135.48727
 10
392.79143
 20
-149.8206
 10
399.79143
 20
-149.8206
 10
399.79143
 20
-164.15393
 10
392.79143
 20
-164.15393
 10
392.79143
 20
-171.48727
  0
LWPOLYLINE
  5
66
100
AcDbEntity
  8
Layer_1
  6
ByLayer
 62
    7
370
   -1
100
AcDbPolyline
 90
    4
 70
    1
 43
0
 10
382.99069
 20
-67.52231999999999
 10
382.99069
 20
-160.45223
 10
376.3856
 20
-160.45223
 10
376.3856
 20
-67.52231999999999
  0
LWPOLYLINE
  5
67
100
AcDbEntity
  8
Layer_1
  6
ByLayer
 62
    7
370
   -1
100
AcDbPolyline
 90
    4
 70
    1
 43
0
 10
369.54232
 20
-67.52231999999999
 10
369.54232
 20
-160.45223
 10
362.93724
 20
-160.45223
 10
362.93724
 20
-67.52231999999999
  0
LWPOLYLINE
  5
68
100
AcDbEntity
  8
Layer_1
  6
ByLayer
 62
    7
370
   -1
100
AcDbPolyline
 90
    4
 70
    1
 43
0
 10
356.09397
 20
-67.52231999999999
 10
356.09397
 20
-160.45223
 10
349.48888
 20
-160.45223
 10
349.48888
 20
-67.52231999999999
  0
LWPOLYLINE
  5
69
100
AcDbEntity
  8
Layer_1
  6
ByLayer
 62
    7
370
   -1
100
AcDbPolyline
 90
    4
 70
    1
 43
0
 10
342.6456
 20
-67.52231999999999
 10
342.6456
 20
-160.45223
 10
336.04052
 20
-160.45223
 10
336.04052
 20
-67.52231999999999
  0
LWPOLYLINE
  5
6A
100
AcDbEntity
  8
Layer_1
  6
ByLayer
 62
    7
370
   -1
100
AcDbPolyline
 90
    4
 70
    1
 43
0
 10
329.19725
 20
-67.52231999999999
 10
329.19725
 20
-160.45223
 10
322.59217
 20
-160.45223
 10
322.59217
 20
-67.52231999999999
  0
LWPOLYLINE
  5
6B
100
AcDbEntity
  8
Layer_1
  6
ByLayer
 62
    7
370
   -1
100
AcDbPolyline
 90
   12
 70
    1
 43
0
 10
-42.325908
 20
111.21849
 10
-42.325908
 20
104.17396
 10
-48.105918
 20
104.17396
 10
-48.105918
 20
24.17419
 10
-42.325908
 20
24.17419
 10
-42.325908
 20
17.17669
 10
-29.336528
 20
17.17669
 10
-29.336528
 20
24.17419
 10
-23.556518
 20
24.17419
 10
-23.556518
 20
104.17447
 10
-29.336528
 20
104.17447
 10
-29.336528
 20
111.21849
  0
LWPOLYLINE
  5
6C
100
AcDbEntity
  8
Layer_1
  6
ByLayer
 62
    7
370
   -1
100
AcDbPolyline
 90
   12
 70
    1
 43
0
 10
-68.95047700000001
 20
111.21849
 10
-68.95047700000001
 20
104.17396
 10
-74.730487
 20
104.17396
 10
-74.730487
 20
24.17419
 10
-68.95047700000001
 20
24.17419
 10
-68.95047700000001
 20
17.17669
 10
-55.961098
 20
17.17669
 10
-55.961098
 20
24.17419
 10
-50.181098
 20
24.17419
 10
-50.181098
 20
104.17447
 10
-55.961098
 20
104.17447
 10
-55.961098
 20
111.21849
  0
LWPOLYLINE
  5
6D
100
AcDbEntity
  8
Layer_1
  6
ByLayer
 62
    7
370
   -1
100
AcDbPolyline
 90
   12
 70
    1
 43
0
 10
-95.575063
 20
111.21849
 10
-95.575063
 20
104.17396
 10
-101.35507
 20
104.17396
 10
-101.35507
 20
24.17419
 10
-95.575063
 20
24.17419
 10
-95.575063
 20
17.17669
 10
-82.585683
 20
17.17669
 10
-82.585683
 20
24.17419
 10
-76.805673
 20
24.17419
 10
-76.805673
 20
104.17447
 10
-82.585683
 20
104.17447
 10
-82.585683
 20
111.21849
  0
LWPOLYLINE
  5
6E
100
AcDbEntity
  8
Layer_1
  6
ByLayer
 62
    7
370
   -1
100
AcDbPolyline
 90
   12
 70
    1
 43
0
 10
-15.701318
 20
111.21849
 10
-15.701318
 20
104.17396
 10
-21.481328
 20
104.17396
 10
-21.481328
 20
24.17419
 10
-15.701318
 20
24.17419
 10
-15.701318
 20
17.17669
 10
-2.711938
 20
17.17669
 10
-2.711938
 20
24.17419
 10
3.068072
 20
24.17419
 10
3.068072
 20
104.17447
 10
-2.711938
 20
104.17447
 10
-2.711938
 20
111.21849
  0
LWPOLYLINE
  5
6F
100
AcDbEntity
  8
Layer_1
  6
ByLayer
 62
    7
370
   -1
100
AcDbPolyline
 90
   42
 70
    1
 43
0
 10
207.04998
 20
-46.99995
 10
207.04998
 20
-39.99986
 10
207.04998
 20
39.99991
 10
207.04998
 20
46.99999
 10
220.56854
 20
46.99999
 10
220.56854
 20
39.99991
 10
234.08657
 20
39.99991
 10
234.08657
 20
46.99999
 10
247.60461
 20
46.99999
 10
247.60461
 20
39.99991
 10
261.12265
 20
39.99991
 10
261.12265
 20
46.99999
 10
274.64121
 20
46.99999
 10
274.64121
 20
39.99991
 10
288.15924
 20
39.99991
 10
288.15924
 20
46.99999
 10
301.67728
 20
46.99999
 10
301.67728
 20
33.57136
 10
294.6772
 20
33.57136
 10
294.6772
 20
20.14324
 10
301.67728
 20
20.14324
 10
301.67728
 20
6.7146
 10
294.6772
 20
6.7146
 10
294.6772
 20
-6.71404
 10
301.67728
 20
-6.71404
 10
301.67728
 20
-20.14268
 10
294.6772
 20
-20.14268
 10
294.6772
 20
-33.57131
 10
301.67728
 20
-33.57131
 10
301.67728
 20
-46.99995
 10
288.15924
 20
-46.99995
 10
288.15924
 20
-39.99986
 10
274.64121
 20
-39.99986
 10
274.64121
 20
-46.99995
 10
261.12265
 20
-46.99995
 10
261.12265
 20
-39.99986
 10
247.60461
 20
-39.99986
 10
247.60461
 20
-46.99995
 10
234.08657
 20
-46.99995
 10
234.08657
 20
-39.99986
 10
220.56854
 20
-39.99986
 10
220.56854
 20
-46.99995
  0
LWPOLYLINE
  5
70
100
AcDbEntity
  8
Layer_1
  6
ByLayer
 62
    7
370
   -1
100
AcDbPolyline
 90
    4
 70
    1
 43
0
 10
208.95129
 20
184.1305
 10
208.95129
 20
169.79717
 10
215.9513
 20
169.79717
 10
215.9513
 20
184.1305
  0
LWPOLYLINE
  5
71
100
AcDbEntity
  8
Layer_1
  6
ByLayer
 62
    7
370
   -1
100
AcDbPolyline
 90
    4
 70
    1
 43
0
 10
208.95129
 20
212.79717
 10
208.95129
 20
198.46383
 10
215.9513
 20
198.46383
 10
215.9513
 20
212.79717
  0
LWPOLYLINE
  5
72
100
AcDbEntity
  8
Layer_1
  6
ByLayer
 62
    7
370
   -1
100
AcDbPolyline
 90
    4
 70
    1
 43
0
 10
208.95129
 20
241.46384
 10
208.95129
 20
227.1305
 10
215.9513
 20
227.1305
 10
215.9513
 20
241.46384
  0
SPLINE
  5
73
100
AcDbEntity
  8
Layer_1
  6
ByLayer
 62
    7
370
   -1
100
AcDbSpline
210
0
220
0
230
0
 70
    8
 71
    3
 72
    8
 73
    4
 74
    0
 42
1e-07
 43
1e-07
 40
0
 40
0
 40
0
 40
0
 40
1
 40
1
 40
1
 40
1
 10
173.425589
 20
303.570141
 30
0
 10
164.080888
 20
303.56991
 30
0
 10
156.505641
 20
295.548829
 30
0
 10
156.505691
 20
285.65444
 30
0
  0
SPLINE
  5
74
100
AcDbEntity
  8
Layer_1
  6
ByLayer
 62
    7
370
   -1
100
AcDbSpline
210
0
220
0
230
0
 70
    8
 71
    3
 72
    8
 73
    4
 74
    0
 42
1e-07
 43
1e-07
 40
0
 40
0
 40
0
 40
0
 40
1
 40
1
 40
1
 40
1
 10
156.505691
 20
285.65444
 30
0
 10
156.511988
 20
285.257013
 30
0
 10
156.530774
 20
284.859918
 30
0
 10
156.562018
 20
284.463815
 30
0
  0
LWPOLYLINE
  5
75
100
AcDbEntity
  8
Layer_1
  6
ByLayer
 62
    7
370
   -1
100
AcDbPolyline
 90
    4
 70
    1
 43
0
 10
208.95129
 20
270.13051
 10
208.95129
 20
255.79716
 10
215.9513
 20
255.79716
 10
215.9513
 20
270.13051
  0
SPLINE
  5
76
100
AcDbEntity
  8
Layer_1
  6
ByLayer
 62
    7
370
   -1
100
AcDbSpline
210
0
220
0
230
0
 70
    8
 71
    3
 72
    8
 73
    4
 74
    0
 42
1e-07
 43
1e-07
 40
0
 40
0
 40
0
 40
0
 40
1
 40
1
 40
1
 40
1
 10
156.562018
 20
162.463509
 30
0
 10
156.562018
 20
162.463509
 30
0
 10
156.562018
 20
155.463939
 30
0
 10
156.562018
 20
155.463939
 30
0
  0
SPLINE
  5
77
100
AcDbEntity
  8
Layer_1
  6
ByLayer
 62
    7
370
   -1
100
AcDbSpline
210
0
220
0
230
0
 70
    8
 71
    3
 72
    8
 73
    4
 74
    0
 42
1e-07
 43
1e-07
 40
0
 40
0
 40
0
 40
0
 40
1
 40
1
 40
1
 40
1
 10
156.562018
 20
155.463939
 30
0
 10
156.530774
 20
155.067835
 30
0
 10
156.511988
 20
154.670741
 30
0
 10
156.505691
 20
154.273314
 30
0
  0
SPLINE
  5
78
100
AcDbEntity
  8
Layer_1
  6
ByLayer
 62
    7
370
   -1
100
AcDbSpline
210
0
220
0
230
0
 70
    8
 71
    3
 72
    8
 73
    4
 74
    0
 42
1e-07
 43
1e-07
 40
0
 40
0
 40
0
 40
0
 40
1
 40
1
 40
1
 40
1
 10
156.505691
 20
154.273314
 30
0
 10
156.505641
 20
144.378924
 30
0
 10
164.080888
 20
136.357843
 30
0
 10
173.425589
 20
136.357612
 30
0
  0
SPLINE
  5
79
100
AcDbEntity
  8
Layer_1
  6
ByLayer
 62
    7
370
   -1
100
AcDbSpline
210
0
220
0
230
0
 70
    8
 71
    3
 72
    8
 73
    4
 74
    0
 42
1e-07
 43
1e-07
 40
0
 40
0
 40
0
 40
0
 40
1
 40
1
 40
1
 40
1
 10
173.425589
 20
136.357612
 30
0
 10
177.913166
 20
136.357578
 30
0
 10
182.216954
 20
138.245108
 30
0
 10
185.390153
 20
141.60496
 30
0
  0
SPLINE
  5
7A
100
AcDbEntity
  8
Layer_1
  6
ByLayer
 62
    7
370
   -1
100
AcDbSpline
210
0
220
0
230
0
 70
    8
 71
    3
 72
    8
 73
    4
 74
    0
 42
1e-07
 43
1e-07
 40
0
 40
0
 40
0
 40
0
 40
1
 40
1
 40
1
 40
1
 10
185.390153
 20
141.60496
 30
0
 10
188.563352
 20
144.964813
 30
0
 10
190.346026
 20
149.521761
 30
0
 10
190.346002
 20
154.273314
 30
0
  0
SPLINE
  5
7B
100
AcDbEntity
  8
Layer_1
  6
ByLayer
 62
    7
370
   -1
100
AcDbSpline
210
0
220
0
230
0
 70
    8
 71
    3
 72
    8
 73
    4
 74
    0
 42
1e-07
 43
1e-07
 40
0
 40
0
 40
0
 40
0
 40
1
 40
1
 40
1
 40
1
 10
190.346002
 20
154.273314
 30
0
 10
190.345209
 20
154.670546
 30
0
 10
190.331938
 20
155.067641
 30
0
 10
190.306211
 20
155.463939
 30
0
  0
LWPOLYLINE
  5
7C
100
AcDbEntity
  8
Layer_1
  6
ByLayer
 62
    7
370
   -1
100
AcDbPolyline
 90
   19
 70
    0
 43
0
 10
156.562018
 20
284.463815
 10
156.562018
 20
277.463725
 10
156.562018
 20
270.130322
 10
163.561591
 20
270.130322
 10
163.561591
 20
255.79683
 10
156.562018
 20
255.79683
 10
156.562018
 20
241.463856
 10
163.561591
 20
241.463856
 10
163.561591
 20
227.130364
 10
156.562018
 20
227.130364
 10
156.562018
 20
212.796871
 10
163.561591
 20
212.796871
 10
163.561591
 20
198.463897
 10
156.562018
 20
198.463897
 10
156.562018
 20
184.130405
 10
163.561591
 20
184.130405
 10
163.561591
 20
169.796913
 10
156.562018
 20
169.796913
 10
156.562018
 20
162.463509
  0
SPLINE
  5
7D
100
AcDbEntity
  8
Layer_1
  6
ByLayer
 62
    7
370
   -1
100
AcDbSpline
210
0
220
0
230
0
 70
    8
 71
    3
 72
    8
 73
    4
 74
    0
 42
1e-07
 43
1e-07
 40
0
 40
0
 40
0
 40
0
 40
1
 40
1
 40
1
 40
1
 10
257.999235
 20
155.463939
 30
0
 10
257.96799
 20
155.067835
 30
0
 10
257.949204
 20
154.670741
 30
0
 10
257.942908
 20
154.273314
 30
0
  0
SPLINE
  5
7E
100
AcDbEntity
  8
Layer_1
  6
ByLayer
 62
    7
370
   -1
100
AcDbSpline
210
0
220
0
230
0
 70
    8
 71
    3
 72
    8
 73
    4
 74
    0
 42
1e-07
 43
1e-07
 40
0
 40
0
 40
0
 40
0
 40
1
 40
1
 40
1
 40
1
 10
257.942908
 20
154.273314
 30
0
 10
257.942857
 20
144.37892
 30
0
 10
265.51811
 20
136.357837
 30
0
 10
274.862816
 20
136.357612
 30
0
  0
SPLINE
  5
7F
100
AcDbEntity
  8
Layer_1
  6
ByLayer
 62
    7
370
   -1
100
AcDbSpline
210
0
220
0
230
0
 70
    8
 71
    3
 72
    8
 73
    4
 74
    0
 42
1e-07
 43
1e-07
 40
0
 40
0
 40
0
 40
0
 40
1
 40
1
 40
1
 40
1
 10
274.862816
 20
136.357612
 30
0
 10
279.35039
 20
136.357583
 30
0
 10
283.654173
 20
138.245115
 30
0
 10
286.827368
 20
141.604967
 30
0
  0
SPLINE
  5
80
100
AcDbEntity
  8
Layer_1
  6
ByLayer
 62
    7
370
   -1
100
AcDbSpline
210
0
220
0
230
0
 70
    8
 71
    3
 72
    8
 73
    4
 74
    0
 42
1e-07
 43
1e-07
 40
0
 40
0
 40
0
 40
0
 40
1
 40
1
 40
1
 40
1
 10
286.827368
 20
141.604967
 30
0
 10
290.000563
 20
144.964819
 30
0
 10
291.783235
 20
149.521765
 30
0
 10
291.783211
 20
154.273314
 30
0
  0
SPLINE
  5
81
100
AcDbEntity
  8
Layer_1
  6
ByLayer
 62
    7
370
   -1
100
AcDbSpline
210
0
220
0
230
0
 70
    8
 71
    3
 72
    8
 73
    4
 74
    0
 42
1e-07
 43
1e-07
 40
0
 40
0
 40
0
 40
0
 40
1
 40
1
 40
1
 40
1
 10
291.783211
 20
154.273314
 30
0
 10
291.782416
 20
154.670546
 30
0
 10
291.769144
 20
155.067641
 30
0
 10
291.743417
 20
155.463939
 30
0
  0
LWPOLYLINE
  5
82
100
AcDbEntity
  8
Layer_1
  6
ByLayer
 62
    7
370
   -1
100
AcDbPolyline
 90
   11
 70
    0
 43
0
 10
190.306211
 20
155.463939
 10
197.116131
 20
155.463939
 10
210.635202
 20
155.463939
 10
210.635202
 20
162.463509
 10
224.152724
 20
162.463509
 10
224.152724
 20
155.463939
 10
237.67076
 20
155.463939
 10
237.67076
 20
162.463509
 10
251.189315
 20
162.463509
 10
251.189315
 20
155.463939
 10
257.999235
 20
155.463939
  0
SPLINE
  5
83
100
AcDbEntity
  8
Layer_1
  6
ByLayer
 62
    7
370
   -1
100
AcDbSpline
210
0
220
0
230
0
 70
    8
 71
    3
 72
    8
 73
    4
 74
    0
 42
1e-07
 43
1e-07
 40
0
 40
0
 40
0
 40
0
 40
1
 40
1
 40
1
 40
1
 10
291.743417
 20
277.463725
 30
0
 10
291.743417
 20
277.463725
 30
0
 10
291.743417
 20
284.410071
 30
0
 10
291.743417
 20
284.410071
 30
0
  0
SPLINE
  5
84
100
AcDbEntity
  8
Layer_1
  6
ByLayer
 62
    7
370
   -1
100
AcDbSpline
210
0
220
0
230
0
 70
    8
 71
    3
 72
    8
 73
    4
 74
    0
 42
1e-07
 43
1e-07
 40
0
 40
0
 40
0
 40
0
 40
1
 40
1
 40
1
 40
1
 10
291.743417
 20
284.410071
 30
0
 10
291.769144
 20
284.806369
 30
0
 10
291.782416
 20
285.203464
 30
0
 10
291.783211
 20
285.600696
 30
0
  0
SPLINE
  5
85
100
AcDbEntity
  8
Layer_1
  6
ByLayer
 62
    7
370
   -1
100
AcDbSpline
210
0
220
0
230
0
 70
    8
 71
    3
 72
    8
 73
    4
 74
    0
 42
1e-07
 43
1e-07
 40
0
 40
0
 40
0
 40
0
 40
1
 40
1
 40
1
 40
1
 10
291.783211
 20
285.600696
 30
0
 10
291.783235
 20
290.352245
 30
0
 10
290.000563
 20
294.909191
 30
0
 10
286.827368
 20
298.269042
 30
0
  0
SPLINE
  5
86
100
AcDbEntity
  8
Layer_1
  6
ByLayer
 62
    7
370
   -1
100
AcDbSpline
210
0
220
0
230
0
 70
    8
 71
    3
 72
    8
 73
    4
 74
    0
 42
1e-07
 43
1e-07
 40
0
 40
0
 40
0
 40
0
 40
1
 40
1
 40
1
 40
1
 10
286.827368
 20
298.269042
 30
0
 10
283.654173
 20
301.628894
 30
0
 10
279.35039
 20
303.516426
 30
0
 10
274.862816
 20
303.516398
 30
0
  0
SPLINE
  5
87
100
AcDbEntity
  8
Layer_1
  6
ByLayer
 62
    7
370
   -1
100
AcDbSpline
210
0
220
0
230
0
 70
    8
 71
    3
 72
    8
 73
    4
 74
    0
 42
1e-07
 43
1e-07
 40
0
 40
0
 40
0
 40
0
 40
1
 40
1
 40
1
 40
1
 10
274.862816
 20
303.516398
 30
0
 10
265.518111
 20
303.516173
 30
0
 10
257.942857
 20
295.49509
 30
0
 10
257.942908
 20
285.600696
 30
0
  0
SPLINE
  5
88
100
AcDbEntity
  8
Layer_1
  6
ByLayer
 62
    7
370
   -1
100
AcDbSpline
210
0
220
0
230
0
 70
    8
 71
    3
 72
    8
 73
    4
 74
    0
 42
1e-07
 43
1e-07
 40
0
 40
0
 40
0
 40
0
 40
1
 40
1
 40
1
 40
1
 10
257.942908
 20
285.600696
 30
0
 10
257.949204
 20
285.203269
 30
0
 10
257.96799
 20
284.806175
 30
0
 10
257.999235
 20
284.410071
 30
0
  0
LWPOLYLINE
  5
89
100
AcDbEntity
  8
Layer_1
  6
ByLayer
 62
    7
370
   -1
100
AcDbPolyline
 90
   21
 70
    0
 43
0
 10
291.743417
 20
155.463939
 10
291.743417
 20
162.463509
 10
305.261985
 20
162.463509
 10
305.261985
 20
169.796913
 10
298.261904
 20
169.796913
 10
298.261904
 20
184.130405
 10
305.261985
 20
184.130405
 10
305.261985
 20
198.463897
 10
298.261904
 20
198.463897
 10
298.261904
 20
212.796871
 10
305.261985
 20
212.796871
 10
305.261985
 20
227.130364
 10
298.261904
 20
227.130364
 10
298.261904
 20
241.463856
 10
305.261985
 20
241.463856
 10
305.261985
 20
255.79683
 10
298.261904
 20
255.79683
 10
298.261904
 20
270.130322
 10
305.261985
 20
270.130322
 10
305.261985
 20
277.463725
 10
291.743417
 20
277.463725
  0
SPLINE
  5
8A
100
AcDbEntity
  8
Layer_1
  6
ByLayer
 62
    7
370
   -1
100
AcDbSpline
210
0
220
0
230
0
 70
    8
 71
    3
 72
    8
 73
    4
 74
    0
 42
1e-07
 43
1e-07
 40
0
 40
0
 40
0
 40
0
 40
1
 40
1
 40
1
 40
1
 10
197.116131
 20
284.463815
 30
0
 10
197.116131
 20
284.463815
 30
0
 10
190.306211
 20
284.463815
 30
0
 10
190.306211
 20
284.463815
 30
0
  0
SPLINE
  5
8B
100
AcDbEntity
  8
Layer_1
  6
ByLayer
 62
    7
370
   -1
100
AcDbSpline
210
0
220
0
230
0
 70
    8
 71
    3
 72
    8
 73
    4
 74
    0
 42
1e-07
 43
1e-07
 40
0
 40
0
 40
0
 40
0
 40
1
 40
1
 40
1
 40
1
 10
190.306211
 20
284.463815
 30
0
 10
190.331938
 20
284.860113
 30
0
 10
190.345209
 20
285.257207
 30
0
 10
190.346002
 20
285.65444
 30
0
  0
SPLINE
  5
8C
100
AcDbEntity
  8
Layer_1
  6
ByLayer
 62
    7
370
   -1
100
AcDbSpline
210
0
220
0
230
0
 70
    8
 71
    3
 72
    8
 73
    4
 74
    0
 42
1e-07
 43
1e-07
 40
0
 40
0
 40
0
 40
0
 40
1
 40
1
 40
1
 40
1
 10
190.346002
 20
285.65444
 30
0
 10
190.346026
 20
290.405992
 30
0
 10
188.563352
 20
294.962941
 30
0
 10
185.390153
 20
298.322793
 30
0
  0
SPLINE
  5
8D
100
AcDbEntity
  8
Layer_1
  6
ByLayer
 62
    7
370
   -1
100
AcDbSpline
210
0
220
0
230
0
 70
    8
 71
    3
 72
    8
 73
    4
 74
    0
 42
1e-07
 43
1e-07
 40
0
 40
0
 40
0
 40
0
 40
1
 40
1
 40
1
 40
1
 10
185.390153
 20
298.322793
 30
0
 10
182.216954
 20
301.682645
 30
0
 10
177.913166
 20
303.570175
 30
0
 10
173.425589
 20
303.570141
 30
0
  0
LWPOLYLINE
  5
8E
100
AcDbEntity
  8
Layer_1
  6
ByLayer
 62
    7
370
   -1
100
AcDbPolyline
 90
   10
 70
    0
 43
0
 10
257.999235
 20
284.410071
 10
251.189315
 20
284.410071
 10
251.189315
 20
277.463725
 10
237.67076
 20
277.463725
 10
237.67076
 20
284.463815
 10
224.152724
 20
284.463815
 10
224.152724
 20
277.463725
 10
210.635202
 20
277.463725
 10
210.635202
 20
284.463815
 10
197.116131
 20
284.463815
  0
LWPOLYLINE
  5
8F
100
AcDbEntity
  8
Layer_1
  6
ByLayer
 62
    7
370
   -1
100
AcDbPolyline
 90
    1
 70
    1
 43
0
 10
173.425589
 20
303.570141
  0
LWPOLYLINE
  5
90
100
AcDbEntity
  8
Layer_1
  6
ByLayer
 62
    7
370
   -1
100
AcDbPolyline
 90
    5
 70
    1
 43
0
 10
264.707367
 20
284.410071
 10
278.225379
 20
284.410071
 10
278.225379
 20
277.463725
 10
264.707367
 20
277.463725
 10
264.707367
 20
284.410071
  0
LWPOLYLINE
  5
91
100
AcDbEntity
  8
Layer_1
  6
ByLayer
 62
    7
370
   -1
100
AcDbPolyline
 90
    5
 70
    1
 43
0
 10
264.707367
 20
162.463509
 10
278.225379
 20
162.463509
 10
278.225379
 20
155.463939
 10
264.707367
 20
155.463939
 10
264.707367
 20
162.463509
  0
LWPOLYLINE
  5
92
100
AcDbEntity
  8
Layer_1
  6
ByLayer
 62
    7
370
   -1
100
AcDbPolyline
 90
    4
 70
    1
 43
0
 10
192.27555
 20
183.98343
 10
192.27555
 20
169.59127
 10
194.68737
 20
169.59127
 10
194.68737
 20
183.98343
  0
LWPOLYLINE
  5
93
100
AcDbEntity
  8
Layer_1
  6
ByLayer
 62
    7
370
   -1
100
AcDbPolyline
 90
    4
 70
    1
 43
0
 10
192.27555
 20
212.76774
 10
192.27555
 20
198.37557
 10
194.68737
 20
198.37557
 10
194.68737
 20
212.76774
  0
LWPOLYLINE
  5
94
100
AcDbEntity
  8
Layer_1
  6
ByLayer
 62
    7
370
   -1
100
AcDbPolyline
 90
    4
 70
    1
 43
0
 10
192.27555
 20
241.55207
 10
192.27555
 20
227.1599
 10
194.68737
 20
227.1599
 10
194.68737
 20
241.55207
  0
LWPOLYLINE
  5
95
100
AcDbEntity
  8
Layer_1
  6
ByLayer
 62
    7
370
   -1
100
AcDbPolyline
 90
    4
 70
    1
 43
0
 10
192.27555
 20
270.33641
 10
192.27555
 20
255.94424
 10
194.68737
 20
255.94424
 10
194.68737
 20
270.33641
  0
LWPOLYLINE
  5
96
100
AcDbEntity
  8
Layer_1
  6
ByLayer
 62
    1
370
   -1
100
AcDbPolyline
 90
    4
 70
    1
 43
0
 10
190.61762
 20
283.21324
 10
201.92365
 20
276.685709
 10
200.64883
 20
274.477657
 10
189.3428
 20
281.005197
  0
LWPOLYLINE
  5
97
100
AcDbEntity
  8
Layer_1
  6
ByLayer
 62
    1
370
   -1
100
AcDbPolyline
 90
    4
 70
    1
 43
0
 10
173.00187
 20
283.213247
 10
184.30791
 20
276.685716
 10
183.03308
 20
274.477664
 10
171.72705
 20
281.005203
  0
LWPOLYLINE
  5
98
100
AcDbEntity
  8
Layer_1
  6
ByLayer
 62
    1
370
   -1
100
AcDbPolyline
 90
    4
 70
    1
 43
0
 10
190.61761
 20
156.71443
 10
201.92365
 20
163.24196
 10
200.64883
 20
165.45001
 10
189.3428
 20
158.92247
  0
LWPOLYLINE
  5
99
100
AcDbEntity
  8
Layer_1
  6
ByLayer
 62
    1
370
   -1
100
AcDbPolyline
 90
    4
 70
    1
 43
0
 10
173.00186
 20
156.71442
 10
184.3079
 20
163.24195
 10
183.03308
 20
165.45
 10
171.72705
 20
158.92246
  0
LWPOLYLINE
  5
9A
100
AcDbEntity
  8
Layer_1
  6
ByLayer
 62
    7
370
   -1
100
AcDbPolyline
 90
    4
 70
    1
 43
0
 10
168.1191
 20
260.56063
 10
168.1191
 20
274.90705
 10
174.78257
 20
274.90705
 10
174.78257
 20
260.56063
  0
LWPOLYLINE
  5
9B
100
AcDbEntity
  8
Layer_1
  6
ByLayer
 62
    7
370
   -1
100
AcDbPolyline
 90
    4
 70
    1
 43
0
 10
168.1191
 20
241.45269
 10
168.1191
 20
255.79911
 10
174.78257
 20
255.79911
 10
174.78257
 20
241.45269
  0
LWPOLYLINE
  5
9C
100
AcDbEntity
  8
Layer_1
  6
ByLayer
 62
    7
370
   -1
100
AcDbPolyline
 90
    4
 70
    1
 43
0
 10
168.1191
 20
222.34474
 10
168.1191
 20
236.69117
 10
174.78257
 20
236.69117
 10
174.78257
 20
222.34474
  0
LWPOLYLINE
  5
9D
100
AcDbEntity
  8
Layer_1
  6
ByLayer
 62
    7
370
   -1
100
AcDbPolyline
 90
    4
 70
    1
 43
0
 10
168.1191
 20
203.2368
 10
168.1191
 20
217.58322
 10
174.78257
 20
217.58322
 10
174.78257
 20
203.2368
  0
LWPOLYLINE
  5
9E
100
AcDbEntity
  8
Layer_1
  6
ByLayer
 62
    7
370
   -1
100
AcDbPolyline
 90
    4
 70
    1
 43
0
 10
168.1191
 20
184.12887
 10
168.1191
 20
198.47529
 10
174.78257
 20
198.47529
 10
174.78257
 20
184.12887
  0
LWPOLYLINE
  5
9F
100
AcDbEntity
  8
Layer_1
  6
ByLayer
 62
    7
370
   -1
100
AcDbPolyline
 90
    4
 70
    1
 43
0
 10
168.1191
 20
165.02093
 10
168.1191
 20
179.36735
 10
174.78257
 20
179.36735
 10
174.78257
 20
165.02093
  0
LWPOLYLINE
  5
A0
100
AcDbEntity
  8
Layer_1
  6
ByLayer
 62
    7
370
   -1
100
AcDbPolyline
 90
    4
 70
    1
 43
0
 10
204.97005
 20
-150.2943
 10
204.97005
 20
-164.62763
 10
211.97006
 20
-164.62763
 10
211.97006
 20
-150.2943
  0
LWPOLYLINE
  5
A1
100
AcDbEntity
  8
Layer_1
  6
ByLayer
 62
    7
370
   -1
100
AcDbPolyline
 90
    4
 70
    1
 43
0
 10
204.97005
 20
-121.62763
 10
204.97005
 20
-135.96097
 10
211.97006
 20
-135.96097
 10
211.97006
 20
-121.62763
  0
LWPOLYLINE
  5
A2
100
AcDbEntity
  8
Layer_1
  6
ByLayer
 62
    7
370
   -1
100
AcDbPolyline
 90
    4
 70
    1
 43
0
 10
204.97005
 20
-92.96096
 10
204.97005
 20
-107.2943
 10
211.97006
 20
-107.2943
 10
211.97006
 20
-92.96096
  0
LWPOLYLINE
  5
A3
100
AcDbEntity
  8
Layer_1
  6
ByLayer
 62
    7
370
   -1
100
AcDbPolyline
 90
    4
 70
    1
 43
0
 10
204.97005
 20
-64.29429
 10
204.97005
 20
-78.62764
 10
211.97006
 20
-78.62764
 10
211.97006
 20
-64.29429
  0
LWPOLYLINE
  5
A4
100
AcDbEntity
  8
Layer_1
  6
ByLayer
 62
    7
370
   -1
100
AcDbPolyline
 90
   72
 70
    1
 43
0
 10
152.58103
 20
-49.96087
 10
152.58103
 20
-56.96096
 10
152.58103
 20
-64.29436
 10
159.5806
 20
-64.29436
 10
159.5806
 20
-78.62786
 10
152.58103
 20
-78.62786
 10
152.58103
 20
-92.96083
 10
159.5806
 20
-92.96083
 10
159.5806
 20
-107.29432
 10
152.58103
 20
-107.29432
 10
152.58103
 20
-121.62783
 10
159.5806
 20
-121.62783
 10
159.5806
 20
-135.9608
 10
152.58103
 20
-135.9608
 10
152.58103
 20
-150.29428
 10
159.5806
 20
-150.29428
 10
159.5806
 20
-164.62777
 10
152.58103
 20
-164.62777
 10
152.58103
 20
-171.96118
 10
152.58103
 20
-178.96075
 10
166.09907
 20
-178.96075
 10
179.6171
 20
-178.96075
 10
193.13514
 20
-178.96075
 10
206.65371
 20
-178.96075
 10
206.65371
 20
-171.96118
 10
220.17174
 20
-171.96118
 10
220.17174
 20
-178.96075
 10
233.68977
 20
-178.96075
 10
233.68977
 20
-171.96118
 10
247.20833
 20
-171.96118
 10
247.20833
 20
-178.96075
 10
260.72637
 20
-178.96075
 10
260.72637
 20
-171.96118
 10
274.24441
 20
-171.96118
 10
274.24441
 20
-178.96075
 10
287.76245
 20
-178.96075
 10
287.76245
 20
-171.96118
 10
301.28099
 20
-171.96118
 10
301.28099
 20
-164.62777
 10
294.28091
 20
-164.62777
 10
294.28091
 20
-150.29428
 10
301.28099
 20
-150.29428
 10
301.28099
 20
-135.9608
 10
294.28091
 20
-135.9608
 10
294.28091
 20
-121.62783
 10
301.28099
 20
-121.62783
 10
301.28099
 20
-107.29432
 10
294.28091
 20
-107.29432
 10
294.28091
 20
-92.96083
 10
301.28099
 20
-92.96083
 10
301.28099
 20
-78.62786
 10
294.28091
 20
-78.62786
 10
294.28091
 20
-64.29436
 10
301.28099
 20
-64.29436
 10
301.28099
 20
-56.96096
 10
287.76245
 20
-56.96096
 10
287.76245
 20
-49.96087
 10
274.24441
 20
-49.96087
 10
274.24441
 20
-56.96096
 10
260.72637
 20
-56.96096
 10
260.72637
 20
-49.96087
 10
247.20833
 20
-49.96087
 10
247.20833
 20
-56.96096
 10
233.68977
 20
-56.96096
 10
233.68977
 20
-49.96087
 10
220.17174
 20
-49.96087
 10
220.17174
 20
-56.96096
 10
206.65371
 20
-56.96096
 10
206.65371
 20
-49.96087
 10
193.13514
 20
-49.96087
 10
179.6171
 20
-49.96087
 10
166.09907
 20
-49.96087
  0
LWPOLYLINE
  5
A5
100
AcDbEntity
  8
Layer_1
  6
ByLayer
 62
    7
370
   -1
100
AcDbPolyline
 90
    4
 70
    1
 43
0
 10
188.29431
 20
-150.44137
 10
188.29431
 20
-164.83353
 10
190.70613
 20
-164.83353
 10
190.70613
 20
-150.44137
  0
LWPOLYLINE
  5
A6
100
AcDbEntity
  8
Layer_1
  6
ByLayer
 62
    7
370
   -1
100
AcDbPolyline
 90
    4
 70
    1
 43
0
 10
188.29431
 20
-121.65706
 10
188.29431
 20
-136.04923
 10
190.70613
 20
-136.04923
 10
190.70613
 20
-121.65706
  0
LWPOLYLINE
  5
A7
100
AcDbEntity
  8
Layer_1
  6
ByLayer
 62
    7
370
   -1
100
AcDbPolyline
 90
    4
 70
    1
 43
0
 10
188.29431
 20
-92.87273
 10
188.29431
 20
-107.2649
 10
190.70613
 20
-107.2649
 10
190.70613
 20
-92.87273
  0
LWPOLYLINE
  5
A8
100
AcDbEntity
  8
Layer_1
  6
ByLayer
 62
    7
370
   -1
100
AcDbPolyline
 90
    4
 70
    1
 43
0
 10
188.29431
 20
-64.08839
 10
188.29431
 20
-78.48056
 10
190.70613
 20
-78.48056
 10
190.70613
 20
-64.08839
  0
LWPOLYLINE
  5
A9
100
AcDbEntity
  8
Layer_1
  6
ByLayer
 62
    7
370
   -1
100
AcDbPolyline
 90
    4
 70
    1
 43
0
 10
186.63638
 20
-51.21156
 10
197.94241
 20
-57.73909
 10
196.66759
 20
-59.94714
 10
185.36156
 20
-53.4196
  0
LWPOLYLINE
  5
AA
100
AcDbEntity
  8
Layer_1
  6
ByLayer
 62
    7
370
   -1
100
AcDbPolyline
 90
    4
 70
    1
 43
0
 10
169.02063
 20
-51.21155
 10
180.32667
 20
-57.73908
 10
179.05184
 20
-59.94714
 10
167.74581
 20
-53.4196
  0
LWPOLYLINE
  5
AB
100
AcDbEntity
  8
Layer_1
  6
ByLayer
 62
    7
370
   -1
100
AcDbPolyline
 90
    4
 70
    1
 43
0
 10
186.63637
 20
-177.71037
 10
197.94241
 20
-171.18284
 10
196.66759
 20
-168.97479
 10
185.36156
 20
-175.50233
  0
LWPOLYLINE
  5
AC
100
AcDbEntity
  8
Layer_1
  6
ByLayer
 62
    7
370
   -1
100
AcDbPolyline
 90
    4
 70
    1
 43
0
 10
169.02062
 20
-177.71038
 10
180.32666
 20
-171.18285
 10
179.05184
 20
-168.9748
 10
167.74581
 20
-175.50234
  0
LWPOLYLINE
  5
AD
100
AcDbEntity
  8
Layer_1
  6
ByLayer
 62
    7
370
   -1
100
AcDbPolyline
 90
    4
 70
    1
 43
0
 10
164.13786
 20
-73.86417
 10
164.13786
 20
-59.51775
 10
170.80133
 20
-59.51775
 10
170.80133
 20
-73.86417
  0
LWPOLYLINE
  5
AE
100
AcDbEntity
  8
Layer_1
  6
ByLayer
 62
    7
370
   -1
100
AcDbPolyline
 90
    4
 70
    1
 43
0
 10
164.13786
 20
-92.97211
 10
164.13786
 20
-78.62569000000001
 10
170.80133
 20
-78.62569000000001
 10
170.80133
 20
-92.97211
  0
LWPOLYLINE
  5
AF
100
AcDbEntity
  8
Layer_1
  6
ByLayer
 62
    7
370
   -1
100
AcDbPolyline
 90
    4
 70
    1
 43
0
 10
164.13786
 20
-112.08006
 10
164.13786
 20
-97.73363000000001
 10
170.80133
 20
-97.73363000000001
 10
170.80133
 20
-112.08006
  0
LWPOLYLINE
  5
B0
100
AcDbEntity
  8
Layer_1
  6
ByLayer
 62
    7
370
   -1
100
AcDbPolyline
 90
    4
 70
    1
 43
0
 10
164.13786
 20
-131.188
 10
164.13786
 20
-116.84158
 10
170.80133
 20
-116.84158
 10
170.80133
 20
-131.188
  0
LWPOLYLINE
  5
B1
100
AcDbEntity
  8
Layer_1
  6
ByLayer
 62
    7
370
   -1
100
AcDbPolyline
 90
    4
 70
    1
 43
0
 10
164.13786
 20
-150.29593
 10
164.13786
 20
-135.94951
 10
170.80133
 20
-135.94951
 10
170.80133
 20
-150.29593
  0
LWPOLYLINE
  5
B2
100
AcDbEntity
  8
Layer_1
  6
ByLayer
 62
    7
370
   -1
100
AcDbPolyline
 90
    4
 70
    1
 43
0
 10
164.13786
 20
-169.40387
 10
164.13786
 20
-155.05745
 10
170.80133
 20
-155.05745
 10
170.80133
 20
-169.40387
  0
LWPOLYLINE
  5
B3
100
AcDbEntity
  8
Layer_1
  6
ByLayer
 62
    7
370
   -1
100
AcDbPolyline
 90
    4
 70
    1
 43
0
 10
241.06622
 20
408.72878
 10
241.06622
 20
350.792534
 10
216.12997
 20
350.792534
 10
216.12997
 20
408.72878
  0
LWPOLYLINE
  5
B4
100
AcDbEntity
  8
Layer_1
  6
ByLayer
 62
    7
370
   -1
100
AcDbPolyline
 90
   11
 70
    1
 43
0
 10
-127.81646
 20
46.89079
 10
-130.99612
 20
46.89079
 10
-130.99612
 20
42.25333
 10
-143.7266
 20
42.25333
 10
-143.7266
 20
55.88402
 10
-135.88469
 20
55.88402
 10
-135.88469
 20
71.96935000000001
 10
-143.70644
 20
71.96935000000001
 10
-143.70644
 20
82.30929
 10
-130.96667
 20
82.30929
 10
-127.81646
 20
82.30929
  0
SPLINE
  5
B5
100
AcDbEntity
  8
Layer_1
  6
ByLayer
 62
    7
370
   -1
100
AcDbSpline
210
0
220
0
230
0
 70
    8
 71
    3
 72
    8
 73
    4
 74
    0
 42
1e-07
 43
1e-07
 40
0
 40
0
 40
0
 40
0
 40
1
 40
1
 40
1
 40
1
 10
-112.82249
 20
98.57787999999999
 30
0
 10
-110.05249
 20
98.57787999999999
 30
0
 10
-107.82249
 20
96.34788
 30
0
 10
-107.82249
 20
93.57787999999999
 30
0
  0
LWPOLYLINE
  5
B6
100
AcDbEntity
  8
Layer_1
  6
ByLayer
 62
    7
370
   -1
100
AcDbPolyline
 90
    2
 70
    0
 43
0
 10
-145.57782
 20
98.57787999999999
 10
-112.82249
 20
98.57787999999999
  0
SPLINE
  5
B7
100
AcDbEntity
  8
Layer_1
  6
ByLayer
 62
    7
370
   -1
100
AcDbSpline
210
0
220
0
230
0
 70
    8
 71
    3
 72
    8
 73
    4
 74
    0
 42
1e-07
 43
1e-07
 40
0
 40
0
 40
0
 40
0
 40
1
 40
1
 40
1
 40
1
 10
-107.82249
 20
31.08736
 30
0
 10
-107.82249
 20
28.31736
 30
0
 10
-110.05249
 20
26.08736
 30
0
 10
-112.82249
 20
26.08736
 30
0
  0
LWPOLYLINE
  5
B8
100
AcDbEntity
  8
Layer_1
  6
ByLayer
 62
    7
370
   -1
100
AcDbPolyline
 90
    2
 70
    0
 43
0
 10
-107.82249
 20
93.57787999999999
 10
-107.82249
 20
31.08736
  0
SPLINE
  5
B9
100
AcDbEntity
  8
Layer_1
  6
ByLayer
 62
    7
370
   -1
100
AcDbSpline
210
0
220
0
230
0
 70
    8
 71
    3
 72
    8
 73
    4
 74
    0
 42
1e-07
 43
1e-07
 40
0
 40
0
 40
0
 40
0
 40
1
 40
1
 40
1
 40
1
 10
-145.57782
 20
26.08736
 30
0
 10
-148.34782
 20
26.08736
 30
0
 10
-150.57782
 20
28.31736
 30
0
 10
-150.57782
 20
31.08736
 30
0
  0
LWPOLYLINE
  5
BA
100
AcDbEntity
  8
Layer_1
  6
ByLayer
 62
    7
370
   -1
100
AcDbPolyline
 90
    2
 70
    0
 43
0
 10
-112.82249
 20
26.08736
 10
-145.57782
 20
26.08736
  0
SPLINE
  5
BB
100
AcDbEntity
  8
Layer_1
  6
ByLayer
 62
    7
370
   -1
100
AcDbSpline
210
0
220
0
230
0
 70
    8
 71
    3
 72
    8
 73
    4
 74
    0
 42
1e-07
 43
1e-07
 40
0
 40
0
 40
0
 40
0
 40
1
 40
1
 40
1
 40
1
 10
-150.57782
 20
93.57787999999999
 30
0
 10
-150.57782
 20
96.34788
 30
0
 10
-148.34782
 20
98.57787999999999
 30
0
 10
-145.57782
 20
98.57787999999999
 30
0
  0
LWPOLYLINE
  5
BC
100
AcDbEntity
  8
Layer_1
  6
ByLayer
 62
    7
370
   -1
100
AcDbPolyline
 90
    2
 70
    0
 43
0
 10
-150.57782
 20
31.08736
 10
-150.57782
 20
93.57787999999999
  0
LWPOLYLINE
  5
BD
100
AcDbEntity
  8
Layer_1
  6
ByLayer
 62
    7
370
   -1
100
AcDbPolyline
 90
    1
 70
    1
 43
0
 10
-145.57782
 20
98.57787999999999
  0
LWPOLYLINE
  5
BE
100
AcDbEntity
  8
Layer_1
  6
ByLayer
 62
    7
370
   -1
100
AcDbPolyline
 90
    4
 70
    1
 43
0
 10
261.01758
 20
408.62757
 10
267.49275
 20
408.62757
 10
267.49275
 20
350.893799
 10
261.01758
 20
350.893799
  0
LWPOLYLINE
  5
BF
100
AcDbEntity
  8
Layer_1
  6
ByLayer
 62
    7
370
   -1
100
AcDbPolyline
 90
    4
 70
    1
 43
0
 10
273.08572
 20
408.62757
 10
279.56089
 20
408.62757
 10
279.56089
 20
350.893799
 10
273.08572
 20
350.893799
  0
LWPOLYLINE
  5
C0
100
AcDbEntity
  8
Layer_1
  6
ByLayer
 62
    7
370
   -1
100
AcDbPolyline
 90
    4
 70
    1
 43
0
 10
285.14901
 20
404.54166
 10
291.63396
 20
404.54166
 10
291.63396
 20
354.935706
 10
285.14901
 20
354.935706
  0
LWPOLYLINE
  5
C1
100
AcDbEntity
  8
Layer_1
  6
ByLayer
 62
    7
370
   -1
100
AcDbPolyline
 90
    4
 70
    1
 43
0
 10
258.37338
 20
28.86687
 10
264.84855
 20
28.86687
 10
264.84855
 20
-28.86683
 10
258.37338
 20
-28.86683
  0
LWPOLYLINE
  5
C2
100
AcDbEntity
  8
Layer_1
  6
ByLayer
 62
    7
370
   -1
100
AcDbPolyline
 90
    4
 70
    1
 43
0
 10
270.44152
 20
28.86687
 10
276.91669
 20
28.86687
 10
276.91669
 20
-28.86683
 10
270.44152
 20
-28.86683
  0
SPLINE
  5
C3
100
AcDbEntity
  8
Layer_1
  6
ByLayer
 62
    7
370
   -1
100
AcDbSpline
210
0
220
0
230
0
 70
    8
 71
    3
 72
    8
 73
    4
 74
    0
 42
1e-07
 43
1e-07
 40
0
 40
0
 40
0
 40
0
 40
1
 40
1
 40
1
 40
1
 10
288.74084
 20
-64.44644
 30
0
 10
288.74084
 20
-64.96804899999999
 30
0
 10
288.533632
 20
-65.468295
 30
0
 10
288.164798
 20
-65.83712800000001
 30
0
  0
SPLINE
  5
C4
100
AcDbEntity
  8
Layer_1
  6
ByLayer
 62
    7
370
   -1
100
AcDbSpline
210
0
220
0
230
0
 70
    8
 71
    3
 72
    8
 73
    4
 74
    0
 42
1e-07
 43
1e-07
 40
0
 40
0
 40
0
 40
0
 40
1
 40
1
 40
1
 40
1
 10
288.164798
 20
-65.83712800000001
 30
0
 10
287.795965
 20
-66.205962
 30
0
 10
287.295719
 20
-66.41316999999999
 30
0
 10
286.77411
 20
-66.41316999999999
 30
0
  0
SPLINE
  5
C5
100
AcDbEntity
  8
Layer_1
  6
ByLayer
 62
    7
370
   -1
100
AcDbSpline
210
0
220
0
230
0
 70
    8
 71
    3
 72
    8
 73
    4
 74
    0
 42
1e-07
 43
1e-07
 40
0
 40
0
 40
0
 40
0
 40
1
 40
1
 40
1
 40
1
 10
286.77411
 20
-66.41316999999999
 30
0
 10
286.252501
 20
-66.41316999999999
 30
0
 10
285.752255
 20
-66.205962
 30
0
 10
285.383422
 20
-65.83712800000001
 30
0
  0
SPLINE
  5
C6
100
AcDbEntity
  8
Layer_1
  6
ByLayer
 62
    7
370
   -1
100
AcDbSpline
210
0
220
0
230
0
 70
    8
 71
    3
 72
    8
 73
    4
 74
    0
 42
1e-07
 43
1e-07
 40
0
 40
0
 40
0
 40
0
 40
1
 40
1
 40
1
 40
1
 10
285.383422
 20
-65.83712800000001
 30
0
 10
285.014588
 20
-65.468295
 30
0
 10
284.80738
 20
-64.96804899999999
 30
0
 10
284.80738
 20
-64.44644
 30
0
  0
SPLINE
  5
C7
100
AcDbEntity
  8
Layer_1
  6
ByLayer
 62
    7
370
   -1
100
AcDbSpline
210
0
220
0
230
0
 70
    8
 71
    3
 72
    8
 73
    4
 74
    0
 42
1e-07
 43
1e-07
 40
0
 40
0
 40
0
 40
0
 40
1
 40
1
 40
1
 40
1
 10
284.80738
 20
-64.44644
 30
0
 10
284.80738
 20
-63.924831
 30
0
 10
285.014588
 20
-63.424585
 30
0
 10
285.383422
 20
-63.055752
 30
0
  0
SPLINE
  5
C8
100
AcDbEntity
  8
Layer_1
  6
ByLayer
 62
    7
370
   -1
100
AcDbSpline
210
0
220
0
230
0
 70
    8
 71
    3
 72
    8
 73
    4
 74
    0
 42
1e-07
 43
1e-07
 40
0
 40
0
 40
0
 40
0
 40
1
 40
1
 40
1
 40
1
 10
285.383422
 20
-63.055752
 30
0
 10
285.752255
 20
-62.686918
 30
0
 10
286.252501
 20
-62.47971
 30
0
 10
286.77411
 20
-62.47971
 30
0
  0
SPLINE
  5
C9
100
AcDbEntity
  8
Layer_1
  6
ByLayer
 62
    7
370
   -1
100
AcDbSpline
210
0
220
0
230
0
 70
    8
 71
    3
 72
    8
 73
    4
 74
    0
 42
1e-07
 43
1e-07
 40
0
 40
0
 40
0
 40
0
 40
1
 40
1
 40
1
 40
1
 10
286.77411
 20
-62.47971
 30
0
 10
287.295719
 20
-62.47971
 30
0
 10
287.795965
 20
-62.686918
 30
0
 10
288.164798
 20
-63.055752
 30
0
  0
SPLINE
  5
CA
100
AcDbEntity
  8
Layer_1
  6
ByLayer
 62
    7
370
   -1
100
AcDbSpline
210
0
220
0
230
0
 70
    8
 71
    3
 72
    8
 73
    4
 74
    0
 42
1e-07
 43
1e-07
 40
0
 40
0
 40
0
 40
0
 40
1
 40
1
 40
1
 40
1
 10
288.164798
 20
-63.055752
 30
0
 10
288.533632
 20
-63.424585
 30
0
 10
288.74084
 20
-63.924831
 30
0
 10
288.74084
 20
-64.44644
 30
0
  0
LWPOLYLINE
  5
CB
100
AcDbEntity
  8
Layer_1
  6
ByLayer
 62
    7
370
   -1
100
AcDbPolyline
 90
    4
 70
    1
 43
0
 10
282.50483
 20
24.82494
 10
288.98974
 20
24.82494
 10
288.98974
 20
-24.82824
 10
282.50483
 20
-24.82824
  0
SPLINE
  5
CC
100
AcDbEntity
  8
Layer_1
  6
ByLayer
 62
    7
370
   -1
100
AcDbSpline
210
0
220
0
230
0
 70
    8
 71
    3
 72
    8
 73
    4
 74
    0
 42
1e-07
 43
1e-07
 40
0
 40
0
 40
0
 40
0
 40
1
 40
1
 40
1
 40
1
 10
288.71172
 20
-164.41107
 30
0
 10
288.711721
 20
-165.497261
 30
0
 10
287.831191
 20
-166.377795
 30
0
 10
286.745
 20
-166.3778
 30
0
  0
SPLINE
  5
CD
100
AcDbEntity
  8
Layer_1
  6
ByLayer
 62
    7
370
   -1
100
AcDbSpline
210
0
220
0
230
0
 70
    8
 71
    3
 72
    8
 73
    4
 74
    0
 42
1e-07
 43
1e-07
 40
0
 40
0
 40
0
 40
0
 40
1
 40
1
 40
1
 40
1
 10
286.745
 20
-166.3778
 30
0
 10
286.223391
 20
-166.3778
 30
0
 10
285.723145
 20
-166.170592
 30
0
 10
285.354312
 20
-165.801758
 30
0
  0
SPLINE
  5
CE
100
AcDbEntity
  8
Layer_1
  6
ByLayer
 62
    7
370
   -1
100
AcDbSpline
210
0
220
0
230
0
 70
    8
 71
    3
 72
    8
 73
    4
 74
    0
 42
1e-07
 43
1e-07
 40
0
 40
0
 40
0
 40
0
 40
1
 40
1
 40
1
 40
1
 10
285.354312
 20
-165.801758
 30
0
 10
284.985478
 20
-165.432925
 30
0
 10
284.77827
 20
-164.932679
 30
0
 10
284.77827
 20
-164.41107
 30
0
  0
SPLINE
  5
CF
100
AcDbEntity
  8
Layer_1
  6
ByLayer
 62
    7
370
   -1
100
AcDbSpline
210
0
220
0
230
0
 70
    8
 71
    3
 72
    8
 73
    4
 74
    0
 42
1e-07
 43
1e-07
 40
0
 40
0
 40
0
 40
0
 40
1
 40
1
 40
1
 40
1
 10
284.77827
 20
-164.41107
 30
0
 10
284.77827
 20
-163.889461
 30
0
 10
284.985478
 20
-163.389215
 30
0
 10
285.354312
 20
-163.020382
 30
0
  0
SPLINE
  5
D0
100
AcDbEntity
  8
Layer_1
  6
ByLayer
 62
    7
370
   -1
100
AcDbSpline
210
0
220
0
230
0
 70
    8
 71
    3
 72
    8
 73
    4
 74
    0
 42
1e-07
 43
1e-07
 40
0
 40
0
 40
0
 40
0
 40
1
 40
1
 40
1
 40
1
 10
285.354312
 20
-163.020382
 30
0
 10
285.723145
 20
-162.651548
 30
0
 10
286.223391
 20
-162.44434
 30
0
 10
286.745
 20
-162.44434
 30
0
  0
SPLINE
  5
D1
100
AcDbEntity
  8
Layer_1
  6
ByLayer
 62
    7
370
   -1
100
AcDbSpline
210
0
220
0
230
0
 70
    8
 71
    3
 72
    8
 73
    4
 74
    0
 42
1e-07
 43
1e-07
 40
0
 40
0
 40
0
 40
0
 40
1
 40
1
 40
1
 40
1
 10
286.745
 20
-162.44434
 30
0
 10
287.831191
 20
-162.444345
 30
0
 10
288.711721
 20
-163.324879
 30
0
 10
288.71172
 20
-164.41107
 30
0
  0
LWPOLYLINE
  5
D2
100
AcDbEntity
  8
Layer_1
  6
ByLayer
 62
    7
370
   -1
100
AcDbPolyline
 90
    1
 70
    1
 43
0
 10
288.74084
 20
-64.44644
  0
SPLINE
  5
D3
100
AcDbEntity
  8
Layer_1
  6
ByLayer
 62
    7
370
   -1
100
AcDbSpline
210
0
220
0
230
0
 70
    8
 71
    3
 72
    8
 73
    4
 74
    0
 42
1e-07
 43
1e-07
 40
0
 40
0
 40
0
 40
0
 40
1
 40
1
 40
1
 40
1
 10
289.11407
 20
-32.47205
 30
0
 10
289.114065
 20
-33.558241
 30
0
 10
288.233531
 20
-34.438771
 30
0
 10
287.14734
 20
-34.43877
 30
0
  0
SPLINE
  5
D4
100
AcDbEntity
  8
Layer_1
  6
ByLayer
 62
    7
370
   -1
100
AcDbSpline
210
0
220
0
230
0
 70
    8
 71
    3
 72
    8
 73
    4
 74
    0
 42
1e-07
 43
1e-07
 40
0
 40
0
 40
0
 40
0
 40
1
 40
1
 40
1
 40
1
 10
287.14734
 20
-34.43877
 30
0
 10
286.061149
 20
-34.438771
 30
0
 10
285.180615
 20
-33.558241
 30
0
 10
285.18061
 20
-32.47205
 30
0
  0
SPLINE
  5
D5
100
AcDbEntity
  8
Layer_1
  6
ByLayer
 62
    7
370
   -1
100
AcDbSpline
210
0
220
0
230
0
 70
    8
 71
    3
 72
    8
 73
    4
 74
    0
 42
1e-07
 43
1e-07
 40
0
 40
0
 40
0
 40
0
 40
1
 40
1
 40
1
 40
1
 10
285.18061
 20
-32.47205
 30
0
 10
285.18061
 20
-31.950441
 30
0
 10
285.387818
 20
-31.450195
 30
0
 10
285.756652
 20
-31.081362
 30
0
  0
SPLINE
  5
D6
100
AcDbEntity
  8
Layer_1
  6
ByLayer
 62
    7
370
   -1
100
AcDbSpline
210
0
220
0
230
0
 70
    8
 71
    3
 72
    8
 73
    4
 74
    0
 42
1e-07
 43
1e-07
 40
0
 40
0
 40
0
 40
0
 40
1
 40
1
 40
1
 40
1
 10
285.756652
 20
-31.081362
 30
0
 10
286.125485
 20
-30.712528
 30
0
 10
286.625731
 20
-30.50532
 30
0
 10
287.14734
 20
-30.50532
 30
0
  0
SPLINE
  5
D7
100
AcDbEntity
  8
Layer_1
  6
ByLayer
 62
    7
370
   -1
100
AcDbSpline
210
0
220
0
230
0
 70
    8
 71
    3
 72
    8
 73
    4
 74
    0
 42
1e-07
 43
1e-07
 40
0
 40
0
 40
0
 40
0
 40
1
 40
1
 40
1
 40
1
 10
287.14734
 20
-30.50532
 30
0
 10
287.668949
 20
-30.50532
 30
0
 10
288.169195
 20
-30.712528
 30
0
 10
288.538028
 20
-31.081362
 30
0
  0
SPLINE
  5
D8
100
AcDbEntity
  8
Layer_1
  6
ByLayer
 62
    7
370
   -1
100
AcDbSpline
210
0
220
0
230
0
 70
    8
 71
    3
 72
    8
 73
    4
 74
    0
 42
1e-07
 43
1e-07
 40
0
 40
0
 40
0
 40
0
 40
1
 40
1
 40
1
 40
1
 10
288.538028
 20
-31.081362
 30
0
 10
288.906862
 20
-31.450195
 30
0
 10
289.11407
 20
-31.950441
 30
0
 10
289.11407
 20
-32.47205
 30
0
  0
LWPOLYLINE
  5
D9
100
AcDbEntity
  8
Layer_1
  6
ByLayer
 62
    7
370
   -1
100
AcDbPolyline
 90
    1
 70
    1
 43
0
 10
288.71172
 20
-164.41107
  0
SPLINE
  5
DA
100
AcDbEntity
  8
Layer_1
  6
ByLayer
 62
    7
370
   -1
100
AcDbSpline
210
0
220
0
230
0
 70
    8
 71
    3
 72
    8
 73
    4
 74
    0
 42
1e-07
 43
1e-07
 40
0
 40
0
 40
0
 40
0
 40
1
 40
1
 40
1
 40
1
 10
289.1516
 20
32.47458
 30
0
 10
289.151601
 20
31.388389
 30
0
 10
288.271071
 20
30.507855
 30
0
 10
287.18488
 20
30.50785
 30
0
  0
SPLINE
  5
DB
100
AcDbEntity
  8
Layer_1
  6
ByLayer
 62
    7
370
   -1
100
AcDbSpline
210
0
220
0
230
0
 70
    8
 71
    3
 72
    8
 73
    4
 74
    0
 42
1e-07
 43
1e-07
 40
0
 40
0
 40
0
 40
0
 40
1
 40
1
 40
1
 40
1
 10
287.18488
 20
30.50785
 30
0
 10
286.663271
 20
30.50785
 30
0
 10
286.163025
 20
30.715058
 30
0
 10
285.794192
 20
31.083892
 30
0
  0
SPLINE
  5
DC
100
AcDbEntity
  8
Layer_1
  6
ByLayer
 62
    7
370
   -1
100
AcDbSpline
210
0
220
0
230
0
 70
    8
 71
    3
 72
    8
 73
    4
 74
    0
 42
1e-07
 43
1e-07
 40
0
 40
0
 40
0
 40
0
 40
1
 40
1
 40
1
 40
1
 10
285.794192
 20
31.083892
 30
0
 10
285.425358
 20
31.452725
 30
0
 10
285.21815
 20
31.952971
 30
0
 10
285.21815
 20
32.47458
 30
0
  0
SPLINE
  5
DD
100
AcDbEntity
  8
Layer_1
  6
ByLayer
 62
    7
370
   -1
100
AcDbSpline
210
0
220
0
230
0
 70
    8
 71
    3
 72
    8
 73
    4
 74
    0
 42
1e-07
 43
1e-07
 40
0
 40
0
 40
0
 40
0
 40
1
 40
1
 40
1
 40
1
 10
285.21815
 20
32.47458
 30
0
 10
285.21815
 20
32.996189
 30
0
 10
285.425358
 20
33.496435
 30
0
 10
285.794192
 20
33.865268
 30
0
  0
SPLINE
  5
DE
100
AcDbEntity
  8
Layer_1
  6
ByLayer
 62
    7
370
   -1
100
AcDbSpline
210
0
220
0
230
0
 70
    8
 71
    3
 72
    8
 73
    4
 74
    0
 42
1e-07
 43
1e-07
 40
0
 40
0
 40
0
 40
0
 40
1
 40
1
 40
1
 40
1
 10
285.794192
 20
33.865268
 30
0
 10
286.163025
 20
34.234102
 30
0
 10
286.663271
 20
34.44131
 30
0
 10
287.18488
 20
34.44131
 30
0
  0
SPLINE
  5
DF
100
AcDbEntity
  8
Layer_1
  6
ByLayer
 62
    7
370
   -1
100
AcDbSpline
210
0
220
0
230
0
 70
    8
 71
    3
 72
    8
 73
    4
 74
    0
 42
1e-07
 43
1e-07
 40
0
 40
0
 40
0
 40
0
 40
1
 40
1
 40
1
 40
1
 10
287.18488
 20
34.44131
 30
0
 10
288.271071
 20
34.441305
 30
0
 10
289.151601
 20
33.560771
 30
0
 10
289.1516
 20
32.47458
 30
0
  0
LWPOLYLINE
  5
E0
100
AcDbEntity
  8
Layer_1
  6
ByLayer
 62
    7
370
   -1
100
AcDbPolyline
 90
    1
 70
    1
 43
0
 10
289.11407
 20
-32.47205
  0
SPLINE
  5
E1
100
AcDbEntity
  8
Layer_1
  6
ByLayer
 62
    7
370
   -1
100
AcDbSpline
210
0
220
0
230
0
 70
    8
 71
    3
 72
    8
 73
    4
 74
    0
 42
1e-07
 43
1e-07
 40
0
 40
0
 40
0
 40
0
 40
1
 40
1
 40
1
 40
1
 10
322.21691
 20
-63.94604
 30
0
 10
322.21691
 20
-64.46764899999999
 30
0
 10
322.009702
 20
-64.967895
 30
0
 10
321.640868
 20
-65.33672799999999
 30
0
  0
SPLINE
  5
E2
100
AcDbEntity
  8
Layer_1
  6
ByLayer
 62
    7
370
   -1
100
AcDbSpline
210
0
220
0
230
0
 70
    8
 71
    3
 72
    8
 73
    4
 74
    0
 42
1e-07
 43
1e-07
 40
0
 40
0
 40
0
 40
0
 40
1
 40
1
 40
1
 40
1
 10
321.640868
 20
-65.33672799999999
 30
0
 10
321.272035
 20
-65.705562
 30
0
 10
320.771789
 20
-65.91276999999999
 30
0
 10
320.25018
 20
-65.91276999999999
 30
0
  0
SPLINE
  5
E3
100
AcDbEntity
  8
Layer_1
  6
ByLayer
 62
    7
370
   -1
100
AcDbSpline
210
0
220
0
230
0
 70
    8
 71
    3
 72
    8
 73
    4
 74
    0
 42
1e-07
 43
1e-07
 40
0
 40
0
 40
0
 40
0
 40
1
 40
1
 40
1
 40
1
 10
320.25018
 20
-65.91276999999999
 30
0
 10
319.728571
 20
-65.91276999999999
 30
0
 10
319.228325
 20
-65.705562
 30
0
 10
318.859492
 20
-65.33672799999999
 30
0
  0
SPLINE
  5
E4
100
AcDbEntity
  8
Layer_1
  6
ByLayer
 62
    7
370
   -1
100
AcDbSpline
210
0
220
0
230
0
 70
    8
 71
    3
 72
    8
 73
    4
 74
    0
 42
1e-07
 43
1e-07
 40
0
 40
0
 40
0
 40
0
 40
1
 40
1
 40
1
 40
1
 10
318.859492
 20
-65.33672799999999
 30
0
 10
318.490658
 20
-64.967895
 30
0
 10
318.28345
 20
-64.46764899999999
 30
0
 10
318.28345
 20
-63.94604
 30
0
  0
SPLINE
  5
E5
100
AcDbEntity
  8
Layer_1
  6
ByLayer
 62
    7
370
   -1
100
AcDbSpline
210
0
220
0
230
0
 70
    8
 71
    3
 72
    8
 73
    4
 74
    0
 42
1e-07
 43
1e-07
 40
0
 40
0
 40
0
 40
0
 40
1
 40
1
 40
1
 40
1
 10
318.28345
 20
-63.94604
 30
0
 10
318.283455
 20
-62.859849
 30
0
 10
319.163989
 20
-61.979319
 30
0
 10
320.25018
 20
-61.97932
 30
0
  0
SPLINE
  5
E6
100
AcDbEntity
  8
Layer_1
  6
ByLayer
 62
    7
370
   -1
100
AcDbSpline
210
0
220
0
230
0
 70
    8
 71
    3
 72
    8
 73
    4
 74
    0
 42
1e-07
 43
1e-07
 40
0
 40
0
 40
0
 40
0
 40
1
 40
1
 40
1
 40
1
 10
320.25018
 20
-61.97932
 30
0
 10
321.336371
 20
-61.979319
 30
0
 10
322.216905
 20
-62.859849
 30
0
 10
322.21691
 20
-63.94604
 30
0
  0
LWPOLYLINE
  5
E7
100
AcDbEntity
  8
Layer_1
  6
ByLayer
 62
    7
370
   -1
100
AcDbPolyline
 90
    1
 70
    1
 43
0
 10
289.1516
 20
32.47458
  0
SPLINE
  5
E8
100
AcDbEntity
  8
Layer_1
  6
ByLayer
 62
    7
370
   -1
100
AcDbSpline
210
0
220
0
230
0
 70
    8
 71
    3
 72
    8
 73
    4
 74
    0
 42
1e-07
 43
1e-07
 40
0
 40
0
 40
0
 40
0
 40
1
 40
1
 40
1
 40
1
 10
387.29937
 20
-63.94604
 30
0
 10
387.29937
 20
-64.46764899999999
 30
0
 10
387.092162
 20
-64.967895
 30
0
 10
386.723328
 20
-65.33672799999999
 30
0
  0
SPLINE
  5
E9
100
AcDbEntity
  8
Layer_1
  6
ByLayer
 62
    7
370
   -1
100
AcDbSpline
210
0
220
0
230
0
 70
    8
 71
    3
 72
    8
 73
    4
 74
    0
 42
1e-07
 43
1e-07
 40
0
 40
0
 40
0
 40
0
 40
1
 40
1
 40
1
 40
1
 10
386.723328
 20
-65.33672799999999
 30
0
 10
386.354495
 20
-65.705562
 30
0
 10
385.854249
 20
-65.91276999999999
 30
0
 10
385.33264
 20
-65.91276999999999
 30
0
  0
SPLINE
  5
EA
100
AcDbEntity
  8
Layer_1
  6
ByLayer
 62
    7
370
   -1
100
AcDbSpline
210
0
220
0
230
0
 70
    8
 71
    3
 72
    8
 73
    4
 74
    0
 42
1e-07
 43
1e-07
 40
0
 40
0
 40
0
 40
0
 40
1
 40
1
 40
1
 40
1
 10
385.33264
 20
-65.91276999999999
 30
0
 10
384.811031
 20
-65.91276999999999
 30
0
 10
384.310785
 20
-65.705562
 30
0
 10
383.941952
 20
-65.33672799999999
 30
0
  0
SPLINE
  5
EB
100
AcDbEntity
  8
Layer_1
  6
ByLayer
 62
    7
370
   -1
100
AcDbSpline
210
0
220
0
230
0
 70
    8
 71
    3
 72
    8
 73
    4
 74
    0
 42
1e-07
 43
1e-07
 40
0
 40
0
 40
0
 40
0
 40
1
 40
1
 40
1
 40
1
 10
383.941952
 20
-65.33672799999999
 30
0
 10
383.573118
 20
-64.967895
 30
0
 10
383.36591
 20
-64.46764899999999
 30
0
 10
383.36591
 20
-63.94604
 30
0
  0
SPLINE
  5
EC
100
AcDbEntity
  8
Layer_1
  6
ByLayer
 62
    7
370
   -1
100
AcDbSpline
210
0
220
0
230
0
 70
    8
 71
    3
 72
    8
 73
    4
 74
    0
 42
1e-07
 43
1e-07
 40
0
 40
0
 40
0
 40
0
 40
1
 40
1
 40
1
 40
1
 10
383.36591
 20
-63.94604
 30
0
 10
383.365915
 20
-62.859849
 30
0
 10
384.246449
 20
-61.979319
 30
0
 10
385.33264
 20
-61.97932
 30
0
  0
SPLINE
  5
ED
100
AcDbEntity
  8
Layer_1
  6
ByLayer
 62
    7
370
   -1
100
AcDbSpline
210
0
220
0
230
0
 70
    8
 71
    3
 72
    8
 73
    4
 74
    0
 42
1e-07
 43
1e-07
 40
0
 40
0
 40
0
 40
0
 40
1
 40
1
 40
1
 40
1
 10
385.33264
 20
-61.97932
 30
0
 10
386.418831
 20
-61.979319
 30
0
 10
387.299365
 20
-62.859849
 30
0
 10
387.29937
 20
-63.94604
 30
0
  0
LWPOLYLINE
  5
EE
100
AcDbEntity
  8
Layer_1
  6
ByLayer
 62
    7
370
   -1
100
AcDbPolyline
 90
    1
 70
    1
 43
0
 10
322.21691
 20
-63.94604
  0
SPLINE
  5
EF
100
AcDbEntity
  8
Layer_1
  6
ByLayer
 62
    7
370
   -1
100
AcDbSpline
210
0
220
0
230
0
 70
    8
 71
    3
 72
    8
 73
    4
 74
    0
 42
1e-07
 43
1e-07
 40
0
 40
0
 40
0
 40
0
 40
1
 40
1
 40
1
 40
1
 10
387.29937
 20
-164.0285
 30
0
 10
387.29937
 20
-164.550109
 30
0
 10
387.092162
 20
-165.050355
 30
0
 10
386.723328
 20
-165.419188
 30
0
  0
SPLINE
  5
F0
100
AcDbEntity
  8
Layer_1
  6
ByLayer
 62
    7
370
   -1
100
AcDbSpline
210
0
220
0
230
0
 70
    8
 71
    3
 72
    8
 73
    4
 74
    0
 42
1e-07
 43
1e-07
 40
0
 40
0
 40
0
 40
0
 40
1
 40
1
 40
1
 40
1
 10
386.723328
 20
-165.419188
 30
0
 10
386.354495
 20
-165.788022
 30
0
 10
385.854249
 20
-165.99523
 30
0
 10
385.33264
 20
-165.99523
 30
0
  0
SPLINE
  5
F1
100
AcDbEntity
  8
Layer_1
  6
ByLayer
 62
    7
370
   -1
100
AcDbSpline
210
0
220
0
230
0
 70
    8
 71
    3
 72
    8
 73
    4
 74
    0
 42
1e-07
 43
1e-07
 40
0
 40
0
 40
0
 40
0
 40
1
 40
1
 40
1
 40
1
 10
385.33264
 20
-165.99523
 30
0
 10
384.811031
 20
-165.99523
 30
0
 10
384.310785
 20
-165.788022
 30
0
 10
383.941952
 20
-165.419188
 30
0
  0
SPLINE
  5
F2
100
AcDbEntity
  8
Layer_1
  6
ByLayer
 62
    7
370
   -1
100
AcDbSpline
210
0
220
0
230
0
 70
    8
 71
    3
 72
    8
 73
    4
 74
    0
 42
1e-07
 43
1e-07
 40
0
 40
0
 40
0
 40
0
 40
1
 40
1
 40
1
 40
1
 10
383.941952
 20
-165.419188
 30
0
 10
383.573118
 20
-165.050355
 30
0
 10
383.36591
 20
-164.550109
 30
0
 10
383.36591
 20
-164.0285
 30
0
  0
SPLINE
  5
F3
100
AcDbEntity
  8
Layer_1
  6
ByLayer
 62
    7
370
   -1
100
AcDbSpline
210
0
220
0
230
0
 70
    8
 71
    3
 72
    8
 73
    4
 74
    0
 42
1e-07
 43
1e-07
 40
0
 40
0
 40
0
 40
0
 40
1
 40
1
 40
1
 40
1
 10
383.36591
 20
-164.0285
 30
0
 10
383.36591
 20
-163.506891
 30
0
 10
383.573118
 20
-163.006645
 30
0
 10
383.941952
 20
-162.637812
 30
0
  0
SPLINE
  5
F4
100
AcDbEntity
  8
Layer_1
  6
ByLayer
 62
    7
370
   -1
100
AcDbSpline
210
0
220
0
230
0
 70
    8
 71
    3
 72
    8
 73
    4
 74
    0
 42
1e-07
 43
1e-07
 40
0
 40
0
 40
0
 40
0
 40
1
 40
1
 40
1
 40
1
 10
383.941952
 20
-162.637812
 30
0
 10
384.310785
 20
-162.268978
 30
0
 10
384.811031
 20
-162.06177
 30
0
 10
385.33264
 20
-162.06177
 30
0
  0
SPLINE
  5
F5
100
AcDbEntity
  8
Layer_1
  6
ByLayer
 62
    7
370
   -1
100
AcDbSpline
210
0
220
0
230
0
 70
    8
 71
    3
 72
    8
 73
    4
 74
    0
 42
1e-07
 43
1e-07
 40
0
 40
0
 40
0
 40
0
 40
1
 40
1
 40
1
 40
1
 10
385.33264
 20
-162.06177
 30
0
 10
385.854249
 20
-162.06177
 30
0
 10
386.354495
 20
-162.268978
 30
0
 10
386.723328
 20
-162.637812
 30
0
  0
SPLINE
  5
F6
100
AcDbEntity
  8
Layer_1
  6
ByLayer
 62
    7
370
   -1
100
AcDbSpline
210
0
220
0
230
0
 70
    8
 71
    3
 72
    8
 73
    4
 74
    0
 42
1e-07
 43
1e-07
 40
0
 40
0
 40
0
 40
0
 40
1
 40
1
 40
1
 40
1
 10
386.723328
 20
-162.637812
 30
0
 10
387.092162
 20
-163.006645
 30
0
 10
387.29937
 20
-163.506891
 30
0
 10
387.29937
 20
-164.0285
 30
0
  0
LWPOLYLINE
  5
F7
100
AcDbEntity
  8
Layer_1
  6
ByLayer
 62
    7
370
   -1
100
AcDbPolyline
 90
    1
 70
    1
 43
0
 10
387.29937
 20
-63.94604
  0
SPLINE
  5
F8
100
AcDbEntity
  8
Layer_1
  6
ByLayer
 62
    7
370
   -1
100
AcDbSpline
210
0
220
0
230
0
 70
    8
 71
    3
 72
    8
 73
    4
 74
    0
 42
1e-07
 43
1e-07
 40
0
 40
0
 40
0
 40
0
 40
1
 40
1
 40
1
 40
1
 10
322.21691
 20
-164.0285
 30
0
 10
322.21691
 20
-164.550109
 30
0
 10
322.009702
 20
-165.050355
 30
0
 10
321.640868
 20
-165.419188
 30
0
  0
SPLINE
  5
F9
100
AcDbEntity
  8
Layer_1
  6
ByLayer
 62
    7
370
   -1
100
AcDbSpline
210
0
220
0
230
0
 70
    8
 71
    3
 72
    8
 73
    4
 74
    0
 42
1e-07
 43
1e-07
 40
0
 40
0
 40
0
 40
0
 40
1
 40
1
 40
1
 40
1
 10
321.640868
 20
-165.419188
 30
0
 10
321.272035
 20
-165.788022
 30
0
 10
320.771789
 20
-165.99523
 30
0
 10
320.25018
 20
-165.99523
 30
0
  0
SPLINE
  5
FA
100
AcDbEntity
  8
Layer_1
  6
ByLayer
 62
    7
370
   -1
100
AcDbSpline
210
0
220
0
230
0
 70
    8
 71
    3
 72
    8
 73
    4
 74
    0
 42
1e-07
 43
1e-07
 40
0
 40
0
 40
0
 40
0
 40
1
 40
1
 40
1
 40
1
 10
320.25018
 20
-165.99523
 30
0
 10
319.728571
 20
-165.99523
 30
0
 10
319.228325
 20
-165.788022
 30
0
 10
318.859492
 20
-165.419188
 30
0
  0
SPLINE
  5
FB
100
AcDbEntity
  8
Layer_1
  6
ByLayer
 62
    7
370
   -1
100
AcDbSpline
210
0
220
0
230
0
 70
    8
 71
    3
 72
    8
 73
    4
 74
    0
 42
1e-07
 43
1e-07
 40
0
 40
0
 40
0
 40
0
 40
1
 40
1
 40
1
 40
1
 10
318.859492
 20
-165.419188
 30
0
 10
318.490658
 20
-165.050355
 30
0
 10
318.28345
 20
-164.550109
 30
0
 10
318.28345
 20
-164.0285
 30
0
  0
SPLINE
  5
FC
100
AcDbEntity
  8
Layer_1
  6
ByLayer
 62
    7
370
   -1
100
AcDbSpline
210
0
220
0
230
0
 70
    8
 71
    3
 72
    8
 73
    4
 74
    0
 42
1e-07
 43
1e-07
 40
0
 40
0
 40
0
 40
0
 40
1
 40
1
 40
1
 40
1
 10
318.28345
 20
-164.0285
 30
0
 10
318.28345
 20
-163.506891
 30
0
 10
318.490658
 20
-163.006645
 30
0
 10
318.859492
 20
-162.637812
 30
0
  0
SPLINE
  5
FD
100
AcDbEntity
  8
Layer_1
  6
ByLayer
 62
    7
370
   -1
100
AcDbSpline
210
0
220
0
230
0
 70
    8
 71
    3
 72
    8
 73
    4
 74
    0
 42
1e-07
 43
1e-07
 40
0
 40
0
 40
0
 40
0
 40
1
 40
1
 40
1
 40
1
 10
318.859492
 20
-162.637812
 30
0
 10
319.228325
 20
-162.268978
 30
0
 10
319.728571
 20
-162.06177
 30
0
 10
320.25018
 20
-162.06177
 30
0
  0
SPLINE
  5
FE
100
AcDbEntity
  8
Layer_1
  6
ByLayer
 62
    7
370
   -1
100
AcDbSpline
210
0
220
0
230
0
 70
    8
 71
    3
 72
    8
 73
    4
 74
    0
 42
1e-07
 43
1e-07
 40
0
 40
0
 40
0
 40
0
 40
1
 40
1
 40
1
 40
1
 10
320.25018
 20
-162.06177
 30
0
 10
320.771789
 20
-162.06177
 30
0
 10
321.272035
 20
-162.268978
 30
0
 10
321.640868
 20
-162.637812
 30
0
  0
SPLINE
  5
FF
100
AcDbEntity
  8
Layer_1
  6
ByLayer
 62
    7
370
   -1
100
AcDbSpline
210
0
220
0
230
0
 70
    8
 71
    3
 72
    8
 73
    4
 74
    0
 42
1e-07
 43
1e-07
 40
0
 40
0
 40
0
 40
0
 40
1
 40
1
 40
1
 40
1
 10
321.640868
 20
-162.637812
 30
0
 10
322.009702
 20
-163.006645
 30
0
 10
322.21691
 20
-163.506891
 30
0
 10
322.21691
 20
-164.0285
 30
0
  0
LWPOLYLINE
  5
100
100
AcDbEntity
  8
Layer_1
  6
ByLayer
 62
    7
370
   -1
100
AcDbPolyline
 90
    1
 70
    1
 43
0
 10
387.29937
 20
-164.0285
  0
SPLINE
  5
101
100
AcDbEntity
  8
Layer_1
  6
ByLayer
 62
    7
370
   -1
100
AcDbSpline
210
0
220
0
230
0
 70
    8
 71
    3
 72
    8
 73
    4
 74
    0
 42
1e-07
 43
1e-07
 40
0
 40
0
 40
0
 40
0
 40
1
 40
1
 40
1
 40
1
 10
292.75213
 20
169.9846
 30
0
 10
292.75213
 20
169.462991
 30
0
 10
292.544922
 20
168.962745
 30
0
 10
292.176088
 20
168.593912
 30
0
  0
SPLINE
  5
102
100
AcDbEntity
  8
Layer_1
  6
ByLayer
 62
    7
370
   -1
100
AcDbSpline
210
0
220
0
230
0
 70
    8
 71
    3
 72
    8
 73
    4
 74
    0
 42
1e-07
 43
1e-07
 40
0
 40
0
 40
0
 40
0
 40
1
 40
1
 40
1
 40
1
 10
292.176088
 20
168.593912
 30
0
 10
291.807255
 20
168.225078
 30
0
 10
291.307009
 20
168.01787
 30
0
 10
290.7854
 20
168.01787
 30
0
  0
SPLINE
  5
103
100
AcDbEntity
  8
Layer_1
  6
ByLayer
 62
    7
370
   -1
100
AcDbSpline
210
0
220
0
230
0
 70
    8
 71
    3
 72
    8
 73
    4
 74
    0
 42
1e-07
 43
1e-07
 40
0
 40
0
 40
0
 40
0
 40
1
 40
1
 40
1
 40
1
 10
290.7854
 20
168.01787
 30
0
 10
290.263791
 20
168.01787
 30
0
 10
289.763545
 20
168.225078
 30
0
 10
289.394712
 20
168.593912
 30
0
  0
SPLINE
  5
104
100
AcDbEntity
  8
Layer_1
  6
ByLayer
 62
    7
370
   -1
100
AcDbSpline
210
0
220
0
230
0
 70
    8
 71
    3
 72
    8
 73
    4
 74
    0
 42
1e-07
 43
1e-07
 40
0
 40
0
 40
0
 40
0
 40
1
 40
1
 40
1
 40
1
 10
289.394712
 20
168.593912
 30
0
 10
289.025878
 20
168.962745
 30
0
 10
288.81867
 20
169.462991
 30
0
 10
288.81867
 20
169.9846
 30
0
  0
SPLINE
  5
105
100
AcDbEntity
  8
Layer_1
  6
ByLayer
 62
    7
370
   -1
100
AcDbSpline
210
0
220
0
230
0
 70
    8
 71
    3
 72
    8
 73
    4
 74
    0
 42
1e-07
 43
1e-07
 40
0
 40
0
 40
0
 40
0
 40
1
 40
1
 40
1
 40
1
 10
288.81867
 20
169.9846
 30
0
 10
288.81867
 20
170.506209
 30
0
 10
289.025878
 20
171.006455
 30
0
 10
289.394712
 20
171.375288
 30
0
  0
SPLINE
  5
106
100
AcDbEntity
  8
Layer_1
  6
ByLayer
 62
    7
370
   -1
100
AcDbSpline
210
0
220
0
230
0
 70
    8
 71
    3
 72
    8
 73
    4
 74
    0
 42
1e-07
 43
1e-07
 40
0
 40
0
 40
0
 40
0
 40
1
 40
1
 40
1
 40
1
 10
289.394712
 20
171.375288
 30
0
 10
289.763545
 20
171.744122
 30
0
 10
290.263791
 20
171.95133
 30
0
 10
290.7854
 20
171.95133
 30
0
  0
SPLINE
  5
107
100
AcDbEntity
  8
Layer_1
  6
ByLayer
 62
    7
370
   -1
100
AcDbSpline
210
0
220
0
230
0
 70
    8
 71
    3
 72
    8
 73
    4
 74
    0
 42
1e-07
 43
1e-07
 40
0
 40
0
 40
0
 40
0
 40
1
 40
1
 40
1
 40
1
 10
290.7854
 20
171.95133
 30
0
 10
291.307009
 20
171.95133
 30
0
 10
291.807255
 20
171.744122
 30
0
 10
292.176088
 20
171.375288
 30
0
  0
SPLINE
  5
108
100
AcDbEntity
  8
Layer_1
  6
ByLayer
 62
    7
370
   -1
100
AcDbSpline
210
0
220
0
230
0
 70
    8
 71
    3
 72
    8
 73
    4
 74
    0
 42
1e-07
 43
1e-07
 40
0
 40
0
 40
0
 40
0
 40
1
 40
1
 40
1
 40
1
 10
292.176088
 20
171.375288
 30
0
 10
292.544922
 20
171.006455
 30
0
 10
292.75213
 20
170.506209
 30
0
 10
292.75213
 20
169.9846
 30
0
  0
LWPOLYLINE
  5
109
100
AcDbEntity
  8
Layer_1
  6
ByLayer
 62
    7
370
   -1
100
AcDbPolyline
 90
    1
 70
    1
 43
0
 10
322.21691
 20
-164.0285
  0
SPLINE
  5
10A
100
AcDbEntity
  8
Layer_1
  6
ByLayer
 62
    7
370
   -1
100
AcDbSpline
210
0
220
0
230
0
 70
    8
 71
    3
 72
    8
 73
    4
 74
    0
 42
1e-07
 43
1e-07
 40
0
 40
0
 40
0
 40
0
 40
1
 40
1
 40
1
 40
1
 10
292.6766
 20
269.948021
 30
0
 10
292.6766
 20
269.426412
 30
0
 10
292.469392
 20
268.926166
 30
0
 10
292.100558
 20
268.557333
 30
0
  0
SPLINE
  5
10B
100
AcDbEntity
  8
Layer_1
  6
ByLayer
 62
    7
370
   -1
100
AcDbSpline
210
0
220
0
230
0
 70
    8
 71
    3
 72
    8
 73
    4
 74
    0
 42
1e-07
 43
1e-07
 40
0
 40
0
 40
0
 40
0
 40
1
 40
1
 40
1
 40
1
 10
292.100558
 20
268.557333
 30
0
 10
291.731725
 20
268.1885
 30
0
 10
291.231479
 20
267.981292
 30
0
 10
290.70987
 20
267.981292
 30
0
  0
SPLINE
  5
10C
100
AcDbEntity
  8
Layer_1
  6
ByLayer
 62
    7
370
   -1
100
AcDbSpline
210
0
220
0
230
0
 70
    8
 71
    3
 72
    8
 73
    4
 74
    0
 42
1e-07
 43
1e-07
 40
0
 40
0
 40
0
 40
0
 40
1
 40
1
 40
1
 40
1
 10
290.70987
 20
267.981292
 30
0
 10
290.188261
 20
267.981292
 30
0
 10
289.688015
 20
268.1885
 30
0
 10
289.319182
 20
268.557333
 30
0
  0
SPLINE
  5
10D
100
AcDbEntity
  8
Layer_1
  6
ByLayer
 62
    7
370
   -1
100
AcDbSpline
210
0
220
0
230
0
 70
    8
 71
    3
 72
    8
 73
    4
 74
    0
 42
1e-07
 43
1e-07
 40
0
 40
0
 40
0
 40
0
 40
1
 40
1
 40
1
 40
1
 10
289.319182
 20
268.557333
 30
0
 10
288.950348
 20
268.926166
 30
0
 10
288.74314
 20
269.426412
 30
0
 10
288.74314
 20
269.948021
 30
0
  0
SPLINE
  5
10E
100
AcDbEntity
  8
Layer_1
  6
ByLayer
 62
    7
370
   -1
100
AcDbSpline
210
0
220
0
230
0
 70
    8
 71
    3
 72
    8
 73
    4
 74
    0
 42
1e-07
 43
1e-07
 40
0
 40
0
 40
0
 40
0
 40
1
 40
1
 40
1
 40
1
 10
288.74314
 20
269.948021
 30
0
 10
288.74314
 20
270.46963
 30
0
 10
288.950348
 20
270.969876
 30
0
 10
289.319182
 20
271.338709
 30
0
  0
SPLINE
  5
10F
100
AcDbEntity
  8
Layer_1
  6
ByLayer
 62
    7
370
   -1
100
AcDbSpline
210
0
220
0
230
0
 70
    8
 71
    3
 72
    8
 73
    4
 74
    0
 42
1e-07
 43
1e-07
 40
0
 40
0
 40
0
 40
0
 40
1
 40
1
 40
1
 40
1
 10
289.319182
 20
271.338709
 30
0
 10
289.688015
 20
271.707542
 30
0
 10
290.188261
 20
271.91475
 30
0
 10
290.70987
 20
271.91475
 30
0
  0
SPLINE
  5
110
100
AcDbEntity
  8
Layer_1
  6
ByLayer
 62
    7
370
   -1
100
AcDbSpline
210
0
220
0
230
0
 70
    8
 71
    3
 72
    8
 73
    4
 74
    0
 42
1e-07
 43
1e-07
 40
0
 40
0
 40
0
 40
0
 40
1
 40
1
 40
1
 40
1
 10
290.70987
 20
271.91475
 30
0
 10
291.231479
 20
271.91475
 30
0
 10
291.731725
 20
271.707542
 30
0
 10
292.100558
 20
271.338709
 30
0
  0
SPLINE
  5
111
100
AcDbEntity
  8
Layer_1
  6
ByLayer
 62
    7
370
   -1
100
AcDbSpline
210
0
220
0
230
0
 70
    8
 71
    3
 72
    8
 73
    4
 74
    0
 42
1e-07
 43
1e-07
 40
0
 40
0
 40
0
 40
0
 40
1
 40
1
 40
1
 40
1
 10
292.100558
 20
271.338709
 30
0
 10
292.469392
 20
270.969876
 30
0
 10
292.6766
 20
270.46963
 30
0
 10
292.6766
 20
269.948021
 30
0
  0
LWPOLYLINE
  5
112
100
AcDbEntity
  8
Layer_1
  6
ByLayer
 62
    7
370
   -1
100
AcDbPolyline
 90
    1
 70
    1
 43
0
 10
292.75213
 20
169.9846
  0
SPLINE
  5
113
100
AcDbEntity
  8
Layer_1
  6
ByLayer
 62
    7
370
   -1
100
AcDbSpline
210
0
220
0
230
0
 70
    8
 71
    3
 72
    8
 73
    4
 74
    0
 42
1e-07
 43
1e-07
 40
0
 40
0
 40
0
 40
0
 40
1
 40
1
 40
1
 40
1
 10
292.80856
 20
347.349571
 30
0
 10
292.80856
 20
346.827962
 30
0
 10
292.601352
 20
346.327716
 30
0
 10
292.232518
 20
345.958883
 30
0
  0
SPLINE
  5
114
100
AcDbEntity
  8
Layer_1
  6
ByLayer
 62
    7
370
   -1
100
AcDbSpline
210
0
220
0
230
0
 70
    8
 71
    3
 72
    8
 73
    4
 74
    0
 42
1e-07
 43
1e-07
 40
0
 40
0
 40
0
 40
0
 40
1
 40
1
 40
1
 40
1
 10
292.232518
 20
345.958883
 30
0
 10
291.863685
 20
345.59005
 30
0
 10
291.363439
 20
345.382842
 30
0
 10
290.84183
 20
345.382842
 30
0
  0
SPLINE
  5
115
100
AcDbEntity
  8
Layer_1
  6
ByLayer
 62
    7
370
   -1
100
AcDbSpline
210
0
220
0
230
0
 70
    8
 71
    3
 72
    8
 73
    4
 74
    0
 42
1e-07
 43
1e-07
 40
0
 40
0
 40
0
 40
0
 40
1
 40
1
 40
1
 40
1
 10
290.84183
 20
345.382842
 30
0
 10
290.320221
 20
345.382842
 30
0
 10
289.819975
 20
345.59005
 30
0
 10
289.451142
 20
345.958883
 30
0
  0
SPLINE
  5
116
100
AcDbEntity
  8
Layer_1
  6
ByLayer
 62
    7
370
   -1
100
AcDbSpline
210
0
220
0
230
0
 70
    8
 71
    3
 72
    8
 73
    4
 74
    0
 42
1e-07
 43
1e-07
 40
0
 40
0
 40
0
 40
0
 40
1
 40
1
 40
1
 40
1
 10
289.451142
 20
345.958883
 30
0
 10
289.082308
 20
346.327716
 30
0
 10
288.8751
 20
346.827962
 30
0
 10
288.8751
 20
347.349571
 30
0
  0
SPLINE
  5
117
100
AcDbEntity
  8
Layer_1
  6
ByLayer
 62
    7
370
   -1
100
AcDbSpline
210
0
220
0
230
0
 70
    8
 71
    3
 72
    8
 73
    4
 74
    0
 42
1e-07
 43
1e-07
 40
0
 40
0
 40
0
 40
0
 40
1
 40
1
 40
1
 40
1
 10
288.8751
 20
347.349571
 30
0
 10
288.8751
 20
347.87118
 30
0
 10
289.082308
 20
348.371426
 30
0
 10
289.451142
 20
348.740259
 30
0
  0
SPLINE
  5
118
100
AcDbEntity
  8
Layer_1
  6
ByLayer
 62
    7
370
   -1
100
AcDbSpline
210
0
220
0
230
0
 70
    8
 71
    3
 72
    8
 73
    4
 74
    0
 42
1e-07
 43
1e-07
 40
0
 40
0
 40
0
 40
0
 40
1
 40
1
 40
1
 40
1
 10
289.451142
 20
348.740259
 30
0
 10
289.819975
 20
349.109092
 30
0
 10
290.320221
 20
349.3163
 30
0
 10
290.84183
 20
349.3163
 30
0
  0
SPLINE
  5
119
100
AcDbEntity
  8
Layer_1
  6
ByLayer
 62
    7
370
   -1
100
AcDbSpline
210
0
220
0
230
0
 70
    8
 71
    3
 72
    8
 73
    4
 74
    0
 42
1e-07
 43
1e-07
 40
0
 40
0
 40
0
 40
0
 40
1
 40
1
 40
1
 40
1
 10
290.84183
 20
349.3163
 30
0
 10
291.363439
 20
349.3163
 30
0
 10
291.863685
 20
349.109092
 30
0
 10
292.232518
 20
348.740259
 30
0
  0
SPLINE
  5
11A
100
AcDbEntity
  8
Layer_1
  6
ByLayer
 62
    7
370
   -1
100
AcDbSpline
210
0
220
0
230
0
 70
    8
 71
    3
 72
    8
 73
    4
 74
    0
 42
1e-07
 43
1e-07
 40
0
 40
0
 40
0
 40
0
 40
1
 40
1
 40
1
 40
1
 10
292.232518
 20
348.740259
 30
0
 10
292.601352
 20
348.371426
 30
0
 10
292.80856
 20
347.87118
 30
0
 10
292.80856
 20
347.349571
 30
0
  0
LWPOLYLINE
  5
11B
100
AcDbEntity
  8
Layer_1
  6
ByLayer
 62
    7
370
   -1
100
AcDbPolyline
 90
    1
 70
    1
 43
0
 10
292.6766
 20
269.948021
  0
SPLINE
  5
11C
100
AcDbEntity
  8
Layer_1
  6
ByLayer
 62
    7
370
   -1
100
AcDbSpline
210
0
220
0
230
0
 70
    8
 71
    3
 72
    8
 73
    4
 74
    0
 42
1e-07
 43
1e-07
 40
0
 40
0
 40
0
 40
0
 40
1
 40
1
 40
1
 40
1
 10
292.80856
 20
412.18633
 30
0
 10
292.80856
 20
411.664721
 30
0
 10
292.601352
 20
411.164475
 30
0
 10
292.232518
 20
410.795642
 30
0
  0
SPLINE
  5
11D
100
AcDbEntity
  8
Layer_1
  6
ByLayer
 62
    7
370
   -1
100
AcDbSpline
210
0
220
0
230
0
 70
    8
 71
    3
 72
    8
 73
    4
 74
    0
 42
1e-07
 43
1e-07
 40
0
 40
0
 40
0
 40
0
 40
1
 40
1
 40
1
 40
1
 10
292.232518
 20
410.795642
 30
0
 10
291.863685
 20
410.426808
 30
0
 10
291.363439
 20
410.2196
 30
0
 10
290.84183
 20
410.2196
 30
0
  0
SPLINE
  5
11E
100
AcDbEntity
  8
Layer_1
  6
ByLayer
 62
    7
370
   -1
100
AcDbSpline
210
0
220
0
230
0
 70
    8
 71
    3
 72
    8
 73
    4
 74
    0
 42
1e-07
 43
1e-07
 40
0
 40
0
 40
0
 40
0
 40
1
 40
1
 40
1
 40
1
 10
290.84183
 20
410.2196
 30
0
 10
290.320221
 20
410.2196
 30
0
 10
289.819975
 20
410.426808
 30
0
 10
289.451142
 20
410.795642
 30
0
  0
SPLINE
  5
11F
100
AcDbEntity
  8
Layer_1
  6
ByLayer
 62
    7
370
   -1
100
AcDbSpline
210
0
220
0
230
0
 70
    8
 71
    3
 72
    8
 73
    4
 74
    0
 42
1e-07
 43
1e-07
 40
0
 40
0
 40
0
 40
0
 40
1
 40
1
 40
1
 40
1
 10
289.451142
 20
410.795642
 30
0
 10
289.082308
 20
411.164475
 30
0
 10
288.8751
 20
411.664721
 30
0
 10
288.8751
 20
412.18633
 30
0
  0
SPLINE
  5
120
100
AcDbEntity
  8
Layer_1
  6
ByLayer
 62
    7
370
   -1
100
AcDbSpline
210
0
220
0
230
0
 70
    8
 71
    3
 72
    8
 73
    4
 74
    0
 42
1e-07
 43
1e-07
 40
0
 40
0
 40
0
 40
0
 40
1
 40
1
 40
1
 40
1
 10
288.8751
 20
412.18633
 30
0
 10
288.8751
 20
412.707939
 30
0
 10
289.082308
 20
413.208185
 30
0
 10
289.451142
 20
413.577018
 30
0
  0
SPLINE
  5
121
100
AcDbEntity
  8
Layer_1
  6
ByLayer
 62
    7
370
   -1
100
AcDbSpline
210
0
220
0
230
0
 70
    8
 71
    3
 72
    8
 73
    4
 74
    0
 42
1e-07
 43
1e-07
 40
0
 40
0
 40
0
 40
0
 40
1
 40
1
 40
1
 40
1
 10
289.451142
 20
413.577018
 30
0
 10
289.819975
 20
413.945852
 30
0
 10
290.320221
 20
414.15306
 30
0
 10
290.84183
 20
414.15306
 30
0
  0
SPLINE
  5
122
100
AcDbEntity
  8
Layer_1
  6
ByLayer
 62
    7
370
   -1
100
AcDbSpline
210
0
220
0
230
0
 70
    8
 71
    3
 72
    8
 73
    4
 74
    0
 42
1e-07
 43
1e-07
 40
0
 40
0
 40
0
 40
0
 40
1
 40
1
 40
1
 40
1
 10
290.84183
 20
414.15306
 30
0
 10
291.363439
 20
414.15306
 30
0
 10
291.863685
 20
413.945852
 30
0
 10
292.232518
 20
413.577018
 30
0
  0
SPLINE
  5
123
100
AcDbEntity
  8
Layer_1
  6
ByLayer
 62
    7
370
   -1
100
AcDbSpline
210
0
220
0
230
0
 70
    8
 71
    3
 72
    8
 73
    4
 74
    0
 42
1e-07
 43
1e-07
 40
0
 40
0
 40
0
 40
0
 40
1
 40
1
 40
1
 40
1
 10
292.232518
 20
413.577018
 30
0
 10
292.601352
 20
413.208185
 30
0
 10
292.80856
 20
412.707939
 30
0
 10
292.80856
 20
412.18633
 30
0
  0
LWPOLYLINE
  5
124
100
AcDbEntity
  8
Layer_1
  6
ByLayer
 62
    7
370
   -1
100
AcDbPolyline
 90
    1
 70
    1
 43
0
 10
292.80856
 20
347.349571
  0
SPLINE
  5
125
100
AcDbEntity
  8
Layer_1
  6
ByLayer
 62
    1
370
   -1
100
AcDbSpline
210
0
220
0
230
0
 70
    8
 71
    3
 72
    8
 73
    4
 74
    0
 42
1e-07
 43
1e-07
 40
0
 40
0
 40
0
 40
0
 40
1
 40
1
 40
1
 40
1
 10
276.83027
 20
145.91078
 30
0
 10
276.83027
 20
146.432514
 30
0
 10
276.623012
 20
146.932879
 30
0
 10
276.254091
 20
147.301801
 30
0
  0
SPLINE
  5
126
100
AcDbEntity
  8
Layer_1
  6
ByLayer
 62
    1
370
   -1
100
AcDbSpline
210
0
220
0
230
0
 70
    8
 71
    3
 72
    8
 73
    4
 74
    0
 42
1e-07
 43
1e-07
 40
0
 40
0
 40
0
 40
0
 40
1
 40
1
 40
1
 40
1
 10
276.254091
 20
147.301801
 30
0
 10
275.885169
 20
147.670722
 30
0
 10
275.384804
 20
147.87798
 30
0
 10
274.86307
 20
147.87798
 30
0
  0
SPLINE
  5
127
100
AcDbEntity
  8
Layer_1
  6
ByLayer
 62
    1
370
   -1
100
AcDbSpline
210
0
220
0
230
0
 70
    8
 71
    3
 72
    8
 73
    4
 74
    0
 42
1e-07
 43
1e-07
 40
0
 40
0
 40
0
 40
0
 40
1
 40
1
 40
1
 40
1
 10
274.86307
 20
147.87798
 30
0
 10
274.341336
 20
147.87798
 30
0
 10
273.840971
 20
147.670722
 30
0
 10
273.472049
 20
147.301801
 30
0
  0
SPLINE
  5
128
100
AcDbEntity
  8
Layer_1
  6
ByLayer
 62
    1
370
   -1
100
AcDbSpline
210
0
220
0
230
0
 70
    8
 71
    3
 72
    8
 73
    4
 74
    0
 42
1e-07
 43
1e-07
 40
0
 40
0
 40
0
 40
0
 40
1
 40
1
 40
1
 40
1
 10
273.472049
 20
147.301801
 30
0
 10
273.103128
 20
146.932879
 30
0
 10
272.89587
 20
146.432514
 30
0
 10
272.89587
 20
145.91078
 30
0
  0
SPLINE
  5
129
100
AcDbEntity
  8
Layer_1
  6
ByLayer
 62
    1
370
   -1
100
AcDbSpline
210
0
220
0
230
0
 70
    8
 71
    3
 72
    8
 73
    4
 74
    0
 42
1e-07
 43
1e-07
 40
0
 40
0
 40
0
 40
0
 40
1
 40
1
 40
1
 40
1
 10
272.89587
 20
145.91078
 30
0
 10
272.89587
 20
145.389046
 30
0
 10
273.103128
 20
144.888681
 30
0
 10
273.472049
 20
144.519759
 30
0
  0
SPLINE
  5
12A
100
AcDbEntity
  8
Layer_1
  6
ByLayer
 62
    1
370
   -1
100
AcDbSpline
210
0
220
0
230
0
 70
    8
 71
    3
 72
    8
 73
    4
 74
    0
 42
1e-07
 43
1e-07
 40
0
 40
0
 40
0
 40
0
 40
1
 40
1
 40
1
 40
1
 10
273.472049
 20
144.519759
 30
0
 10
273.840971
 20
144.150838
 30
0
 10
274.341336
 20
143.94358
 30
0
 10
274.86307
 20
143.94358
 30
0
  0
SPLINE
  5
12B
100
AcDbEntity
  8
Layer_1
  6
ByLayer
 62
    1
370
   -1
100
AcDbSpline
210
0
220
0
230
0
 70
    8
 71
    3
 72
    8
 73
    4
 74
    0
 42
1e-07
 43
1e-07
 40
0
 40
0
 40
0
 40
0
 40
1
 40
1
 40
1
 40
1
 10
274.86307
 20
143.94358
 30
0
 10
275.384804
 20
143.94358
 30
0
 10
275.885169
 20
144.150838
 30
0
 10
276.254091
 20
144.519759
 30
0
  0
SPLINE
  5
12C
100
AcDbEntity
  8
Layer_1
  6
ByLayer
 62
    1
370
   -1
100
AcDbSpline
210
0
220
0
230
0
 70
    8
 71
    3
 72
    8
 73
    4
 74
    0
 42
1e-07
 43
1e-07
 40
0
 40
0
 40
0
 40
0
 40
1
 40
1
 40
1
 40
1
 10
276.254091
 20
144.519759
 30
0
 10
276.623012
 20
144.888681
 30
0
 10
276.83027
 20
145.389046
 30
0
 10
276.83027
 20
145.91078
 30
0
  0
LWPOLYLINE
  5
12D
100
AcDbEntity
  8
Layer_1
  6
ByLayer
 62
    7
370
   -1
100
AcDbPolyline
 90
    1
 70
    1
 43
0
 10
292.80856
 20
412.18633
  0
SPLINE
  5
12E
100
AcDbEntity
  8
Layer_1
  6
ByLayer
 62
    1
370
   -1
100
AcDbSpline
210
0
220
0
230
0
 70
    8
 71
    3
 72
    8
 73
    4
 74
    0
 42
1e-07
 43
1e-07
 40
0
 40
0
 40
0
 40
0
 40
1
 40
1
 40
1
 40
1
 10
175.39306
 20
294.016978
 30
0
 10
175.39306
 20
293.495244
 30
0
 10
175.185802
 20
292.994879
 30
0
 10
174.81688
 20
292.625957
 30
0
  0
SPLINE
  5
12F
100
AcDbEntity
  8
Layer_1
  6
ByLayer
 62
    1
370
   -1
100
AcDbSpline
210
0
220
0
230
0
 70
    8
 71
    3
 72
    8
 73
    4
 74
    0
 42
1e-07
 43
1e-07
 40
0
 40
0
 40
0
 40
0
 40
1
 40
1
 40
1
 40
1
 10
174.81688
 20
292.625957
 30
0
 10
174.447959
 20
292.257036
 30
0
 10
173.947594
 20
292.049778
 30
0
 10
173.42586
 20
292.049778
 30
0
  0
SPLINE
  5
130
100
AcDbEntity
  8
Layer_1
  6
ByLayer
 62
    1
370
   -1
100
AcDbSpline
210
0
220
0
230
0
 70
    8
 71
    3
 72
    8
 73
    4
 74
    0
 42
1e-07
 43
1e-07
 40
0
 40
0
 40
0
 40
0
 40
1
 40
1
 40
1
 40
1
 10
173.42586
 20
292.049778
 30
0
 10
172.904126
 20
292.049778
 30
0
 10
172.403761
 20
292.257036
 30
0
 10
172.03484
 20
292.625957
 30
0
  0
SPLINE
  5
131
100
AcDbEntity
  8
Layer_1
  6
ByLayer
 62
    1
370
   -1
100
AcDbSpline
210
0
220
0
230
0
 70
    8
 71
    3
 72
    8
 73
    4
 74
    0
 42
1e-07
 43
1e-07
 40
0
 40
0
 40
0
 40
0
 40
1
 40
1
 40
1
 40
1
 10
172.03484
 20
292.625957
 30
0
 10
171.665918
 20
292.994879
 30
0
 10
171.45866
 20
293.495244
 30
0
 10
171.45866
 20
294.016978
 30
0
  0
SPLINE
  5
132
100
AcDbEntity
  8
Layer_1
  6
ByLayer
 62
    1
370
   -1
100
AcDbSpline
210
0
220
0
230
0
 70
    8
 71
    3
 72
    8
 73
    4
 74
    0
 42
1e-07
 43
1e-07
 40
0
 40
0
 40
0
 40
0
 40
1
 40
1
 40
1
 40
1
 10
171.45866
 20
294.016978
 30
0
 10
171.45866
 20
294.538712
 30
0
 10
171.665918
 20
295.039077
 30
0
 10
172.03484
 20
295.407998
 30
0
  0
SPLINE
  5
133
100
AcDbEntity
  8
Layer_1
  6
ByLayer
 62
    1
370
   -1
100
AcDbSpline
210
0
220
0
230
0
 70
    8
 71
    3
 72
    8
 73
    4
 74
    0
 42
1e-07
 43
1e-07
 40
0
 40
0
 40
0
 40
0
 40
1
 40
1
 40
1
 40
1
 10
172.03484
 20
295.407998
 30
0
 10
172.403761
 20
295.77692
 30
0
 10
172.904126
 20
295.984178
 30
0
 10
173.42586
 20
295.984178
 30
0
  0
SPLINE
  5
134
100
AcDbEntity
  8
Layer_1
  6
ByLayer
 62
    1
370
   -1
100
AcDbSpline
210
0
220
0
230
0
 70
    8
 71
    3
 72
    8
 73
    4
 74
    0
 42
1e-07
 43
1e-07
 40
0
 40
0
 40
0
 40
0
 40
1
 40
1
 40
1
 40
1
 10
173.42586
 20
295.984178
 30
0
 10
173.947594
 20
295.984178
 30
0
 10
174.447959
 20
295.77692
 30
0
 10
174.81688
 20
295.407998
 30
0
  0
SPLINE
  5
135
100
AcDbEntity
  8
Layer_1
  6
ByLayer
 62
    1
370
   -1
100
AcDbSpline
210
0
220
0
230
0
 70
    8
 71
    3
 72
    8
 73
    4
 74
    0
 42
1e-07
 43
1e-07
 40
0
 40
0
 40
0
 40
0
 40
1
 40
1
 40
1
 40
1
 10
174.81688
 20
295.407998
 30
0
 10
175.185802
 20
295.039077
 30
0
 10
175.39306
 20
294.538712
 30
0
 10
175.39306
 20
294.016978
 30
0
  0
LWPOLYLINE
  5
136
100
AcDbEntity
  8
Layer_1
  6
ByLayer
 62
    1
370
   -1
100
AcDbPolyline
 90
    1
 70
    1
 43
0
 10
276.83027
 20
145.91078
  0
SPLINE
  5
137
100
AcDbEntity
  8
Layer_1
  6
ByLayer
 62
    1
370
   -1
100
AcDbSpline
210
0
220
0
230
0
 70
    8
 71
    3
 72
    8
 73
    4
 74
    0
 42
1e-07
 43
1e-07
 40
0
 40
0
 40
0
 40
0
 40
1
 40
1
 40
1
 40
1
 10
175.39306
 20
145.91078
 30
0
 10
175.39306
 20
146.432514
 30
0
 10
175.185802
 20
146.932879
 30
0
 10
174.816881
 20
147.301801
 30
0
  0
SPLINE
  5
138
100
AcDbEntity
  8
Layer_1
  6
ByLayer
 62
    1
370
   -1
100
AcDbSpline
210
0
220
0
230
0
 70
    8
 71
    3
 72
    8
 73
    4
 74
    0
 42
1e-07
 43
1e-07
 40
0
 40
0
 40
0
 40
0
 40
1
 40
1
 40
1
 40
1
 10
174.816881
 20
147.301801
 30
0
 10
174.447959
 20
147.670722
 30
0
 10
173.947594
 20
147.87798
 30
0
 10
173.42586
 20
147.87798
 30
0
  0
SPLINE
  5
139
100
AcDbEntity
  8
Layer_1
  6
ByLayer
 62
    1
370
   -1
100
AcDbSpline
210
0
220
0
230
0
 70
    8
 71
    3
 72
    8
 73
    4
 74
    0
 42
1e-07
 43
1e-07
 40
0
 40
0
 40
0
 40
0
 40
1
 40
1
 40
1
 40
1
 10
173.42586
 20
147.87798
 30
0
 10
172.904126
 20
147.87798
 30
0
 10
172.403761
 20
147.670722
 30
0
 10
172.034839
 20
147.301801
 30
0
  0
SPLINE
  5
13A
100
AcDbEntity
  8
Layer_1
  6
ByLayer
 62
    1
370
   -1
100
AcDbSpline
210
0
220
0
230
0
 70
    8
 71
    3
 72
    8
 73
    4
 74
    0
 42
1e-07
 43
1e-07
 40
0
 40
0
 40
0
 40
0
 40
1
 40
1
 40
1
 40
1
 10
172.034839
 20
147.301801
 30
0
 10
171.665918
 20
146.932879
 30
0
 10
171.45866
 20
146.432514
 30
0
 10
171.45866
 20
145.91078
 30
0
  0
SPLINE
  5
13B
100
AcDbEntity
  8
Layer_1
  6
ByLayer
 62
    1
370
   -1
100
AcDbSpline
210
0
220
0
230
0
 70
    8
 71
    3
 72
    8
 73
    4
 74
    0
 42
1e-07
 43
1e-07
 40
0
 40
0
 40
0
 40
0
 40
1
 40
1
 40
1
 40
1
 10
171.45866
 20
145.91078
 30
0
 10
171.45866
 20
145.389046
 30
0
 10
171.665918
 20
144.888681
 30
0
 10
172.034839
 20
144.519759
 30
0
  0
SPLINE
  5
13C
100
AcDbEntity
  8
Layer_1
  6
ByLayer
 62
    1
370
   -1
100
AcDbSpline
210
0
220
0
230
0
 70
    8
 71
    3
 72
    8
 73
    4
 74
    0
 42
1e-07
 43
1e-07
 40
0
 40
0
 40
0
 40
0
 40
1
 40
1
 40
1
 40
1
 10
172.034839
 20
144.519759
 30
0
 10
172.403761
 20
144.150838
 30
0
 10
172.904126
 20
143.94358
 30
0
 10
173.42586
 20
143.94358
 30
0
  0
SPLINE
  5
13D
100
AcDbEntity
  8
Layer_1
  6
ByLayer
 62
    1
370
   -1
100
AcDbSpline
210
0
220
0
230
0
 70
    8
 71
    3
 72
    8
 73
    4
 74
    0
 42
1e-07
 43
1e-07
 40
0
 40
0
 40
0
 40
0
 40
1
 40
1
 40
1
 40
1
 10
173.42586
 20
143.94358
 30
0
 10
173.947594
 20
143.94358
 30
0
 10
174.447959
 20
144.150838
 30
0
 10
174.816881
 20
144.519759
 30
0
  0
SPLINE
  5
13E
100
AcDbEntity
  8
Layer_1
  6
ByLayer
 62
    1
370
   -1
100
AcDbSpline
210
0
220
0
230
0
 70
    8
 71
    3
 72
    8
 73
    4
 74
    0
 42
1e-07
 43
1e-07
 40
0
 40
0
 40
0
 40
0
 40
1
 40
1
 40
1
 40
1
 10
174.816881
 20
144.519759
 30
0
 10
175.185802
 20
144.888681
 30
0
 10
175.39306
 20
145.389046
 30
0
 10
175.39306
 20
145.91078
 30
0
  0
LWPOLYLINE
  5
13F
100
AcDbEntity
  8
Layer_1
  6
ByLayer
 62
    1
370
   -1
100
AcDbPolyline
 90
    1
 70
    1
 43
0
 10
175.39306
 20
294.016978
  0
SPLINE
  5
140
100
AcDbEntity
  8
Layer_1
  6
ByLayer
 62
    1
370
   -1
100
AcDbSpline
210
0
220
0
230
0
 70
    8
 71
    3
 72
    8
 73
    4
 74
    0
 42
1e-07
 43
1e-07
 40
0
 40
0
 40
0
 40
0
 40
1
 40
1
 40
1
 40
1
 10
276.83027
 20
293.963236
 30
0
 10
276.83027
 20
293.441502
 30
0
 10
276.623012
 20
292.941137
 30
0
 10
276.25409
 20
292.572215
 30
0
  0
SPLINE
  5
141
100
AcDbEntity
  8
Layer_1
  6
ByLayer
 62
    1
370
   -1
100
AcDbSpline
210
0
220
0
230
0
 70
    8
 71
    3
 72
    8
 73
    4
 74
    0
 42
1e-07
 43
1e-07
 40
0
 40
0
 40
0
 40
0
 40
1
 40
1
 40
1
 40
1
 10
276.25409
 20
292.572215
 30
0
 10
275.885169
 20
292.203294
 30
0
 10
275.384804
 20
291.996036
 30
0
 10
274.86307
 20
291.996036
 30
0
  0
SPLINE
  5
142
100
AcDbEntity
  8
Layer_1
  6
ByLayer
 62
    1
370
   -1
100
AcDbSpline
210
0
220
0
230
0
 70
    8
 71
    3
 72
    8
 73
    4
 74
    0
 42
1e-07
 43
1e-07
 40
0
 40
0
 40
0
 40
0
 40
1
 40
1
 40
1
 40
1
 10
274.86307
 20
291.996036
 30
0
 10
274.341336
 20
291.996036
 30
0
 10
273.840971
 20
292.203294
 30
0
 10
273.47205
 20
292.572215
 30
0
  0
SPLINE
  5
143
100
AcDbEntity
  8
Layer_1
  6
ByLayer
 62
    1
370
   -1
100
AcDbSpline
210
0
220
0
230
0
 70
    8
 71
    3
 72
    8
 73
    4
 74
    0
 42
1e-07
 43
1e-07
 40
0
 40
0
 40
0
 40
0
 40
1
 40
1
 40
1
 40
1
 10
273.47205
 20
292.572215
 30
0
 10
273.103128
 20
292.941137
 30
0
 10
272.89587
 20
293.441502
 30
0
 10
272.89587
 20
293.963236
 30
0
  0
SPLINE
  5
144
100
AcDbEntity
  8
Layer_1
  6
ByLayer
 62
    1
370
   -1
100
AcDbSpline
210
0
220
0
230
0
 70
    8
 71
    3
 72
    8
 73
    4
 74
    0
 42
1e-07
 43
1e-07
 40
0
 40
0
 40
0
 40
0
 40
1
 40
1
 40
1
 40
1
 10
272.89587
 20
293.963236
 30
0
 10
272.89587
 20
294.484969
 30
0
 10
273.103128
 20
294.985334
 30
0
 10
273.47205
 20
295.354256
 30
0
  0
SPLINE
  5
145
100
AcDbEntity
  8
Layer_1
  6
ByLayer
 62
    1
370
   -1
100
AcDbSpline
210
0
220
0
230
0
 70
    8
 71
    3
 72
    8
 73
    4
 74
    0
 42
1e-07
 43
1e-07
 40
0
 40
0
 40
0
 40
0
 40
1
 40
1
 40
1
 40
1
 10
273.47205
 20
295.354256
 30
0
 10
273.840971
 20
295.723177
 30
0
 10
274.341336
 20
295.930435
 30
0
 10
274.86307
 20
295.930435
 30
0
  0
SPLINE
  5
146
100
AcDbEntity
  8
Layer_1
  6
ByLayer
 62
    1
370
   -1
100
AcDbSpline
210
0
220
0
230
0
 70
    8
 71
    3
 72
    8
 73
    4
 74
    0
 42
1e-07
 43
1e-07
 40
0
 40
0
 40
0
 40
0
 40
1
 40
1
 40
1
 40
1
 10
274.86307
 20
295.930435
 30
0
 10
275.384804
 20
295.930435
 30
0
 10
275.885169
 20
295.723177
 30
0
 10
276.25409
 20
295.354256
 30
0
  0
SPLINE
  5
147
100
AcDbEntity
  8
Layer_1
  6
ByLayer
 62
    1
370
   -1
100
AcDbSpline
210
0
220
0
230
0
 70
    8
 71
    3
 72
    8
 73
    4
 74
    0
 42
1e-07
 43
1e-07
 40
0
 40
0
 40
0
 40
0
 40
1
 40
1
 40
1
 40
1
 10
276.25409
 20
295.354256
 30
0
 10
276.623012
 20
294.985334
 30
0
 10
276.83027
 20
294.484969
 30
0
 10
276.83027
 20
293.963236
 30
0
  0
LWPOLYLINE
  5
148
100
AcDbEntity
  8
Layer_1
  6
ByLayer
 62
    1
370
   -1
100
AcDbPolyline
 90
    1
 70
    1
 43
0
 10
175.39306
 20
145.91078
  0
LWPOLYLINE
  5
149
100
AcDbEntity
  8
Layer_1
  6
ByLayer
 62
    1
370
   -1
100
AcDbPolyline
 90
    1
 70
    1
 43
0
 10
276.83027
 20
293.963236
  0
ENDSEC
  0
SECTION
  2
OBJECTS
  0
DICTIONARY
  5
C
330
0
100
AcDbDictionary
281
    1
  3
ACAD_GROUP
350
D
  0
DICTIONARY
  5
D
330
C
100
AcDbDictionary
281
    1
  0
ENDSEC
  0
EOF
