  0
SECTION
  2
HEADER
  9
$ACADVER
  1
AC1014
  9
$HANDSEED
  5
FFFF
  9
$MEASUREMENT
 70
     1
  0
ENDSEC
  0
SECTION
  2
TABLES
  0
TABLE
  2
VPORT
  5
8
330
0
100
AcDbSymbolTable
 70
     4
  0
VPORT
  5
2E
330
8
100
AcDbSymbolTableRecord
100
AcDbViewportTableRecord
  2
*ACTIVE
 70
     0
 10
0.0
 20
0.0
 11
1.0
 21
1.0
 12
210.0
 22
148.5
 13
0.0
 23
0.0
 14
10.0
 24
10.0
 15
10.0
 25
10.0
 16
0.0
 26
0.0
 36
1.0
 17
0.0
 27
0.0
 37
0.0
 40
341.0
 41
1.24
 42
50.0
 43
0.0
 44
0.0
 50
0.0
 51
0.0
 71
     0
 72
   100
 73
     1
 74
     3
 75
     0
 76
     0
 77
     0
 78
     0
  0
ENDTAB
  0
TABLE
  2
LTYPE
  5
5
330
0
100
AcDbSymbolTable
 70
     1
  0
LTYPE
  5
14
330
5
100
AcDbSymbolTableRecord
100
AcDbLinetypeTableRecord
  2
BYBLOCK
 70
     0
  3

 72
    65
 73
     0
 40
0.0
  0
LTYPE
  5
15
330
5
100
AcDbSymbolTableRecord
100
AcDbLinetypeTableRecord
  2
BYLAYER
 70
     0
  3

 72
    65
 73
     0
 40
0.0
  0
LTYPE
  5
16
330
5
100
AcDbSymbolTableRecord
100
AcDbLinetypeTableRecord
  2
CONTINUOUS
 70
     0
  3
Solid line
 72
    65
 73
     0
 40
0.0
  0
ENDTAB
  0
TABLE
  2
LAYER
  5
2
100
AcDbSymbolTable
 70
4
  0
LAYER
  5
50
100
AcDbSymbolTableRecord
100
AcDbLayerTableRecord
  2
0
 70
0
  6
CONTINUOUS
  0
LAYER
  5
51
100
AcDbSymbolTableRecord
100
AcDbLayerTableRecord
  2
Layer_1
 70
0
  6
CONTINUOUS
  0
LAYER
  5
52
100
AcDbSymbolTableRecord
100
AcDbLayerTableRecord
  2
construction
 70
0
  6
CONTINUOUS
  0
LAYER
  5
53
100
AcDbSymbolTableRecord
100
AcDbLayerTableRecord
  2
labels
 70
0
  6
CONTINUOUS
  0
ENDTAB
  0
TABLE
  2
STYLE
  5
3
330
0
100
AcDbSymbolTable
 70
     1
  0
STYLE
  5
11
330
3
100
AcDbSymbolTableRecord
100
AcDbTextStyleTableRecord
  2
STANDARD
 70
     0
 40
0.0
 41
1.0
 50
0.0
 71
     0
 42
2.5
  3
txt
  4

  0
ENDTAB
  0
TABLE
  2
VIEW
  5
6
330
0
100
AcDbSymbolTable
 70
     0
  0
ENDTAB
  0
TABLE
  2
UCS
  5
7
330
0
100
AcDbSymbolTable
 70
     0
  0
ENDTAB
  0
TABLE
  2
APPID
  5
9
330
0
100
AcDbSymbolTable
 70
     2
  0
APPID
  5
12
330
9
100
AcDbSymbolTableRecord
100
AcDbRegAppTableRecord
  2
ACAD
 70
     0
  0
ENDTAB
  0
TABLE
  2
DIMSTYLE
  5
A
330
0
100
AcDbSymbolTable
 70
     1
  0
DIMSTYLE
105
27
330
A
100
AcDbSymbolTableRecord
100
AcDbDimStyleTableRecord
  2
ISO-25
 70
     0
  3

  4

  5

  6

  7

 40
1.0
 41
2.5
 42
0.625
 43
3.75
 44
1.25
 45
0.0
 46
0.0
 47
0.0
 48
0.0
140
2.5
141
2.5
142
0.0
143
0.03937007874016
144
1.0
145
0.0
146
1.0
147
0.625
 71
     0
 72
     0
 73
     0
 74
     0
 75
     0
 76
     0
 77
     1
 78
     8
170
     0
171
     3
172
     1
173
     0
174
     0
175
     0
176
     0
177
     0
178
     0
270
     2
271
     2
272
     2
273
     2
274
     3
340
11
275
     0
280
     0
281
     0
282
     0
283
     0
284
     8
285
     0
286
     0
287
     3
288
     0
  0
ENDTAB
  0
TABLE
  2
BLOCK_RECORD
  5
1
330
0
100
AcDbSymbolTable
 70
     1
  0
BLOCK_RECORD
  5
1F
330
1
100
AcDbSymbolTableRecord
100
AcDbBlockTableRecord
  2
*MODEL_SPACE
  0
BLOCK_RECORD
  5
1B
330
1
100
AcDbSymbolTableRecord
100
AcDbBlockTableRecord
  2
*PAPER_SPACE
  0
ENDTAB
  0
ENDSEC
  0
SECTION
  2
BLOCKS
  0
BLOCK
  5
20
330
1F
100
AcDbEntity
  8
0
100
AcDbBlockBegin
  2
*MODEL_SPACE
 70
     0
 10
0.0
 20
0.0
 30
0.0
  3
*MODEL_SPACE
  1

  0
ENDBLK
  5
21
330
1F
100
AcDbEntity
  8
0
100
AcDbBlockEnd
  0
BLOCK
  5
1C
330
1B
100
AcDbEntity
 67
     1
  8
0
100
AcDbBlockBegin
  2
*PAPER_SPACE
  1

  0
ENDBLK
  5
1D
330
1B
100
AcDbEntity
 67
     1
  8
0
100
AcDbBlockEnd
  0
ENDSEC
  0
SECTION
  2
ENTITIES
  0
LWPOLYLINE
  5
100
100
AcDbEntity
  8
0
 62
7
100
AcDbPolyline
 90
32
 70
1
 10
-564.168380
 20
316.473324
 30
0.0
 10
-564.168380
 20
303.029701
 30
0.0
 10
-561.168060
 20
303.029701
 30
0.0
 10
-561.168060
 20
289.585044
 30
0.0
 10
-564.168380
 20
289.585044
 30
0.0
 10
-564.168380
 20
276.140385
 30
0.0
 10
-561.168060
 20
276.140385
 30
0.0
 10
-561.168060
 20
262.696245
 30
0.0
 10
-564.168380
 20
262.696245
 30
0.0
 10
-564.168380
 20
249.251588
 30
0.0
 10
-561.168060
 20
249.251588
 30
0.0
 10
-561.168060
 20
235.807448
 30
0.0
 10
-564.168380
 20
235.807448
 30
0.0
 10
-564.168380
 20
222.362791
 30
0.0
 10
-561.168060
 20
222.362791
 30
0.0
 10
-481.168300
 20
222.362791
 30
0.0
 10
-478.167950
 20
222.362791
 30
0.0
 10
-478.167950
 20
235.807448
 30
0.0
 10
-481.168300
 20
235.807448
 30
0.0
 10
-481.168300
 20
249.251588
 30
0.0
 10
-478.167950
 20
249.251588
 30
0.0
 10
-478.167950
 20
262.696245
 30
0.0
 10
-481.168300
 20
262.696245
 30
0.0
 10
-481.168300
 20
276.140385
 30
0.0
 10
-478.167950
 20
276.140385
 30
0.0
 10
-478.167950
 20
289.585044
 30
0.0
 10
-481.168300
 20
289.585044
 30
0.0
 10
-481.168300
 20
303.029701
 30
0.0
 10
-478.167950
 20
303.029701
 30
0.0
 10
-478.167950
 20
316.473324
 30
0.0
 10
-481.168300
 20
316.473324
 30
0.0
 10
-561.168060
 20
316.473324
 30
0.0
  0
SPLINE
  5
101
100
AcDbEntity
  8
Layer_1
 62
1
100
AcDbSpline
 70
8
 71
3
 72
8
 73
4
 74
0
 40
0
 40
0
 40
0
 40
0
 40
1
 40
1
 40
1
 40
1
 10
-385.441582
 20
469.710901
 30
0.0
 10
-395.345957
 20
469.710662
 30
0.0
 10
-403.374899
 20
461.681490
 30
0.0
 10
-403.374855
 20
451.777115
 30
0.0
  0
LWPOLYLINE
  5
102
100
AcDbEntity
  8
0
 62
7
100
AcDbPolyline
 90
48
 70
1
 10
-467.900680
 20
309.831028
 30
0.0
 10
-467.900680
 20
299.386709
 30
0.0
 10
-470.901010
 20
299.386709
 30
0.0
 10
-470.901010
 20
285.942576
 30
0.0
 10
-467.900680
 20
285.942576
 30
0.0
 10
-467.900680
 20
272.497919
 30
0.0
 10
-470.901010
 20
272.497919
 30
0.0
 10
-470.901010
 20
259.053286
 30
0.0
 10
-467.900680
 20
259.053286
 30
0.0
 10
-467.900680
 20
245.609224
 30
0.0
 10
-470.901010
 20
245.609224
 30
0.0
 10
-470.901010
 20
232.164659
 30
0.0
 10
-467.900680
 20
232.164659
 30
0.0
 10
-467.900680
 20
218.720594
 30
0.0
 10
-470.901010
 20
218.720594
 30
0.0
 10
-470.901010
 20
205.276002
 30
0.0
 10
-467.900680
 20
205.276002
 30
0.0
 10
-467.900680
 20
194.831730
 30
0.0
 10
-458.614940
 20
194.831730
 30
0.0
 10
-446.329390
 20
194.831730
 30
0.0
 10
-434.043830
 20
194.831730
 30
0.0
 10
-421.757760
 20
194.831730
 30
0.0
 10
-409.472210
 20
194.831730
 30
0.0
 10
-397.186650
 20
194.831730
 30
0.0
 10
-387.900910
 20
194.831730
 30
0.0
 10
-387.900910
 20
205.276002
 30
0.0
 10
-384.900580
 20
205.276002
 30
0.0
 10
-384.900580
 20
218.720594
 30
0.0
 10
-387.900910
 20
218.720594
 30
0.0
 10
-387.900910
 20
232.164659
 30
0.0
 10
-384.900580
 20
232.164659
 30
0.0
 10
-384.900580
 20
245.609224
 30
0.0
 10
-387.900910
 20
245.609224
 30
0.0
 10
-387.900910
 20
259.053286
 30
0.0
 10
-384.900580
 20
259.053286
 30
0.0
 10
-384.900580
 20
272.497919
 30
0.0
 10
-387.900910
 20
272.497919
 30
0.0
 10
-387.900910
 20
285.942576
 30
0.0
 10
-384.900580
 20
285.942576
 30
0.0
 10
-384.900580
 20
299.386709
 30
0.0
 10
-387.900910
 20
299.386709
 30
0.0
 10
-387.900910
 20
309.831028
 30
0.0
 10
-397.186650
 20
309.831028
 30
0.0
 10
-409.472210
 20
309.831028
 30
0.0
 10
-421.757760
 20
309.831028
 30
0.0
 10
-434.043830
 20
309.831028
 30
0.0
 10
-446.329390
 20
309.831028
 30
0.0
 10
-458.614940
 20
309.831028
 30
0.0
  0
SPLINE
  5
103
100
AcDbEntity
  8
Layer_1
 62
1
100
AcDbSpline
 70
8
 71
3
 72
8
 73
4
 74
0
 40
0
 40
0
 40
0
 40
0
 40
1
 40
1
 40
1
 40
1
 10
-403.374855
 20
333.777083
 30
0.0
 10
-403.374855
 20
333.777083
 30
0.0
 10
-403.374855
 20
330.776750
 30
0.0
 10
-403.374855
 20
330.776750
 30
0.0
  0
SPLINE
  5
104
100
AcDbEntity
  8
Layer_1
 62
1
100
AcDbSpline
 70
8
 71
3
 72
8
 73
4
 74
0
 40
0
 40
0
 40
0
 40
0
 40
1
 40
1
 40
1
 40
1
 10
-403.374855
 20
330.776750
 30
0.0
 10
-403.374901
 20
320.872374
 30
0.0
 10
-395.345958
 20
312.843199
 30
0.0
 10
-385.441582
 20
312.842960
 30
0.0
  0
SPLINE
  5
105
100
AcDbEntity
  8
Layer_1
 62
1
100
AcDbSpline
 70
8
 71
3
 72
8
 73
4
 74
0
 40
0
 40
0
 40
0
 40
0
 40
1
 40
1
 40
1
 40
1
 10
-385.441582
 20
312.842960
 30
0.0
 10
-380.685241
 20
312.842942
 30
0.0
 10
-376.123702
 20
314.732384
 30
0.0
 10
-372.760462
 20
318.095626
 30
0.0
  0
SPLINE
  5
106
100
AcDbEntity
  8
Layer_1
 62
1
100
AcDbSpline
 70
8
 71
3
 72
8
 73
4
 74
0
 40
0
 40
0
 40
0
 40
0
 40
1
 40
1
 40
1
 40
1
 10
-372.760462
 20
318.095626
 30
0.0
 10
-369.397222
 20
321.458869
 30
0.0
 10
-367.507784
 20
326.020409
 30
0.0
 10
-367.507806
 20
330.776750
 30
0.0
  0
LWPOLYLINE
  5
107
100
AcDbEntity
  8
Layer_1
 62
1
100
AcDbPolyline
 90
19
 70
0
 10
-403.374855
 20
451.777115
 30
0.0
 10
-403.374855
 20
448.776780
 30
0.0
 10
-403.374855
 20
438.332456
 30
0.0
 10
-400.375036
 20
438.332456
 30
0.0
 10
-400.375036
 20
424.887800
 30
0.0
 10
-403.374855
 20
424.887800
 30
0.0
 10
-403.374855
 20
411.443659
 30
0.0
 10
-400.375036
 20
411.443659
 30
0.0
 10
-400.375036
 20
397.999003
 30
0.0
 10
-403.374855
 20
397.999003
 30
0.0
 10
-403.374855
 20
384.554863
 30
0.0
 10
-400.375036
 20
384.554863
 30
0.0
 10
-400.375036
 20
371.110203
 30
0.0
 10
-403.374855
 20
371.110203
 30
0.0
 10
-403.374855
 20
357.666063
 30
0.0
 10
-400.375036
 20
357.666063
 30
0.0
 10
-400.375036
 20
344.221407
 30
0.0
 10
-403.374855
 20
344.221407
 30
0.0
 10
-403.374855
 20
333.777083
 30
0.0
  0
SPLINE
  5
108
100
AcDbEntity
  8
Layer_1
 62
1
100
AcDbSpline
 70
8
 71
3
 72
8
 73
4
 74
0
 40
0
 40
0
 40
0
 40
0
 40
1
 40
1
 40
1
 40
1
 10
-313.838718
 20
330.776750
 30
0.0
 10
-313.838718
 20
330.776750
 30
0.0
 10
-311.332929
 20
330.776750
 30
0.0
 10
-311.332929
 20
330.776750
 30
0.0
  0
SPLINE
  5
109
100
AcDbEntity
  8
Layer_1
 62
1
100
AcDbSpline
 70
8
 71
3
 72
8
 73
4
 74
0
 40
0
 40
0
 40
0
 40
0
 40
1
 40
1
 40
1
 40
1
 10
-311.332929
 20
330.776750
 30
0.0
 10
-311.332975
 20
320.872374
 30
0.0
 10
-303.304032
 20
312.843199
 30
0.0
 10
-293.399656
 20
312.842960
 30
0.0
  0
SPLINE
  5
10a
100
AcDbEntity
  8
Layer_1
 62
1
100
AcDbSpline
 70
8
 71
3
 72
8
 73
4
 74
0
 40
0
 40
0
 40
0
 40
0
 40
1
 40
1
 40
1
 40
1
 10
-293.399656
 20
312.842960
 30
0.0
 10
-288.643315
 20
312.842942
 30
0.0
 10
-284.081776
 20
314.732384
 30
0.0
 10
-280.718536
 20
318.095626
 30
0.0
  0
SPLINE
  5
10b
100
AcDbEntity
  8
Layer_1
 62
1
100
AcDbSpline
 70
8
 71
3
 72
8
 73
4
 74
0
 40
0
 40
0
 40
0
 40
0
 40
1
 40
1
 40
1
 40
1
 10
-280.718536
 20
318.095626
 30
0.0
 10
-277.355296
 20
321.458869
 30
0.0
 10
-275.465858
 20
326.020409
 30
0.0
 10
-275.465880
 20
330.776750
 30
0.0
  0
LWPOLYLINE
  5
10c
100
AcDbEntity
  8
Layer_1
 62
1
100
AcDbPolyline
 90
9
 70
0
 10
-367.507806
 20
330.776750
 30
0.0
 10
-352.211053
 20
330.776750
 30
0.0
 10
-352.211053
 20
333.777083
 30
0.0
 10
-339.420116
 20
333.777083
 30
0.0
 10
-339.420116
 20
330.776750
 30
0.0
 10
-326.629682
 20
330.776750
 30
0.0
 10
-326.629682
 20
333.777083
 30
0.0
 10
-313.838718
 20
333.777083
 30
0.0
 10
-313.838718
 20
330.776750
 30
0.0
  0
SPLINE
  5
10d
100
AcDbEntity
  8
Layer_1
 62
1
100
AcDbSpline
 70
8
 71
3
 72
8
 73
4
 74
0
 40
0
 40
0
 40
0
 40
0
 40
1
 40
1
 40
1
 40
1
 10
-275.465880
 20
448.776780
 30
0.0
 10
-275.465880
 20
448.776780
 30
0.0
 10
-275.465880
 20
451.777115
 30
0.0
 10
-275.465880
 20
451.777115
 30
0.0
  0
SPLINE
  5
10e
100
AcDbEntity
  8
Layer_1
 62
1
100
AcDbSpline
 70
8
 71
3
 72
8
 73
4
 74
0
 40
0
 40
0
 40
0
 40
0
 40
1
 40
1
 40
1
 40
1
 10
-275.465880
 20
451.777115
 30
0.0
 10
-275.465859
 20
456.533456
 30
0.0
 10
-277.355298
 20
461.094995
 30
0.0
 10
-280.718538
 20
464.458237
 30
0.0
  0
SPLINE
  5
10f
100
AcDbEntity
  8
Layer_1
 62
1
100
AcDbSpline
 70
8
 71
3
 72
8
 73
4
 74
0
 40
0
 40
0
 40
0
 40
0
 40
1
 40
1
 40
1
 40
1
 10
-280.718538
 20
464.458237
 30
0.0
 10
-284.081777
 20
467.821479
 30
0.0
 10
-288.643316
 20
469.710920
 30
0.0
 10
-293.399656
 20
469.710901
 30
0.0
  0
SPLINE
  5
110
100
AcDbEntity
  8
Layer_1
 62
1
100
AcDbSpline
 70
8
 71
3
 72
8
 73
4
 74
0
 40
0
 40
0
 40
0
 40
0
 40
1
 40
1
 40
1
 40
1
 10
-293.399656
 20
469.710901
 30
0.0
 10
-303.304031
 20
469.710662
 30
0.0
 10
-311.332973
 20
461.681490
 30
0.0
 10
-311.332929
 20
451.777115
 30
0.0
  0
LWPOLYLINE
  5
111
100
AcDbEntity
  8
Layer_1
 62
1
100
AcDbPolyline
 90
21
 70
0
 10
-275.465880
 20
330.776750
 30
0.0
 10
-275.465880
 20
333.777083
 30
0.0
 10
-262.674920
 20
333.777083
 30
0.0
 10
-262.674920
 20
344.221407
 30
0.0
 10
-265.674736
 20
344.221407
 30
0.0
 10
-265.674736
 20
357.666063
 30
0.0
 10
-262.674920
 20
357.666063
 30
0.0
 10
-262.674920
 20
371.110203
 30
0.0
 10
-265.674736
 20
371.110203
 30
0.0
 10
-265.674736
 20
384.554863
 30
0.0
 10
-262.674920
 20
384.554863
 30
0.0
 10
-262.674920
 20
397.999003
 30
0.0
 10
-265.674736
 20
397.999003
 30
0.0
 10
-265.674736
 20
411.443659
 30
0.0
 10
-262.674920
 20
411.443659
 30
0.0
 10
-262.674920
 20
424.887800
 30
0.0
 10
-265.674736
 20
424.887800
 30
0.0
 10
-265.674736
 20
438.332456
 30
0.0
 10
-262.674920
 20
438.332456
 30
0.0
 10
-262.674920
 20
448.776780
 30
0.0
 10
-275.465880
 20
448.776780
 30
0.0
  0
SPLINE
  5
112
100
AcDbEntity
  8
Layer_1
 62
1
100
AcDbSpline
 70
8
 71
3
 72
8
 73
4
 74
0
 40
0
 40
0
 40
0
 40
0
 40
1
 40
1
 40
1
 40
1
 10
-365.002017
 20
451.777115
 30
0.0
 10
-365.002017
 20
451.777115
 30
0.0
 10
-367.507806
 20
451.777115
 30
0.0
 10
-367.507806
 20
451.777115
 30
0.0
  0
SPLINE
  5
113
100
AcDbEntity
  8
Layer_1
 62
1
100
AcDbSpline
 70
8
 71
3
 72
8
 73
4
 74
0
 40
0
 40
0
 40
0
 40
0
 40
1
 40
1
 40
1
 40
1
 10
-367.507806
 20
451.777115
 30
0.0
 10
-367.507785
 20
456.533456
 30
0.0
 10
-369.397224
 20
461.094995
 30
0.0
 10
-372.760463
 20
464.458237
 30
0.0
  0
SPLINE
  5
114
100
AcDbEntity
  8
Layer_1
 62
1
100
AcDbSpline
 70
8
 71
3
 72
8
 73
4
 74
0
 40
0
 40
0
 40
0
 40
0
 40
1
 40
1
 40
1
 40
1
 10
-372.760463
 20
464.458237
 30
0.0
 10
-376.123703
 20
467.821479
 30
0.0
 10
-380.685241
 20
469.710920
 30
0.0
 10
-385.441582
 20
469.710901
 30
0.0
  0
LWPOLYLINE
  5
115
100
AcDbEntity
  8
Layer_1
 62
1
100
AcDbPolyline
 90
10
 70
0
 10
-311.332929
 20
451.777115
 30
0.0
 10
-313.838718
 20
451.777115
 30
0.0
 10
-313.838718
 20
448.776780
 30
0.0
 10
-326.629682
 20
448.776780
 30
0.0
 10
-326.629682
 20
451.777115
 30
0.0
 10
-339.420116
 20
451.777115
 30
0.0
 10
-339.420116
 20
448.776780
 30
0.0
 10
-352.211053
 20
448.776780
 30
0.0
 10
-352.211053
 20
451.777115
 30
0.0
 10
-365.002017
 20
451.777115
 30
0.0
  0
SPLINE
  5
116
100
AcDbEntity
  8
Layer_1
 62
1
100
AcDbSpline
 70
8
 71
3
 72
8
 73
4
 74
0
 40
0
 40
0
 40
0
 40
0
 40
1
 40
1
 40
1
 40
1
 10
-385.441582
 20
462.711331
 30
0.0
 10
-384.919808
 20
462.711360
 30
0.0
 10
-384.419396
 20
462.504098
 30
0.0
 10
-384.050447
 20
462.135147
 30
0.0
  0
SPLINE
  5
117
100
AcDbEntity
  8
Layer_1
 62
1
100
AcDbSpline
 70
8
 71
3
 72
8
 73
4
 74
0
 40
0
 40
0
 40
0
 40
0
 40
1
 40
1
 40
1
 40
1
 10
-384.050447
 20
462.135147
 30
0.0
 10
-383.681499
 20
461.766196
 30
0.0
 10
-383.474240
 20
461.265782
 30
0.0
 10
-383.474273
 20
460.744008
 30
0.0
  0
SPLINE
  5
118
100
AcDbEntity
  8
Layer_1
 62
1
100
AcDbSpline
 70
8
 71
3
 72
8
 73
4
 74
0
 40
0
 40
0
 40
0
 40
0
 40
1
 40
1
 40
1
 40
1
 10
-383.474273
 20
460.744008
 30
0.0
 10
-383.474491
 20
459.657666
 30
0.0
 10
-384.355239
 20
458.777144
 30
0.0
 10
-385.441582
 20
458.777204
 30
0.0
  0
SPLINE
  5
119
100
AcDbEntity
  8
Layer_1
 62
1
100
AcDbSpline
 70
8
 71
3
 72
8
 73
4
 74
0
 40
0
 40
0
 40
0
 40
0
 40
1
 40
1
 40
1
 40
1
 10
-385.441582
 20
458.777204
 30
0.0
 10
-386.527935
 20
458.777129
 30
0.0
 10
-387.408699
 20
459.657655
 30
0.0
 10
-387.408918
 20
460.744008
 30
0.0
  0
SPLINE
  5
11a
100
AcDbEntity
  8
Layer_1
 62
1
100
AcDbSpline
 70
8
 71
3
 72
8
 73
4
 74
0
 40
0
 40
0
 40
0
 40
0
 40
1
 40
1
 40
1
 40
1
 10
-387.408918
 20
460.744008
 30
0.0
 10
-387.408950
 20
461.265787
 30
0.0
 10
-387.201688
 20
461.766204
 30
0.0
 10
-386.832734
 20
462.135156
 30
0.0
  0
SPLINE
  5
11b
100
AcDbEntity
  8
Layer_1
 62
1
100
AcDbSpline
 70
8
 71
3
 72
8
 73
4
 74
0
 40
0
 40
0
 40
0
 40
0
 40
1
 40
1
 40
1
 40
1
 10
-386.832734
 20
462.135156
 30
0.0
 10
-386.463779
 20
462.504108
 30
0.0
 10
-385.963361
 20
462.711367
 30
0.0
 10
-385.441582
 20
462.711331
 30
0.0
  0
LWPOLYLINE
  5
11c
100
AcDbEntity
  8
Layer_1
 62
1
100
AcDbPolyline
 90
1
 70
1
 10
-385.441582
 20
469.710901
 30
0.0
  0
SPLINE
  5
11d
100
AcDbEntity
  8
Layer_1
 62
1
100
AcDbSpline
 70
8
 71
3
 72
8
 73
4
 74
0
 40
0
 40
0
 40
0
 40
0
 40
1
 40
1
 40
1
 40
1
 10
-293.399656
 20
462.711331
 30
0.0
 10
-292.877882
 20
462.711360
 30
0.0
 10
-292.377470
 20
462.504098
 30
0.0
 10
-292.008522
 20
462.135147
 30
0.0
  0
SPLINE
  5
11e
100
AcDbEntity
  8
Layer_1
 62
1
100
AcDbSpline
 70
8
 71
3
 72
8
 73
4
 74
0
 40
0
 40
0
 40
0
 40
0
 40
1
 40
1
 40
1
 40
1
 10
-292.008522
 20
462.135147
 30
0.0
 10
-291.639573
 20
461.766196
 30
0.0
 10
-291.432314
 20
461.265782
 30
0.0
 10
-291.432347
 20
460.744008
 30
0.0
  0
SPLINE
  5
11f
100
AcDbEntity
  8
Layer_1
 62
1
100
AcDbSpline
 70
8
 71
3
 72
8
 73
4
 74
0
 40
0
 40
0
 40
0
 40
0
 40
1
 40
1
 40
1
 40
1
 10
-291.432347
 20
460.744008
 30
0.0
 10
-291.432565
 20
459.657666
 30
0.0
 10
-292.313313
 20
458.777144
 30
0.0
 10
-293.399656
 20
458.777204
 30
0.0
  0
SPLINE
  5
120
100
AcDbEntity
  8
Layer_1
 62
1
100
AcDbSpline
 70
8
 71
3
 72
8
 73
4
 74
0
 40
0
 40
0
 40
0
 40
0
 40
1
 40
1
 40
1
 40
1
 10
-293.399656
 20
458.777204
 30
0.0
 10
-294.486009
 20
458.777129
 30
0.0
 10
-295.366773
 20
459.657655
 30
0.0
 10
-295.366992
 20
460.744008
 30
0.0
  0
SPLINE
  5
121
100
AcDbEntity
  8
Layer_1
 62
1
100
AcDbSpline
 70
8
 71
3
 72
8
 73
4
 74
0
 40
0
 40
0
 40
0
 40
0
 40
1
 40
1
 40
1
 40
1
 10
-295.366992
 20
460.744008
 30
0.0
 10
-295.367025
 20
461.265787
 30
0.0
 10
-295.159762
 20
461.766204
 30
0.0
 10
-294.790808
 20
462.135156
 30
0.0
  0
SPLINE
  5
122
100
AcDbEntity
  8
Layer_1
 62
1
100
AcDbSpline
 70
8
 71
3
 72
8
 73
4
 74
0
 40
0
 40
0
 40
0
 40
0
 40
1
 40
1
 40
1
 40
1
 10
-294.790808
 20
462.135156
 30
0.0
 10
-294.421853
 20
462.504108
 30
0.0
 10
-293.921435
 20
462.711367
 30
0.0
 10
-293.399656
 20
462.711331
 30
0.0
  0
LWPOLYLINE
  5
123
100
AcDbEntity
  8
Layer_1
 62
1
100
AcDbPolyline
 90
1
 70
1
 10
-385.441582
 20
462.711331
 30
0.0
  0
LWPOLYLINE
  5
124
100
AcDbEntity
  8
Layer_1
 62
1
100
AcDbPolyline
 90
1
 70
1
 10
-293.399656
 20
462.711331
 30
0.0
  0
LWPOLYLINE
  5
125
100
AcDbEntity
  8
Layer_1
 62
1
100
AcDbPolyline
 90
5
 70
1
 10
-301.047781
 20
451.777115
 30
0.0
 10
-288.256818
 20
451.777115
 30
0.0
 10
-288.256818
 20
448.776780
 30
0.0
 10
-301.047781
 20
448.776780
 30
0.0
 10
-301.047781
 20
451.777115
 30
0.0
  0
SPLINE
  5
126
100
AcDbEntity
  8
Layer_1
 62
1
100
AcDbSpline
 70
8
 71
3
 72
8
 73
4
 74
0
 40
0
 40
0
 40
0
 40
0
 40
1
 40
1
 40
1
 40
1
 10
-385.441582
 20
323.776659
 30
0.0
 10
-384.355239
 20
323.776719
 30
0.0
 10
-383.474491
 20
322.896197
 30
0.0
 10
-383.474273
 20
321.809855
 30
0.0
  0
SPLINE
  5
127
100
AcDbEntity
  8
Layer_1
 62
1
100
AcDbSpline
 70
8
 71
3
 72
8
 73
4
 74
0
 40
0
 40
0
 40
0
 40
0
 40
1
 40
1
 40
1
 40
1
 10
-383.474273
 20
321.809855
 30
0.0
 10
-383.474240
 20
321.288081
 30
0.0
 10
-383.681499
 20
320.787668
 30
0.0
 10
-384.050448
 20
320.418717
 30
0.0
  0
SPLINE
  5
128
100
AcDbEntity
  8
Layer_1
 62
1
100
AcDbSpline
 70
8
 71
3
 72
8
 73
4
 74
0
 40
0
 40
0
 40
0
 40
0
 40
1
 40
1
 40
1
 40
1
 10
-384.050448
 20
320.418717
 30
0.0
 10
-384.419396
 20
320.049766
 30
0.0
 10
-384.919808
 20
319.842504
 30
0.0
 10
-385.441582
 20
319.842533
 30
0.0
  0
SPLINE
  5
129
100
AcDbEntity
  8
Layer_1
 62
1
100
AcDbSpline
 70
8
 71
3
 72
8
 73
4
 74
0
 40
0
 40
0
 40
0
 40
0
 40
1
 40
1
 40
1
 40
1
 10
-385.441582
 20
319.842533
 30
0.0
 10
-385.963361
 20
319.842497
 30
0.0
 10
-386.463779
 20
320.049756
 30
0.0
 10
-386.832733
 20
320.418707
 30
0.0
  0
SPLINE
  5
12a
100
AcDbEntity
  8
Layer_1
 62
1
100
AcDbSpline
 70
8
 71
3
 72
8
 73
4
 74
0
 40
0
 40
0
 40
0
 40
0
 40
1
 40
1
 40
1
 40
1
 10
-386.832733
 20
320.418707
 30
0.0
 10
-387.201688
 20
320.787659
 30
0.0
 10
-387.408950
 20
321.288076
 30
0.0
 10
-387.408918
 20
321.809855
 30
0.0
  0
SPLINE
  5
12b
100
AcDbEntity
  8
Layer_1
 62
1
100
AcDbSpline
 70
8
 71
3
 72
8
 73
4
 74
0
 40
0
 40
0
 40
0
 40
0
 40
1
 40
1
 40
1
 40
1
 10
-387.408918
 20
321.809855
 30
0.0
 10
-387.408699
 20
322.896208
 30
0.0
 10
-386.527935
 20
323.776734
 30
0.0
 10
-385.441582
 20
323.776659
 30
0.0
  0
LWPOLYLINE
  5
12c
100
AcDbEntity
  8
Layer_1
 62
1
100
AcDbPolyline
 90
5
 70
1
 10
-301.047781
 20
333.777083
 30
0.0
 10
-288.256818
 20
333.777083
 30
0.0
 10
-288.256818
 20
330.776750
 30
0.0
 10
-301.047781
 20
330.776750
 30
0.0
 10
-301.047781
 20
333.777083
 30
0.0
  0
SPLINE
  5
12d
100
AcDbEntity
  8
Layer_1
 62
1
100
AcDbSpline
 70
8
 71
3
 72
8
 73
4
 74
0
 40
0
 40
0
 40
0
 40
0
 40
1
 40
1
 40
1
 40
1
 10
-293.399656
 20
323.776659
 30
0.0
 10
-292.313313
 20
323.776719
 30
0.0
 10
-291.432565
 20
322.896197
 30
0.0
 10
-291.432347
 20
321.809855
 30
0.0
  0
SPLINE
  5
12e
100
AcDbEntity
  8
Layer_1
 62
1
100
AcDbSpline
 70
8
 71
3
 72
8
 73
4
 74
0
 40
0
 40
0
 40
0
 40
0
 40
1
 40
1
 40
1
 40
1
 10
-291.432347
 20
321.809855
 30
0.0
 10
-291.432314
 20
321.288081
 30
0.0
 10
-291.639573
 20
320.787668
 30
0.0
 10
-292.008522
 20
320.418717
 30
0.0
  0
SPLINE
  5
12f
100
AcDbEntity
  8
Layer_1
 62
1
100
AcDbSpline
 70
8
 71
3
 72
8
 73
4
 74
0
 40
0
 40
0
 40
0
 40
0
 40
1
 40
1
 40
1
 40
1
 10
-292.008522
 20
320.418717
 30
0.0
 10
-292.377471
 20
320.049766
 30
0.0
 10
-292.877882
 20
319.842504
 30
0.0
 10
-293.399656
 20
319.842533
 30
0.0
  0
SPLINE
  5
130
100
AcDbEntity
  8
Layer_1
 62
1
100
AcDbSpline
 70
8
 71
3
 72
8
 73
4
 74
0
 40
0
 40
0
 40
0
 40
0
 40
1
 40
1
 40
1
 40
1
 10
-293.399656
 20
319.842533
 30
0.0
 10
-293.921435
 20
319.842497
 30
0.0
 10
-294.421853
 20
320.049756
 30
0.0
 10
-294.790808
 20
320.418707
 30
0.0
  0
SPLINE
  5
131
100
AcDbEntity
  8
Layer_1
 62
1
100
AcDbSpline
 70
8
 71
3
 72
8
 73
4
 74
0
 40
0
 40
0
 40
0
 40
0
 40
1
 40
1
 40
1
 40
1
 10
-294.790808
 20
320.418707
 30
0.0
 10
-295.159762
 20
320.787659
 30
0.0
 10
-295.367024
 20
321.288076
 30
0.0
 10
-295.366992
 20
321.809855
 30
0.0
  0
SPLINE
  5
132
100
AcDbEntity
  8
Layer_1
 62
1
100
AcDbSpline
 70
8
 71
3
 72
8
 73
4
 74
0
 40
0
 40
0
 40
0
 40
0
 40
1
 40
1
 40
1
 40
1
 10
-295.366992
 20
321.809855
 30
0.0
 10
-295.366773
 20
322.896208
 30
0.0
 10
-294.486009
 20
323.776734
 30
0.0
 10
-293.399656
 20
323.776659
 30
0.0
  0
LWPOLYLINE
  5
133
100
AcDbEntity
  8
Layer_1
 62
1
100
AcDbPolyline
 90
1
 70
1
 10
-385.441582
 20
323.776659
 30
0.0
  0
LWPOLYLINE
  5
134
100
AcDbEntity
  8
Layer_1
 62
1
100
AcDbPolyline
 90
1
 70
1
 10
-293.399656
 20
323.776659
 30
0.0
  0
LWPOLYLINE
  5
135
100
AcDbEntity
  8
Layer_1
 62
1
100
AcDbPolyline
 90
4
 70
1
 10
-280.051150
 20
194.799430
 30
0.0
 10
-268.745110
 20
201.326975
 30
0.0
 10
-270.019940
 20
203.535027
 30
0.0
 10
-281.325970
 20
197.007488
 30
0.0
  0
LWPOLYLINE
  5
136
100
AcDbEntity
  8
Layer_1
 62
7
100
AcDbPolyline
 90
4
 70
1
 10
-395.487180
 20
248.044136
 30
0.0
 10
-401.196030
 20
248.044136
 30
0.0
 10
-401.196030
 20
256.618382
 30
0.0
 10
-395.487180
 20
256.618382
 30
0.0
  0
LWPOLYLINE
  5
137
100
AcDbEntity
  8
Layer_1
 62
7
100
AcDbPolyline
 90
4
 70
1
 10
-528.744740
 20
288.142235
 30
0.0
 10
-513.591140
 20
288.142235
 30
0.0
 10
-513.591140
 20
250.694041
 30
0.0
 10
-528.744740
 20
250.694041
 30
0.0
  0
LWPOLYLINE
  5
138
100
AcDbEntity
  8
Layer_1
 62
3
100
AcDbPolyline
 90
4
 70
1
 10
-242.724261
 20
293.771008
 30
0.0
 10
-264.374896
 20
306.271008
 30
0.0
 10
-262.874896
 20
308.869084
 30
0.0
 10
-241.224261
 20
296.369084
 30
0.0
  0
LWPOLYLINE
  5
139
100
AcDbEntity
  8
Layer_1
 62
1
100
AcDbPolyline
 90
4
 70
1
 10
-257.815710
 20
305.687894
 30
0.0
 10
-246.509670
 20
299.160367
 30
0.0
 10
-247.784500
 20
296.952316
 30
0.0
 10
-259.090530
 20
303.479851
 30
0.0
  0
LWPOLYLINE
  5
13a
100
AcDbEntity
  8
Layer_1
 62
3
100
AcDbPolyline
 90
4
 70
1
 10
-264.959800
 20
293.770845
 30
0.0
 10
-286.610435
 20
306.270845
 30
0.0
 10
-285.110435
 20
308.868921
 30
0.0
 10
-263.459800
 20
296.368921
 30
0.0
  0
LWPOLYLINE
  5
13b
100
AcDbEntity
  8
Layer_1
 62
1
100
AcDbPolyline
 90
4
 70
1
 10
-280.051150
 20
305.687894
 30
0.0
 10
-268.745110
 20
299.160367
 30
0.0
 10
-270.019940
 20
296.952316
 30
0.0
 10
-281.325970
 20
303.479851
 30
0.0
  0
LWPOLYLINE
  5
13c
100
AcDbEntity
  8
Layer_1
 62
3
100
AcDbPolyline
 90
4
 70
1
 10
-242.724476
 20
206.716386
 30
0.0
 10
-264.375111
 20
194.216386
 30
0.0
 10
-262.875111
 20
191.618310
 30
0.0
 10
-241.224476
 20
204.118310
 30
0.0
  0
LWPOLYLINE
  5
13d
100
AcDbEntity
  8
Layer_1
 62
1
100
AcDbPolyline
 90
4
 70
1
 10
-257.815710
 20
194.799430
 30
0.0
 10
-246.509670
 20
201.326975
 30
0.0
 10
-247.784500
 20
203.535027
 30
0.0
 10
-259.090530
 20
197.007488
 30
0.0
  0
LWPOLYLINE
  5
13e
100
AcDbEntity
  8
Layer_1
 62
3
100
AcDbPolyline
 90
4
 70
1
 10
-264.960412
 20
206.716097
 30
0.0
 10
-286.611047
 20
194.216097
 30
0.0
 10
-285.111047
 20
191.618021
 30
0.0
 10
-263.460412
 20
204.118021
 30
0.0
  0
LWPOLYLINE
  5
13f
100
AcDbEntity
  8
Layer_1
 62
7
100
AcDbPolyline
 90
69
 70
1
 10
-292.496020
 20
310.743858
 30
0.0
 10
-292.496020
 20
307.743524
 30
0.0
 10
-292.496020
 20
297.299206
 30
0.0
 10
-289.496200
 20
297.299206
 30
0.0
 10
-289.496200
 20
283.854547
 30
0.0
 10
-292.496020
 20
283.854547
 30
0.0
 10
-292.496020
 20
270.410403
 30
0.0
 10
-289.496200
 20
270.410403
 30
0.0
 10
-289.496200
 20
256.965745
 30
0.0
 10
-292.496020
 20
256.965745
 30
0.0
 10
-292.496020
 20
243.521604
 30
0.0
 10
-289.496200
 20
243.521604
 30
0.0
 10
-289.496200
 20
230.076948
 30
0.0
 10
-292.496020
 20
230.076948
 30
0.0
 10
-292.496020
 20
216.632807
 30
0.0
 10
-289.496200
 20
216.632807
 30
0.0
 10
-289.496200
 20
203.188151
 30
0.0
 10
-292.496020
 20
203.188151
 30
0.0
 10
-292.496020
 20
192.743800
 30
0.0
 10
-292.496020
 20
189.743450
 30
0.0
 10
-241.332220
 20
189.743450
 30
0.0
 10
-241.332220
 20
192.743800
 30
0.0
 10
-228.541270
 20
192.743800
 30
0.0
 10
-228.541270
 20
189.743450
 30
0.0
 10
-215.750830
 20
189.743450
 30
0.0
 10
-215.750830
 20
192.743800
 30
0.0
 10
-202.959880
 20
192.743800
 30
0.0
 10
-202.959880
 20
189.743450
 30
0.0
 10
-190.168930
 20
189.743450
 30
0.0
 10
-190.168930
 20
192.743800
 30
0.0
 10
-177.377980
 20
192.743800
 30
0.0
 10
-177.377980
 20
189.743450
 30
0.0
 10
-164.587030
 20
189.743450
 30
0.0
 10
-164.587030
 20
192.743800
 30
0.0
 10
-151.796080
 20
192.743800
 30
0.0
 10
-151.796080
 20
203.188151
 30
0.0
 10
-154.795900
 20
203.188151
 30
0.0
 10
-154.795900
 20
216.632807
 30
0.0
 10
-151.796080
 20
216.632807
 30
0.0
 10
-151.796080
 20
230.076948
 30
0.0
 10
-154.795900
 20
230.076948
 30
0.0
 10
-154.795900
 20
243.521604
 30
0.0
 10
-151.796080
 20
243.521604
 30
0.0
 10
-151.796080
 20
256.965745
 30
0.0
 10
-154.795900
 20
256.965745
 30
0.0
 10
-154.795900
 20
270.410403
 30
0.0
 10
-151.796080
 20
270.410403
 30
0.0
 10
-151.796080
 20
283.854547
 30
0.0
 10
-154.795900
 20
283.854547
 30
0.0
 10
-154.795900
 20
297.299206
 30
0.0
 10
-151.796080
 20
297.299206
 30
0.0
 10
-151.796080
 20
307.743524
 30
0.0
 10
-164.587030
 20
307.743524
 30
0.0
 10
-164.587030
 20
310.743858
 30
0.0
 10
-177.377980
 20
310.743858
 30
0.0
 10
-177.377980
 20
307.743524
 30
0.0
 10
-190.168930
 20
307.743524
 30
0.0
 10
-190.168930
 20
310.743858
 30
0.0
 10
-202.959880
 20
310.743858
 30
0.0
 10
-202.959880
 20
307.743524
 30
0.0
 10
-215.750830
 20
307.743524
 30
0.0
 10
-215.750830
 20
310.743858
 30
0.0
 10
-228.541270
 20
310.743858
 30
0.0
 10
-228.541270
 20
307.743524
 30
0.0
 10
-241.332220
 20
307.743524
 30
0.0
 10
-241.332220
 20
310.743858
 30
0.0
 10
-254.123170
 20
310.743858
 30
0.0
 10
-266.914120
 20
310.743858
 30
0.0
 10
-279.705070
 20
310.743858
 30
0.0
  0
LWPOLYLINE
  5
140
100
AcDbEntity
  8
Layer_1
 62
7
100
AcDbPolyline
 90
12
 70
1
 10
-425.407430
 20
415.377410
 30
0.0
 10
-425.407960
 20
412.828210
 30
0.0
 10
-431.310450
 20
412.828210
 30
0.0
 10
-431.310450
 20
332.826408
 30
0.0
 10
-425.407430
 20
332.826408
 30
0.0
 10
-425.407960
 20
330.276693
 30
0.0
 10
-412.352440
 20
330.276693
 30
0.0
 10
-412.352440
 20
332.826408
 30
0.0
 10
-406.449430
 20
332.826408
 30
0.0
 10
-406.449430
 20
412.828210
 30
0.0
 10
-412.352440
 20
412.828210
 30
0.0
 10
-412.352440
 20
415.377410
 30
0.0
  0
LWPOLYLINE
  5
141
100
AcDbEntity
  8
Layer_1
 62
7
100
AcDbPolyline
 90
12
 70
1
 10
-453.003830
 20
415.899280
 30
0.0
 10
-453.004360
 20
413.350080
 30
0.0
 10
-458.906850
 20
413.350080
 30
0.0
 10
-458.906850
 20
333.348283
 30
0.0
 10
-453.003830
 20
333.348283
 30
0.0
 10
-453.004360
 20
330.798567
 30
0.0
 10
-439.948840
 20
330.798567
 30
0.0
 10
-439.948840
 20
333.348283
 30
0.0
 10
-434.045830
 20
333.348283
 30
0.0
 10
-434.045830
 20
413.350080
 30
0.0
 10
-439.948840
 20
413.350080
 30
0.0
 10
-439.948840
 20
415.899280
 30
0.0
  0
LWPOLYLINE
  5
142
100
AcDbEntity
  8
Layer_1
 62
7
100
AcDbPolyline
 90
12
 70
1
 10
-481.697760
 20
415.386900
 30
0.0
 10
-481.698290
 20
412.837700
 30
0.0
 10
-487.600780
 20
412.837700
 30
0.0
 10
-487.600780
 20
332.835892
 30
0.0
 10
-481.697760
 20
332.835892
 30
0.0
 10
-481.698290
 20
330.286176
 30
0.0
 10
-468.642770
 20
330.286176
 30
0.0
 10
-468.642770
 20
332.835892
 30
0.0
 10
-462.739760
 20
332.835892
 30
0.0
 10
-462.739760
 20
412.837700
 30
0.0
 10
-468.642770
 20
412.837700
 30
0.0
 10
-468.642770
 20
415.386900
 30
0.0
  0
LWPOLYLINE
  5
143
100
AcDbEntity
  8
Layer_1
 62
7
100
AcDbPolyline
 90
12
 70
1
 10
-509.879300
 20
415.386900
 30
0.0
 10
-509.879830
 20
412.837700
 30
0.0
 10
-515.782320
 20
412.837700
 30
0.0
 10
-515.782320
 20
332.835891
 30
0.0
 10
-509.879300
 20
332.835891
 30
0.0
 10
-509.879830
 20
330.286175
 30
0.0
 10
-496.824310
 20
330.286175
 30
0.0
 10
-496.824310
 20
332.835891
 30
0.0
 10
-490.921300
 20
332.835891
 30
0.0
 10
-490.921300
 20
412.837700
 30
0.0
 10
-496.824310
 20
412.837700
 30
0.0
 10
-496.824310
 20
415.386900
 30
0.0
  0
SPLINE
  5
144
100
AcDbEntity
  8
Layer_1
 62
7
100
AcDbSpline
 70
8
 71
3
 72
8
 73
4
 74
0
 40
0
 40
0
 40
0
 40
0
 40
1
 40
1
 40
1
 40
1
 10
-525.341220
 20
405.058690
 30
0.0
 10
-522.571220
 20
405.058690
 30
0.0
 10
-520.341220
 20
402.828690
 30
0.0
 10
-520.341220
 20
400.058690
 30
0.0
  0
LWPOLYLINE
  5
145
100
AcDbEntity
  8
Layer_1
 62
7
100
AcDbPolyline
 90
2
 70
0
 10
-558.096550
 20
405.058690
 30
0.0
 10
-525.341220
 20
405.058690
 30
0.0
  0
SPLINE
  5
146
100
AcDbEntity
  8
Layer_1
 62
7
100
AcDbSpline
 70
8
 71
3
 72
8
 73
4
 74
0
 40
0
 40
0
 40
0
 40
0
 40
1
 40
1
 40
1
 40
1
 10
-520.341220
 20
337.568201
 30
0.0
 10
-520.341220
 20
334.798201
 30
0.0
 10
-522.571220
 20
332.568201
 30
0.0
 10
-525.341220
 20
332.568201
 30
0.0
  0
LWPOLYLINE
  5
147
100
AcDbEntity
  8
Layer_1
 62
7
100
AcDbPolyline
 90
2
 70
0
 10
-520.341220
 20
400.058690
 30
0.0
 10
-520.341220
 20
337.568201
 30
0.0
  0
SPLINE
  5
148
100
AcDbEntity
  8
Layer_1
 62
7
100
AcDbSpline
 70
8
 71
3
 72
8
 73
4
 74
0
 40
0
 40
0
 40
0
 40
0
 40
1
 40
1
 40
1
 40
1
 10
-558.096550
 20
332.568201
 30
0.0
 10
-560.866550
 20
332.568201
 30
0.0
 10
-563.096550
 20
334.798201
 30
0.0
 10
-563.096550
 20
337.568201
 30
0.0
  0
LWPOLYLINE
  5
149
100
AcDbEntity
  8
Layer_1
 62
7
100
AcDbPolyline
 90
2
 70
0
 10
-525.341220
 20
332.568201
 30
0.0
 10
-558.096550
 20
332.568201
 30
0.0
  0
SPLINE
  5
14a
100
AcDbEntity
  8
Layer_1
 62
7
100
AcDbSpline
 70
8
 71
3
 72
8
 73
4
 74
0
 40
0
 40
0
 40
0
 40
0
 40
1
 40
1
 40
1
 40
1
 10
-563.096550
 20
400.058690
 30
0.0
 10
-563.096550
 20
402.828690
 30
0.0
 10
-560.866550
 20
405.058690
 30
0.0
 10
-558.096550
 20
405.058690
 30
0.0
  0
LWPOLYLINE
  5
14b
100
AcDbEntity
  8
Layer_1
 62
7
100
AcDbPolyline
 90
2
 70
0
 10
-563.096550
 20
337.568201
 30
0.0
 10
-563.096550
 20
400.058690
 30
0.0
  0
LWPOLYLINE
  5
14c
100
AcDbEntity
  8
Layer_1
 62
7
100
AcDbPolyline
 90
1
 70
1
 10
-558.096550
 20
405.058690
 30
0.0
  0
SPLINE
  5
14d
100
AcDbEntity
  8
Layer_1
 62
1
100
AcDbSpline
 70
8
 71
3
 72
8
 73
4
 74
0
 40
0
 40
0
 40
0
 40
0
 40
1
 40
1
 40
1
 40
1
 10
-84.746511
 20
404.799660
 30
0.0
 10
-84.746511
 20
404.278051
 30
0.0
 10
-84.953719
 20
403.777806
 30
0.0
 10
-85.322552
 20
403.408972
 30
0.0
  0
SPLINE
  5
14e
100
AcDbEntity
  8
Layer_1
 62
1
100
AcDbSpline
 70
8
 71
3
 72
8
 73
4
 74
0
 40
0
 40
0
 40
0
 40
0
 40
1
 40
1
 40
1
 40
1
 10
-85.322552
 20
403.408972
 30
0.0
 10
-85.691385
 20
403.040139
 30
0.0
 10
-86.191630
 20
402.832930
 30
0.0
 10
-86.713239
 20
402.832930
 30
0.0
  0
SPLINE
  5
14f
100
AcDbEntity
  8
Layer_1
 62
1
100
AcDbSpline
 70
8
 71
3
 72
8
 73
4
 74
0
 40
0
 40
0
 40
0
 40
0
 40
1
 40
1
 40
1
 40
1
 10
-86.713239
 20
402.832930
 30
0.0
 10
-87.234848
 20
402.832930
 30
0.0
 10
-87.735094
 20
403.040138
 30
0.0
 10
-88.103927
 20
403.408972
 30
0.0
  0
SPLINE
  5
150
100
AcDbEntity
  8
Layer_1
 62
1
100
AcDbSpline
 70
8
 71
3
 72
8
 73
4
 74
0
 40
0
 40
0
 40
0
 40
0
 40
1
 40
1
 40
1
 40
1
 10
-88.103927
 20
403.408972
 30
0.0
 10
-88.472761
 20
403.777805
 30
0.0
 10
-88.679969
 20
404.278051
 30
0.0
 10
-88.679969
 20
404.799660
 30
0.0
  0
SPLINE
  5
151
100
AcDbEntity
  8
Layer_1
 62
1
100
AcDbSpline
 70
8
 71
3
 72
8
 73
4
 74
0
 40
0
 40
0
 40
0
 40
0
 40
1
 40
1
 40
1
 40
1
 10
-88.679969
 20
404.799660
 30
0.0
 10
-88.679969
 20
405.321269
 30
0.0
 10
-88.472761
 20
405.821515
 30
0.0
 10
-88.103927
 20
406.190348
 30
0.0
  0
SPLINE
  5
152
100
AcDbEntity
  8
Layer_1
 62
1
100
AcDbSpline
 70
8
 71
3
 72
8
 73
4
 74
0
 40
0
 40
0
 40
0
 40
0
 40
1
 40
1
 40
1
 40
1
 10
-88.103927
 20
406.190348
 30
0.0
 10
-87.735094
 20
406.559182
 30
0.0
 10
-87.234848
 20
406.766390
 30
0.0
 10
-86.713239
 20
406.766390
 30
0.0
  0
SPLINE
  5
153
100
AcDbEntity
  8
Layer_1
 62
1
100
AcDbSpline
 70
8
 71
3
 72
8
 73
4
 74
0
 40
0
 40
0
 40
0
 40
0
 40
1
 40
1
 40
1
 40
1
 10
-86.713239
 20
406.766390
 30
0.0
 10
-86.191630
 20
406.766390
 30
0.0
 10
-85.691385
 20
406.559181
 30
0.0
 10
-85.322552
 20
406.190348
 30
0.0
  0
SPLINE
  5
154
100
AcDbEntity
  8
Layer_1
 62
1
100
AcDbSpline
 70
8
 71
3
 72
8
 73
4
 74
0
 40
0
 40
0
 40
0
 40
0
 40
1
 40
1
 40
1
 40
1
 10
-85.322552
 20
406.190348
 30
0.0
 10
-84.953719
 20
405.821514
 30
0.0
 10
-84.746511
 20
405.321269
 30
0.0
 10
-84.746511
 20
404.799660
 30
0.0
  0
LWPOLYLINE
  5
155
100
AcDbEntity
  8
Layer_1
 62
7
100
AcDbPolyline
 90
11
 70
1
 10
-540.335190
 20
353.371636
 30
0.0
 10
-543.514850
 20
353.371636
 30
0.0
 10
-543.514850
 20
348.734175
 30
0.0
 10
-556.245330
 20
348.734175
 30
0.0
 10
-556.245330
 20
362.364866
 30
0.0
 10
-548.403420
 20
362.364866
 30
0.0
 10
-548.403420
 20
378.450196
 30
0.0
 10
-556.225170
 20
378.450196
 30
0.0
 10
-556.225170
 20
388.790135
 30
0.0
 10
-543.485400
 20
388.790135
 30
0.0
 10
-540.335190
 20
388.790135
 30
0.0
  0
SPLINE
  5
156
100
AcDbEntity
  8
Layer_1
 62
1
100
AcDbSpline
 70
8
 71
3
 72
8
 73
4
 74
0
 40
0
 40
0
 40
0
 40
0
 40
1
 40
1
 40
1
 40
1
 10
-84.807848
 20
340.033155
 30
0.0
 10
-84.807848
 20
339.511546
 30
0.0
 10
-85.015056
 20
339.011301
 30
0.0
 10
-85.383890
 20
338.642468
 30
0.0
  0
SPLINE
  5
157
100
AcDbEntity
  8
Layer_1
 62
1
100
AcDbSpline
 70
8
 71
3
 72
8
 73
4
 74
0
 40
0
 40
0
 40
0
 40
0
 40
1
 40
1
 40
1
 40
1
 10
-85.383890
 20
338.642468
 30
0.0
 10
-85.752723
 20
338.273634
 30
0.0
 10
-86.252968
 20
338.066426
 30
0.0
 10
-86.774577
 20
338.066426
 30
0.0
  0
SPLINE
  5
158
100
AcDbEntity
  8
Layer_1
 62
1
100
AcDbSpline
 70
8
 71
3
 72
8
 73
4
 74
0
 40
0
 40
0
 40
0
 40
0
 40
1
 40
1
 40
1
 40
1
 10
-86.774577
 20
338.066426
 30
0.0
 10
-87.296186
 20
338.066426
 30
0.0
 10
-87.796431
 20
338.273634
 30
0.0
 10
-88.165264
 20
338.642468
 30
0.0
  0
SPLINE
  5
159
100
AcDbEntity
  8
Layer_1
 62
1
100
AcDbSpline
 70
8
 71
3
 72
8
 73
4
 74
0
 40
0
 40
0
 40
0
 40
0
 40
1
 40
1
 40
1
 40
1
 10
-88.165264
 20
338.642468
 30
0.0
 10
-88.534098
 20
339.011301
 30
0.0
 10
-88.741306
 20
339.511546
 30
0.0
 10
-88.741306
 20
340.033155
 30
0.0
  0
SPLINE
  5
15a
100
AcDbEntity
  8
Layer_1
 62
1
100
AcDbSpline
 70
8
 71
3
 72
8
 73
4
 74
0
 40
0
 40
0
 40
0
 40
0
 40
1
 40
1
 40
1
 40
1
 10
-88.741306
 20
340.033155
 30
0.0
 10
-88.741306
 20
341.119349
 30
0.0
 10
-87.860771
 20
341.999883
 30
0.0
 10
-86.774577
 20
341.999883
 30
0.0
  0
SPLINE
  5
15b
100
AcDbEntity
  8
Layer_1
 62
1
100
AcDbSpline
 70
8
 71
3
 72
8
 73
4
 74
0
 40
0
 40
0
 40
0
 40
0
 40
1
 40
1
 40
1
 40
1
 10
-86.774577
 20
341.999883
 30
0.0
 10
-85.688383
 20
341.999883
 30
0.0
 10
-84.807848
 20
341.119349
 30
0.0
 10
-84.807848
 20
340.033155
 30
0.0
  0
LWPOLYLINE
  5
15c
100
AcDbEntity
  8
Layer_1
 62
1
100
AcDbPolyline
 90
1
 70
1
 10
-84.746511
 20
404.799660
 30
0.0
  0
SPLINE
  5
15d
100
AcDbEntity
  8
Layer_1
 62
1
100
AcDbSpline
 70
8
 71
3
 72
8
 73
4
 74
0
 40
0
 40
0
 40
0
 40
0
 40
1
 40
1
 40
1
 40
1
 10
-178.138910
 20
404.789350
 30
0.0
 10
-178.138910
 20
404.267741
 30
0.0
 10
-178.346118
 20
403.767495
 30
0.0
 10
-178.714952
 20
403.398662
 30
0.0
  0
SPLINE
  5
15e
100
AcDbEntity
  8
Layer_1
 62
1
100
AcDbSpline
 70
8
 71
3
 72
8
 73
4
 74
0
 40
0
 40
0
 40
0
 40
0
 40
1
 40
1
 40
1
 40
1
 10
-178.714952
 20
403.398662
 30
0.0
 10
-179.083785
 20
403.029828
 30
0.0
 10
-179.584031
 20
402.822620
 30
0.0
 10
-180.105640
 20
402.822620
 30
0.0
  0
SPLINE
  5
15f
100
AcDbEntity
  8
Layer_1
 62
1
100
AcDbSpline
 70
8
 71
3
 72
8
 73
4
 74
0
 40
0
 40
0
 40
0
 40
0
 40
1
 40
1
 40
1
 40
1
 10
-180.105640
 20
402.822620
 30
0.0
 10
-180.627249
 20
402.822620
 30
0.0
 10
-181.127495
 20
403.029828
 30
0.0
 10
-181.496328
 20
403.398662
 30
0.0
  0
SPLINE
  5
160
100
AcDbEntity
  8
Layer_1
 62
1
100
AcDbSpline
 70
8
 71
3
 72
8
 73
4
 74
0
 40
0
 40
0
 40
0
 40
0
 40
1
 40
1
 40
1
 40
1
 10
-181.496328
 20
403.398662
 30
0.0
 10
-181.865162
 20
403.767495
 30
0.0
 10
-182.072370
 20
404.267741
 30
0.0
 10
-182.072370
 20
404.789350
 30
0.0
  0
SPLINE
  5
161
100
AcDbEntity
  8
Layer_1
 62
1
100
AcDbSpline
 70
8
 71
3
 72
8
 73
4
 74
0
 40
0
 40
0
 40
0
 40
0
 40
1
 40
1
 40
1
 40
1
 10
-182.072370
 20
404.789350
 30
0.0
 10
-182.072370
 20
405.310959
 30
0.0
 10
-181.865162
 20
405.811205
 30
0.0
 10
-181.496328
 20
406.180038
 30
0.0
  0
SPLINE
  5
162
100
AcDbEntity
  8
Layer_1
 62
1
100
AcDbSpline
 70
8
 71
3
 72
8
 73
4
 74
0
 40
0
 40
0
 40
0
 40
0
 40
1
 40
1
 40
1
 40
1
 10
-181.496328
 20
406.180038
 30
0.0
 10
-181.127495
 20
406.548872
 30
0.0
 10
-180.627249
 20
406.756080
 30
0.0
 10
-180.105640
 20
406.756080
 30
0.0
  0
SPLINE
  5
163
100
AcDbEntity
  8
Layer_1
 62
1
100
AcDbSpline
 70
8
 71
3
 72
8
 73
4
 74
0
 40
0
 40
0
 40
0
 40
0
 40
1
 40
1
 40
1
 40
1
 10
-180.105640
 20
406.756080
 30
0.0
 10
-179.584031
 20
406.756080
 30
0.0
 10
-179.083785
 20
406.548872
 30
0.0
 10
-178.714952
 20
406.180038
 30
0.0
  0
SPLINE
  5
164
100
AcDbEntity
  8
Layer_1
 62
1
100
AcDbSpline
 70
8
 71
3
 72
8
 73
4
 74
0
 40
0
 40
0
 40
0
 40
0
 40
1
 40
1
 40
1
 40
1
 10
-178.714952
 20
406.180038
 30
0.0
 10
-178.346118
 20
405.811205
 30
0.0
 10
-178.138910
 20
405.310959
 30
0.0
 10
-178.138910
 20
404.789350
 30
0.0
  0
LWPOLYLINE
  5
165
100
AcDbEntity
  8
Layer_1
 62
1
100
AcDbPolyline
 90
1
 70
1
 10
-84.807848
 20
340.033155
 30
0.0
  0
SPLINE
  5
166
100
AcDbEntity
  8
Layer_1
 62
1
100
AcDbSpline
 70
8
 71
3
 72
8
 73
4
 74
0
 40
0
 40
0
 40
0
 40
0
 40
1
 40
1
 40
1
 40
1
 10
-177.882720
 20
340.228010
 30
0.0
 10
-177.882720
 20
339.706401
 30
0.0
 10
-178.089928
 20
339.206155
 30
0.0
 10
-178.458762
 20
338.837322
 30
0.0
  0
SPLINE
  5
167
100
AcDbEntity
  8
Layer_1
 62
1
100
AcDbSpline
 70
8
 71
3
 72
8
 73
4
 74
0
 40
0
 40
0
 40
0
 40
0
 40
1
 40
1
 40
1
 40
1
 10
-178.458762
 20
338.837322
 30
0.0
 10
-178.827595
 20
338.468489
 30
0.0
 10
-179.327841
 20
338.261281
 30
0.0
 10
-179.849450
 20
338.261281
 30
0.0
  0
SPLINE
  5
168
100
AcDbEntity
  8
Layer_1
 62
1
100
AcDbSpline
 70
8
 71
3
 72
8
 73
4
 74
0
 40
0
 40
0
 40
0
 40
0
 40
1
 40
1
 40
1
 40
1
 10
-179.849450
 20
338.261281
 30
0.0
 10
-180.371059
 20
338.261281
 30
0.0
 10
-180.871305
 20
338.468489
 30
0.0
 10
-181.240138
 20
338.837322
 30
0.0
  0
SPLINE
  5
169
100
AcDbEntity
  8
Layer_1
 62
1
100
AcDbSpline
 70
8
 71
3
 72
8
 73
4
 74
0
 40
0
 40
0
 40
0
 40
0
 40
1
 40
1
 40
1
 40
1
 10
-181.240138
 20
338.837322
 30
0.0
 10
-181.608972
 20
339.206155
 30
0.0
 10
-181.816180
 20
339.706401
 30
0.0
 10
-181.816180
 20
340.228010
 30
0.0
  0
SPLINE
  5
16a
100
AcDbEntity
  8
Layer_1
 62
1
100
AcDbSpline
 70
8
 71
3
 72
8
 73
4
 74
0
 40
0
 40
0
 40
0
 40
0
 40
1
 40
1
 40
1
 40
1
 10
-181.816180
 20
340.228010
 30
0.0
 10
-181.816180
 20
340.749619
 30
0.0
 10
-181.608971
 20
341.249864
 30
0.0
 10
-181.240138
 20
341.618697
 30
0.0
  0
SPLINE
  5
16b
100
AcDbEntity
  8
Layer_1
 62
1
100
AcDbSpline
 70
8
 71
3
 72
8
 73
4
 74
0
 40
0
 40
0
 40
0
 40
0
 40
1
 40
1
 40
1
 40
1
 10
-181.240138
 20
341.618697
 30
0.0
 10
-180.871304
 20
341.987530
 30
0.0
 10
-180.371059
 20
342.194738
 30
0.0
 10
-179.849450
 20
342.194738
 30
0.0
  0
SPLINE
  5
16c
100
AcDbEntity
  8
Layer_1
 62
1
100
AcDbSpline
 70
8
 71
3
 72
8
 73
4
 74
0
 40
0
 40
0
 40
0
 40
0
 40
1
 40
1
 40
1
 40
1
 10
-179.849450
 20
342.194738
 30
0.0
 10
-179.327841
 20
342.194738
 30
0.0
 10
-178.827596
 20
341.987530
 30
0.0
 10
-178.458762
 20
341.618697
 30
0.0
  0
SPLINE
  5
16d
100
AcDbEntity
  8
Layer_1
 62
1
100
AcDbSpline
 70
8
 71
3
 72
8
 73
4
 74
0
 40
0
 40
0
 40
0
 40
0
 40
1
 40
1
 40
1
 40
1
 10
-178.458762
 20
341.618697
 30
0.0
 10
-178.089929
 20
341.249864
 30
0.0
 10
-177.882720
 20
340.749619
 30
0.0
 10
-177.882720
 20
340.228010
 30
0.0
  0
LWPOLYLINE
  5
16e
100
AcDbEntity
  8
Layer_1
 62
1
100
AcDbPolyline
 90
1
 70
1
 10
-178.138910
 20
404.789350
 30
0.0
  0
SPLINE
  5
16f
100
AcDbEntity
  8
Layer_1
 62
1
100
AcDbSpline
 70
8
 71
3
 72
8
 73
4
 74
0
 40
0
 40
0
 40
0
 40
0
 40
1
 40
1
 40
1
 40
1
 10
-160.333310
 20
300.261465
 30
0.0
 10
-160.333310
 20
299.739856
 30
0.0
 10
-160.540518
 20
299.239611
 30
0.0
 10
-160.909352
 20
298.870777
 30
0.0
  0
SPLINE
  5
170
100
AcDbEntity
  8
Layer_1
 62
1
100
AcDbSpline
 70
8
 71
3
 72
8
 73
4
 74
0
 40
0
 40
0
 40
0
 40
0
 40
1
 40
1
 40
1
 40
1
 10
-160.909352
 20
298.870777
 30
0.0
 10
-161.278185
 20
298.501944
 30
0.0
 10
-161.778431
 20
298.294736
 30
0.0
 10
-162.300040
 20
298.294736
 30
0.0
  0
SPLINE
  5
171
100
AcDbEntity
  8
Layer_1
 62
1
100
AcDbSpline
 70
8
 71
3
 72
8
 73
4
 74
0
 40
0
 40
0
 40
0
 40
0
 40
1
 40
1
 40
1
 40
1
 10
-162.300040
 20
298.294736
 30
0.0
 10
-162.821649
 20
298.294736
 30
0.0
 10
-163.321895
 20
298.501944
 30
0.0
 10
-163.690728
 20
298.870777
 30
0.0
  0
SPLINE
  5
172
100
AcDbEntity
  8
Layer_1
 62
1
100
AcDbSpline
 70
8
 71
3
 72
8
 73
4
 74
0
 40
0
 40
0
 40
0
 40
0
 40
1
 40
1
 40
1
 40
1
 10
-163.690728
 20
298.870777
 30
0.0
 10
-164.059562
 20
299.239611
 30
0.0
 10
-164.266770
 20
299.739856
 30
0.0
 10
-164.266770
 20
300.261465
 30
0.0
  0
SPLINE
  5
173
100
AcDbEntity
  8
Layer_1
 62
1
100
AcDbSpline
 70
8
 71
3
 72
8
 73
4
 74
0
 40
0
 40
0
 40
0
 40
0
 40
1
 40
1
 40
1
 40
1
 10
-164.266770
 20
300.261465
 30
0.0
 10
-164.266770
 20
300.783074
 30
0.0
 10
-164.059561
 20
301.283320
 30
0.0
 10
-163.690728
 20
301.652153
 30
0.0
  0
SPLINE
  5
174
100
AcDbEntity
  8
Layer_1
 62
1
100
AcDbSpline
 70
8
 71
3
 72
8
 73
4
 74
0
 40
0
 40
0
 40
0
 40
0
 40
1
 40
1
 40
1
 40
1
 10
-163.690728
 20
301.652153
 30
0.0
 10
-163.321894
 20
302.020986
 30
0.0
 10
-162.821649
 20
302.228194
 30
0.0
 10
-162.300040
 20
302.228193
 30
0.0
  0
SPLINE
  5
175
100
AcDbEntity
  8
Layer_1
 62
1
100
AcDbSpline
 70
8
 71
3
 72
8
 73
4
 74
0
 40
0
 40
0
 40
0
 40
0
 40
1
 40
1
 40
1
 40
1
 10
-162.300040
 20
302.228193
 30
0.0
 10
-161.778431
 20
302.228194
 30
0.0
 10
-161.278186
 20
302.020986
 30
0.0
 10
-160.909352
 20
301.652153
 30
0.0
  0
SPLINE
  5
176
100
AcDbEntity
  8
Layer_1
 62
1
100
AcDbSpline
 70
8
 71
3
 72
8
 73
4
 74
0
 40
0
 40
0
 40
0
 40
0
 40
1
 40
1
 40
1
 40
1
 10
-160.909352
 20
301.652153
 30
0.0
 10
-160.540519
 20
301.283320
 30
0.0
 10
-160.333310
 20
300.783074
 30
0.0
 10
-160.333310
 20
300.261465
 30
0.0
  0
LWPOLYLINE
  5
177
100
AcDbEntity
  8
Layer_1
 62
1
100
AcDbPolyline
 90
1
 70
1
 10
-177.882720
 20
340.228010
 30
0.0
  0
SPLINE
  5
178
100
AcDbEntity
  8
Layer_1
 62
1
100
AcDbSpline
 70
8
 71
3
 72
8
 73
4
 74
0
 40
0
 40
0
 40
0
 40
0
 40
1
 40
1
 40
1
 40
1
 10
-160.461410
 20
200.345103
 30
0.0
 10
-160.461410
 20
199.823494
 30
0.0
 10
-160.668618
 20
199.323248
 30
0.0
 10
-161.037452
 20
198.954415
 30
0.0
  0
SPLINE
  5
179
100
AcDbEntity
  8
Layer_1
 62
1
100
AcDbSpline
 70
8
 71
3
 72
8
 73
4
 74
0
 40
0
 40
0
 40
0
 40
0
 40
1
 40
1
 40
1
 40
1
 10
-161.037452
 20
198.954415
 30
0.0
 10
-161.406285
 20
198.585581
 30
0.0
 10
-161.906531
 20
198.378373
 30
0.0
 10
-162.428140
 20
198.378373
 30
0.0
  0
SPLINE
  5
17a
100
AcDbEntity
  8
Layer_1
 62
1
100
AcDbSpline
 70
8
 71
3
 72
8
 73
4
 74
0
 40
0
 40
0
 40
0
 40
0
 40
1
 40
1
 40
1
 40
1
 10
-162.428140
 20
198.378373
 30
0.0
 10
-162.949749
 20
198.378373
 30
0.0
 10
-163.449995
 20
198.585581
 30
0.0
 10
-163.818828
 20
198.954415
 30
0.0
  0
SPLINE
  5
17b
100
AcDbEntity
  8
Layer_1
 62
1
100
AcDbSpline
 70
8
 71
3
 72
8
 73
4
 74
0
 40
0
 40
0
 40
0
 40
0
 40
1
 40
1
 40
1
 40
1
 10
-163.818828
 20
198.954415
 30
0.0
 10
-164.187662
 20
199.323248
 30
0.0
 10
-164.394870
 20
199.823494
 30
0.0
 10
-164.394870
 20
200.345103
 30
0.0
  0
SPLINE
  5
17c
100
AcDbEntity
  8
Layer_1
 62
1
100
AcDbSpline
 70
8
 71
3
 72
8
 73
4
 74
0
 40
0
 40
0
 40
0
 40
0
 40
1
 40
1
 40
1
 40
1
 10
-164.394870
 20
200.345103
 30
0.0
 10
-164.394870
 20
200.866712
 30
0.0
 10
-164.187662
 20
201.366958
 30
0.0
 10
-163.818828
 20
201.735791
 30
0.0
  0
SPLINE
  5
17d
100
AcDbEntity
  8
Layer_1
 62
1
100
AcDbSpline
 70
8
 71
3
 72
8
 73
4
 74
0
 40
0
 40
0
 40
0
 40
0
 40
1
 40
1
 40
1
 40
1
 10
-163.818828
 20
201.735791
 30
0.0
 10
-163.449995
 20
202.104625
 30
0.0
 10
-162.949749
 20
202.311833
 30
0.0
 10
-162.428140
 20
202.311833
 30
0.0
  0
SPLINE
  5
17e
100
AcDbEntity
  8
Layer_1
 62
1
100
AcDbSpline
 70
8
 71
3
 72
8
 73
4
 74
0
 40
0
 40
0
 40
0
 40
0
 40
1
 40
1
 40
1
 40
1
 10
-162.428140
 20
202.311833
 30
0.0
 10
-161.906531
 20
202.311833
 30
0.0
 10
-161.406285
 20
202.104625
 30
0.0
 10
-161.037452
 20
201.735791
 30
0.0
  0
SPLINE
  5
17f
100
AcDbEntity
  8
Layer_1
 62
1
100
AcDbSpline
 70
8
 71
3
 72
8
 73
4
 74
0
 40
0
 40
0
 40
0
 40
0
 40
1
 40
1
 40
1
 40
1
 10
-161.037452
 20
201.735791
 30
0.0
 10
-160.668618
 20
201.366958
 30
0.0
 10
-160.461410
 20
200.866712
 30
0.0
 10
-160.461410
 20
200.345103
 30
0.0
  0
LWPOLYLINE
  5
180
100
AcDbEntity
  8
Layer_1
 62
1
100
AcDbPolyline
 90
1
 70
1
 10
-160.333310
 20
300.261465
 30
0.0
  0
SPLINE
  5
181
100
AcDbEntity
  8
Layer_1
 62
1
100
AcDbSpline
 70
8
 71
3
 72
8
 73
4
 74
0
 40
0
 40
0
 40
0
 40
0
 40
1
 40
1
 40
1
 40
1
 10
-271.394190
 20
441.169150
 30
0.0
 10
-271.394190
 20
440.647541
 30
0.0
 10
-271.601398
 20
440.147295
 30
0.0
 10
-271.970232
 20
439.778462
 30
0.0
  0
SPLINE
  5
182
100
AcDbEntity
  8
Layer_1
 62
1
100
AcDbSpline
 70
8
 71
3
 72
8
 73
4
 74
0
 40
0
 40
0
 40
0
 40
0
 40
1
 40
1
 40
1
 40
1
 10
-271.970232
 20
439.778462
 30
0.0
 10
-272.339065
 20
439.409628
 30
0.0
 10
-272.839311
 20
439.202420
 30
0.0
 10
-273.360920
 20
439.202420
 30
0.0
  0
SPLINE
  5
183
100
AcDbEntity
  8
Layer_1
 62
1
100
AcDbSpline
 70
8
 71
3
 72
8
 73
4
 74
0
 40
0
 40
0
 40
0
 40
0
 40
1
 40
1
 40
1
 40
1
 10
-273.360920
 20
439.202420
 30
0.0
 10
-274.447111
 20
439.202425
 30
0.0
 10
-275.327641
 20
440.082959
 30
0.0
 10
-275.327640
 20
441.169150
 30
0.0
  0
SPLINE
  5
184
100
AcDbEntity
  8
Layer_1
 62
1
100
AcDbSpline
 70
8
 71
3
 72
8
 73
4
 74
0
 40
0
 40
0
 40
0
 40
0
 40
1
 40
1
 40
1
 40
1
 10
-275.327640
 20
441.169150
 30
0.0
 10
-275.327641
 20
442.255341
 30
0.0
 10
-274.447111
 20
443.135875
 30
0.0
 10
-273.360920
 20
443.135880
 30
0.0
  0
SPLINE
  5
185
100
AcDbEntity
  8
Layer_1
 62
1
100
AcDbSpline
 70
8
 71
3
 72
8
 73
4
 74
0
 40
0
 40
0
 40
0
 40
0
 40
1
 40
1
 40
1
 40
1
 10
-273.360920
 20
443.135880
 30
0.0
 10
-272.839311
 20
443.135880
 30
0.0
 10
-272.339065
 20
442.928672
 30
0.0
 10
-271.970232
 20
442.559838
 30
0.0
  0
SPLINE
  5
186
100
AcDbEntity
  8
Layer_1
 62
1
100
AcDbSpline
 70
8
 71
3
 72
8
 73
4
 74
0
 40
0
 40
0
 40
0
 40
0
 40
1
 40
1
 40
1
 40
1
 10
-271.970232
 20
442.559838
 30
0.0
 10
-271.601398
 20
442.191005
 30
0.0
 10
-271.394190
 20
441.690759
 30
0.0
 10
-271.394190
 20
441.169150
 30
0.0
  0
LWPOLYLINE
  5
187
100
AcDbEntity
  8
Layer_1
 62
1
100
AcDbPolyline
 90
1
 70
1
 10
-160.461410
 20
200.345103
 30
0.0
  0
SPLINE
  5
188
100
AcDbEntity
  8
Layer_1
 62
1
100
AcDbSpline
 70
8
 71
3
 72
8
 73
4
 74
0
 40
0
 40
0
 40
0
 40
0
 40
1
 40
1
 40
1
 40
1
 10
-271.394190
 20
341.252793
 30
0.0
 10
-271.394190
 20
340.731184
 30
0.0
 10
-271.601398
 20
340.230938
 30
0.0
 10
-271.970232
 20
339.862105
 30
0.0
  0
SPLINE
  5
189
100
AcDbEntity
  8
Layer_1
 62
1
100
AcDbSpline
 70
8
 71
3
 72
8
 73
4
 74
0
 40
0
 40
0
 40
0
 40
0
 40
1
 40
1
 40
1
 40
1
 10
-271.970232
 20
339.862105
 30
0.0
 10
-272.339065
 20
339.493272
 30
0.0
 10
-272.839311
 20
339.286064
 30
0.0
 10
-273.360920
 20
339.286064
 30
0.0
  0
SPLINE
  5
18a
100
AcDbEntity
  8
Layer_1
 62
1
100
AcDbSpline
 70
8
 71
3
 72
8
 73
4
 74
0
 40
0
 40
0
 40
0
 40
0
 40
1
 40
1
 40
1
 40
1
 10
-273.360920
 20
339.286064
 30
0.0
 10
-273.882529
 20
339.286064
 30
0.0
 10
-274.382775
 20
339.493272
 30
0.0
 10
-274.751608
 20
339.862105
 30
0.0
  0
SPLINE
  5
18b
100
AcDbEntity
  8
Layer_1
 62
1
100
AcDbSpline
 70
8
 71
3
 72
8
 73
4
 74
0
 40
0
 40
0
 40
0
 40
0
 40
1
 40
1
 40
1
 40
1
 10
-274.751608
 20
339.862105
 30
0.0
 10
-275.120442
 20
340.230938
 30
0.0
 10
-275.327650
 20
340.731184
 30
0.0
 10
-275.327650
 20
341.252793
 30
0.0
  0
SPLINE
  5
18c
100
AcDbEntity
  8
Layer_1
 62
1
100
AcDbSpline
 70
8
 71
3
 72
8
 73
4
 74
0
 40
0
 40
0
 40
0
 40
0
 40
1
 40
1
 40
1
 40
1
 10
-275.327650
 20
341.252793
 30
0.0
 10
-275.327650
 20
341.774402
 30
0.0
 10
-275.120441
 20
342.274647
 30
0.0
 10
-274.751608
 20
342.643480
 30
0.0
  0
SPLINE
  5
18d
100
AcDbEntity
  8
Layer_1
 62
1
100
AcDbSpline
 70
8
 71
3
 72
8
 73
4
 74
0
 40
0
 40
0
 40
0
 40
0
 40
1
 40
1
 40
1
 40
1
 10
-274.751608
 20
342.643480
 30
0.0
 10
-274.382774
 20
343.012313
 30
0.0
 10
-273.882529
 20
343.219521
 30
0.0
 10
-273.360920
 20
343.219521
 30
0.0
  0
SPLINE
  5
18e
100
AcDbEntity
  8
Layer_1
 62
1
100
AcDbSpline
 70
8
 71
3
 72
8
 73
4
 74
0
 40
0
 40
0
 40
0
 40
0
 40
1
 40
1
 40
1
 40
1
 10
-273.360920
 20
343.219521
 30
0.0
 10
-272.839311
 20
343.219521
 30
0.0
 10
-272.339066
 20
343.012313
 30
0.0
 10
-271.970232
 20
342.643480
 30
0.0
  0
SPLINE
  5
18f
100
AcDbEntity
  8
Layer_1
 62
1
100
AcDbSpline
 70
8
 71
3
 72
8
 73
4
 74
0
 40
0
 40
0
 40
0
 40
0
 40
1
 40
1
 40
1
 40
1
 10
-271.970232
 20
342.643480
 30
0.0
 10
-271.601399
 20
342.274647
 30
0.0
 10
-271.394190
 20
341.774402
 30
0.0
 10
-271.394190
 20
341.252793
 30
0.0
  0
LWPOLYLINE
  5
190
100
AcDbEntity
  8
Layer_1
 62
1
100
AcDbPolyline
 90
1
 70
1
 10
-271.394190
 20
441.169150
 30
0.0
  0
SPLINE
  5
191
100
AcDbEntity
  8
Layer_1
 62
1
100
AcDbSpline
 70
8
 71
3
 72
8
 73
4
 74
0
 40
0
 40
0
 40
0
 40
0
 40
1
 40
1
 40
1
 40
1
 10
-134.012980
 20
301.726973
 30
0.0
 10
-134.012980
 20
301.205364
 30
0.0
 10
-134.220188
 20
300.705118
 30
0.0
 10
-134.589022
 20
300.336285
 30
0.0
  0
SPLINE
  5
192
100
AcDbEntity
  8
Layer_1
 62
1
100
AcDbSpline
 70
8
 71
3
 72
8
 73
4
 74
0
 40
0
 40
0
 40
0
 40
0
 40
1
 40
1
 40
1
 40
1
 10
-134.589022
 20
300.336285
 30
0.0
 10
-134.957855
 20
299.967452
 30
0.0
 10
-135.458101
 20
299.760244
 30
0.0
 10
-135.979710
 20
299.760244
 30
0.0
  0
SPLINE
  5
193
100
AcDbEntity
  8
Layer_1
 62
1
100
AcDbSpline
 70
8
 71
3
 72
8
 73
4
 74
0
 40
0
 40
0
 40
0
 40
0
 40
1
 40
1
 40
1
 40
1
 10
-135.979710
 20
299.760244
 30
0.0
 10
-136.501319
 20
299.760244
 30
0.0
 10
-137.001565
 20
299.967452
 30
0.0
 10
-137.370398
 20
300.336285
 30
0.0
  0
SPLINE
  5
194
100
AcDbEntity
  8
Layer_1
 62
1
100
AcDbSpline
 70
8
 71
3
 72
8
 73
4
 74
0
 40
0
 40
0
 40
0
 40
0
 40
1
 40
1
 40
1
 40
1
 10
-137.370398
 20
300.336285
 30
0.0
 10
-137.739232
 20
300.705118
 30
0.0
 10
-137.946440
 20
301.205364
 30
0.0
 10
-137.946440
 20
301.726973
 30
0.0
  0
SPLINE
  5
195
100
AcDbEntity
  8
Layer_1
 62
1
100
AcDbSpline
 70
8
 71
3
 72
8
 73
4
 74
0
 40
0
 40
0
 40
0
 40
0
 40
1
 40
1
 40
1
 40
1
 10
-137.946440
 20
301.726973
 30
0.0
 10
-137.946440
 20
302.248582
 30
0.0
 10
-137.739231
 20
302.748827
 30
0.0
 10
-137.370398
 20
303.117660
 30
0.0
  0
SPLINE
  5
196
100
AcDbEntity
  8
Layer_1
 62
1
100
AcDbSpline
 70
8
 71
3
 72
8
 73
4
 74
0
 40
0
 40
0
 40
0
 40
0
 40
1
 40
1
 40
1
 40
1
 10
-137.370398
 20
303.117660
 30
0.0
 10
-137.001564
 20
303.486493
 30
0.0
 10
-136.501319
 20
303.693701
 30
0.0
 10
-135.979710
 20
303.693701
 30
0.0
  0
SPLINE
  5
197
100
AcDbEntity
  8
Layer_1
 62
1
100
AcDbSpline
 70
8
 71
3
 72
8
 73
4
 74
0
 40
0
 40
0
 40
0
 40
0
 40
1
 40
1
 40
1
 40
1
 10
-135.979710
 20
303.693701
 30
0.0
 10
-135.458101
 20
303.693701
 30
0.0
 10
-134.957856
 20
303.486493
 30
0.0
 10
-134.589022
 20
303.117660
 30
0.0
  0
SPLINE
  5
198
100
AcDbEntity
  8
Layer_1
 62
1
100
AcDbSpline
 70
8
 71
3
 72
8
 73
4
 74
0
 40
0
 40
0
 40
0
 40
0
 40
1
 40
1
 40
1
 40
1
 10
-134.589022
 20
303.117660
 30
0.0
 10
-134.220189
 20
302.748827
 30
0.0
 10
-134.012980
 20
302.248582
 30
0.0
 10
-134.012980
 20
301.726973
 30
0.0
  0
LWPOLYLINE
  5
199
100
AcDbEntity
  8
Layer_1
 62
1
100
AcDbPolyline
 90
1
 70
1
 10
-271.394190
 20
341.252793
 30
0.0
  0
SPLINE
  5
19a
100
AcDbEntity
  8
Layer_1
 62
1
100
AcDbSpline
 70
8
 71
3
 72
8
 73
4
 74
0
 40
0
 40
0
 40
0
 40
0
 40
1
 40
1
 40
1
 40
1
 10
-68.930351
 20
301.726974
 30
0.0
 10
-68.930351
 20
300.640779
 30
0.0
 10
-69.810885
 20
299.760245
 30
0.0
 10
-70.897079
 20
299.760244
 30
0.0
  0
SPLINE
  5
19b
100
AcDbEntity
  8
Layer_1
 62
1
100
AcDbSpline
 70
8
 71
3
 72
8
 73
4
 74
0
 40
0
 40
0
 40
0
 40
0
 40
1
 40
1
 40
1
 40
1
 10
-70.897079
 20
299.760244
 30
0.0
 10
-71.418688
 20
299.760244
 30
0.0
 10
-71.918934
 20
299.967452
 30
0.0
 10
-72.287767
 20
300.336286
 30
0.0
  0
SPLINE
  5
19c
100
AcDbEntity
  8
Layer_1
 62
1
100
AcDbSpline
 70
8
 71
3
 72
8
 73
4
 74
0
 40
0
 40
0
 40
0
 40
0
 40
1
 40
1
 40
1
 40
1
 10
-72.287767
 20
300.336286
 30
0.0
 10
-72.656601
 20
300.705119
 30
0.0
 10
-72.863809
 20
301.205364
 30
0.0
 10
-72.863809
 20
301.726974
 30
0.0
  0
SPLINE
  5
19d
100
AcDbEntity
  8
Layer_1
 62
1
100
AcDbSpline
 70
8
 71
3
 72
8
 73
4
 74
0
 40
0
 40
0
 40
0
 40
0
 40
1
 40
1
 40
1
 40
1
 10
-72.863809
 20
301.726974
 30
0.0
 10
-72.863809
 20
302.248582
 30
0.0
 10
-72.656600
 20
302.748828
 30
0.0
 10
-72.287767
 20
303.117661
 30
0.0
  0
SPLINE
  5
19e
100
AcDbEntity
  8
Layer_1
 62
1
100
AcDbSpline
 70
8
 71
3
 72
8
 73
4
 74
0
 40
0
 40
0
 40
0
 40
0
 40
1
 40
1
 40
1
 40
1
 10
-72.287767
 20
303.117661
 30
0.0
 10
-71.918933
 20
303.486494
 30
0.0
 10
-71.418688
 20
303.693702
 30
0.0
 10
-70.897079
 20
303.693702
 30
0.0
  0
SPLINE
  5
19f
100
AcDbEntity
  8
Layer_1
 62
1
100
AcDbSpline
 70
8
 71
3
 72
8
 73
4
 74
0
 40
0
 40
0
 40
0
 40
0
 40
1
 40
1
 40
1
 40
1
 10
-70.897079
 20
303.693702
 30
0.0
 10
-69.810885
 20
303.693701
 30
0.0
 10
-68.930351
 20
302.813167
 30
0.0
 10
-68.930351
 20
301.726974
 30
0.0
  0
LWPOLYLINE
  5
1a0
100
AcDbEntity
  8
Layer_1
 62
1
100
AcDbPolyline
 90
1
 70
1
 10
-134.012980
 20
301.726973
 30
0.0
  0
SPLINE
  5
1a1
100
AcDbEntity
  8
Layer_1
 62
1
100
AcDbSpline
 70
8
 71
3
 72
8
 73
4
 74
0
 40
0
 40
0
 40
0
 40
0
 40
1
 40
1
 40
1
 40
1
 10
-134.012980
 20
201.644501
 30
0.0
 10
-134.012980
 20
201.122892
 30
0.0
 10
-134.220188
 20
200.622646
 30
0.0
 10
-134.589022
 20
200.253813
 30
0.0
  0
SPLINE
  5
1a2
100
AcDbEntity
  8
Layer_1
 62
1
100
AcDbSpline
 70
8
 71
3
 72
8
 73
4
 74
0
 40
0
 40
0
 40
0
 40
0
 40
1
 40
1
 40
1
 40
1
 10
-134.589022
 20
200.253813
 30
0.0
 10
-134.957855
 20
199.884979
 30
0.0
 10
-135.458101
 20
199.677771
 30
0.0
 10
-135.979710
 20
199.677771
 30
0.0
  0
SPLINE
  5
1a3
100
AcDbEntity
  8
Layer_1
 62
1
100
AcDbSpline
 70
8
 71
3
 72
8
 73
4
 74
0
 40
0
 40
0
 40
0
 40
0
 40
1
 40
1
 40
1
 40
1
 10
-135.979710
 20
199.677771
 30
0.0
 10
-136.501319
 20
199.677771
 30
0.0
 10
-137.001565
 20
199.884979
 30
0.0
 10
-137.370398
 20
200.253813
 30
0.0
  0
SPLINE
  5
1a4
100
AcDbEntity
  8
Layer_1
 62
1
100
AcDbSpline
 70
8
 71
3
 72
8
 73
4
 74
0
 40
0
 40
0
 40
0
 40
0
 40
1
 40
1
 40
1
 40
1
 10
-137.370398
 20
200.253813
 30
0.0
 10
-137.739232
 20
200.622646
 30
0.0
 10
-137.946440
 20
201.122892
 30
0.0
 10
-137.946440
 20
201.644501
 30
0.0
  0
SPLINE
  5
1a5
100
AcDbEntity
  8
Layer_1
 62
1
100
AcDbSpline
 70
8
 71
3
 72
8
 73
4
 74
0
 40
0
 40
0
 40
0
 40
0
 40
1
 40
1
 40
1
 40
1
 10
-137.946440
 20
201.644501
 30
0.0
 10
-137.946440
 20
202.166110
 30
0.0
 10
-137.739231
 20
202.666355
 30
0.0
 10
-137.370398
 20
203.035188
 30
0.0
  0
SPLINE
  5
1a6
100
AcDbEntity
  8
Layer_1
 62
1
100
AcDbSpline
 70
8
 71
3
 72
8
 73
4
 74
0
 40
0
 40
0
 40
0
 40
0
 40
1
 40
1
 40
1
 40
1
 10
-137.370398
 20
203.035188
 30
0.0
 10
-137.001564
 20
203.404021
 30
0.0
 10
-136.501319
 20
203.611229
 30
0.0
 10
-135.979710
 20
203.611229
 30
0.0
  0
SPLINE
  5
1a7
100
AcDbEntity
  8
Layer_1
 62
1
100
AcDbSpline
 70
8
 71
3
 72
8
 73
4
 74
0
 40
0
 40
0
 40
0
 40
0
 40
1
 40
1
 40
1
 40
1
 10
-135.979710
 20
203.611229
 30
0.0
 10
-135.458101
 20
203.611229
 30
0.0
 10
-134.957856
 20
203.404021
 30
0.0
 10
-134.589022
 20
203.035188
 30
0.0
  0
SPLINE
  5
1a8
100
AcDbEntity
  8
Layer_1
 62
1
100
AcDbSpline
 70
8
 71
3
 72
8
 73
4
 74
0
 40
0
 40
0
 40
0
 40
0
 40
1
 40
1
 40
1
 40
1
 10
-134.589022
 20
203.035188
 30
0.0
 10
-134.220189
 20
202.666355
 30
0.0
 10
-134.012980
 20
202.166110
 30
0.0
 10
-134.012980
 20
201.644501
 30
0.0
  0
LWPOLYLINE
  5
1a9
100
AcDbEntity
  8
Layer_1
 62
1
100
AcDbPolyline
 90
1
 70
1
 10
-68.930351
 20
301.726974
 30
0.0
  0
SPLINE
  5
1aa
100
AcDbEntity
  8
Layer_1
 62
1
100
AcDbSpline
 70
8
 71
3
 72
8
 73
4
 74
0
 40
0
 40
0
 40
0
 40
0
 40
1
 40
1
 40
1
 40
1
 10
-68.930353
 20
201.644501
 30
0.0
 10
-68.930353
 20
201.122892
 30
0.0
 10
-69.137561
 20
200.622646
 30
0.0
 10
-69.506395
 20
200.253813
 30
0.0
  0
SPLINE
  5
1ab
100
AcDbEntity
  8
Layer_1
 62
1
100
AcDbSpline
 70
8
 71
3
 72
8
 73
4
 74
0
 40
0
 40
0
 40
0
 40
0
 40
1
 40
1
 40
1
 40
1
 10
-69.506395
 20
200.253813
 30
0.0
 10
-69.875228
 20
199.884979
 30
0.0
 10
-70.375474
 20
199.677771
 30
0.0
 10
-70.897083
 20
199.677771
 30
0.0
  0
SPLINE
  5
1ac
100
AcDbEntity
  8
Layer_1
 62
1
100
AcDbSpline
 70
8
 71
3
 72
8
 73
4
 74
0
 40
0
 40
0
 40
0
 40
0
 40
1
 40
1
 40
1
 40
1
 10
-70.897083
 20
199.677771
 30
0.0
 10
-71.418692
 20
199.677771
 30
0.0
 10
-71.918938
 20
199.884979
 30
0.0
 10
-72.287771
 20
200.253813
 30
0.0
  0
SPLINE
  5
1ad
100
AcDbEntity
  8
Layer_1
 62
1
100
AcDbSpline
 70
8
 71
3
 72
8
 73
4
 74
0
 40
0
 40
0
 40
0
 40
0
 40
1
 40
1
 40
1
 40
1
 10
-72.287771
 20
200.253813
 30
0.0
 10
-72.656605
 20
200.622646
 30
0.0
 10
-72.863813
 20
201.122892
 30
0.0
 10
-72.863813
 20
201.644501
 30
0.0
  0
SPLINE
  5
1ae
100
AcDbEntity
  8
Layer_1
 62
1
100
AcDbSpline
 70
8
 71
3
 72
8
 73
4
 74
0
 40
0
 40
0
 40
0
 40
0
 40
1
 40
1
 40
1
 40
1
 10
-72.863813
 20
201.644501
 30
0.0
 10
-72.863813
 20
202.166110
 30
0.0
 10
-72.656604
 20
202.666355
 30
0.0
 10
-72.287771
 20
203.035188
 30
0.0
  0
SPLINE
  5
1af
100
AcDbEntity
  8
Layer_1
 62
1
100
AcDbSpline
 70
8
 71
3
 72
8
 73
4
 74
0
 40
0
 40
0
 40
0
 40
0
 40
1
 40
1
 40
1
 40
1
 10
-72.287771
 20
203.035188
 30
0.0
 10
-71.918937
 20
203.404021
 30
0.0
 10
-71.418692
 20
203.611229
 30
0.0
 10
-70.897083
 20
203.611229
 30
0.0
  0
SPLINE
  5
1b0
100
AcDbEntity
  8
Layer_1
 62
1
100
AcDbSpline
 70
8
 71
3
 72
8
 73
4
 74
0
 40
0
 40
0
 40
0
 40
0
 40
1
 40
1
 40
1
 40
1
 10
-70.897083
 20
203.611229
 30
0.0
 10
-70.375474
 20
203.611229
 30
0.0
 10
-69.875229
 20
203.404021
 30
0.0
 10
-69.506395
 20
203.035188
 30
0.0
  0
SPLINE
  5
1b1
100
AcDbEntity
  8
Layer_1
 62
1
100
AcDbSpline
 70
8
 71
3
 72
8
 73
4
 74
0
 40
0
 40
0
 40
0
 40
0
 40
1
 40
1
 40
1
 40
1
 10
-69.506395
 20
203.035188
 30
0.0
 10
-69.137562
 20
202.666355
 30
0.0
 10
-68.930353
 20
202.166110
 30
0.0
 10
-68.930353
 20
201.644501
 30
0.0
  0
LWPOLYLINE
  5
1b2
100
AcDbEntity
  8
Layer_1
 62
1
100
AcDbPolyline
 90
1
 70
1
 10
-134.012980
 20
201.644501
 30
0.0
  0
LWPOLYLINE
  5
1b3
100
AcDbEntity
  8
Layer_1
 62
1
100
AcDbPolyline
 90
1
 70
1
 10
-68.930353
 20
201.644501
 30
0.0
  0
LWPOLYLINE
  5
1b4
100
AcDbEntity
  8
labels
 62
7
100
AcDbPolyline
 90
4
 70
1
 10
-240.050330
 20
216.632559
 30
0.0
 10
-240.050330
 20
203.188108
 30
0.0
 10
-237.050330
 20
203.188108
 30
0.0
 10
-237.050330
 20
216.632559
 30
0.0
  0
LWPOLYLINE
  5
1b5
100
AcDbEntity
  8
labels
 62
7
100
AcDbPolyline
 90
4
 70
1
 10
-240.050330
 20
243.521449
 30
0.0
 10
-240.050330
 20
230.076999
 30
0.0
 10
-237.050330
 20
230.076999
 30
0.0
 10
-237.050330
 20
243.521449
 30
0.0
  0
LWPOLYLINE
  5
1b6
100
AcDbEntity
  8
labels
 62
7
100
AcDbPolyline
 90
4
 70
1
 10
-240.050330
 20
270.410339
 30
0.0
 10
-240.050330
 20
256.965889
 30
0.0
 10
-237.050330
 20
256.965889
 30
0.0
 10
-237.050330
 20
270.410339
 30
0.0
  0
LWPOLYLINE
  5
1b7
100
AcDbEntity
  8
labels
 62
7
100
AcDbPolyline
 90
4
 70
1
 10
-240.050330
 20
297.299235
 30
0.0
 10
-240.050330
 20
283.854784
 30
0.0
 10
-237.050330
 20
283.854784
 30
0.0
 10
-237.050330
 20
297.299235
 30
0.0
  0
LWPOLYLINE
  5
1b8
100
AcDbEntity
  8
labels
 62
7
100
AcDbPolyline
 90
60
 70
1
 10
-72.724023
 20
194.185740
 30
0.0
 10
-72.724023
 20
191.185720
 30
0.0
 10
-85.009743
 20
191.185720
 30
0.0
 10
-85.009743
 20
194.185740
 30
0.0
 10
-97.295453
 20
194.185740
 30
0.0
 10
-97.295453
 20
191.185720
 30
0.0
 10
-109.581230
 20
191.185720
 30
0.0
 10
-109.581230
 20
194.185740
 30
0.0
 10
-121.867010
 20
194.185740
 30
0.0
 10
-121.867010
 20
191.185720
 30
0.0
 10
-134.152760
 20
191.185720
 30
0.0
 10
-134.152760
 20
194.185740
 30
0.0
 10
-143.438480
 20
194.185740
 30
0.0
 10
-143.438480
 20
204.630190
 30
0.0
 10
-146.438480
 20
204.630190
 30
0.0
 10
-146.438480
 20
218.074641
 30
0.0
 10
-143.438480
 20
218.074641
 30
0.0
 10
-143.438480
 20
231.519081
 30
0.0
 10
-146.438480
 20
231.519081
 30
0.0
 10
-146.438480
 20
244.963531
 30
0.0
 10
-143.438480
 20
244.963531
 30
0.0
 10
-143.438480
 20
258.407971
 30
0.0
 10
-146.438480
 20
258.407971
 30
0.0
 10
-146.438480
 20
271.852421
 30
0.0
 10
-143.438480
 20
271.852421
 30
0.0
 10
-143.438480
 20
285.296867
 30
0.0
 10
-146.438480
 20
285.296867
 30
0.0
 10
-146.438480
 20
298.741317
 30
0.0
 10
-143.438480
 20
298.741317
 30
0.0
 10
-143.438480
 20
309.185751
 30
0.0
 10
-134.152760
 20
309.185751
 30
0.0
 10
-134.152760
 20
312.185751
 30
0.0
 10
-121.867010
 20
312.185751
 30
0.0
 10
-121.867010
 20
309.185751
 30
0.0
 10
-109.581230
 20
309.185751
 30
0.0
 10
-109.581230
 20
312.185751
 30
0.0
 10
-97.295453
 20
312.185751
 30
0.0
 10
-97.295453
 20
309.185751
 30
0.0
 10
-85.009743
 20
309.185751
 30
0.0
 10
-85.009743
 20
312.185751
 30
0.0
 10
-72.724023
 20
312.185751
 30
0.0
 10
-72.724023
 20
309.185751
 30
0.0
 10
-63.438313
 20
309.185751
 30
0.0
 10
-63.438313
 20
298.741317
 30
0.0
 10
-60.438313
 20
298.741317
 30
0.0
 10
-60.438313
 20
285.296867
 30
0.0
 10
-63.438313
 20
285.296867
 30
0.0
 10
-63.438313
 20
271.852421
 30
0.0
 10
-60.438313
 20
271.852421
 30
0.0
 10
-60.438313
 20
258.407971
 30
0.0
 10
-63.438313
 20
258.407971
 30
0.0
 10
-63.438313
 20
244.963531
 30
0.0
 10
-60.438313
 20
244.963531
 30
0.0
 10
-60.438313
 20
231.519081
 30
0.0
 10
-63.438313
 20
231.519081
 30
0.0
 10
-63.438313
 20
218.074641
 30
0.0
 10
-60.438313
 20
218.074641
 30
0.0
 10
-60.438313
 20
204.630190
 30
0.0
 10
-63.438313
 20
204.630190
 30
0.0
 10
-63.438313
 20
194.185740
 30
0.0
  0
LWPOLYLINE
  5
1b9
100
AcDbEntity
  8
labels
 62
7
100
AcDbPolyline
 90
4
 70
1
 10
-229.576413
 20
401.407591
 30
0.0
 10
-229.576413
 20
343.471342
 30
0.0
 10
-254.512664
 20
343.471342
 30
0.0
 10
-254.512664
 20
401.407591
 30
0.0
  0
LWPOLYLINE
  5
1ba
100
AcDbEntity
  8
labels
 62
7
100
AcDbPolyline
 90
42
 70
1
 10
-258.795043
 20
415.439428
 30
0.0
 10
-258.795043
 20
412.439608
 30
0.0
 10
-258.795043
 20
332.439850
 30
0.0
 10
-258.795043
 20
329.439510
 30
0.0
 10
-246.004113
 20
329.439510
 30
0.0
 10
-246.004113
 20
332.439850
 30
0.0
 10
-233.213143
 20
332.439850
 30
0.0
 10
-233.213143
 20
329.439510
 30
0.0
 10
-220.422213
 20
329.439510
 30
0.0
 10
-220.422213
 20
332.439850
 30
0.0
 10
-207.631243
 20
332.439850
 30
0.0
 10
-207.631243
 20
329.439510
 30
0.0
 10
-194.840313
 20
329.439510
 30
0.0
 10
-194.840313
 20
332.439850
 30
0.0
 10
-182.049343
 20
332.439850
 30
0.0
 10
-182.049343
 20
329.439510
 30
0.0
 10
-169.258403
 20
329.439510
 30
0.0
 10
-169.258403
 20
341.725580
 30
0.0
 10
-172.258733
 20
341.725580
 30
0.0
 10
-172.258733
 20
354.011140
 30
0.0
 10
-169.258403
 20
354.011140
 30
0.0
 10
-169.258403
 20
366.296688
 30
0.0
 10
-172.258733
 20
366.296688
 30
0.0
 10
-172.258733
 20
378.582758
 30
0.0
 10
-169.258403
 20
378.582758
 30
0.0
 10
-169.258403
 20
390.868318
 30
0.0
 10
-172.258733
 20
390.868318
 30
0.0
 10
-172.258733
 20
403.153868
 30
0.0
 10
-169.258403
 20
403.153868
 30
0.0
 10
-169.258403
 20
415.439428
 30
0.0
 10
-182.049343
 20
415.439428
 30
0.0
 10
-182.049343
 20
412.439608
 30
0.0
 10
-194.840313
 20
412.439608
 30
0.0
 10
-194.840313
 20
415.439428
 30
0.0
 10
-207.631243
 20
415.439428
 30
0.0
 10
-207.631243
 20
412.439608
 30
0.0
 10
-220.422213
 20
412.439608
 30
0.0
 10
-220.422213
 20
415.439428
 30
0.0
 10
-233.213143
 20
415.439428
 30
0.0
 10
-233.213143
 20
412.439608
 30
0.0
 10
-246.004113
 20
412.439608
 30
0.0
 10
-246.004113
 20
415.439428
 30
0.0
  0
LWPOLYLINE
  5
1bb
100
AcDbEntity
  8
labels
 62
7
100
AcDbPolyline
 90
4
 70
1
 10
-259.676820
 20
216.632559
 30
0.0
 10
-259.676820
 20
203.188108
 30
0.0
 10
-256.676820
 20
203.188108
 30
0.0
 10
-256.676820
 20
216.632559
 30
0.0
  0
LWPOLYLINE
  5
1bc
100
AcDbEntity
  8
labels
 62
7
100
AcDbPolyline
 90
4
 70
1
 10
-259.676820
 20
243.521449
 30
0.0
 10
-259.676820
 20
230.076999
 30
0.0
 10
-256.676820
 20
230.076999
 30
0.0
 10
-256.676820
 20
243.521449
 30
0.0
  0
LWPOLYLINE
  5
1bd
100
AcDbEntity
  8
labels
 62
7
100
AcDbPolyline
 90
4
 70
1
 10
-259.676820
 20
270.410339
 30
0.0
 10
-259.676820
 20
256.965889
 30
0.0
 10
-256.676820
 20
256.965889
 30
0.0
 10
-256.676820
 20
270.410339
 30
0.0
  0
LWPOLYLINE
  5
1be
100
AcDbEntity
  8
labels
 62
7
100
AcDbPolyline
 90
4
 70
1
 10
-259.676820
 20
297.299235
 30
0.0
 10
-259.676820
 20
283.854784
 30
0.0
 10
-256.676820
 20
283.854784
 30
0.0
 10
-256.676820
 20
297.299235
 30
0.0
  0
LWPOLYLINE
  5
1bf
100
AcDbEntity
  8
labels
 62
7
100
AcDbPolyline
 90
4
 70
1
 10
-199.837310
 20
265.219099
 30
0.0
 10
-199.837310
 20
235.268249
 30
0.0
 10
-214.288110
 20
235.268249
 30
0.0
 10
-214.288110
 20
265.219099
 30
0.0
  0
LWPOLYLINE
  5
1c0
100
AcDbEntity
  8
labels
 62
7
100
AcDbPolyline
 90
43
 70
1
 10
-377.501270
 20
311.378232
 30
0.0
 10
-377.501270
 20
308.188247
 30
0.0
 10
-377.500270
 20
308.188247
 30
0.0
 10
-377.500270
 20
297.744963
 30
0.0
 10
-380.500620
 20
297.744963
 30
0.0
 10
-380.500620
 20
284.300313
 30
0.0
 10
-377.500270
 20
284.300313
 30
0.0
 10
-377.500270
 20
270.856172
 30
0.0
 10
-380.500620
 20
270.856172
 30
0.0
 10
-380.500620
 20
257.411555
 30
0.0
 10
-377.500270
 20
257.411555
 30
0.0
 10
-377.500270
 20
243.966973
 30
0.0
 10
-380.500620
 20
243.966973
 30
0.0
 10
-380.500620
 20
230.522908
 30
0.0
 10
-377.500270
 20
230.522908
 30
0.0
 10
-377.500270
 20
217.078336
 30
0.0
 10
-380.500620
 20
217.078336
 30
0.0
 10
-380.500620
 20
203.634271
 30
0.0
 10
-377.500270
 20
203.634271
 30
0.0
 10
-377.500270
 20
193.189460
 30
0.0
 10
-377.500270
 20
190.000000
 30
0.0
 10
-297.437460
 20
190.000000
 30
0.0
 10
-297.437460
 20
193.189460
 30
0.0
 10
-297.500560
 20
193.189460
 30
0.0
 10
-297.500560
 20
203.634271
 30
0.0
 10
-294.500740
 20
203.634271
 30
0.0
 10
-294.500740
 20
217.078336
 30
0.0
 10
-297.500560
 20
217.078336
 30
0.0
 10
-297.500560
 20
230.522908
 30
0.0
 10
-294.500740
 20
230.522908
 30
0.0
 10
-294.500740
 20
243.966973
 30
0.0
 10
-297.500560
 20
243.966973
 30
0.0
 10
-297.500560
 20
257.411555
 30
0.0
 10
-294.500740
 20
257.411555
 30
0.0
 10
-294.500740
 20
270.856172
 30
0.0
 10
-297.500560
 20
270.856172
 30
0.0
 10
-297.500560
 20
284.300313
 30
0.0
 10
-294.500740
 20
284.300313
 30
0.0
 10
-294.500740
 20
297.744963
 30
0.0
 10
-297.500560
 20
297.744963
 30
0.0
 10
-297.500560
 20
308.188247
 30
0.0
 10
-297.438060
 20
308.188247
 30
0.0
 10
-297.438060
 20
311.378232
 30
0.0
  0
LWPOLYLINE
  5
1c1
100
AcDbEntity
  8
labels
 62
7
100
AcDbPolyline
 90
42
 70
1
 10
-165.554210
 20
415.439430
 30
0.0
 10
-165.554210
 20
412.439600
 30
0.0
 10
-165.554210
 20
332.439818
 30
0.0
 10
-165.554210
 20
329.439478
 30
0.0
 10
-152.763280
 20
329.439478
 30
0.0
 10
-152.763280
 20
332.439818
 30
0.0
 10
-139.972310
 20
332.439818
 30
0.0
 10
-139.972310
 20
329.439478
 30
0.0
 10
-127.181380
 20
329.439478
 30
0.0
 10
-127.181380
 20
332.439818
 30
0.0
 10
-114.390410
 20
332.439818
 30
0.0
 10
-114.390410
 20
329.439478
 30
0.0
 10
-101.599480
 20
329.439478
 30
0.0
 10
-101.599480
 20
332.439818
 30
0.0
 10
-88.808534
 20
332.439818
 30
0.0
 10
-88.808534
 20
329.439478
 30
0.0
 10
-76.017594
 20
329.439478
 30
0.0
 10
-76.017594
 20
341.725548
 30
0.0
 10
-79.017924
 20
341.725548
 30
0.0
 10
-79.017924
 20
354.011108
 30
0.0
 10
-76.017594
 20
354.011108
 30
0.0
 10
-76.017594
 20
366.296658
 30
0.0
 10
-79.017924
 20
366.296658
 30
0.0
 10
-79.017924
 20
378.582728
 30
0.0
 10
-76.017594
 20
378.582728
 30
0.0
 10
-76.017594
 20
390.868288
 30
0.0
 10
-79.017924
 20
390.868288
 30
0.0
 10
-79.017924
 20
403.153840
 30
0.0
 10
-76.017594
 20
403.153840
 30
0.0
 10
-76.017594
 20
415.439430
 30
0.0
 10
-88.808534
 20
415.439430
 30
0.0
 10
-88.808534
 20
412.439600
 30
0.0
 10
-101.599480
 20
412.439600
 30
0.0
 10
-101.599480
 20
415.439430
 30
0.0
 10
-114.390410
 20
415.439430
 30
0.0
 10
-114.390410
 20
412.439600
 30
0.0
 10
-127.181380
 20
412.439600
 30
0.0
 10
-127.181380
 20
415.439430
 30
0.0
 10
-139.972310
 20
415.439430
 30
0.0
 10
-139.972310
 20
412.439600
 30
0.0
 10
-152.763280
 20
412.439600
 30
0.0
 10
-152.763280
 20
415.439430
 30
0.0
  0
LWPOLYLINE
  5
1c2
100
AcDbEntity
  8
labels
 62
3
100
AcDbPolyline
 90
4
 70
1
 10
-353.603843
 20
434.804388
 30
0.0
 10
-375.254478
 20
447.304388
 30
0.0
 10
-373.754478
 20
449.902464
 30
0.0
 10
-352.103843
 20
437.402464
 30
0.0
  0
LWPOLYLINE
  5
1c3
100
AcDbEntity
  8
labels
 62
1
100
AcDbPolyline
 90
4
 70
1
 10
-368.694769
 20
446.721217
 30
0.0
 10
-357.388730
 20
440.193686
 30
0.0
 10
-358.663560
 20
437.985634
 30
0.0
 10
-369.969589
 20
444.513173
 30
0.0
  0
LWPOLYLINE
  5
1c4
100
AcDbEntity
  8
labels
 62
3
100
AcDbPolyline
 90
4
 70
1
 10
-375.839283
 20
434.804388
 30
0.0
 10
-397.489918
 20
447.304388
 30
0.0
 10
-395.989918
 20
449.902464
 30
0.0
 10
-374.339283
 20
437.402464
 30
0.0
  0
LWPOLYLINE
  5
1c5
100
AcDbEntity
  8
labels
 62
1
100
AcDbPolyline
 90
4
 70
1
 10
-390.930209
 20
446.721217
 30
0.0
 10
-379.624170
 20
440.193686
 30
0.0
 10
-380.899000
 20
437.985634
 30
0.0
 10
-392.205029
 20
444.513173
 30
0.0
  0
LWPOLYLINE
  5
1c6
100
AcDbEntity
  8
labels
 62
3
100
AcDbPolyline
 90
4
 70
1
 10
-353.603843
 20
347.749597
 30
0.0
 10
-375.254478
 20
335.249597
 30
0.0
 10
-373.754478
 20
332.651521
 30
0.0
 10
-352.103843
 20
345.151521
 30
0.0
  0
LWPOLYLINE
  5
1c7
100
AcDbEntity
  8
labels
 62
1
100
AcDbPolyline
 90
4
 70
1
 10
-368.694769
 20
335.832768
 30
0.0
 10
-357.388730
 20
342.360299
 30
0.0
 10
-358.663560
 20
344.568351
 30
0.0
 10
-369.969589
 20
338.040812
 30
0.0
  0
LWPOLYLINE
  5
1c8
100
AcDbEntity
  8
labels
 62
3
100
AcDbPolyline
 90
4
 70
1
 10
-375.839283
 20
347.749597
 30
0.0
 10
-397.489918
 20
335.249597
 30
0.0
 10
-395.989918
 20
332.651521
 30
0.0
 10
-374.339283
 20
345.151521
 30
0.0
  0
LWPOLYLINE
  5
1c9
100
AcDbEntity
  8
labels
 62
1
100
AcDbPolyline
 90
4
 70
1
 10
-390.930209
 20
335.832768
 30
0.0
 10
-379.624170
 20
342.360299
 30
0.0
 10
-380.899000
 20
344.568351
 30
0.0
 10
-392.205029
 20
338.040812
 30
0.0
  0
LWPOLYLINE
  5
1ca
100
AcDbEntity
  8
labels
 62
7
100
AcDbPolyline
 90
4
 70
1
 10
-350.929400
 20
357.665919
 30
0.0
 10
-350.929400
 20
344.221462
 30
0.0
 10
-347.929400
 20
344.221462
 30
0.0
 10
-347.929400
 20
357.665919
 30
0.0
  0
LWPOLYLINE
  5
1cb
100
AcDbEntity
  8
labels
 62
7
100
AcDbPolyline
 90
4
 70
1
 10
-350.929400
 20
384.554809
 30
0.0
 10
-350.929400
 20
371.110359
 30
0.0
 10
-347.929400
 20
371.110359
 30
0.0
 10
-347.929400
 20
384.554809
 30
0.0
  0
LWPOLYLINE
  5
1cc
100
AcDbEntity
  8
labels
 62
7
100
AcDbPolyline
 90
4
 70
1
 10
-350.929400
 20
411.443670
 30
0.0
 10
-350.929400
 20
397.999220
 30
0.0
 10
-347.929400
 20
397.999220
 30
0.0
 10
-347.929400
 20
411.443670
 30
0.0
  0
LWPOLYLINE
  5
1cd
100
AcDbEntity
  8
labels
 62
7
100
AcDbPolyline
 90
4
 70
1
 10
-350.929400
 20
438.332560
 30
0.0
 10
-350.929400
 20
424.888110
 30
0.0
 10
-347.929400
 20
424.888110
 30
0.0
 10
-347.929400
 20
438.332560
 30
0.0
  0
LWPOLYLINE
  5
1ce
100
AcDbEntity
  8
labels
 62
7
100
AcDbPolyline
 90
4
 70
1
 10
-370.555890
 20
357.665919
 30
0.0
 10
-370.555890
 20
344.221462
 30
0.0
 10
-367.555890
 20
344.221462
 30
0.0
 10
-367.555890
 20
357.665919
 30
0.0
  0
LWPOLYLINE
  5
1cf
100
AcDbEntity
  8
labels
 62
7
100
AcDbPolyline
 90
4
 70
1
 10
-370.555890
 20
384.554809
 30
0.0
 10
-370.555890
 20
371.110359
 30
0.0
 10
-367.555890
 20
371.110359
 30
0.0
 10
-367.555890
 20
384.554809
 30
0.0
  0
LWPOLYLINE
  5
1d0
100
AcDbEntity
  8
labels
 62
7
100
AcDbPolyline
 90
4
 70
1
 10
-370.555890
 20
411.443670
 30
0.0
 10
-370.555890
 20
397.999220
 30
0.0
 10
-367.555890
 20
397.999220
 30
0.0
 10
-367.555890
 20
411.443670
 30
0.0
  0
LWPOLYLINE
  5
1d1
100
AcDbEntity
  8
labels
 62
7
100
AcDbPolyline
 90
4
 70
1
 10
-370.555890
 20
438.332560
 30
0.0
 10
-370.555890
 20
424.888110
 30
0.0
 10
-367.555890
 20
424.888110
 30
0.0
 10
-367.555890
 20
438.332560
 30
0.0
  0
ENDSEC
  0
SECTION
  2
OBJECTS
  0
DICTIONARY
  5
C
330
0
100
AcDbDictionary
  3
ACAD_GROUP
350
D
  3
ACAD_MLINESTYLE
350
17
  0
DICTIONARY
  5
D
330
C
100
AcDbDictionary
  0
DICTIONARY
  5
1A
330
C
100
AcDbDictionary
  0
DICTIONARY
  5
17
330
C
100
AcDbDictionary
  3
STANDARD
350
18
  0
DICTIONARY
  5
19
330
C
100
AcDbDictionary
  0
ENDSEC
  0
EOF
