  0
SECTION
  2
HEADER
  9
$ACADVER
  1
AC1014
  9
$HANDSEED
  5
FFFF
  9
$MEASUREMENT
 70
     1
  0
ENDSEC
  0
SECTION
  2
TABLES
  0
TABLE
  2
VPORT
  5
8
330
0
100
AcDbSymbolTable
 70
     4
  0
VPORT
  5
2E
330
8
100
AcDbSymbolTableRecord
100
AcDbViewportTableRecord
  2
*ACTIVE
 70
     0
 10
0.0
 20
0.0
 11
1.0
 21
1.0
 12
210.0
 22
148.5
 13
0.0
 23
0.0
 14
10.0
 24
10.0
 15
10.0
 25
10.0
 16
0.0
 26
0.0
 36
1.0
 17
0.0
 27
0.0
 37
0.0
 40
341.0
 41
1.24
 42
50.0
 43
0.0
 44
0.0
 50
0.0
 51
0.0
 71
     0
 72
   100
 73
     1
 74
     3
 75
     0
 76
     0
 77
     0
 78
     0
  0
ENDTAB
  0
TABLE
  2
LTYPE
  5
5
330
0
100
AcDbSymbolTable
 70
     1
  0
LTYPE
  5
14
330
5
100
AcDbSymbolTableRecord
100
AcDbLinetypeTableRecord
  2
BYBLOCK
 70
     0
  3

 72
    65
 73
     0
 40
0.0
  0
LTYPE
  5
15
330
5
100
AcDbSymbolTableRecord
100
AcDbLinetypeTableRecord
  2
BYLAYER
 70
     0
  3

 72
    65
 73
     0
 40
0.0
  0
LTYPE
  5
16
330
5
100
AcDbSymbolTableRecord
100
AcDbLinetypeTableRecord
  2
CONTINUOUS
 70
     0
  3
Solid line
 72
    65
 73
     0
 40
0.0
  0
ENDTAB
  0
TABLE
  2
LAYER
  5
2
100
AcDbSymbolTable
 70
2
  0
LAYER
  5
50
100
AcDbSymbolTableRecord
100
AcDbLayerTableRecord
  2
0
 70
0
  6
CONTINUOUS
  0
LAYER
  5
51
100
AcDbSymbolTableRecord
100
AcDbLayerTableRecord
  2
Layer_1
 70
0
  6
CONTINUOUS
  0
ENDTAB
  0
TABLE
  2
STYLE
  5
3
330
0
100
AcDbSymbolTable
 70
     1
  0
STYLE
  5
11
330
3
100
AcDbSymbolTableRecord
100
AcDbTextStyleTableRecord
  2
STANDARD
 70
     0
 40
0.0
 41
1.0
 50
0.0
 71
     0
 42
2.5
  3
txt
  4

  0
ENDTAB
  0
TABLE
  2
VIEW
  5
6
330
0
100
AcDbSymbolTable
 70
     0
  0
ENDTAB
  0
TABLE
  2
UCS
  5
7
330
0
100
AcDbSymbolTable
 70
     0
  0
ENDTAB
  0
TABLE
  2
APPID
  5
9
330
0
100
AcDbSymbolTable
 70
     2
  0
APPID
  5
12
330
9
100
AcDbSymbolTableRecord
100
AcDbRegAppTableRecord
  2
ACAD
 70
     0
  0
ENDTAB
  0
TABLE
  2
DIMSTYLE
  5
A
330
0
100
AcDbSymbolTable
 70
     1
  0
DIMSTYLE
105
27
330
A
100
AcDbSymbolTableRecord
100
AcDbDimStyleTableRecord
  2
ISO-25
 70
     0
  3

  4

  5

  6

  7

 40
1.0
 41
2.5
 42
0.625
 43
3.75
 44
1.25
 45
0.0
 46
0.0
 47
0.0
 48
0.0
140
2.5
141
2.5
142
0.0
143
0.03937007874016
144
1.0
145
0.0
146
1.0
147
0.625
 71
     0
 72
     0
 73
     0
 74
     0
 75
     0
 76
     0
 77
     1
 78
     8
170
     0
171
     3
172
     1
173
     0
174
     0
175
     0
176
     0
177
     0
178
     0
270
     2
271
     2
272
     2
273
     2
274
     3
340
11
275
     0
280
     0
281
     0
282
     0
283
     0
284
     8
285
     0
286
     0
287
     3
288
     0
  0
ENDTAB
  0
TABLE
  2
BLOCK_RECORD
  5
1
330
0
100
AcDbSymbolTable
 70
     1
  0
BLOCK_RECORD
  5
1F
330
1
100
AcDbSymbolTableRecord
100
AcDbBlockTableRecord
  2
*MODEL_SPACE
  0
BLOCK_RECORD
  5
1B
330
1
100
AcDbSymbolTableRecord
100
AcDbBlockTableRecord
  2
*PAPER_SPACE
  0
ENDTAB
  0
ENDSEC
  0
SECTION
  2
BLOCKS
  0
BLOCK
  5
20
330
1F
100
AcDbEntity
  8
0
100
AcDbBlockBegin
  2
*MODEL_SPACE
 70
     0
 10
0.0
 20
0.0
 30
0.0
  3
*MODEL_SPACE
  1

  0
ENDBLK
  5
21
330
1F
100
AcDbEntity
  8
0
100
AcDbBlockEnd
  0
BLOCK
  5
1C
330
1B
100
AcDbEntity
 67
     1
  8
0
100
AcDbBlockBegin
  2
*PAPER_SPACE
  1

  0
ENDBLK
  5
1D
330
1B
100
AcDbEntity
 67
     1
  8
0
100
AcDbBlockEnd
  0
ENDSEC
  0
SECTION
  2
ENTITIES
  0
LWPOLYLINE
  5
100
100
AcDbEntity
  8
Layer_1
 62
7
100
AcDbPolyline
 90
14
 70
0
 10
400.667630
 20
163.892640
 30
0.0
 10
394.239060
 20
163.892640
 30
0.0
 10
394.239060
 20
163.892640
 30
0.0
 10
380.810490
 20
163.892640
 30
0.0
 10
380.810490
 20
163.892640
 30
0.0
 10
367.381910
 20
163.892640
 30
0.0
 10
367.381910
 20
163.892640
 30
0.0
 10
353.953340
 20
163.892640
 30
0.0
 10
353.953340
 20
163.892640
 30
0.0
 10
340.524770
 20
163.892640
 30
0.0
 10
340.524770
 20
163.892640
 30
0.0
 10
327.096200
 20
163.892640
 30
0.0
 10
327.096200
 20
163.892640
 30
0.0
 10
320.667630
 20
163.892640
 30
0.0
  0
LWPOLYLINE
  5
101
100
AcDbEntity
  8
Layer_1
 62
7
100
AcDbPolyline
 90
18
 70
0
 10
400.667630
 20
278.892633
 30
0.0
 10
400.667630
 20
271.559300
 30
0.0
 10
407.667630
 20
271.559300
 30
0.0
 10
407.667630
 20
257.225966
 30
0.0
 10
400.667630
 20
257.225966
 30
0.0
 10
400.667630
 20
242.892633
 30
0.0
 10
407.667630
 20
242.892633
 30
0.0
 10
407.667630
 20
228.559300
 30
0.0
 10
400.667630
 20
228.559300
 30
0.0
 10
400.667630
 20
214.225966
 30
0.0
 10
407.667630
 20
214.225966
 30
0.0
 10
407.667630
 20
199.892633
 30
0.0
 10
400.667630
 20
199.892633
 30
0.0
 10
400.667630
 20
185.559300
 30
0.0
 10
407.667630
 20
185.559300
 30
0.0
 10
407.667630
 20
171.225970
 30
0.0
 10
400.667630
 20
171.225970
 30
0.0
 10
400.667630
 20
163.892640
 30
0.0
  0
LWPOLYLINE
  5
102
100
AcDbEntity
  8
Layer_1
 62
7
100
AcDbPolyline
 90
14
 70
0
 10
320.667630
 20
278.892633
 30
0.0
 10
327.096200
 20
278.892633
 30
0.0
 10
327.096200
 20
278.892633
 30
0.0
 10
340.524770
 20
278.892633
 30
0.0
 10
340.524770
 20
278.892633
 30
0.0
 10
353.953340
 20
278.892633
 30
0.0
 10
353.953340
 20
278.892633
 30
0.0
 10
367.381910
 20
278.892633
 30
0.0
 10
367.381910
 20
278.892633
 30
0.0
 10
380.810490
 20
278.892633
 30
0.0
 10
380.810490
 20
278.892633
 30
0.0
 10
394.239060
 20
278.892633
 30
0.0
 10
394.239060
 20
278.892633
 30
0.0
 10
400.667630
 20
278.892633
 30
0.0
  0
LWPOLYLINE
  5
103
100
AcDbEntity
  8
Layer_1
 62
7
100
AcDbPolyline
 90
18
 70
0
 10
320.667630
 20
163.892640
 30
0.0
 10
320.667630
 20
171.225970
 30
0.0
 10
313.667630
 20
171.225970
 30
0.0
 10
313.667630
 20
185.559300
 30
0.0
 10
320.667630
 20
185.559300
 30
0.0
 10
320.667630
 20
199.892633
 30
0.0
 10
313.667630
 20
199.892633
 30
0.0
 10
313.667630
 20
214.225966
 30
0.0
 10
320.667630
 20
214.225966
 30
0.0
 10
320.667630
 20
228.559300
 30
0.0
 10
313.667630
 20
228.559300
 30
0.0
 10
313.667630
 20
242.892633
 30
0.0
 10
320.667630
 20
242.892633
 30
0.0
 10
320.667630
 20
257.225966
 30
0.0
 10
313.667630
 20
257.225966
 30
0.0
 10
313.667630
 20
271.559300
 30
0.0
 10
320.667630
 20
271.559300
 30
0.0
 10
320.667630
 20
278.892633
 30
0.0
  0
LWPOLYLINE
  5
104
100
AcDbEntity
  8
Layer_1
 62
7
100
AcDbPolyline
 90
42
 70
1
 10
210.782400
 20
426.760790
 30
0.0
 10
210.782400
 20
419.760670
 30
0.0
 10
210.782400
 20
339.760761
 30
0.0
 10
210.782400
 20
332.760668
 30
0.0
 10
224.300960
 20
332.760668
 30
0.0
 10
224.300960
 20
339.760761
 30
0.0
 10
237.818990
 20
339.760761
 30
0.0
 10
237.818990
 20
332.760668
 30
0.0
 10
251.337030
 20
332.760668
 30
0.0
 10
251.337030
 20
339.760761
 30
0.0
 10
264.855070
 20
339.760761
 30
0.0
 10
264.855070
 20
332.760668
 30
0.0
 10
278.373630
 20
332.760668
 30
0.0
 10
278.373630
 20
339.760761
 30
0.0
 10
291.891660
 20
339.760761
 30
0.0
 10
291.891660
 20
332.760668
 30
0.0
 10
305.409700
 20
332.760668
 30
0.0
 10
305.409700
 20
346.189313
 30
0.0
 10
298.409620
 20
346.189313
 30
0.0
 10
298.409620
 20
359.617438
 30
0.0
 10
305.409700
 20
359.617438
 30
0.0
 10
305.409700
 20
373.046074
 30
0.0
 10
298.409620
 20
373.046074
 30
0.0
 10
298.409620
 20
386.474713
 30
0.0
 10
305.409700
 20
386.474713
 30
0.0
 10
305.409700
 20
399.903370
 30
0.0
 10
298.409620
 20
399.903370
 30
0.0
 10
298.409620
 20
413.332080
 30
0.0
 10
305.409700
 20
413.332080
 30
0.0
 10
305.409700
 20
426.760790
 30
0.0
 10
291.891660
 20
426.760790
 30
0.0
 10
291.891660
 20
419.760670
 30
0.0
 10
278.373630
 20
419.760670
 30
0.0
 10
278.373630
 20
426.760790
 30
0.0
 10
264.855070
 20
426.760790
 30
0.0
 10
264.855070
 20
419.760670
 30
0.0
 10
251.337030
 20
419.760670
 30
0.0
 10
251.337030
 20
426.760790
 30
0.0
 10
237.818990
 20
426.760790
 30
0.0
 10
237.818990
 20
419.760670
 30
0.0
 10
224.300960
 20
419.760670
 30
0.0
 10
224.300960
 20
426.760790
 30
0.0
  0
LWPOLYLINE
  5
105
100
AcDbEntity
  8
Layer_1
 62
7
100
AcDbPolyline
 90
4
 70
1
 10
393.081300
 20
217.105515
 30
0.0
 10
387.372450
 20
217.105515
 30
0.0
 10
387.372450
 20
225.679761
 30
0.0
 10
393.081300
 20
225.679761
 30
0.0
  0
LWPOLYLINE
  5
106
100
AcDbEntity
  8
Layer_1
 62
7
100
AcDbPolyline
 90
32
 70
1
 10
20.038570
 20
109.069871
 30
0.0
 10
20.038570
 20
94.736379
 30
0.0
 10
27.038659
 20
94.736379
 30
0.0
 10
27.038659
 20
80.403405
 30
0.0
 10
20.038570
 20
80.403405
 30
0.0
 10
20.038570
 20
66.069913
 30
0.0
 10
27.038659
 20
66.069913
 30
0.0
 10
27.038659
 20
51.736420
 30
0.0
 10
20.038570
 20
51.736420
 30
0.0
 10
20.038570
 20
37.402928
 30
0.0
 10
27.038659
 20
37.402928
 30
0.0
 10
27.038659
 20
23.069946
 30
0.0
 10
20.038570
 20
23.069946
 30
0.0
 10
20.038570
 20
8.736462
 30
0.0
 10
27.038659
 20
8.736462
 30
0.0
 10
107.038427
 20
8.736462
 30
0.0
 10
114.038516
 20
8.736462
 30
0.0
 10
114.038516
 20
23.069946
 30
0.0
 10
107.038427
 20
23.069946
 30
0.0
 10
107.038427
 20
37.402928
 30
0.0
 10
114.038516
 20
37.402928
 30
0.0
 10
114.038516
 20
51.736420
 30
0.0
 10
107.038427
 20
51.736420
 30
0.0
 10
107.038427
 20
66.069913
 30
0.0
 10
114.038516
 20
66.069913
 30
0.0
 10
114.038516
 20
80.403405
 30
0.0
 10
107.038427
 20
80.403405
 30
0.0
 10
107.038427
 20
94.736379
 30
0.0
 10
114.038516
 20
94.736379
 30
0.0
 10
114.038516
 20
109.069871
 30
0.0
 10
107.038427
 20
109.069871
 30
0.0
 10
27.038659
 20
109.069871
 30
0.0
  0
LWPOLYLINE
  5
107
100
AcDbEntity
  8
Layer_1
 62
7
100
AcDbPolyline
 90
4
 70
1
 10
60.307947
 20
104.326493
 30
0.0
 10
73.768624
 20
104.326493
 30
0.0
 10
73.768624
 20
92.855874
 30
0.0
 10
60.307947
 20
92.855874
 30
0.0
  0
LWPOLYLINE
  5
108
100
AcDbEntity
  8
Layer_1
 62
7
100
AcDbPolyline
 90
4
 70
1
 10
36.930562
 20
99.213108
 30
0.0
 10
48.873502
 20
99.213108
 30
0.0
 10
48.873502
 20
18.593223
 30
0.0
 10
36.930562
 20
18.593223
 30
0.0
  0
LWPOLYLINE
  5
109
100
AcDbEntity
  8
Layer_1
 62
7
100
AcDbPolyline
 90
4
 70
1
 10
85.203066
 20
99.213108
 30
0.0
 10
97.146524
 20
99.213108
 30
0.0
 10
97.146524
 20
18.593223
 30
0.0
 10
85.203066
 20
18.593223
 30
0.0
  0
LWPOLYLINE
  5
10a
100
AcDbEntity
  8
Layer_1
 62
7
100
AcDbPolyline
 90
4
 70
1
 10
59.462003
 20
77.627347
 30
0.0
 10
74.615600
 20
77.627347
 30
0.0
 10
74.615600
 20
40.178987
 30
0.0
 10
59.462003
 20
40.178987
 30
0.0
  0
LWPOLYLINE
  5
10b
100
AcDbEntity
  8
Layer_1
 62
7
100
AcDbPolyline
 90
4
 70
1
 10
60.307947
 20
24.950446
 30
0.0
 10
73.768624
 20
24.950446
 30
0.0
 10
73.768624
 20
13.479833
 30
0.0
 10
60.307947
 20
13.479833
 30
0.0
  0
LWPOLYLINE
  5
10c
100
AcDbEntity
  8
Layer_1
 62
7
100
AcDbPolyline
 90
62
 70
1
 10
62.825621
 20
287.923551
 30
0.0
 10
62.825621
 20
287.829501
 30
0.0
 10
56.397074
 20
287.829501
 30
0.0
 10
56.397074
 20
280.923462
 30
0.0
 10
56.397074
 20
273.590060
 30
0.0
 10
49.396985
 20
273.590060
 30
0.0
 10
49.396985
 20
259.256569
 30
0.0
 10
56.397074
 20
259.256569
 30
0.0
 10
56.397074
 20
244.923077
 30
0.0
 10
49.396985
 20
244.923077
 30
0.0
 10
49.396985
 20
230.590100
 30
0.0
 10
56.397074
 20
230.590100
 30
0.0
 10
56.397074
 20
216.256608
 30
0.0
 10
49.396985
 20
216.256608
 30
0.0
 10
49.396985
 20
201.923118
 30
0.0
 10
56.397074
 20
201.923118
 30
0.0
 10
56.397074
 20
187.590142
 30
0.0
 10
49.396985
 20
187.590142
 30
0.0
 10
49.396985
 20
173.256649
 30
0.0
 10
56.397074
 20
173.256649
 30
0.0
 10
56.397074
 20
165.923249
 30
0.0
 10
62.825621
 20
165.923249
 30
0.0
 10
62.825621
 20
158.923160
 30
0.0
 10
76.253741
 20
158.923160
 30
0.0
 10
76.253741
 20
165.923249
 30
0.0
 10
89.682380
 20
165.923249
 30
0.0
 10
89.682380
 20
158.923160
 30
0.0
 10
103.111018
 20
158.923160
 30
0.0
 10
103.111018
 20
165.923249
 30
0.0
 10
116.539654
 20
165.923249
 30
0.0
 10
116.539654
 20
158.923160
 30
0.0
 10
129.968293
 20
158.923160
 30
0.0
 10
129.968293
 20
165.923249
 30
0.0
 10
136.396839
 20
165.923249
 30
0.0
 10
136.396839
 20
173.256649
 30
0.0
 10
143.396931
 20
173.256649
 30
0.0
 10
143.396931
 20
187.590142
 30
0.0
 10
136.396839
 20
187.590142
 30
0.0
 10
136.396839
 20
201.923118
 30
0.0
 10
143.396931
 20
201.923118
 30
0.0
 10
143.396931
 20
216.256608
 30
0.0
 10
136.396839
 20
216.256608
 30
0.0
 10
136.396839
 20
230.590100
 30
0.0
 10
143.396931
 20
230.590100
 30
0.0
 10
143.396931
 20
244.923077
 30
0.0
 10
136.396839
 20
244.923077
 30
0.0
 10
136.396839
 20
259.256569
 30
0.0
 10
143.396931
 20
259.256569
 30
0.0
 10
143.396931
 20
273.590060
 30
0.0
 10
136.396839
 20
273.590060
 30
0.0
 10
136.396839
 20
280.923462
 30
0.0
 10
136.396839
 20
287.829501
 30
0.0
 10
129.968293
 20
287.829501
 30
0.0
 10
129.968293
 20
287.923551
 30
0.0
 10
116.539654
 20
287.923551
 30
0.0
 10
116.539654
 20
287.829501
 30
0.0
 10
103.111018
 20
287.829501
 30
0.0
 10
103.111018
 20
287.923551
 30
0.0
 10
89.682380
 20
287.923551
 30
0.0
 10
89.682380
 20
287.829501
 30
0.0
 10
76.253741
 20
287.829501
 30
0.0
 10
76.253741
 20
287.923551
 30
0.0
  0
LWPOLYLINE
  5
10d
100
AcDbEntity
  8
Layer_1
 62
7
100
AcDbPolyline
 90
4
 70
1
 10
74.760640
 20
269.878926
 30
0.0
 10
74.760640
 20
176.967690
 30
0.0
 10
64.192990
 20
176.967690
 30
0.0
 10
64.192990
 20
269.878926
 30
0.0
  0
LWPOLYLINE
  5
10e
100
AcDbEntity
  8
Layer_1
 62
7
100
AcDbPolyline
 90
4
 70
1
 10
92.707320
 20
269.878926
 30
0.0
 10
92.707320
 20
176.967690
 30
0.0
 10
82.139670
 20
176.967690
 30
0.0
 10
82.139670
 20
269.878926
 30
0.0
  0
LWPOLYLINE
  5
10f
100
AcDbEntity
  8
Layer_1
 62
7
100
AcDbPolyline
 90
4
 70
1
 10
110.654020
 20
269.878926
 30
0.0
 10
110.654020
 20
176.967690
 30
0.0
 10
100.086380
 20
176.967690
 30
0.0
 10
100.086380
 20
269.878926
 30
0.0
  0
LWPOLYLINE
  5
110
100
AcDbEntity
  8
Layer_1
 62
7
100
AcDbPolyline
 90
4
 70
1
 10
128.600710
 20
269.878934
 30
0.0
 10
128.600710
 20
176.967700
 30
0.0
 10
118.033060
 20
176.967700
 30
0.0
 10
118.033060
 20
269.878934
 30
0.0
  0
LWPOLYLINE
  5
111
100
AcDbEntity
  8
Layer_1
 62
7
100
AcDbPolyline
 90
4
 70
1
 10
249.106450
 20
-100.507510
 30
0.0
 10
249.106450
 20
-130.458360
 30
0.0
 10
234.655590
 20
-130.458360
 30
0.0
 10
234.655590
 20
-100.507510
 30
0.0
  0
LWPOLYLINE
  5
112
100
AcDbEntity
  8
Layer_1
 62
7
100
AcDbPolyline
 90
14
 70
0
 10
312.791430
 20
-56.487270
 30
0.0
 10
319.220000
 20
-56.487270
 30
0.0
 10
319.220000
 20
-49.487270
 30
0.0
 10
332.648570
 20
-49.487270
 30
0.0
 10
332.648570
 20
-56.487270
 30
0.0
 10
346.077140
 20
-56.487270
 30
0.0
 10
346.077140
 20
-49.487270
 30
0.0
 10
359.505720
 20
-49.487270
 30
0.0
 10
359.505720
 20
-56.487270
 30
0.0
 10
372.934290
 20
-56.487270
 30
0.0
 10
372.934290
 20
-49.487270
 30
0.0
 10
386.362860
 20
-49.487270
 30
0.0
 10
386.362860
 20
-56.487270
 30
0.0
 10
392.791430
 20
-56.487270
 30
0.0
  0
LWPOLYLINE
  5
113
100
AcDbEntity
  8
Layer_1
 62
7
100
AcDbPolyline
 90
18
 70
0
 10
312.791430
 20
-171.487270
 30
0.0
 10
312.791430
 20
-164.153930
 30
0.0
 10
305.791430
 20
-164.153930
 30
0.0
 10
305.791430
 20
-149.820600
 30
0.0
 10
312.791430
 20
-149.820600
 30
0.0
 10
312.791430
 20
-135.487270
 30
0.0
 10
305.791430
 20
-135.487270
 30
0.0
 10
305.791430
 20
-121.153930
 30
0.0
 10
312.791430
 20
-121.153930
 30
0.0
 10
312.791430
 20
-106.820600
 30
0.0
 10
305.791430
 20
-106.820600
 30
0.0
 10
305.791430
 20
-92.487270
 30
0.0
 10
312.791430
 20
-92.487270
 30
0.0
 10
312.791430
 20
-78.153930
 30
0.0
 10
305.791430
 20
-78.153930
 30
0.0
 10
305.791430
 20
-63.820600
 30
0.0
 10
312.791430
 20
-63.820600
 30
0.0
 10
312.791430
 20
-56.487270
 30
0.0
  0
LWPOLYLINE
  5
114
100
AcDbEntity
  8
Layer_1
 62
7
100
AcDbPolyline
 90
14
 70
0
 10
392.791430
 20
-171.487270
 30
0.0
 10
386.362860
 20
-171.487270
 30
0.0
 10
386.362860
 20
-178.487270
 30
0.0
 10
372.934290
 20
-178.487270
 30
0.0
 10
372.934290
 20
-171.487270
 30
0.0
 10
359.505720
 20
-171.487270
 30
0.0
 10
359.505720
 20
-178.487270
 30
0.0
 10
346.077140
 20
-178.487270
 30
0.0
 10
346.077140
 20
-171.487270
 30
0.0
 10
332.648570
 20
-171.487270
 30
0.0
 10
332.648570
 20
-178.487270
 30
0.0
 10
319.220000
 20
-178.487270
 30
0.0
 10
319.220000
 20
-171.487270
 30
0.0
 10
312.791430
 20
-171.487270
 30
0.0
  0
LWPOLYLINE
  5
115
100
AcDbEntity
  8
Layer_1
 62
7
100
AcDbPolyline
 90
18
 70
0
 10
392.791430
 20
-56.487270
 30
0.0
 10
392.791430
 20
-63.820600
 30
0.0
 10
399.791430
 20
-63.820600
 30
0.0
 10
399.791430
 20
-78.153930
 30
0.0
 10
392.791430
 20
-78.153930
 30
0.0
 10
392.791430
 20
-92.487270
 30
0.0
 10
399.791430
 20
-92.487270
 30
0.0
 10
399.791430
 20
-106.820600
 30
0.0
 10
392.791430
 20
-106.820600
 30
0.0
 10
392.791430
 20
-121.153930
 30
0.0
 10
399.791430
 20
-121.153930
 30
0.0
 10
399.791430
 20
-135.487270
 30
0.0
 10
392.791430
 20
-135.487270
 30
0.0
 10
392.791430
 20
-149.820600
 30
0.0
 10
399.791430
 20
-149.820600
 30
0.0
 10
399.791430
 20
-164.153930
 30
0.0
 10
392.791430
 20
-164.153930
 30
0.0
 10
392.791430
 20
-171.487270
 30
0.0
  0
LWPOLYLINE
  5
116
100
AcDbEntity
  8
Layer_1
 62
7
100
AcDbPolyline
 90
4
 70
1
 10
382.990690
 20
-67.522320
 30
0.0
 10
382.990690
 20
-160.452230
 30
0.0
 10
376.385600
 20
-160.452230
 30
0.0
 10
376.385600
 20
-67.522320
 30
0.0
  0
LWPOLYLINE
  5
117
100
AcDbEntity
  8
Layer_1
 62
7
100
AcDbPolyline
 90
4
 70
1
 10
369.542320
 20
-67.522320
 30
0.0
 10
369.542320
 20
-160.452230
 30
0.0
 10
362.937240
 20
-160.452230
 30
0.0
 10
362.937240
 20
-67.522320
 30
0.0
  0
LWPOLYLINE
  5
118
100
AcDbEntity
  8
Layer_1
 62
7
100
AcDbPolyline
 90
4
 70
1
 10
356.093970
 20
-67.522320
 30
0.0
 10
356.093970
 20
-160.452230
 30
0.0
 10
349.488880
 20
-160.452230
 30
0.0
 10
349.488880
 20
-67.522320
 30
0.0
  0
LWPOLYLINE
  5
119
100
AcDbEntity
  8
Layer_1
 62
7
100
AcDbPolyline
 90
4
 70
1
 10
342.645600
 20
-67.522320
 30
0.0
 10
342.645600
 20
-160.452230
 30
0.0
 10
336.040520
 20
-160.452230
 30
0.0
 10
336.040520
 20
-67.522320
 30
0.0
  0
LWPOLYLINE
  5
11a
100
AcDbEntity
  8
Layer_1
 62
7
100
AcDbPolyline
 90
4
 70
1
 10
329.197250
 20
-67.522320
 30
0.0
 10
329.197250
 20
-160.452230
 30
0.0
 10
322.592170
 20
-160.452230
 30
0.0
 10
322.592170
 20
-67.522320
 30
0.0
  0
LWPOLYLINE
  5
11b
100
AcDbEntity
  8
Layer_1
 62
7
100
AcDbPolyline
 90
12
 70
1
 10
-42.325908
 20
111.218490
 30
0.0
 10
-42.325908
 20
104.173960
 30
0.0
 10
-48.105918
 20
104.173960
 30
0.0
 10
-48.105918
 20
24.174190
 30
0.0
 10
-42.325908
 20
24.174190
 30
0.0
 10
-42.325908
 20
17.176690
 30
0.0
 10
-29.336528
 20
17.176690
 30
0.0
 10
-29.336528
 20
24.174190
 30
0.0
 10
-23.556518
 20
24.174190
 30
0.0
 10
-23.556518
 20
104.174470
 30
0.0
 10
-29.336528
 20
104.174470
 30
0.0
 10
-29.336528
 20
111.218490
 30
0.0
  0
LWPOLYLINE
  5
11c
100
AcDbEntity
  8
Layer_1
 62
7
100
AcDbPolyline
 90
12
 70
1
 10
-68.950477
 20
111.218490
 30
0.0
 10
-68.950477
 20
104.173960
 30
0.0
 10
-74.730487
 20
104.173960
 30
0.0
 10
-74.730487
 20
24.174190
 30
0.0
 10
-68.950477
 20
24.174190
 30
0.0
 10
-68.950477
 20
17.176690
 30
0.0
 10
-55.961098
 20
17.176690
 30
0.0
 10
-55.961098
 20
24.174190
 30
0.0
 10
-50.181098
 20
24.174190
 30
0.0
 10
-50.181098
 20
104.174470
 30
0.0
 10
-55.961098
 20
104.174470
 30
0.0
 10
-55.961098
 20
111.218490
 30
0.0
  0
LWPOLYLINE
  5
11d
100
AcDbEntity
  8
Layer_1
 62
7
100
AcDbPolyline
 90
12
 70
1
 10
-95.575063
 20
111.218490
 30
0.0
 10
-95.575063
 20
104.173960
 30
0.0
 10
-101.355070
 20
104.173960
 30
0.0
 10
-101.355070
 20
24.174190
 30
0.0
 10
-95.575063
 20
24.174190
 30
0.0
 10
-95.575063
 20
17.176690
 30
0.0
 10
-82.585683
 20
17.176690
 30
0.0
 10
-82.585683
 20
24.174190
 30
0.0
 10
-76.805673
 20
24.174190
 30
0.0
 10
-76.805673
 20
104.174470
 30
0.0
 10
-82.585683
 20
104.174470
 30
0.0
 10
-82.585683
 20
111.218490
 30
0.0
  0
LWPOLYLINE
  5
11e
100
AcDbEntity
  8
Layer_1
 62
7
100
AcDbPolyline
 90
12
 70
1
 10
-15.701318
 20
111.218490
 30
0.0
 10
-15.701318
 20
104.173960
 30
0.0
 10
-21.481328
 20
104.173960
 30
0.0
 10
-21.481328
 20
24.174190
 30
0.0
 10
-15.701318
 20
24.174190
 30
0.0
 10
-15.701318
 20
17.176690
 30
0.0
 10
-2.711938
 20
17.176690
 30
0.0
 10
-2.711938
 20
24.174190
 30
0.0
 10
3.068072
 20
24.174190
 30
0.0
 10
3.068072
 20
104.174470
 30
0.0
 10
-2.711938
 20
104.174470
 30
0.0
 10
-2.711938
 20
111.218490
 30
0.0
  0
LWPOLYLINE
  5
11f
100
AcDbEntity
  8
Layer_1
 62
7
100
AcDbPolyline
 90
42
 70
1
 10
207.049980
 20
-46.999950
 30
0.0
 10
207.049980
 20
-39.999860
 30
0.0
 10
207.049980
 20
39.999910
 30
0.0
 10
207.049980
 20
46.999990
 30
0.0
 10
220.568540
 20
46.999990
 30
0.0
 10
220.568540
 20
39.999910
 30
0.0
 10
234.086570
 20
39.999910
 30
0.0
 10
234.086570
 20
46.999990
 30
0.0
 10
247.604610
 20
46.999990
 30
0.0
 10
247.604610
 20
39.999910
 30
0.0
 10
261.122650
 20
39.999910
 30
0.0
 10
261.122650
 20
46.999990
 30
0.0
 10
274.641210
 20
46.999990
 30
0.0
 10
274.641210
 20
39.999910
 30
0.0
 10
288.159240
 20
39.999910
 30
0.0
 10
288.159240
 20
46.999990
 30
0.0
 10
301.677280
 20
46.999990
 30
0.0
 10
301.677280
 20
33.571360
 30
0.0
 10
294.677200
 20
33.571360
 30
0.0
 10
294.677200
 20
20.143240
 30
0.0
 10
301.677280
 20
20.143240
 30
0.0
 10
301.677280
 20
6.714600
 30
0.0
 10
294.677200
 20
6.714600
 30
0.0
 10
294.677200
 20
-6.714040
 30
0.0
 10
301.677280
 20
-6.714040
 30
0.0
 10
301.677280
 20
-20.142680
 30
0.0
 10
294.677200
 20
-20.142680
 30
0.0
 10
294.677200
 20
-33.571310
 30
0.0
 10
301.677280
 20
-33.571310
 30
0.0
 10
301.677280
 20
-46.999950
 30
0.0
 10
288.159240
 20
-46.999950
 30
0.0
 10
288.159240
 20
-39.999860
 30
0.0
 10
274.641210
 20
-39.999860
 30
0.0
 10
274.641210
 20
-46.999950
 30
0.0
 10
261.122650
 20
-46.999950
 30
0.0
 10
261.122650
 20
-39.999860
 30
0.0
 10
247.604610
 20
-39.999860
 30
0.0
 10
247.604610
 20
-46.999950
 30
0.0
 10
234.086570
 20
-46.999950
 30
0.0
 10
234.086570
 20
-39.999860
 30
0.0
 10
220.568540
 20
-39.999860
 30
0.0
 10
220.568540
 20
-46.999950
 30
0.0
  0
LWPOLYLINE
  5
120
100
AcDbEntity
  8
Layer_1
 62
7
100
AcDbPolyline
 90
4
 70
1
 10
208.951290
 20
184.130500
 30
0.0
 10
208.951290
 20
169.797170
 30
0.0
 10
215.951300
 20
169.797170
 30
0.0
 10
215.951300
 20
184.130500
 30
0.0
  0
LWPOLYLINE
  5
121
100
AcDbEntity
  8
Layer_1
 62
7
100
AcDbPolyline
 90
4
 70
1
 10
208.951290
 20
212.797170
 30
0.0
 10
208.951290
 20
198.463830
 30
0.0
 10
215.951300
 20
198.463830
 30
0.0
 10
215.951300
 20
212.797170
 30
0.0
  0
LWPOLYLINE
  5
122
100
AcDbEntity
  8
Layer_1
 62
7
100
AcDbPolyline
 90
4
 70
1
 10
208.951290
 20
241.463840
 30
0.0
 10
208.951290
 20
227.130500
 30
0.0
 10
215.951300
 20
227.130500
 30
0.0
 10
215.951300
 20
241.463840
 30
0.0
  0
SPLINE
  5
123
100
AcDbEntity
  8
Layer_1
 62
7
100
AcDbSpline
 70
8
 71
3
 72
8
 73
4
 74
0
 40
0
 40
0
 40
0
 40
0
 40
1
 40
1
 40
1
 40
1
 10
173.425589
 20
303.570141
 30
0.0
 10
164.080888
 20
303.569910
 30
0.0
 10
156.505641
 20
295.548829
 30
0.0
 10
156.505691
 20
285.654440
 30
0.0
  0
SPLINE
  5
124
100
AcDbEntity
  8
Layer_1
 62
7
100
AcDbSpline
 70
8
 71
3
 72
8
 73
4
 74
0
 40
0
 40
0
 40
0
 40
0
 40
1
 40
1
 40
1
 40
1
 10
156.505691
 20
285.654440
 30
0.0
 10
156.511988
 20
285.257013
 30
0.0
 10
156.530774
 20
284.859918
 30
0.0
 10
156.562018
 20
284.463815
 30
0.0
  0
LWPOLYLINE
  5
125
100
AcDbEntity
  8
Layer_1
 62
7
100
AcDbPolyline
 90
4
 70
1
 10
208.951290
 20
270.130510
 30
0.0
 10
208.951290
 20
255.797160
 30
0.0
 10
215.951300
 20
255.797160
 30
0.0
 10
215.951300
 20
270.130510
 30
0.0
  0
SPLINE
  5
126
100
AcDbEntity
  8
Layer_1
 62
7
100
AcDbSpline
 70
8
 71
3
 72
8
 73
4
 74
0
 40
0
 40
0
 40
0
 40
0
 40
1
 40
1
 40
1
 40
1
 10
156.562018
 20
162.463509
 30
0.0
 10
156.562018
 20
162.463509
 30
0.0
 10
156.562018
 20
155.463939
 30
0.0
 10
156.562018
 20
155.463939
 30
0.0
  0
SPLINE
  5
127
100
AcDbEntity
  8
Layer_1
 62
7
100
AcDbSpline
 70
8
 71
3
 72
8
 73
4
 74
0
 40
0
 40
0
 40
0
 40
0
 40
1
 40
1
 40
1
 40
1
 10
156.562018
 20
155.463939
 30
0.0
 10
156.530774
 20
155.067835
 30
0.0
 10
156.511988
 20
154.670741
 30
0.0
 10
156.505691
 20
154.273314
 30
0.0
  0
SPLINE
  5
128
100
AcDbEntity
  8
Layer_1
 62
7
100
AcDbSpline
 70
8
 71
3
 72
8
 73
4
 74
0
 40
0
 40
0
 40
0
 40
0
 40
1
 40
1
 40
1
 40
1
 10
156.505691
 20
154.273314
 30
0.0
 10
156.505641
 20
144.378924
 30
0.0
 10
164.080888
 20
136.357843
 30
0.0
 10
173.425589
 20
136.357612
 30
0.0
  0
SPLINE
  5
129
100
AcDbEntity
  8
Layer_1
 62
7
100
AcDbSpline
 70
8
 71
3
 72
8
 73
4
 74
0
 40
0
 40
0
 40
0
 40
0
 40
1
 40
1
 40
1
 40
1
 10
173.425589
 20
136.357612
 30
0.0
 10
177.913166
 20
136.357578
 30
0.0
 10
182.216954
 20
138.245108
 30
0.0
 10
185.390153
 20
141.604960
 30
0.0
  0
SPLINE
  5
12a
100
AcDbEntity
  8
Layer_1
 62
7
100
AcDbSpline
 70
8
 71
3
 72
8
 73
4
 74
0
 40
0
 40
0
 40
0
 40
0
 40
1
 40
1
 40
1
 40
1
 10
185.390153
 20
141.604960
 30
0.0
 10
188.563352
 20
144.964813
 30
0.0
 10
190.346026
 20
149.521761
 30
0.0
 10
190.346002
 20
154.273314
 30
0.0
  0
SPLINE
  5
12b
100
AcDbEntity
  8
Layer_1
 62
7
100
AcDbSpline
 70
8
 71
3
 72
8
 73
4
 74
0
 40
0
 40
0
 40
0
 40
0
 40
1
 40
1
 40
1
 40
1
 10
190.346002
 20
154.273314
 30
0.0
 10
190.345209
 20
154.670546
 30
0.0
 10
190.331938
 20
155.067641
 30
0.0
 10
190.306211
 20
155.463939
 30
0.0
  0
LWPOLYLINE
  5
12c
100
AcDbEntity
  8
Layer_1
 62
7
100
AcDbPolyline
 90
19
 70
0
 10
156.562018
 20
284.463815
 30
0.0
 10
156.562018
 20
277.463725
 30
0.0
 10
156.562018
 20
270.130322
 30
0.0
 10
163.561591
 20
270.130322
 30
0.0
 10
163.561591
 20
255.796830
 30
0.0
 10
156.562018
 20
255.796830
 30
0.0
 10
156.562018
 20
241.463856
 30
0.0
 10
163.561591
 20
241.463856
 30
0.0
 10
163.561591
 20
227.130364
 30
0.0
 10
156.562018
 20
227.130364
 30
0.0
 10
156.562018
 20
212.796871
 30
0.0
 10
163.561591
 20
212.796871
 30
0.0
 10
163.561591
 20
198.463897
 30
0.0
 10
156.562018
 20
198.463897
 30
0.0
 10
156.562018
 20
184.130405
 30
0.0
 10
163.561591
 20
184.130405
 30
0.0
 10
163.561591
 20
169.796913
 30
0.0
 10
156.562018
 20
169.796913
 30
0.0
 10
156.562018
 20
162.463509
 30
0.0
  0
SPLINE
  5
12d
100
AcDbEntity
  8
Layer_1
 62
7
100
AcDbSpline
 70
8
 71
3
 72
8
 73
4
 74
0
 40
0
 40
0
 40
0
 40
0
 40
1
 40
1
 40
1
 40
1
 10
257.999235
 20
155.463939
 30
0.0
 10
257.967990
 20
155.067835
 30
0.0
 10
257.949204
 20
154.670741
 30
0.0
 10
257.942908
 20
154.273314
 30
0.0
  0
SPLINE
  5
12e
100
AcDbEntity
  8
Layer_1
 62
7
100
AcDbSpline
 70
8
 71
3
 72
8
 73
4
 74
0
 40
0
 40
0
 40
0
 40
0
 40
1
 40
1
 40
1
 40
1
 10
257.942908
 20
154.273314
 30
0.0
 10
257.942857
 20
144.378920
 30
0.0
 10
265.518110
 20
136.357837
 30
0.0
 10
274.862816
 20
136.357612
 30
0.0
  0
SPLINE
  5
12f
100
AcDbEntity
  8
Layer_1
 62
7
100
AcDbSpline
 70
8
 71
3
 72
8
 73
4
 74
0
 40
0
 40
0
 40
0
 40
0
 40
1
 40
1
 40
1
 40
1
 10
274.862816
 20
136.357612
 30
0.0
 10
279.350390
 20
136.357583
 30
0.0
 10
283.654173
 20
138.245115
 30
0.0
 10
286.827368
 20
141.604967
 30
0.0
  0
SPLINE
  5
130
100
AcDbEntity
  8
Layer_1
 62
7
100
AcDbSpline
 70
8
 71
3
 72
8
 73
4
 74
0
 40
0
 40
0
 40
0
 40
0
 40
1
 40
1
 40
1
 40
1
 10
286.827368
 20
141.604967
 30
0.0
 10
290.000563
 20
144.964819
 30
0.0
 10
291.783235
 20
149.521765
 30
0.0
 10
291.783211
 20
154.273314
 30
0.0
  0
SPLINE
  5
131
100
AcDbEntity
  8
Layer_1
 62
7
100
AcDbSpline
 70
8
 71
3
 72
8
 73
4
 74
0
 40
0
 40
0
 40
0
 40
0
 40
1
 40
1
 40
1
 40
1
 10
291.783211
 20
154.273314
 30
0.0
 10
291.782416
 20
154.670546
 30
0.0
 10
291.769144
 20
155.067641
 30
0.0
 10
291.743417
 20
155.463939
 30
0.0
  0
LWPOLYLINE
  5
132
100
AcDbEntity
  8
Layer_1
 62
7
100
AcDbPolyline
 90
11
 70
0
 10
190.306211
 20
155.463939
 30
0.0
 10
197.116131
 20
155.463939
 30
0.0
 10
210.635202
 20
155.463939
 30
0.0
 10
210.635202
 20
162.463509
 30
0.0
 10
224.152724
 20
162.463509
 30
0.0
 10
224.152724
 20
155.463939
 30
0.0
 10
237.670760
 20
155.463939
 30
0.0
 10
237.670760
 20
162.463509
 30
0.0
 10
251.189315
 20
162.463509
 30
0.0
 10
251.189315
 20
155.463939
 30
0.0
 10
257.999235
 20
155.463939
 30
0.0
  0
SPLINE
  5
133
100
AcDbEntity
  8
Layer_1
 62
7
100
AcDbSpline
 70
8
 71
3
 72
8
 73
4
 74
0
 40
0
 40
0
 40
0
 40
0
 40
1
 40
1
 40
1
 40
1
 10
291.743417
 20
277.463725
 30
0.0
 10
291.743417
 20
277.463725
 30
0.0
 10
291.743417
 20
284.410071
 30
0.0
 10
291.743417
 20
284.410071
 30
0.0
  0
SPLINE
  5
134
100
AcDbEntity
  8
Layer_1
 62
7
100
AcDbSpline
 70
8
 71
3
 72
8
 73
4
 74
0
 40
0
 40
0
 40
0
 40
0
 40
1
 40
1
 40
1
 40
1
 10
291.743417
 20
284.410071
 30
0.0
 10
291.769144
 20
284.806369
 30
0.0
 10
291.782416
 20
285.203464
 30
0.0
 10
291.783211
 20
285.600696
 30
0.0
  0
SPLINE
  5
135
100
AcDbEntity
  8
Layer_1
 62
7
100
AcDbSpline
 70
8
 71
3
 72
8
 73
4
 74
0
 40
0
 40
0
 40
0
 40
0
 40
1
 40
1
 40
1
 40
1
 10
291.783211
 20
285.600696
 30
0.0
 10
291.783235
 20
290.352245
 30
0.0
 10
290.000563
 20
294.909191
 30
0.0
 10
286.827368
 20
298.269042
 30
0.0
  0
SPLINE
  5
136
100
AcDbEntity
  8
Layer_1
 62
7
100
AcDbSpline
 70
8
 71
3
 72
8
 73
4
 74
0
 40
0
 40
0
 40
0
 40
0
 40
1
 40
1
 40
1
 40
1
 10
286.827368
 20
298.269042
 30
0.0
 10
283.654173
 20
301.628894
 30
0.0
 10
279.350390
 20
303.516426
 30
0.0
 10
274.862816
 20
303.516398
 30
0.0
  0
SPLINE
  5
137
100
AcDbEntity
  8
Layer_1
 62
7
100
AcDbSpline
 70
8
 71
3
 72
8
 73
4
 74
0
 40
0
 40
0
 40
0
 40
0
 40
1
 40
1
 40
1
 40
1
 10
274.862816
 20
303.516398
 30
0.0
 10
265.518111
 20
303.516173
 30
0.0
 10
257.942857
 20
295.495090
 30
0.0
 10
257.942908
 20
285.600696
 30
0.0
  0
SPLINE
  5
138
100
AcDbEntity
  8
Layer_1
 62
7
100
AcDbSpline
 70
8
 71
3
 72
8
 73
4
 74
0
 40
0
 40
0
 40
0
 40
0
 40
1
 40
1
 40
1
 40
1
 10
257.942908
 20
285.600696
 30
0.0
 10
257.949204
 20
285.203269
 30
0.0
 10
257.967990
 20
284.806175
 30
0.0
 10
257.999235
 20
284.410071
 30
0.0
  0
LWPOLYLINE
  5
139
100
AcDbEntity
  8
Layer_1
 62
7
100
AcDbPolyline
 90
21
 70
0
 10
291.743417
 20
155.463939
 30
0.0
 10
291.743417
 20
162.463509
 30
0.0
 10
305.261985
 20
162.463509
 30
0.0
 10
305.261985
 20
169.796913
 30
0.0
 10
298.261904
 20
169.796913
 30
0.0
 10
298.261904
 20
184.130405
 30
0.0
 10
305.261985
 20
184.130405
 30
0.0
 10
305.261985
 20
198.463897
 30
0.0
 10
298.261904
 20
198.463897
 30
0.0
 10
298.261904
 20
212.796871
 30
0.0
 10
305.261985
 20
212.796871
 30
0.0
 10
305.261985
 20
227.130364
 30
0.0
 10
298.261904
 20
227.130364
 30
0.0
 10
298.261904
 20
241.463856
 30
0.0
 10
305.261985
 20
241.463856
 30
0.0
 10
305.261985
 20
255.796830
 30
0.0
 10
298.261904
 20
255.796830
 30
0.0
 10
298.261904
 20
270.130322
 30
0.0
 10
305.261985
 20
270.130322
 30
0.0
 10
305.261985
 20
277.463725
 30
0.0
 10
291.743417
 20
277.463725
 30
0.0
  0
SPLINE
  5
13a
100
AcDbEntity
  8
Layer_1
 62
7
100
AcDbSpline
 70
8
 71
3
 72
8
 73
4
 74
0
 40
0
 40
0
 40
0
 40
0
 40
1
 40
1
 40
1
 40
1
 10
197.116131
 20
284.463815
 30
0.0
 10
197.116131
 20
284.463815
 30
0.0
 10
190.306211
 20
284.463815
 30
0.0
 10
190.306211
 20
284.463815
 30
0.0
  0
SPLINE
  5
13b
100
AcDbEntity
  8
Layer_1
 62
7
100
AcDbSpline
 70
8
 71
3
 72
8
 73
4
 74
0
 40
0
 40
0
 40
0
 40
0
 40
1
 40
1
 40
1
 40
1
 10
190.306211
 20
284.463815
 30
0.0
 10
190.331938
 20
284.860113
 30
0.0
 10
190.345209
 20
285.257207
 30
0.0
 10
190.346002
 20
285.654440
 30
0.0
  0
SPLINE
  5
13c
100
AcDbEntity
  8
Layer_1
 62
7
100
AcDbSpline
 70
8
 71
3
 72
8
 73
4
 74
0
 40
0
 40
0
 40
0
 40
0
 40
1
 40
1
 40
1
 40
1
 10
190.346002
 20
285.654440
 30
0.0
 10
190.346026
 20
290.405992
 30
0.0
 10
188.563352
 20
294.962941
 30
0.0
 10
185.390153
 20
298.322793
 30
0.0
  0
SPLINE
  5
13d
100
AcDbEntity
  8
Layer_1
 62
7
100
AcDbSpline
 70
8
 71
3
 72
8
 73
4
 74
0
 40
0
 40
0
 40
0
 40
0
 40
1
 40
1
 40
1
 40
1
 10
185.390153
 20
298.322793
 30
0.0
 10
182.216954
 20
301.682645
 30
0.0
 10
177.913166
 20
303.570175
 30
0.0
 10
173.425589
 20
303.570141
 30
0.0
  0
LWPOLYLINE
  5
13e
100
AcDbEntity
  8
Layer_1
 62
7
100
AcDbPolyline
 90
10
 70
0
 10
257.999235
 20
284.410071
 30
0.0
 10
251.189315
 20
284.410071
 30
0.0
 10
251.189315
 20
277.463725
 30
0.0
 10
237.670760
 20
277.463725
 30
0.0
 10
237.670760
 20
284.463815
 30
0.0
 10
224.152724
 20
284.463815
 30
0.0
 10
224.152724
 20
277.463725
 30
0.0
 10
210.635202
 20
277.463725
 30
0.0
 10
210.635202
 20
284.463815
 30
0.0
 10
197.116131
 20
284.463815
 30
0.0
  0
LWPOLYLINE
  5
13f
100
AcDbEntity
  8
Layer_1
 62
7
100
AcDbPolyline
 90
1
 70
1
 10
173.425589
 20
303.570141
 30
0.0
  0
LWPOLYLINE
  5
140
100
AcDbEntity
  8
Layer_1
 62
7
100
AcDbPolyline
 90
5
 70
1
 10
264.707367
 20
284.410071
 30
0.0
 10
278.225379
 20
284.410071
 30
0.0
 10
278.225379
 20
277.463725
 30
0.0
 10
264.707367
 20
277.463725
 30
0.0
 10
264.707367
 20
284.410071
 30
0.0
  0
LWPOLYLINE
  5
141
100
AcDbEntity
  8
Layer_1
 62
7
100
AcDbPolyline
 90
5
 70
1
 10
264.707367
 20
162.463509
 30
0.0
 10
278.225379
 20
162.463509
 30
0.0
 10
278.225379
 20
155.463939
 30
0.0
 10
264.707367
 20
155.463939
 30
0.0
 10
264.707367
 20
162.463509
 30
0.0
  0
LWPOLYLINE
  5
142
100
AcDbEntity
  8
Layer_1
 62
7
100
AcDbPolyline
 90
4
 70
1
 10
192.275550
 20
183.983430
 30
0.0
 10
192.275550
 20
169.591270
 30
0.0
 10
194.687370
 20
169.591270
 30
0.0
 10
194.687370
 20
183.983430
 30
0.0
  0
LWPOLYLINE
  5
143
100
AcDbEntity
  8
Layer_1
 62
7
100
AcDbPolyline
 90
4
 70
1
 10
192.275550
 20
212.767740
 30
0.0
 10
192.275550
 20
198.375570
 30
0.0
 10
194.687370
 20
198.375570
 30
0.0
 10
194.687370
 20
212.767740
 30
0.0
  0
LWPOLYLINE
  5
144
100
AcDbEntity
  8
Layer_1
 62
7
100
AcDbPolyline
 90
4
 70
1
 10
192.275550
 20
241.552070
 30
0.0
 10
192.275550
 20
227.159900
 30
0.0
 10
194.687370
 20
227.159900
 30
0.0
 10
194.687370
 20
241.552070
 30
0.0
  0
LWPOLYLINE
  5
145
100
AcDbEntity
  8
Layer_1
 62
7
100
AcDbPolyline
 90
4
 70
1
 10
192.275550
 20
270.336410
 30
0.0
 10
192.275550
 20
255.944240
 30
0.0
 10
194.687370
 20
255.944240
 30
0.0
 10
194.687370
 20
270.336410
 30
0.0
  0
LWPOLYLINE
  5
146
100
AcDbEntity
  8
Layer_1
 62
1
100
AcDbPolyline
 90
4
 70
1
 10
190.617620
 20
283.213240
 30
0.0
 10
201.923650
 20
276.685709
 30
0.0
 10
200.648830
 20
274.477657
 30
0.0
 10
189.342800
 20
281.005197
 30
0.0
  0
LWPOLYLINE
  5
147
100
AcDbEntity
  8
Layer_1
 62
1
100
AcDbPolyline
 90
4
 70
1
 10
173.001870
 20
283.213247
 30
0.0
 10
184.307910
 20
276.685716
 30
0.0
 10
183.033080
 20
274.477664
 30
0.0
 10
171.727050
 20
281.005203
 30
0.0
  0
LWPOLYLINE
  5
148
100
AcDbEntity
  8
Layer_1
 62
1
100
AcDbPolyline
 90
4
 70
1
 10
190.617610
 20
156.714430
 30
0.0
 10
201.923650
 20
163.241960
 30
0.0
 10
200.648830
 20
165.450010
 30
0.0
 10
189.342800
 20
158.922470
 30
0.0
  0
LWPOLYLINE
  5
149
100
AcDbEntity
  8
Layer_1
 62
1
100
AcDbPolyline
 90
4
 70
1
 10
173.001860
 20
156.714420
 30
0.0
 10
184.307900
 20
163.241950
 30
0.0
 10
183.033080
 20
165.450000
 30
0.0
 10
171.727050
 20
158.922460
 30
0.0
  0
LWPOLYLINE
  5
14a
100
AcDbEntity
  8
Layer_1
 62
7
100
AcDbPolyline
 90
4
 70
1
 10
168.119100
 20
260.560630
 30
0.0
 10
168.119100
 20
274.907050
 30
0.0
 10
174.782570
 20
274.907050
 30
0.0
 10
174.782570
 20
260.560630
 30
0.0
  0
LWPOLYLINE
  5
14b
100
AcDbEntity
  8
Layer_1
 62
7
100
AcDbPolyline
 90
4
 70
1
 10
168.119100
 20
241.452690
 30
0.0
 10
168.119100
 20
255.799110
 30
0.0
 10
174.782570
 20
255.799110
 30
0.0
 10
174.782570
 20
241.452690
 30
0.0
  0
LWPOLYLINE
  5
14c
100
AcDbEntity
  8
Layer_1
 62
7
100
AcDbPolyline
 90
4
 70
1
 10
168.119100
 20
222.344740
 30
0.0
 10
168.119100
 20
236.691170
 30
0.0
 10
174.782570
 20
236.691170
 30
0.0
 10
174.782570
 20
222.344740
 30
0.0
  0
LWPOLYLINE
  5
14d
100
AcDbEntity
  8
Layer_1
 62
7
100
AcDbPolyline
 90
4
 70
1
 10
168.119100
 20
203.236800
 30
0.0
 10
168.119100
 20
217.583220
 30
0.0
 10
174.782570
 20
217.583220
 30
0.0
 10
174.782570
 20
203.236800
 30
0.0
  0
LWPOLYLINE
  5
14e
100
AcDbEntity
  8
Layer_1
 62
7
100
AcDbPolyline
 90
4
 70
1
 10
168.119100
 20
184.128870
 30
0.0
 10
168.119100
 20
198.475290
 30
0.0
 10
174.782570
 20
198.475290
 30
0.0
 10
174.782570
 20
184.128870
 30
0.0
  0
LWPOLYLINE
  5
14f
100
AcDbEntity
  8
Layer_1
 62
7
100
AcDbPolyline
 90
4
 70
1
 10
168.119100
 20
165.020930
 30
0.0
 10
168.119100
 20
179.367350
 30
0.0
 10
174.782570
 20
179.367350
 30
0.0
 10
174.782570
 20
165.020930
 30
0.0
  0
LWPOLYLINE
  5
150
100
AcDbEntity
  8
Layer_1
 62
7
100
AcDbPolyline
 90
4
 70
1
 10
204.970050
 20
-150.294300
 30
0.0
 10
204.970050
 20
-164.627630
 30
0.0
 10
211.970060
 20
-164.627630
 30
0.0
 10
211.970060
 20
-150.294300
 30
0.0
  0
LWPOLYLINE
  5
151
100
AcDbEntity
  8
Layer_1
 62
7
100
AcDbPolyline
 90
4
 70
1
 10
204.970050
 20
-121.627630
 30
0.0
 10
204.970050
 20
-135.960970
 30
0.0
 10
211.970060
 20
-135.960970
 30
0.0
 10
211.970060
 20
-121.627630
 30
0.0
  0
LWPOLYLINE
  5
152
100
AcDbEntity
  8
Layer_1
 62
7
100
AcDbPolyline
 90
4
 70
1
 10
204.970050
 20
-92.960960
 30
0.0
 10
204.970050
 20
-107.294300
 30
0.0
 10
211.970060
 20
-107.294300
 30
0.0
 10
211.970060
 20
-92.960960
 30
0.0
  0
LWPOLYLINE
  5
153
100
AcDbEntity
  8
Layer_1
 62
7
100
AcDbPolyline
 90
4
 70
1
 10
204.970050
 20
-64.294290
 30
0.0
 10
204.970050
 20
-78.627640
 30
0.0
 10
211.970060
 20
-78.627640
 30
0.0
 10
211.970060
 20
-64.294290
 30
0.0
  0
LWPOLYLINE
  5
154
100
AcDbEntity
  8
Layer_1
 62
7
100
AcDbPolyline
 90
72
 70
1
 10
152.581030
 20
-49.960870
 30
0.0
 10
152.581030
 20
-56.960960
 30
0.0
 10
152.581030
 20
-64.294360
 30
0.0
 10
159.580600
 20
-64.294360
 30
0.0
 10
159.580600
 20
-78.627860
 30
0.0
 10
152.581030
 20
-78.627860
 30
0.0
 10
152.581030
 20
-92.960830
 30
0.0
 10
159.580600
 20
-92.960830
 30
0.0
 10
159.580600
 20
-107.294320
 30
0.0
 10
152.581030
 20
-107.294320
 30
0.0
 10
152.581030
 20
-121.627830
 30
0.0
 10
159.580600
 20
-121.627830
 30
0.0
 10
159.580600
 20
-135.960800
 30
0.0
 10
152.581030
 20
-135.960800
 30
0.0
 10
152.581030
 20
-150.294280
 30
0.0
 10
159.580600
 20
-150.294280
 30
0.0
 10
159.580600
 20
-164.627770
 30
0.0
 10
152.581030
 20
-164.627770
 30
0.0
 10
152.581030
 20
-171.961180
 30
0.0
 10
152.581030
 20
-178.960750
 30
0.0
 10
166.099070
 20
-178.960750
 30
0.0
 10
179.617100
 20
-178.960750
 30
0.0
 10
193.135140
 20
-178.960750
 30
0.0
 10
206.653710
 20
-178.960750
 30
0.0
 10
206.653710
 20
-171.961180
 30
0.0
 10
220.171740
 20
-171.961180
 30
0.0
 10
220.171740
 20
-178.960750
 30
0.0
 10
233.689770
 20
-178.960750
 30
0.0
 10
233.689770
 20
-171.961180
 30
0.0
 10
247.208330
 20
-171.961180
 30
0.0
 10
247.208330
 20
-178.960750
 30
0.0
 10
260.726370
 20
-178.960750
 30
0.0
 10
260.726370
 20
-171.961180
 30
0.0
 10
274.244410
 20
-171.961180
 30
0.0
 10
274.244410
 20
-178.960750
 30
0.0
 10
287.762450
 20
-178.960750
 30
0.0
 10
287.762450
 20
-171.961180
 30
0.0
 10
301.280990
 20
-171.961180
 30
0.0
 10
301.280990
 20
-164.627770
 30
0.0
 10
294.280910
 20
-164.627770
 30
0.0
 10
294.280910
 20
-150.294280
 30
0.0
 10
301.280990
 20
-150.294280
 30
0.0
 10
301.280990
 20
-135.960800
 30
0.0
 10
294.280910
 20
-135.960800
 30
0.0
 10
294.280910
 20
-121.627830
 30
0.0
 10
301.280990
 20
-121.627830
 30
0.0
 10
301.280990
 20
-107.294320
 30
0.0
 10
294.280910
 20
-107.294320
 30
0.0
 10
294.280910
 20
-92.960830
 30
0.0
 10
301.280990
 20
-92.960830
 30
0.0
 10
301.280990
 20
-78.627860
 30
0.0
 10
294.280910
 20
-78.627860
 30
0.0
 10
294.280910
 20
-64.294360
 30
0.0
 10
301.280990
 20
-64.294360
 30
0.0
 10
301.280990
 20
-56.960960
 30
0.0
 10
287.762450
 20
-56.960960
 30
0.0
 10
287.762450
 20
-49.960870
 30
0.0
 10
274.244410
 20
-49.960870
 30
0.0
 10
274.244410
 20
-56.960960
 30
0.0
 10
260.726370
 20
-56.960960
 30
0.0
 10
260.726370
 20
-49.960870
 30
0.0
 10
247.208330
 20
-49.960870
 30
0.0
 10
247.208330
 20
-56.960960
 30
0.0
 10
233.689770
 20
-56.960960
 30
0.0
 10
233.689770
 20
-49.960870
 30
0.0
 10
220.171740
 20
-49.960870
 30
0.0
 10
220.171740
 20
-56.960960
 30
0.0
 10
206.653710
 20
-56.960960
 30
0.0
 10
206.653710
 20
-49.960870
 30
0.0
 10
193.135140
 20
-49.960870
 30
0.0
 10
179.617100
 20
-49.960870
 30
0.0
 10
166.099070
 20
-49.960870
 30
0.0
  0
LWPOLYLINE
  5
155
100
AcDbEntity
  8
Layer_1
 62
7
100
AcDbPolyline
 90
4
 70
1
 10
188.294310
 20
-150.441370
 30
0.0
 10
188.294310
 20
-164.833530
 30
0.0
 10
190.706130
 20
-164.833530
 30
0.0
 10
190.706130
 20
-150.441370
 30
0.0
  0
LWPOLYLINE
  5
156
100
AcDbEntity
  8
Layer_1
 62
7
100
AcDbPolyline
 90
4
 70
1
 10
188.294310
 20
-121.657060
 30
0.0
 10
188.294310
 20
-136.049230
 30
0.0
 10
190.706130
 20
-136.049230
 30
0.0
 10
190.706130
 20
-121.657060
 30
0.0
  0
LWPOLYLINE
  5
157
100
AcDbEntity
  8
Layer_1
 62
7
100
AcDbPolyline
 90
4
 70
1
 10
188.294310
 20
-92.872730
 30
0.0
 10
188.294310
 20
-107.264900
 30
0.0
 10
190.706130
 20
-107.264900
 30
0.0
 10
190.706130
 20
-92.872730
 30
0.0
  0
LWPOLYLINE
  5
158
100
AcDbEntity
  8
Layer_1
 62
7
100
AcDbPolyline
 90
4
 70
1
 10
188.294310
 20
-64.088390
 30
0.0
 10
188.294310
 20
-78.480560
 30
0.0
 10
190.706130
 20
-78.480560
 30
0.0
 10
190.706130
 20
-64.088390
 30
0.0
  0
LWPOLYLINE
  5
159
100
AcDbEntity
  8
Layer_1
 62
7
100
AcDbPolyline
 90
4
 70
1
 10
186.636380
 20
-51.211560
 30
0.0
 10
197.942410
 20
-57.739090
 30
0.0
 10
196.667590
 20
-59.947140
 30
0.0
 10
185.361560
 20
-53.419600
 30
0.0
  0
LWPOLYLINE
  5
15a
100
AcDbEntity
  8
Layer_1
 62
7
100
AcDbPolyline
 90
4
 70
1
 10
169.020630
 20
-51.211550
 30
0.0
 10
180.326670
 20
-57.739080
 30
0.0
 10
179.051840
 20
-59.947140
 30
0.0
 10
167.745810
 20
-53.419600
 30
0.0
  0
LWPOLYLINE
  5
15b
100
AcDbEntity
  8
Layer_1
 62
7
100
AcDbPolyline
 90
4
 70
1
 10
186.636370
 20
-177.710370
 30
0.0
 10
197.942410
 20
-171.182840
 30
0.0
 10
196.667590
 20
-168.974790
 30
0.0
 10
185.361560
 20
-175.502330
 30
0.0
  0
LWPOLYLINE
  5
15c
100
AcDbEntity
  8
Layer_1
 62
7
100
AcDbPolyline
 90
4
 70
1
 10
169.020620
 20
-177.710380
 30
0.0
 10
180.326660
 20
-171.182850
 30
0.0
 10
179.051840
 20
-168.974800
 30
0.0
 10
167.745810
 20
-175.502340
 30
0.0
  0
LWPOLYLINE
  5
15d
100
AcDbEntity
  8
Layer_1
 62
7
100
AcDbPolyline
 90
4
 70
1
 10
164.137860
 20
-73.864170
 30
0.0
 10
164.137860
 20
-59.517750
 30
0.0
 10
170.801330
 20
-59.517750
 30
0.0
 10
170.801330
 20
-73.864170
 30
0.0
  0
LWPOLYLINE
  5
15e
100
AcDbEntity
  8
Layer_1
 62
7
100
AcDbPolyline
 90
4
 70
1
 10
164.137860
 20
-92.972110
 30
0.0
 10
164.137860
 20
-78.625690
 30
0.0
 10
170.801330
 20
-78.625690
 30
0.0
 10
170.801330
 20
-92.972110
 30
0.0
  0
LWPOLYLINE
  5
15f
100
AcDbEntity
  8
Layer_1
 62
7
100
AcDbPolyline
 90
4
 70
1
 10
164.137860
 20
-112.080060
 30
0.0
 10
164.137860
 20
-97.733630
 30
0.0
 10
170.801330
 20
-97.733630
 30
0.0
 10
170.801330
 20
-112.080060
 30
0.0
  0
LWPOLYLINE
  5
160
100
AcDbEntity
  8
Layer_1
 62
7
100
AcDbPolyline
 90
4
 70
1
 10
164.137860
 20
-131.188000
 30
0.0
 10
164.137860
 20
-116.841580
 30
0.0
 10
170.801330
 20
-116.841580
 30
0.0
 10
170.801330
 20
-131.188000
 30
0.0
  0
LWPOLYLINE
  5
161
100
AcDbEntity
  8
Layer_1
 62
7
100
AcDbPolyline
 90
4
 70
1
 10
164.137860
 20
-150.295930
 30
0.0
 10
164.137860
 20
-135.949510
 30
0.0
 10
170.801330
 20
-135.949510
 30
0.0
 10
170.801330
 20
-150.295930
 30
0.0
  0
LWPOLYLINE
  5
162
100
AcDbEntity
  8
Layer_1
 62
7
100
AcDbPolyline
 90
4
 70
1
 10
164.137860
 20
-169.403870
 30
0.0
 10
164.137860
 20
-155.057450
 30
0.0
 10
170.801330
 20
-155.057450
 30
0.0
 10
170.801330
 20
-169.403870
 30
0.0
  0
LWPOLYLINE
  5
163
100
AcDbEntity
  8
Layer_1
 62
7
100
AcDbPolyline
 90
4
 70
1
 10
241.066220
 20
408.728780
 30
0.0
 10
241.066220
 20
350.792534
 30
0.0
 10
216.129970
 20
350.792534
 30
0.0
 10
216.129970
 20
408.728780
 30
0.0
  0
LWPOLYLINE
  5
164
100
AcDbEntity
  8
Layer_1
 62
7
100
AcDbPolyline
 90
11
 70
1
 10
-127.816460
 20
46.890790
 30
0.0
 10
-130.996120
 20
46.890790
 30
0.0
 10
-130.996120
 20
42.253330
 30
0.0
 10
-143.726600
 20
42.253330
 30
0.0
 10
-143.726600
 20
55.884020
 30
0.0
 10
-135.884690
 20
55.884020
 30
0.0
 10
-135.884690
 20
71.969350
 30
0.0
 10
-143.706440
 20
71.969350
 30
0.0
 10
-143.706440
 20
82.309290
 30
0.0
 10
-130.966670
 20
82.309290
 30
0.0
 10
-127.816460
 20
82.309290
 30
0.0
  0
SPLINE
  5
165
100
AcDbEntity
  8
Layer_1
 62
7
100
AcDbSpline
 70
8
 71
3
 72
8
 73
4
 74
0
 40
0
 40
0
 40
0
 40
0
 40
1
 40
1
 40
1
 40
1
 10
-112.822490
 20
98.577880
 30
0.0
 10
-110.052490
 20
98.577880
 30
0.0
 10
-107.822490
 20
96.347880
 30
0.0
 10
-107.822490
 20
93.577880
 30
0.0
  0
LWPOLYLINE
  5
166
100
AcDbEntity
  8
Layer_1
 62
7
100
AcDbPolyline
 90
2
 70
0
 10
-145.577820
 20
98.577880
 30
0.0
 10
-112.822490
 20
98.577880
 30
0.0
  0
SPLINE
  5
167
100
AcDbEntity
  8
Layer_1
 62
7
100
AcDbSpline
 70
8
 71
3
 72
8
 73
4
 74
0
 40
0
 40
0
 40
0
 40
0
 40
1
 40
1
 40
1
 40
1
 10
-107.822490
 20
31.087360
 30
0.0
 10
-107.822490
 20
28.317360
 30
0.0
 10
-110.052490
 20
26.087360
 30
0.0
 10
-112.822490
 20
26.087360
 30
0.0
  0
LWPOLYLINE
  5
168
100
AcDbEntity
  8
Layer_1
 62
7
100
AcDbPolyline
 90
2
 70
0
 10
-107.822490
 20
93.577880
 30
0.0
 10
-107.822490
 20
31.087360
 30
0.0
  0
SPLINE
  5
169
100
AcDbEntity
  8
Layer_1
 62
7
100
AcDbSpline
 70
8
 71
3
 72
8
 73
4
 74
0
 40
0
 40
0
 40
0
 40
0
 40
1
 40
1
 40
1
 40
1
 10
-145.577820
 20
26.087360
 30
0.0
 10
-148.347820
 20
26.087360
 30
0.0
 10
-150.577820
 20
28.317360
 30
0.0
 10
-150.577820
 20
31.087360
 30
0.0
  0
LWPOLYLINE
  5
16a
100
AcDbEntity
  8
Layer_1
 62
7
100
AcDbPolyline
 90
2
 70
0
 10
-112.822490
 20
26.087360
 30
0.0
 10
-145.577820
 20
26.087360
 30
0.0
  0
SPLINE
  5
16b
100
AcDbEntity
  8
Layer_1
 62
7
100
AcDbSpline
 70
8
 71
3
 72
8
 73
4
 74
0
 40
0
 40
0
 40
0
 40
0
 40
1
 40
1
 40
1
 40
1
 10
-150.577820
 20
93.577880
 30
0.0
 10
-150.577820
 20
96.347880
 30
0.0
 10
-148.347820
 20
98.577880
 30
0.0
 10
-145.577820
 20
98.577880
 30
0.0
  0
LWPOLYLINE
  5
16c
100
AcDbEntity
  8
Layer_1
 62
7
100
AcDbPolyline
 90
2
 70
0
 10
-150.577820
 20
31.087360
 30
0.0
 10
-150.577820
 20
93.577880
 30
0.0
  0
LWPOLYLINE
  5
16d
100
AcDbEntity
  8
Layer_1
 62
7
100
AcDbPolyline
 90
1
 70
1
 10
-145.577820
 20
98.577880
 30
0.0
  0
LWPOLYLINE
  5
16e
100
AcDbEntity
  8
Layer_1
 62
7
100
AcDbPolyline
 90
4
 70
1
 10
261.017580
 20
408.627570
 30
0.0
 10
267.492750
 20
408.627570
 30
0.0
 10
267.492750
 20
350.893799
 30
0.0
 10
261.017580
 20
350.893799
 30
0.0
  0
LWPOLYLINE
  5
16f
100
AcDbEntity
  8
Layer_1
 62
7
100
AcDbPolyline
 90
4
 70
1
 10
273.085720
 20
408.627570
 30
0.0
 10
279.560890
 20
408.627570
 30
0.0
 10
279.560890
 20
350.893799
 30
0.0
 10
273.085720
 20
350.893799
 30
0.0
  0
LWPOLYLINE
  5
170
100
AcDbEntity
  8
Layer_1
 62
7
100
AcDbPolyline
 90
4
 70
1
 10
285.149010
 20
404.541660
 30
0.0
 10
291.633960
 20
404.541660
 30
0.0
 10
291.633960
 20
354.935706
 30
0.0
 10
285.149010
 20
354.935706
 30
0.0
  0
LWPOLYLINE
  5
171
100
AcDbEntity
  8
Layer_1
 62
7
100
AcDbPolyline
 90
4
 70
1
 10
258.373380
 20
28.866870
 30
0.0
 10
264.848550
 20
28.866870
 30
0.0
 10
264.848550
 20
-28.866830
 30
0.0
 10
258.373380
 20
-28.866830
 30
0.0
  0
LWPOLYLINE
  5
172
100
AcDbEntity
  8
Layer_1
 62
7
100
AcDbPolyline
 90
4
 70
1
 10
270.441520
 20
28.866870
 30
0.0
 10
276.916690
 20
28.866870
 30
0.0
 10
276.916690
 20
-28.866830
 30
0.0
 10
270.441520
 20
-28.866830
 30
0.0
  0
SPLINE
  5
173
100
AcDbEntity
  8
Layer_1
 62
7
100
AcDbSpline
 70
8
 71
3
 72
8
 73
4
 74
0
 40
0
 40
0
 40
0
 40
0
 40
1
 40
1
 40
1
 40
1
 10
288.740840
 20
-64.446440
 30
0.0
 10
288.740840
 20
-64.968049
 30
0.0
 10
288.533632
 20
-65.468295
 30
0.0
 10
288.164798
 20
-65.837128
 30
0.0
  0
SPLINE
  5
174
100
AcDbEntity
  8
Layer_1
 62
7
100
AcDbSpline
 70
8
 71
3
 72
8
 73
4
 74
0
 40
0
 40
0
 40
0
 40
0
 40
1
 40
1
 40
1
 40
1
 10
288.164798
 20
-65.837128
 30
0.0
 10
287.795965
 20
-66.205962
 30
0.0
 10
287.295719
 20
-66.413170
 30
0.0
 10
286.774110
 20
-66.413170
 30
0.0
  0
SPLINE
  5
175
100
AcDbEntity
  8
Layer_1
 62
7
100
AcDbSpline
 70
8
 71
3
 72
8
 73
4
 74
0
 40
0
 40
0
 40
0
 40
0
 40
1
 40
1
 40
1
 40
1
 10
286.774110
 20
-66.413170
 30
0.0
 10
286.252501
 20
-66.413170
 30
0.0
 10
285.752255
 20
-66.205962
 30
0.0
 10
285.383422
 20
-65.837128
 30
0.0
  0
SPLINE
  5
176
100
AcDbEntity
  8
Layer_1
 62
7
100
AcDbSpline
 70
8
 71
3
 72
8
 73
4
 74
0
 40
0
 40
0
 40
0
 40
0
 40
1
 40
1
 40
1
 40
1
 10
285.383422
 20
-65.837128
 30
0.0
 10
285.014588
 20
-65.468295
 30
0.0
 10
284.807380
 20
-64.968049
 30
0.0
 10
284.807380
 20
-64.446440
 30
0.0
  0
SPLINE
  5
177
100
AcDbEntity
  8
Layer_1
 62
7
100
AcDbSpline
 70
8
 71
3
 72
8
 73
4
 74
0
 40
0
 40
0
 40
0
 40
0
 40
1
 40
1
 40
1
 40
1
 10
284.807380
 20
-64.446440
 30
0.0
 10
284.807380
 20
-63.924831
 30
0.0
 10
285.014588
 20
-63.424585
 30
0.0
 10
285.383422
 20
-63.055752
 30
0.0
  0
SPLINE
  5
178
100
AcDbEntity
  8
Layer_1
 62
7
100
AcDbSpline
 70
8
 71
3
 72
8
 73
4
 74
0
 40
0
 40
0
 40
0
 40
0
 40
1
 40
1
 40
1
 40
1
 10
285.383422
 20
-63.055752
 30
0.0
 10
285.752255
 20
-62.686918
 30
0.0
 10
286.252501
 20
-62.479710
 30
0.0
 10
286.774110
 20
-62.479710
 30
0.0
  0
SPLINE
  5
179
100
AcDbEntity
  8
Layer_1
 62
7
100
AcDbSpline
 70
8
 71
3
 72
8
 73
4
 74
0
 40
0
 40
0
 40
0
 40
0
 40
1
 40
1
 40
1
 40
1
 10
286.774110
 20
-62.479710
 30
0.0
 10
287.295719
 20
-62.479710
 30
0.0
 10
287.795965
 20
-62.686918
 30
0.0
 10
288.164798
 20
-63.055752
 30
0.0
  0
SPLINE
  5
17a
100
AcDbEntity
  8
Layer_1
 62
7
100
AcDbSpline
 70
8
 71
3
 72
8
 73
4
 74
0
 40
0
 40
0
 40
0
 40
0
 40
1
 40
1
 40
1
 40
1
 10
288.164798
 20
-63.055752
 30
0.0
 10
288.533632
 20
-63.424585
 30
0.0
 10
288.740840
 20
-63.924831
 30
0.0
 10
288.740840
 20
-64.446440
 30
0.0
  0
LWPOLYLINE
  5
17b
100
AcDbEntity
  8
Layer_1
 62
7
100
AcDbPolyline
 90
4
 70
1
 10
282.504830
 20
24.824940
 30
0.0
 10
288.989740
 20
24.824940
 30
0.0
 10
288.989740
 20
-24.828240
 30
0.0
 10
282.504830
 20
-24.828240
 30
0.0
  0
SPLINE
  5
17c
100
AcDbEntity
  8
Layer_1
 62
7
100
AcDbSpline
 70
8
 71
3
 72
8
 73
4
 74
0
 40
0
 40
0
 40
0
 40
0
 40
1
 40
1
 40
1
 40
1
 10
288.711720
 20
-164.411070
 30
0.0
 10
288.711721
 20
-165.497261
 30
0.0
 10
287.831191
 20
-166.377795
 30
0.0
 10
286.745000
 20
-166.377800
 30
0.0
  0
SPLINE
  5
17d
100
AcDbEntity
  8
Layer_1
 62
7
100
AcDbSpline
 70
8
 71
3
 72
8
 73
4
 74
0
 40
0
 40
0
 40
0
 40
0
 40
1
 40
1
 40
1
 40
1
 10
286.745000
 20
-166.377800
 30
0.0
 10
286.223391
 20
-166.377800
 30
0.0
 10
285.723145
 20
-166.170592
 30
0.0
 10
285.354312
 20
-165.801758
 30
0.0
  0
SPLINE
  5
17e
100
AcDbEntity
  8
Layer_1
 62
7
100
AcDbSpline
 70
8
 71
3
 72
8
 73
4
 74
0
 40
0
 40
0
 40
0
 40
0
 40
1
 40
1
 40
1
 40
1
 10
285.354312
 20
-165.801758
 30
0.0
 10
284.985478
 20
-165.432925
 30
0.0
 10
284.778270
 20
-164.932679
 30
0.0
 10
284.778270
 20
-164.411070
 30
0.0
  0
SPLINE
  5
17f
100
AcDbEntity
  8
Layer_1
 62
7
100
AcDbSpline
 70
8
 71
3
 72
8
 73
4
 74
0
 40
0
 40
0
 40
0
 40
0
 40
1
 40
1
 40
1
 40
1
 10
284.778270
 20
-164.411070
 30
0.0
 10
284.778270
 20
-163.889461
 30
0.0
 10
284.985478
 20
-163.389215
 30
0.0
 10
285.354312
 20
-163.020382
 30
0.0
  0
SPLINE
  5
180
100
AcDbEntity
  8
Layer_1
 62
7
100
AcDbSpline
 70
8
 71
3
 72
8
 73
4
 74
0
 40
0
 40
0
 40
0
 40
0
 40
1
 40
1
 40
1
 40
1
 10
285.354312
 20
-163.020382
 30
0.0
 10
285.723145
 20
-162.651548
 30
0.0
 10
286.223391
 20
-162.444340
 30
0.0
 10
286.745000
 20
-162.444340
 30
0.0
  0
SPLINE
  5
181
100
AcDbEntity
  8
Layer_1
 62
7
100
AcDbSpline
 70
8
 71
3
 72
8
 73
4
 74
0
 40
0
 40
0
 40
0
 40
0
 40
1
 40
1
 40
1
 40
1
 10
286.745000
 20
-162.444340
 30
0.0
 10
287.831191
 20
-162.444345
 30
0.0
 10
288.711721
 20
-163.324879
 30
0.0
 10
288.711720
 20
-164.411070
 30
0.0
  0
LWPOLYLINE
  5
182
100
AcDbEntity
  8
Layer_1
 62
7
100
AcDbPolyline
 90
1
 70
1
 10
288.740840
 20
-64.446440
 30
0.0
  0
SPLINE
  5
183
100
AcDbEntity
  8
Layer_1
 62
7
100
AcDbSpline
 70
8
 71
3
 72
8
 73
4
 74
0
 40
0
 40
0
 40
0
 40
0
 40
1
 40
1
 40
1
 40
1
 10
289.114070
 20
-32.472050
 30
0.0
 10
289.114065
 20
-33.558241
 30
0.0
 10
288.233531
 20
-34.438771
 30
0.0
 10
287.147340
 20
-34.438770
 30
0.0
  0
SPLINE
  5
184
100
AcDbEntity
  8
Layer_1
 62
7
100
AcDbSpline
 70
8
 71
3
 72
8
 73
4
 74
0
 40
0
 40
0
 40
0
 40
0
 40
1
 40
1
 40
1
 40
1
 10
287.147340
 20
-34.438770
 30
0.0
 10
286.061149
 20
-34.438771
 30
0.0
 10
285.180615
 20
-33.558241
 30
0.0
 10
285.180610
 20
-32.472050
 30
0.0
  0
SPLINE
  5
185
100
AcDbEntity
  8
Layer_1
 62
7
100
AcDbSpline
 70
8
 71
3
 72
8
 73
4
 74
0
 40
0
 40
0
 40
0
 40
0
 40
1
 40
1
 40
1
 40
1
 10
285.180610
 20
-32.472050
 30
0.0
 10
285.180610
 20
-31.950441
 30
0.0
 10
285.387818
 20
-31.450195
 30
0.0
 10
285.756652
 20
-31.081362
 30
0.0
  0
SPLINE
  5
186
100
AcDbEntity
  8
Layer_1
 62
7
100
AcDbSpline
 70
8
 71
3
 72
8
 73
4
 74
0
 40
0
 40
0
 40
0
 40
0
 40
1
 40
1
 40
1
 40
1
 10
285.756652
 20
-31.081362
 30
0.0
 10
286.125485
 20
-30.712528
 30
0.0
 10
286.625731
 20
-30.505320
 30
0.0
 10
287.147340
 20
-30.505320
 30
0.0
  0
SPLINE
  5
187
100
AcDbEntity
  8
Layer_1
 62
7
100
AcDbSpline
 70
8
 71
3
 72
8
 73
4
 74
0
 40
0
 40
0
 40
0
 40
0
 40
1
 40
1
 40
1
 40
1
 10
287.147340
 20
-30.505320
 30
0.0
 10
287.668949
 20
-30.505320
 30
0.0
 10
288.169195
 20
-30.712528
 30
0.0
 10
288.538028
 20
-31.081362
 30
0.0
  0
SPLINE
  5
188
100
AcDbEntity
  8
Layer_1
 62
7
100
AcDbSpline
 70
8
 71
3
 72
8
 73
4
 74
0
 40
0
 40
0
 40
0
 40
0
 40
1
 40
1
 40
1
 40
1
 10
288.538028
 20
-31.081362
 30
0.0
 10
288.906862
 20
-31.450195
 30
0.0
 10
289.114070
 20
-31.950441
 30
0.0
 10
289.114070
 20
-32.472050
 30
0.0
  0
LWPOLYLINE
  5
189
100
AcDbEntity
  8
Layer_1
 62
7
100
AcDbPolyline
 90
1
 70
1
 10
288.711720
 20
-164.411070
 30
0.0
  0
SPLINE
  5
18a
100
AcDbEntity
  8
Layer_1
 62
7
100
AcDbSpline
 70
8
 71
3
 72
8
 73
4
 74
0
 40
0
 40
0
 40
0
 40
0
 40
1
 40
1
 40
1
 40
1
 10
289.151600
 20
32.474580
 30
0.0
 10
289.151601
 20
31.388389
 30
0.0
 10
288.271071
 20
30.507855
 30
0.0
 10
287.184880
 20
30.507850
 30
0.0
  0
SPLINE
  5
18b
100
AcDbEntity
  8
Layer_1
 62
7
100
AcDbSpline
 70
8
 71
3
 72
8
 73
4
 74
0
 40
0
 40
0
 40
0
 40
0
 40
1
 40
1
 40
1
 40
1
 10
287.184880
 20
30.507850
 30
0.0
 10
286.663271
 20
30.507850
 30
0.0
 10
286.163025
 20
30.715058
 30
0.0
 10
285.794192
 20
31.083892
 30
0.0
  0
SPLINE
  5
18c
100
AcDbEntity
  8
Layer_1
 62
7
100
AcDbSpline
 70
8
 71
3
 72
8
 73
4
 74
0
 40
0
 40
0
 40
0
 40
0
 40
1
 40
1
 40
1
 40
1
 10
285.794192
 20
31.083892
 30
0.0
 10
285.425358
 20
31.452725
 30
0.0
 10
285.218150
 20
31.952971
 30
0.0
 10
285.218150
 20
32.474580
 30
0.0
  0
SPLINE
  5
18d
100
AcDbEntity
  8
Layer_1
 62
7
100
AcDbSpline
 70
8
 71
3
 72
8
 73
4
 74
0
 40
0
 40
0
 40
0
 40
0
 40
1
 40
1
 40
1
 40
1
 10
285.218150
 20
32.474580
 30
0.0
 10
285.218150
 20
32.996189
 30
0.0
 10
285.425358
 20
33.496435
 30
0.0
 10
285.794192
 20
33.865268
 30
0.0
  0
SPLINE
  5
18e
100
AcDbEntity
  8
Layer_1
 62
7
100
AcDbSpline
 70
8
 71
3
 72
8
 73
4
 74
0
 40
0
 40
0
 40
0
 40
0
 40
1
 40
1
 40
1
 40
1
 10
285.794192
 20
33.865268
 30
0.0
 10
286.163025
 20
34.234102
 30
0.0
 10
286.663271
 20
34.441310
 30
0.0
 10
287.184880
 20
34.441310
 30
0.0
  0
SPLINE
  5
18f
100
AcDbEntity
  8
Layer_1
 62
7
100
AcDbSpline
 70
8
 71
3
 72
8
 73
4
 74
0
 40
0
 40
0
 40
0
 40
0
 40
1
 40
1
 40
1
 40
1
 10
287.184880
 20
34.441310
 30
0.0
 10
288.271071
 20
34.441305
 30
0.0
 10
289.151601
 20
33.560771
 30
0.0
 10
289.151600
 20
32.474580
 30
0.0
  0
LWPOLYLINE
  5
190
100
AcDbEntity
  8
Layer_1
 62
7
100
AcDbPolyline
 90
1
 70
1
 10
289.114070
 20
-32.472050
 30
0.0
  0
SPLINE
  5
191
100
AcDbEntity
  8
Layer_1
 62
7
100
AcDbSpline
 70
8
 71
3
 72
8
 73
4
 74
0
 40
0
 40
0
 40
0
 40
0
 40
1
 40
1
 40
1
 40
1
 10
322.216910
 20
-63.946040
 30
0.0
 10
322.216910
 20
-64.467649
 30
0.0
 10
322.009702
 20
-64.967895
 30
0.0
 10
321.640868
 20
-65.336728
 30
0.0
  0
SPLINE
  5
192
100
AcDbEntity
  8
Layer_1
 62
7
100
AcDbSpline
 70
8
 71
3
 72
8
 73
4
 74
0
 40
0
 40
0
 40
0
 40
0
 40
1
 40
1
 40
1
 40
1
 10
321.640868
 20
-65.336728
 30
0.0
 10
321.272035
 20
-65.705562
 30
0.0
 10
320.771789
 20
-65.912770
 30
0.0
 10
320.250180
 20
-65.912770
 30
0.0
  0
SPLINE
  5
193
100
AcDbEntity
  8
Layer_1
 62
7
100
AcDbSpline
 70
8
 71
3
 72
8
 73
4
 74
0
 40
0
 40
0
 40
0
 40
0
 40
1
 40
1
 40
1
 40
1
 10
320.250180
 20
-65.912770
 30
0.0
 10
319.728571
 20
-65.912770
 30
0.0
 10
319.228325
 20
-65.705562
 30
0.0
 10
318.859492
 20
-65.336728
 30
0.0
  0
SPLINE
  5
194
100
AcDbEntity
  8
Layer_1
 62
7
100
AcDbSpline
 70
8
 71
3
 72
8
 73
4
 74
0
 40
0
 40
0
 40
0
 40
0
 40
1
 40
1
 40
1
 40
1
 10
318.859492
 20
-65.336728
 30
0.0
 10
318.490658
 20
-64.967895
 30
0.0
 10
318.283450
 20
-64.467649
 30
0.0
 10
318.283450
 20
-63.946040
 30
0.0
  0
SPLINE
  5
195
100
AcDbEntity
  8
Layer_1
 62
7
100
AcDbSpline
 70
8
 71
3
 72
8
 73
4
 74
0
 40
0
 40
0
 40
0
 40
0
 40
1
 40
1
 40
1
 40
1
 10
318.283450
 20
-63.946040
 30
0.0
 10
318.283455
 20
-62.859849
 30
0.0
 10
319.163989
 20
-61.979319
 30
0.0
 10
320.250180
 20
-61.979320
 30
0.0
  0
SPLINE
  5
196
100
AcDbEntity
  8
Layer_1
 62
7
100
AcDbSpline
 70
8
 71
3
 72
8
 73
4
 74
0
 40
0
 40
0
 40
0
 40
0
 40
1
 40
1
 40
1
 40
1
 10
320.250180
 20
-61.979320
 30
0.0
 10
321.336371
 20
-61.979319
 30
0.0
 10
322.216905
 20
-62.859849
 30
0.0
 10
322.216910
 20
-63.946040
 30
0.0
  0
LWPOLYLINE
  5
197
100
AcDbEntity
  8
Layer_1
 62
7
100
AcDbPolyline
 90
1
 70
1
 10
289.151600
 20
32.474580
 30
0.0
  0
SPLINE
  5
198
100
AcDbEntity
  8
Layer_1
 62
7
100
AcDbSpline
 70
8
 71
3
 72
8
 73
4
 74
0
 40
0
 40
0
 40
0
 40
0
 40
1
 40
1
 40
1
 40
1
 10
387.299370
 20
-63.946040
 30
0.0
 10
387.299370
 20
-64.467649
 30
0.0
 10
387.092162
 20
-64.967895
 30
0.0
 10
386.723328
 20
-65.336728
 30
0.0
  0
SPLINE
  5
199
100
AcDbEntity
  8
Layer_1
 62
7
100
AcDbSpline
 70
8
 71
3
 72
8
 73
4
 74
0
 40
0
 40
0
 40
0
 40
0
 40
1
 40
1
 40
1
 40
1
 10
386.723328
 20
-65.336728
 30
0.0
 10
386.354495
 20
-65.705562
 30
0.0
 10
385.854249
 20
-65.912770
 30
0.0
 10
385.332640
 20
-65.912770
 30
0.0
  0
SPLINE
  5
19a
100
AcDbEntity
  8
Layer_1
 62
7
100
AcDbSpline
 70
8
 71
3
 72
8
 73
4
 74
0
 40
0
 40
0
 40
0
 40
0
 40
1
 40
1
 40
1
 40
1
 10
385.332640
 20
-65.912770
 30
0.0
 10
384.811031
 20
-65.912770
 30
0.0
 10
384.310785
 20
-65.705562
 30
0.0
 10
383.941952
 20
-65.336728
 30
0.0
  0
SPLINE
  5
19b
100
AcDbEntity
  8
Layer_1
 62
7
100
AcDbSpline
 70
8
 71
3
 72
8
 73
4
 74
0
 40
0
 40
0
 40
0
 40
0
 40
1
 40
1
 40
1
 40
1
 10
383.941952
 20
-65.336728
 30
0.0
 10
383.573118
 20
-64.967895
 30
0.0
 10
383.365910
 20
-64.467649
 30
0.0
 10
383.365910
 20
-63.946040
 30
0.0
  0
SPLINE
  5
19c
100
AcDbEntity
  8
Layer_1
 62
7
100
AcDbSpline
 70
8
 71
3
 72
8
 73
4
 74
0
 40
0
 40
0
 40
0
 40
0
 40
1
 40
1
 40
1
 40
1
 10
383.365910
 20
-63.946040
 30
0.0
 10
383.365915
 20
-62.859849
 30
0.0
 10
384.246449
 20
-61.979319
 30
0.0
 10
385.332640
 20
-61.979320
 30
0.0
  0
SPLINE
  5
19d
100
AcDbEntity
  8
Layer_1
 62
7
100
AcDbSpline
 70
8
 71
3
 72
8
 73
4
 74
0
 40
0
 40
0
 40
0
 40
0
 40
1
 40
1
 40
1
 40
1
 10
385.332640
 20
-61.979320
 30
0.0
 10
386.418831
 20
-61.979319
 30
0.0
 10
387.299365
 20
-62.859849
 30
0.0
 10
387.299370
 20
-63.946040
 30
0.0
  0
LWPOLYLINE
  5
19e
100
AcDbEntity
  8
Layer_1
 62
7
100
AcDbPolyline
 90
1
 70
1
 10
322.216910
 20
-63.946040
 30
0.0
  0
SPLINE
  5
19f
100
AcDbEntity
  8
Layer_1
 62
7
100
AcDbSpline
 70
8
 71
3
 72
8
 73
4
 74
0
 40
0
 40
0
 40
0
 40
0
 40
1
 40
1
 40
1
 40
1
 10
387.299370
 20
-164.028500
 30
0.0
 10
387.299370
 20
-164.550109
 30
0.0
 10
387.092162
 20
-165.050355
 30
0.0
 10
386.723328
 20
-165.419188
 30
0.0
  0
SPLINE
  5
1a0
100
AcDbEntity
  8
Layer_1
 62
7
100
AcDbSpline
 70
8
 71
3
 72
8
 73
4
 74
0
 40
0
 40
0
 40
0
 40
0
 40
1
 40
1
 40
1
 40
1
 10
386.723328
 20
-165.419188
 30
0.0
 10
386.354495
 20
-165.788022
 30
0.0
 10
385.854249
 20
-165.995230
 30
0.0
 10
385.332640
 20
-165.995230
 30
0.0
  0
SPLINE
  5
1a1
100
AcDbEntity
  8
Layer_1
 62
7
100
AcDbSpline
 70
8
 71
3
 72
8
 73
4
 74
0
 40
0
 40
0
 40
0
 40
0
 40
1
 40
1
 40
1
 40
1
 10
385.332640
 20
-165.995230
 30
0.0
 10
384.811031
 20
-165.995230
 30
0.0
 10
384.310785
 20
-165.788022
 30
0.0
 10
383.941952
 20
-165.419188
 30
0.0
  0
SPLINE
  5
1a2
100
AcDbEntity
  8
Layer_1
 62
7
100
AcDbSpline
 70
8
 71
3
 72
8
 73
4
 74
0
 40
0
 40
0
 40
0
 40
0
 40
1
 40
1
 40
1
 40
1
 10
383.941952
 20
-165.419188
 30
0.0
 10
383.573118
 20
-165.050355
 30
0.0
 10
383.365910
 20
-164.550109
 30
0.0
 10
383.365910
 20
-164.028500
 30
0.0
  0
SPLINE
  5
1a3
100
AcDbEntity
  8
Layer_1
 62
7
100
AcDbSpline
 70
8
 71
3
 72
8
 73
4
 74
0
 40
0
 40
0
 40
0
 40
0
 40
1
 40
1
 40
1
 40
1
 10
383.365910
 20
-164.028500
 30
0.0
 10
383.365910
 20
-163.506891
 30
0.0
 10
383.573118
 20
-163.006645
 30
0.0
 10
383.941952
 20
-162.637812
 30
0.0
  0
SPLINE
  5
1a4
100
AcDbEntity
  8
Layer_1
 62
7
100
AcDbSpline
 70
8
 71
3
 72
8
 73
4
 74
0
 40
0
 40
0
 40
0
 40
0
 40
1
 40
1
 40
1
 40
1
 10
383.941952
 20
-162.637812
 30
0.0
 10
384.310785
 20
-162.268978
 30
0.0
 10
384.811031
 20
-162.061770
 30
0.0
 10
385.332640
 20
-162.061770
 30
0.0
  0
SPLINE
  5
1a5
100
AcDbEntity
  8
Layer_1
 62
7
100
AcDbSpline
 70
8
 71
3
 72
8
 73
4
 74
0
 40
0
 40
0
 40
0
 40
0
 40
1
 40
1
 40
1
 40
1
 10
385.332640
 20
-162.061770
 30
0.0
 10
385.854249
 20
-162.061770
 30
0.0
 10
386.354495
 20
-162.268978
 30
0.0
 10
386.723328
 20
-162.637812
 30
0.0
  0
SPLINE
  5
1a6
100
AcDbEntity
  8
Layer_1
 62
7
100
AcDbSpline
 70
8
 71
3
 72
8
 73
4
 74
0
 40
0
 40
0
 40
0
 40
0
 40
1
 40
1
 40
1
 40
1
 10
386.723328
 20
-162.637812
 30
0.0
 10
387.092162
 20
-163.006645
 30
0.0
 10
387.299370
 20
-163.506891
 30
0.0
 10
387.299370
 20
-164.028500
 30
0.0
  0
LWPOLYLINE
  5
1a7
100
AcDbEntity
  8
Layer_1
 62
7
100
AcDbPolyline
 90
1
 70
1
 10
387.299370
 20
-63.946040
 30
0.0
  0
SPLINE
  5
1a8
100
AcDbEntity
  8
Layer_1
 62
7
100
AcDbSpline
 70
8
 71
3
 72
8
 73
4
 74
0
 40
0
 40
0
 40
0
 40
0
 40
1
 40
1
 40
1
 40
1
 10
322.216910
 20
-164.028500
 30
0.0
 10
322.216910
 20
-164.550109
 30
0.0
 10
322.009702
 20
-165.050355
 30
0.0
 10
321.640868
 20
-165.419188
 30
0.0
  0
SPLINE
  5
1a9
100
AcDbEntity
  8
Layer_1
 62
7
100
AcDbSpline
 70
8
 71
3
 72
8
 73
4
 74
0
 40
0
 40
0
 40
0
 40
0
 40
1
 40
1
 40
1
 40
1
 10
321.640868
 20
-165.419188
 30
0.0
 10
321.272035
 20
-165.788022
 30
0.0
 10
320.771789
 20
-165.995230
 30
0.0
 10
320.250180
 20
-165.995230
 30
0.0
  0
SPLINE
  5
1aa
100
AcDbEntity
  8
Layer_1
 62
7
100
AcDbSpline
 70
8
 71
3
 72
8
 73
4
 74
0
 40
0
 40
0
 40
0
 40
0
 40
1
 40
1
 40
1
 40
1
 10
320.250180
 20
-165.995230
 30
0.0
 10
319.728571
 20
-165.995230
 30
0.0
 10
319.228325
 20
-165.788022
 30
0.0
 10
318.859492
 20
-165.419188
 30
0.0
  0
SPLINE
  5
1ab
100
AcDbEntity
  8
Layer_1
 62
7
100
AcDbSpline
 70
8
 71
3
 72
8
 73
4
 74
0
 40
0
 40
0
 40
0
 40
0
 40
1
 40
1
 40
1
 40
1
 10
318.859492
 20
-165.419188
 30
0.0
 10
318.490658
 20
-165.050355
 30
0.0
 10
318.283450
 20
-164.550109
 30
0.0
 10
318.283450
 20
-164.028500
 30
0.0
  0
SPLINE
  5
1ac
100
AcDbEntity
  8
Layer_1
 62
7
100
AcDbSpline
 70
8
 71
3
 72
8
 73
4
 74
0
 40
0
 40
0
 40
0
 40
0
 40
1
 40
1
 40
1
 40
1
 10
318.283450
 20
-164.028500
 30
0.0
 10
318.283450
 20
-163.506891
 30
0.0
 10
318.490658
 20
-163.006645
 30
0.0
 10
318.859492
 20
-162.637812
 30
0.0
  0
SPLINE
  5
1ad
100
AcDbEntity
  8
Layer_1
 62
7
100
AcDbSpline
 70
8
 71
3
 72
8
 73
4
 74
0
 40
0
 40
0
 40
0
 40
0
 40
1
 40
1
 40
1
 40
1
 10
318.859492
 20
-162.637812
 30
0.0
 10
319.228325
 20
-162.268978
 30
0.0
 10
319.728571
 20
-162.061770
 30
0.0
 10
320.250180
 20
-162.061770
 30
0.0
  0
SPLINE
  5
1ae
100
AcDbEntity
  8
Layer_1
 62
7
100
AcDbSpline
 70
8
 71
3
 72
8
 73
4
 74
0
 40
0
 40
0
 40
0
 40
0
 40
1
 40
1
 40
1
 40
1
 10
320.250180
 20
-162.061770
 30
0.0
 10
320.771789
 20
-162.061770
 30
0.0
 10
321.272035
 20
-162.268978
 30
0.0
 10
321.640868
 20
-162.637812
 30
0.0
  0
SPLINE
  5
1af
100
AcDbEntity
  8
Layer_1
 62
7
100
AcDbSpline
 70
8
 71
3
 72
8
 73
4
 74
0
 40
0
 40
0
 40
0
 40
0
 40
1
 40
1
 40
1
 40
1
 10
321.640868
 20
-162.637812
 30
0.0
 10
322.009702
 20
-163.006645
 30
0.0
 10
322.216910
 20
-163.506891
 30
0.0
 10
322.216910
 20
-164.028500
 30
0.0
  0
LWPOLYLINE
  5
1b0
100
AcDbEntity
  8
Layer_1
 62
7
100
AcDbPolyline
 90
1
 70
1
 10
387.299370
 20
-164.028500
 30
0.0
  0
SPLINE
  5
1b1
100
AcDbEntity
  8
Layer_1
 62
7
100
AcDbSpline
 70
8
 71
3
 72
8
 73
4
 74
0
 40
0
 40
0
 40
0
 40
0
 40
1
 40
1
 40
1
 40
1
 10
292.752130
 20
169.984600
 30
0.0
 10
292.752130
 20
169.462991
 30
0.0
 10
292.544922
 20
168.962745
 30
0.0
 10
292.176088
 20
168.593912
 30
0.0
  0
SPLINE
  5
1b2
100
AcDbEntity
  8
Layer_1
 62
7
100
AcDbSpline
 70
8
 71
3
 72
8
 73
4
 74
0
 40
0
 40
0
 40
0
 40
0
 40
1
 40
1
 40
1
 40
1
 10
292.176088
 20
168.593912
 30
0.0
 10
291.807255
 20
168.225078
 30
0.0
 10
291.307009
 20
168.017870
 30
0.0
 10
290.785400
 20
168.017870
 30
0.0
  0
SPLINE
  5
1b3
100
AcDbEntity
  8
Layer_1
 62
7
100
AcDbSpline
 70
8
 71
3
 72
8
 73
4
 74
0
 40
0
 40
0
 40
0
 40
0
 40
1
 40
1
 40
1
 40
1
 10
290.785400
 20
168.017870
 30
0.0
 10
290.263791
 20
168.017870
 30
0.0
 10
289.763545
 20
168.225078
 30
0.0
 10
289.394712
 20
168.593912
 30
0.0
  0
SPLINE
  5
1b4
100
AcDbEntity
  8
Layer_1
 62
7
100
AcDbSpline
 70
8
 71
3
 72
8
 73
4
 74
0
 40
0
 40
0
 40
0
 40
0
 40
1
 40
1
 40
1
 40
1
 10
289.394712
 20
168.593912
 30
0.0
 10
289.025878
 20
168.962745
 30
0.0
 10
288.818670
 20
169.462991
 30
0.0
 10
288.818670
 20
169.984600
 30
0.0
  0
SPLINE
  5
1b5
100
AcDbEntity
  8
Layer_1
 62
7
100
AcDbSpline
 70
8
 71
3
 72
8
 73
4
 74
0
 40
0
 40
0
 40
0
 40
0
 40
1
 40
1
 40
1
 40
1
 10
288.818670
 20
169.984600
 30
0.0
 10
288.818670
 20
170.506209
 30
0.0
 10
289.025878
 20
171.006455
 30
0.0
 10
289.394712
 20
171.375288
 30
0.0
  0
SPLINE
  5
1b6
100
AcDbEntity
  8
Layer_1
 62
7
100
AcDbSpline
 70
8
 71
3
 72
8
 73
4
 74
0
 40
0
 40
0
 40
0
 40
0
 40
1
 40
1
 40
1
 40
1
 10
289.394712
 20
171.375288
 30
0.0
 10
289.763545
 20
171.744122
 30
0.0
 10
290.263791
 20
171.951330
 30
0.0
 10
290.785400
 20
171.951330
 30
0.0
  0
SPLINE
  5
1b7
100
AcDbEntity
  8
Layer_1
 62
7
100
AcDbSpline
 70
8
 71
3
 72
8
 73
4
 74
0
 40
0
 40
0
 40
0
 40
0
 40
1
 40
1
 40
1
 40
1
 10
290.785400
 20
171.951330
 30
0.0
 10
291.307009
 20
171.951330
 30
0.0
 10
291.807255
 20
171.744122
 30
0.0
 10
292.176088
 20
171.375288
 30
0.0
  0
SPLINE
  5
1b8
100
AcDbEntity
  8
Layer_1
 62
7
100
AcDbSpline
 70
8
 71
3
 72
8
 73
4
 74
0
 40
0
 40
0
 40
0
 40
0
 40
1
 40
1
 40
1
 40
1
 10
292.176088
 20
171.375288
 30
0.0
 10
292.544922
 20
171.006455
 30
0.0
 10
292.752130
 20
170.506209
 30
0.0
 10
292.752130
 20
169.984600
 30
0.0
  0
LWPOLYLINE
  5
1b9
100
AcDbEntity
  8
Layer_1
 62
7
100
AcDbPolyline
 90
1
 70
1
 10
322.216910
 20
-164.028500
 30
0.0
  0
SPLINE
  5
1ba
100
AcDbEntity
  8
Layer_1
 62
7
100
AcDbSpline
 70
8
 71
3
 72
8
 73
4
 74
0
 40
0
 40
0
 40
0
 40
0
 40
1
 40
1
 40
1
 40
1
 10
292.676600
 20
269.948021
 30
0.0
 10
292.676600
 20
269.426412
 30
0.0
 10
292.469392
 20
268.926166
 30
0.0
 10
292.100558
 20
268.557333
 30
0.0
  0
SPLINE
  5
1bb
100
AcDbEntity
  8
Layer_1
 62
7
100
AcDbSpline
 70
8
 71
3
 72
8
 73
4
 74
0
 40
0
 40
0
 40
0
 40
0
 40
1
 40
1
 40
1
 40
1
 10
292.100558
 20
268.557333
 30
0.0
 10
291.731725
 20
268.188500
 30
0.0
 10
291.231479
 20
267.981292
 30
0.0
 10
290.709870
 20
267.981292
 30
0.0
  0
SPLINE
  5
1bc
100
AcDbEntity
  8
Layer_1
 62
7
100
AcDbSpline
 70
8
 71
3
 72
8
 73
4
 74
0
 40
0
 40
0
 40
0
 40
0
 40
1
 40
1
 40
1
 40
1
 10
290.709870
 20
267.981292
 30
0.0
 10
290.188261
 20
267.981292
 30
0.0
 10
289.688015
 20
268.188500
 30
0.0
 10
289.319182
 20
268.557333
 30
0.0
  0
SPLINE
  5
1bd
100
AcDbEntity
  8
Layer_1
 62
7
100
AcDbSpline
 70
8
 71
3
 72
8
 73
4
 74
0
 40
0
 40
0
 40
0
 40
0
 40
1
 40
1
 40
1
 40
1
 10
289.319182
 20
268.557333
 30
0.0
 10
288.950348
 20
268.926166
 30
0.0
 10
288.743140
 20
269.426412
 30
0.0
 10
288.743140
 20
269.948021
 30
0.0
  0
SPLINE
  5
1be
100
AcDbEntity
  8
Layer_1
 62
7
100
AcDbSpline
 70
8
 71
3
 72
8
 73
4
 74
0
 40
0
 40
0
 40
0
 40
0
 40
1
 40
1
 40
1
 40
1
 10
288.743140
 20
269.948021
 30
0.0
 10
288.743140
 20
270.469630
 30
0.0
 10
288.950348
 20
270.969876
 30
0.0
 10
289.319182
 20
271.338709
 30
0.0
  0
SPLINE
  5
1bf
100
AcDbEntity
  8
Layer_1
 62
7
100
AcDbSpline
 70
8
 71
3
 72
8
 73
4
 74
0
 40
0
 40
0
 40
0
 40
0
 40
1
 40
1
 40
1
 40
1
 10
289.319182
 20
271.338709
 30
0.0
 10
289.688015
 20
271.707542
 30
0.0
 10
290.188261
 20
271.914750
 30
0.0
 10
290.709870
 20
271.914750
 30
0.0
  0
SPLINE
  5
1c0
100
AcDbEntity
  8
Layer_1
 62
7
100
AcDbSpline
 70
8
 71
3
 72
8
 73
4
 74
0
 40
0
 40
0
 40
0
 40
0
 40
1
 40
1
 40
1
 40
1
 10
290.709870
 20
271.914750
 30
0.0
 10
291.231479
 20
271.914750
 30
0.0
 10
291.731725
 20
271.707542
 30
0.0
 10
292.100558
 20
271.338709
 30
0.0
  0
SPLINE
  5
1c1
100
AcDbEntity
  8
Layer_1
 62
7
100
AcDbSpline
 70
8
 71
3
 72
8
 73
4
 74
0
 40
0
 40
0
 40
0
 40
0
 40
1
 40
1
 40
1
 40
1
 10
292.100558
 20
271.338709
 30
0.0
 10
292.469392
 20
270.969876
 30
0.0
 10
292.676600
 20
270.469630
 30
0.0
 10
292.676600
 20
269.948021
 30
0.0
  0
LWPOLYLINE
  5
1c2
100
AcDbEntity
  8
Layer_1
 62
7
100
AcDbPolyline
 90
1
 70
1
 10
292.752130
 20
169.984600
 30
0.0
  0
SPLINE
  5
1c3
100
AcDbEntity
  8
Layer_1
 62
7
100
AcDbSpline
 70
8
 71
3
 72
8
 73
4
 74
0
 40
0
 40
0
 40
0
 40
0
 40
1
 40
1
 40
1
 40
1
 10
292.808560
 20
347.349571
 30
0.0
 10
292.808560
 20
346.827962
 30
0.0
 10
292.601352
 20
346.327716
 30
0.0
 10
292.232518
 20
345.958883
 30
0.0
  0
SPLINE
  5
1c4
100
AcDbEntity
  8
Layer_1
 62
7
100
AcDbSpline
 70
8
 71
3
 72
8
 73
4
 74
0
 40
0
 40
0
 40
0
 40
0
 40
1
 40
1
 40
1
 40
1
 10
292.232518
 20
345.958883
 30
0.0
 10
291.863685
 20
345.590050
 30
0.0
 10
291.363439
 20
345.382842
 30
0.0
 10
290.841830
 20
345.382842
 30
0.0
  0
SPLINE
  5
1c5
100
AcDbEntity
  8
Layer_1
 62
7
100
AcDbSpline
 70
8
 71
3
 72
8
 73
4
 74
0
 40
0
 40
0
 40
0
 40
0
 40
1
 40
1
 40
1
 40
1
 10
290.841830
 20
345.382842
 30
0.0
 10
290.320221
 20
345.382842
 30
0.0
 10
289.819975
 20
345.590050
 30
0.0
 10
289.451142
 20
345.958883
 30
0.0
  0
SPLINE
  5
1c6
100
AcDbEntity
  8
Layer_1
 62
7
100
AcDbSpline
 70
8
 71
3
 72
8
 73
4
 74
0
 40
0
 40
0
 40
0
 40
0
 40
1
 40
1
 40
1
 40
1
 10
289.451142
 20
345.958883
 30
0.0
 10
289.082308
 20
346.327716
 30
0.0
 10
288.875100
 20
346.827962
 30
0.0
 10
288.875100
 20
347.349571
 30
0.0
  0
SPLINE
  5
1c7
100
AcDbEntity
  8
Layer_1
 62
7
100
AcDbSpline
 70
8
 71
3
 72
8
 73
4
 74
0
 40
0
 40
0
 40
0
 40
0
 40
1
 40
1
 40
1
 40
1
 10
288.875100
 20
347.349571
 30
0.0
 10
288.875100
 20
347.871180
 30
0.0
 10
289.082308
 20
348.371426
 30
0.0
 10
289.451142
 20
348.740259
 30
0.0
  0
SPLINE
  5
1c8
100
AcDbEntity
  8
Layer_1
 62
7
100
AcDbSpline
 70
8
 71
3
 72
8
 73
4
 74
0
 40
0
 40
0
 40
0
 40
0
 40
1
 40
1
 40
1
 40
1
 10
289.451142
 20
348.740259
 30
0.0
 10
289.819975
 20
349.109092
 30
0.0
 10
290.320221
 20
349.316300
 30
0.0
 10
290.841830
 20
349.316300
 30
0.0
  0
SPLINE
  5
1c9
100
AcDbEntity
  8
Layer_1
 62
7
100
AcDbSpline
 70
8
 71
3
 72
8
 73
4
 74
0
 40
0
 40
0
 40
0
 40
0
 40
1
 40
1
 40
1
 40
1
 10
290.841830
 20
349.316300
 30
0.0
 10
291.363439
 20
349.316300
 30
0.0
 10
291.863685
 20
349.109092
 30
0.0
 10
292.232518
 20
348.740259
 30
0.0
  0
SPLINE
  5
1ca
100
AcDbEntity
  8
Layer_1
 62
7
100
AcDbSpline
 70
8
 71
3
 72
8
 73
4
 74
0
 40
0
 40
0
 40
0
 40
0
 40
1
 40
1
 40
1
 40
1
 10
292.232518
 20
348.740259
 30
0.0
 10
292.601352
 20
348.371426
 30
0.0
 10
292.808560
 20
347.871180
 30
0.0
 10
292.808560
 20
347.349571
 30
0.0
  0
LWPOLYLINE
  5
1cb
100
AcDbEntity
  8
Layer_1
 62
7
100
AcDbPolyline
 90
1
 70
1
 10
292.676600
 20
269.948021
 30
0.0
  0
SPLINE
  5
1cc
100
AcDbEntity
  8
Layer_1
 62
7
100
AcDbSpline
 70
8
 71
3
 72
8
 73
4
 74
0
 40
0
 40
0
 40
0
 40
0
 40
1
 40
1
 40
1
 40
1
 10
292.808560
 20
412.186330
 30
0.0
 10
292.808560
 20
411.664721
 30
0.0
 10
292.601352
 20
411.164475
 30
0.0
 10
292.232518
 20
410.795642
 30
0.0
  0
SPLINE
  5
1cd
100
AcDbEntity
  8
Layer_1
 62
7
100
AcDbSpline
 70
8
 71
3
 72
8
 73
4
 74
0
 40
0
 40
0
 40
0
 40
0
 40
1
 40
1
 40
1
 40
1
 10
292.232518
 20
410.795642
 30
0.0
 10
291.863685
 20
410.426808
 30
0.0
 10
291.363439
 20
410.219600
 30
0.0
 10
290.841830
 20
410.219600
 30
0.0
  0
SPLINE
  5
1ce
100
AcDbEntity
  8
Layer_1
 62
7
100
AcDbSpline
 70
8
 71
3
 72
8
 73
4
 74
0
 40
0
 40
0
 40
0
 40
0
 40
1
 40
1
 40
1
 40
1
 10
290.841830
 20
410.219600
 30
0.0
 10
290.320221
 20
410.219600
 30
0.0
 10
289.819975
 20
410.426808
 30
0.0
 10
289.451142
 20
410.795642
 30
0.0
  0
SPLINE
  5
1cf
100
AcDbEntity
  8
Layer_1
 62
7
100
AcDbSpline
 70
8
 71
3
 72
8
 73
4
 74
0
 40
0
 40
0
 40
0
 40
0
 40
1
 40
1
 40
1
 40
1
 10
289.451142
 20
410.795642
 30
0.0
 10
289.082308
 20
411.164475
 30
0.0
 10
288.875100
 20
411.664721
 30
0.0
 10
288.875100
 20
412.186330
 30
0.0
  0
SPLINE
  5
1d0
100
AcDbEntity
  8
Layer_1
 62
7
100
AcDbSpline
 70
8
 71
3
 72
8
 73
4
 74
0
 40
0
 40
0
 40
0
 40
0
 40
1
 40
1
 40
1
 40
1
 10
288.875100
 20
412.186330
 30
0.0
 10
288.875100
 20
412.707939
 30
0.0
 10
289.082308
 20
413.208185
 30
0.0
 10
289.451142
 20
413.577018
 30
0.0
  0
SPLINE
  5
1d1
100
AcDbEntity
  8
Layer_1
 62
7
100
AcDbSpline
 70
8
 71
3
 72
8
 73
4
 74
0
 40
0
 40
0
 40
0
 40
0
 40
1
 40
1
 40
1
 40
1
 10
289.451142
 20
413.577018
 30
0.0
 10
289.819975
 20
413.945852
 30
0.0
 10
290.320221
 20
414.153060
 30
0.0
 10
290.841830
 20
414.153060
 30
0.0
  0
SPLINE
  5
1d2
100
AcDbEntity
  8
Layer_1
 62
7
100
AcDbSpline
 70
8
 71
3
 72
8
 73
4
 74
0
 40
0
 40
0
 40
0
 40
0
 40
1
 40
1
 40
1
 40
1
 10
290.841830
 20
414.153060
 30
0.0
 10
291.363439
 20
414.153060
 30
0.0
 10
291.863685
 20
413.945852
 30
0.0
 10
292.232518
 20
413.577018
 30
0.0
  0
SPLINE
  5
1d3
100
AcDbEntity
  8
Layer_1
 62
7
100
AcDbSpline
 70
8
 71
3
 72
8
 73
4
 74
0
 40
0
 40
0
 40
0
 40
0
 40
1
 40
1
 40
1
 40
1
 10
292.232518
 20
413.577018
 30
0.0
 10
292.601352
 20
413.208185
 30
0.0
 10
292.808560
 20
412.707939
 30
0.0
 10
292.808560
 20
412.186330
 30
0.0
  0
LWPOLYLINE
  5
1d4
100
AcDbEntity
  8
Layer_1
 62
7
100
AcDbPolyline
 90
1
 70
1
 10
292.808560
 20
347.349571
 30
0.0
  0
SPLINE
  5
1d5
100
AcDbEntity
  8
Layer_1
 62
1
100
AcDbSpline
 70
8
 71
3
 72
8
 73
4
 74
0
 40
0
 40
0
 40
0
 40
0
 40
1
 40
1
 40
1
 40
1
 10
276.830270
 20
145.910780
 30
0.0
 10
276.830270
 20
146.432514
 30
0.0
 10
276.623012
 20
146.932879
 30
0.0
 10
276.254091
 20
147.301801
 30
0.0
  0
SPLINE
  5
1d6
100
AcDbEntity
  8
Layer_1
 62
1
100
AcDbSpline
 70
8
 71
3
 72
8
 73
4
 74
0
 40
0
 40
0
 40
0
 40
0
 40
1
 40
1
 40
1
 40
1
 10
276.254091
 20
147.301801
 30
0.0
 10
275.885169
 20
147.670722
 30
0.0
 10
275.384804
 20
147.877980
 30
0.0
 10
274.863070
 20
147.877980
 30
0.0
  0
SPLINE
  5
1d7
100
AcDbEntity
  8
Layer_1
 62
1
100
AcDbSpline
 70
8
 71
3
 72
8
 73
4
 74
0
 40
0
 40
0
 40
0
 40
0
 40
1
 40
1
 40
1
 40
1
 10
274.863070
 20
147.877980
 30
0.0
 10
274.341336
 20
147.877980
 30
0.0
 10
273.840971
 20
147.670722
 30
0.0
 10
273.472049
 20
147.301801
 30
0.0
  0
SPLINE
  5
1d8
100
AcDbEntity
  8
Layer_1
 62
1
100
AcDbSpline
 70
8
 71
3
 72
8
 73
4
 74
0
 40
0
 40
0
 40
0
 40
0
 40
1
 40
1
 40
1
 40
1
 10
273.472049
 20
147.301801
 30
0.0
 10
273.103128
 20
146.932879
 30
0.0
 10
272.895870
 20
146.432514
 30
0.0
 10
272.895870
 20
145.910780
 30
0.0
  0
SPLINE
  5
1d9
100
AcDbEntity
  8
Layer_1
 62
1
100
AcDbSpline
 70
8
 71
3
 72
8
 73
4
 74
0
 40
0
 40
0
 40
0
 40
0
 40
1
 40
1
 40
1
 40
1
 10
272.895870
 20
145.910780
 30
0.0
 10
272.895870
 20
145.389046
 30
0.0
 10
273.103128
 20
144.888681
 30
0.0
 10
273.472049
 20
144.519759
 30
0.0
  0
SPLINE
  5
1da
100
AcDbEntity
  8
Layer_1
 62
1
100
AcDbSpline
 70
8
 71
3
 72
8
 73
4
 74
0
 40
0
 40
0
 40
0
 40
0
 40
1
 40
1
 40
1
 40
1
 10
273.472049
 20
144.519759
 30
0.0
 10
273.840971
 20
144.150838
 30
0.0
 10
274.341336
 20
143.943580
 30
0.0
 10
274.863070
 20
143.943580
 30
0.0
  0
SPLINE
  5
1db
100
AcDbEntity
  8
Layer_1
 62
1
100
AcDbSpline
 70
8
 71
3
 72
8
 73
4
 74
0
 40
0
 40
0
 40
0
 40
0
 40
1
 40
1
 40
1
 40
1
 10
274.863070
 20
143.943580
 30
0.0
 10
275.384804
 20
143.943580
 30
0.0
 10
275.885169
 20
144.150838
 30
0.0
 10
276.254091
 20
144.519759
 30
0.0
  0
SPLINE
  5
1dc
100
AcDbEntity
  8
Layer_1
 62
1
100
AcDbSpline
 70
8
 71
3
 72
8
 73
4
 74
0
 40
0
 40
0
 40
0
 40
0
 40
1
 40
1
 40
1
 40
1
 10
276.254091
 20
144.519759
 30
0.0
 10
276.623012
 20
144.888681
 30
0.0
 10
276.830270
 20
145.389046
 30
0.0
 10
276.830270
 20
145.910780
 30
0.0
  0
LWPOLYLINE
  5
1dd
100
AcDbEntity
  8
Layer_1
 62
7
100
AcDbPolyline
 90
1
 70
1
 10
292.808560
 20
412.186330
 30
0.0
  0
SPLINE
  5
1de
100
AcDbEntity
  8
Layer_1
 62
1
100
AcDbSpline
 70
8
 71
3
 72
8
 73
4
 74
0
 40
0
 40
0
 40
0
 40
0
 40
1
 40
1
 40
1
 40
1
 10
175.393060
 20
294.016978
 30
0.0
 10
175.393060
 20
293.495244
 30
0.0
 10
175.185802
 20
292.994879
 30
0.0
 10
174.816880
 20
292.625957
 30
0.0
  0
SPLINE
  5
1df
100
AcDbEntity
  8
Layer_1
 62
1
100
AcDbSpline
 70
8
 71
3
 72
8
 73
4
 74
0
 40
0
 40
0
 40
0
 40
0
 40
1
 40
1
 40
1
 40
1
 10
174.816880
 20
292.625957
 30
0.0
 10
174.447959
 20
292.257036
 30
0.0
 10
173.947594
 20
292.049778
 30
0.0
 10
173.425860
 20
292.049778
 30
0.0
  0
SPLINE
  5
1e0
100
AcDbEntity
  8
Layer_1
 62
1
100
AcDbSpline
 70
8
 71
3
 72
8
 73
4
 74
0
 40
0
 40
0
 40
0
 40
0
 40
1
 40
1
 40
1
 40
1
 10
173.425860
 20
292.049778
 30
0.0
 10
172.904126
 20
292.049778
 30
0.0
 10
172.403761
 20
292.257036
 30
0.0
 10
172.034840
 20
292.625957
 30
0.0
  0
SPLINE
  5
1e1
100
AcDbEntity
  8
Layer_1
 62
1
100
AcDbSpline
 70
8
 71
3
 72
8
 73
4
 74
0
 40
0
 40
0
 40
0
 40
0
 40
1
 40
1
 40
1
 40
1
 10
172.034840
 20
292.625957
 30
0.0
 10
171.665918
 20
292.994879
 30
0.0
 10
171.458660
 20
293.495244
 30
0.0
 10
171.458660
 20
294.016978
 30
0.0
  0
SPLINE
  5
1e2
100
AcDbEntity
  8
Layer_1
 62
1
100
AcDbSpline
 70
8
 71
3
 72
8
 73
4
 74
0
 40
0
 40
0
 40
0
 40
0
 40
1
 40
1
 40
1
 40
1
 10
171.458660
 20
294.016978
 30
0.0
 10
171.458660
 20
294.538712
 30
0.0
 10
171.665918
 20
295.039077
 30
0.0
 10
172.034840
 20
295.407998
 30
0.0
  0
SPLINE
  5
1e3
100
AcDbEntity
  8
Layer_1
 62
1
100
AcDbSpline
 70
8
 71
3
 72
8
 73
4
 74
0
 40
0
 40
0
 40
0
 40
0
 40
1
 40
1
 40
1
 40
1
 10
172.034840
 20
295.407998
 30
0.0
 10
172.403761
 20
295.776920
 30
0.0
 10
172.904126
 20
295.984178
 30
0.0
 10
173.425860
 20
295.984178
 30
0.0
  0
SPLINE
  5
1e4
100
AcDbEntity
  8
Layer_1
 62
1
100
AcDbSpline
 70
8
 71
3
 72
8
 73
4
 74
0
 40
0
 40
0
 40
0
 40
0
 40
1
 40
1
 40
1
 40
1
 10
173.425860
 20
295.984178
 30
0.0
 10
173.947594
 20
295.984178
 30
0.0
 10
174.447959
 20
295.776920
 30
0.0
 10
174.816880
 20
295.407998
 30
0.0
  0
SPLINE
  5
1e5
100
AcDbEntity
  8
Layer_1
 62
1
100
AcDbSpline
 70
8
 71
3
 72
8
 73
4
 74
0
 40
0
 40
0
 40
0
 40
0
 40
1
 40
1
 40
1
 40
1
 10
174.816880
 20
295.407998
 30
0.0
 10
175.185802
 20
295.039077
 30
0.0
 10
175.393060
 20
294.538712
 30
0.0
 10
175.393060
 20
294.016978
 30
0.0
  0
LWPOLYLINE
  5
1e6
100
AcDbEntity
  8
Layer_1
 62
1
100
AcDbPolyline
 90
1
 70
1
 10
276.830270
 20
145.910780
 30
0.0
  0
SPLINE
  5
1e7
100
AcDbEntity
  8
Layer_1
 62
1
100
AcDbSpline
 70
8
 71
3
 72
8
 73
4
 74
0
 40
0
 40
0
 40
0
 40
0
 40
1
 40
1
 40
1
 40
1
 10
175.393060
 20
145.910780
 30
0.0
 10
175.393060
 20
146.432514
 30
0.0
 10
175.185802
 20
146.932879
 30
0.0
 10
174.816881
 20
147.301801
 30
0.0
  0
SPLINE
  5
1e8
100
AcDbEntity
  8
Layer_1
 62
1
100
AcDbSpline
 70
8
 71
3
 72
8
 73
4
 74
0
 40
0
 40
0
 40
0
 40
0
 40
1
 40
1
 40
1
 40
1
 10
174.816881
 20
147.301801
 30
0.0
 10
174.447959
 20
147.670722
 30
0.0
 10
173.947594
 20
147.877980
 30
0.0
 10
173.425860
 20
147.877980
 30
0.0
  0
SPLINE
  5
1e9
100
AcDbEntity
  8
Layer_1
 62
1
100
AcDbSpline
 70
8
 71
3
 72
8
 73
4
 74
0
 40
0
 40
0
 40
0
 40
0
 40
1
 40
1
 40
1
 40
1
 10
173.425860
 20
147.877980
 30
0.0
 10
172.904126
 20
147.877980
 30
0.0
 10
172.403761
 20
147.670722
 30
0.0
 10
172.034839
 20
147.301801
 30
0.0
  0
SPLINE
  5
1ea
100
AcDbEntity
  8
Layer_1
 62
1
100
AcDbSpline
 70
8
 71
3
 72
8
 73
4
 74
0
 40
0
 40
0
 40
0
 40
0
 40
1
 40
1
 40
1
 40
1
 10
172.034839
 20
147.301801
 30
0.0
 10
171.665918
 20
146.932879
 30
0.0
 10
171.458660
 20
146.432514
 30
0.0
 10
171.458660
 20
145.910780
 30
0.0
  0
SPLINE
  5
1eb
100
AcDbEntity
  8
Layer_1
 62
1
100
AcDbSpline
 70
8
 71
3
 72
8
 73
4
 74
0
 40
0
 40
0
 40
0
 40
0
 40
1
 40
1
 40
1
 40
1
 10
171.458660
 20
145.910780
 30
0.0
 10
171.458660
 20
145.389046
 30
0.0
 10
171.665918
 20
144.888681
 30
0.0
 10
172.034839
 20
144.519759
 30
0.0
  0
SPLINE
  5
1ec
100
AcDbEntity
  8
Layer_1
 62
1
100
AcDbSpline
 70
8
 71
3
 72
8
 73
4
 74
0
 40
0
 40
0
 40
0
 40
0
 40
1
 40
1
 40
1
 40
1
 10
172.034839
 20
144.519759
 30
0.0
 10
172.403761
 20
144.150838
 30
0.0
 10
172.904126
 20
143.943580
 30
0.0
 10
173.425860
 20
143.943580
 30
0.0
  0
SPLINE
  5
1ed
100
AcDbEntity
  8
Layer_1
 62
1
100
AcDbSpline
 70
8
 71
3
 72
8
 73
4
 74
0
 40
0
 40
0
 40
0
 40
0
 40
1
 40
1
 40
1
 40
1
 10
173.425860
 20
143.943580
 30
0.0
 10
173.947594
 20
143.943580
 30
0.0
 10
174.447959
 20
144.150838
 30
0.0
 10
174.816881
 20
144.519759
 30
0.0
  0
SPLINE
  5
1ee
100
AcDbEntity
  8
Layer_1
 62
1
100
AcDbSpline
 70
8
 71
3
 72
8
 73
4
 74
0
 40
0
 40
0
 40
0
 40
0
 40
1
 40
1
 40
1
 40
1
 10
174.816881
 20
144.519759
 30
0.0
 10
175.185802
 20
144.888681
 30
0.0
 10
175.393060
 20
145.389046
 30
0.0
 10
175.393060
 20
145.910780
 30
0.0
  0
LWPOLYLINE
  5
1ef
100
AcDbEntity
  8
Layer_1
 62
1
100
AcDbPolyline
 90
1
 70
1
 10
175.393060
 20
294.016978
 30
0.0
  0
SPLINE
  5
1f0
100
AcDbEntity
  8
Layer_1
 62
1
100
AcDbSpline
 70
8
 71
3
 72
8
 73
4
 74
0
 40
0
 40
0
 40
0
 40
0
 40
1
 40
1
 40
1
 40
1
 10
276.830270
 20
293.963236
 30
0.0
 10
276.830270
 20
293.441502
 30
0.0
 10
276.623012
 20
292.941137
 30
0.0
 10
276.254090
 20
292.572215
 30
0.0
  0
SPLINE
  5
1f1
100
AcDbEntity
  8
Layer_1
 62
1
100
AcDbSpline
 70
8
 71
3
 72
8
 73
4
 74
0
 40
0
 40
0
 40
0
 40
0
 40
1
 40
1
 40
1
 40
1
 10
276.254090
 20
292.572215
 30
0.0
 10
275.885169
 20
292.203294
 30
0.0
 10
275.384804
 20
291.996036
 30
0.0
 10
274.863070
 20
291.996036
 30
0.0
  0
SPLINE
  5
1f2
100
AcDbEntity
  8
Layer_1
 62
1
100
AcDbSpline
 70
8
 71
3
 72
8
 73
4
 74
0
 40
0
 40
0
 40
0
 40
0
 40
1
 40
1
 40
1
 40
1
 10
274.863070
 20
291.996036
 30
0.0
 10
274.341336
 20
291.996036
 30
0.0
 10
273.840971
 20
292.203294
 30
0.0
 10
273.472050
 20
292.572215
 30
0.0
  0
SPLINE
  5
1f3
100
AcDbEntity
  8
Layer_1
 62
1
100
AcDbSpline
 70
8
 71
3
 72
8
 73
4
 74
0
 40
0
 40
0
 40
0
 40
0
 40
1
 40
1
 40
1
 40
1
 10
273.472050
 20
292.572215
 30
0.0
 10
273.103128
 20
292.941137
 30
0.0
 10
272.895870
 20
293.441502
 30
0.0
 10
272.895870
 20
293.963236
 30
0.0
  0
SPLINE
  5
1f4
100
AcDbEntity
  8
Layer_1
 62
1
100
AcDbSpline
 70
8
 71
3
 72
8
 73
4
 74
0
 40
0
 40
0
 40
0
 40
0
 40
1
 40
1
 40
1
 40
1
 10
272.895870
 20
293.963236
 30
0.0
 10
272.895870
 20
294.484969
 30
0.0
 10
273.103128
 20
294.985334
 30
0.0
 10
273.472050
 20
295.354256
 30
0.0
  0
SPLINE
  5
1f5
100
AcDbEntity
  8
Layer_1
 62
1
100
AcDbSpline
 70
8
 71
3
 72
8
 73
4
 74
0
 40
0
 40
0
 40
0
 40
0
 40
1
 40
1
 40
1
 40
1
 10
273.472050
 20
295.354256
 30
0.0
 10
273.840971
 20
295.723177
 30
0.0
 10
274.341336
 20
295.930435
 30
0.0
 10
274.863070
 20
295.930435
 30
0.0
  0
SPLINE
  5
1f6
100
AcDbEntity
  8
Layer_1
 62
1
100
AcDbSpline
 70
8
 71
3
 72
8
 73
4
 74
0
 40
0
 40
0
 40
0
 40
0
 40
1
 40
1
 40
1
 40
1
 10
274.863070
 20
295.930435
 30
0.0
 10
275.384804
 20
295.930435
 30
0.0
 10
275.885169
 20
295.723177
 30
0.0
 10
276.254090
 20
295.354256
 30
0.0
  0
SPLINE
  5
1f7
100
AcDbEntity
  8
Layer_1
 62
1
100
AcDbSpline
 70
8
 71
3
 72
8
 73
4
 74
0
 40
0
 40
0
 40
0
 40
0
 40
1
 40
1
 40
1
 40
1
 10
276.254090
 20
295.354256
 30
0.0
 10
276.623012
 20
294.985334
 30
0.0
 10
276.830270
 20
294.484969
 30
0.0
 10
276.830270
 20
293.963236
 30
0.0
  0
LWPOLYLINE
  5
1f8
100
AcDbEntity
  8
Layer_1
 62
1
100
AcDbPolyline
 90
1
 70
1
 10
175.393060
 20
145.910780
 30
0.0
  0
LWPOLYLINE
  5
1f9
100
AcDbEntity
  8
Layer_1
 62
1
100
AcDbPolyline
 90
1
 70
1
 10
276.830270
 20
293.963236
 30
0.0
  0
ENDSEC
  0
SECTION
  2
OBJECTS
  0
DICTIONARY
  5
C
330
0
100
AcDbDictionary
  3
ACAD_GROUP
350
D
  3
ACAD_MLINESTYLE
350
17
  0
DICTIONARY
  5
D
330
C
100
AcDbDictionary
  0
DICTIONARY
  5
1A
330
C
100
AcDbDictionary
  0
DICTIONARY
  5
17
330
C
100
AcDbDictionary
  3
STANDARD
350
18
  0
DICTIONARY
  5
19
330
C
100
AcDbDictionary
  0
ENDSEC
  0
EOF
